<svg width="239" height="201" viewBox="0 0 239 201" fill="none" xmlns="http://www.w3.org/2000/svg">
<path d="M237.48 0.673584C236.94 0.799646 236.384 0.850151 235.83 0.823608C234.62 0.723608 233.08 2.19356 231.29 2.40356C229.49 2.62356 229.59 4.67359 229.02 6.05359C228.45 7.43359 227.01 7.90356 226.32 8.58356C225.63 9.27356 224.72 9.48356 222.94 9.58356C221.14 9.69356 219.98 9.68358 217.76 9.85358C215.54 10.0136 214.01 9.43355 213.48 8.64355C212.95 7.84355 212.53 7.47358 211.63 6.42358C211.116 5.82643 210.707 5.14687 210.42 4.41357C210.42 4.41357 210.15 5.25356 210.05 5.83356C209.95 6.42356 209.05 5.93359 208.31 4.99359C207.57 4.04359 208.09 2.82358 207.78 1.92358C207.47 1.02358 206.98 0.763611 206.98 0.763611L206.14 2.29358C205.61 3.25358 204.82 3.51355 204.19 3.14355C203.55 2.77355 203.29 2.34361 201.97 2.88361C200.65 3.40361 201.38 3.88355 201.38 4.20355C201.38 4.52355 201.12 5.62356 200.7 6.15356C200.28 6.68356 199.64 6.31361 199.48 6.57361C199.32 6.84361 199.64 7.95356 199.64 8.90356C199.64 9.85356 198.95 10.7536 198.05 11.9636C197.15 13.1836 194.31 14.9236 193.04 15.3536C191.77 15.7736 191.34 15.9336 191.14 17.5636C190.92 19.2036 192.19 20.2636 192.09 21.2136C191.99 22.1636 191.03 22.2736 190.92 23.0636C190.82 23.8636 192.46 24.5436 192.46 24.5436C192.46 24.5436 191.86 25.4936 191.19 25.7536C190.49 26.0236 189.19 25.4336 188.44 25.2836C187.7 25.1236 187.02 24.5436 185.96 24.1736C184.9 23.8036 184.58 24.4936 184 25.9136C183.42 27.3436 182.52 27.0736 181.15 27.7136C179.78 28.3436 179.45 28.9136 179.45 28.9136C179.45 28.9136 178.35 29.4136 178.35 28.4536C178.35 27.5036 177.35 25.6536 176.76 25.2836C176.18 24.9136 175.39 22.1636 175.29 21.8436C175.18 21.5236 173.86 21.5836 173.39 21.9436C172.91 22.3236 172.33 23.4836 171.37 24.7036C170.42 25.9136 171.37 26.1336 171.48 26.9236C171.59 27.7136 171.17 27.8236 171.17 28.8236C171.17 29.8236 171.37 30.8236 171.59 31.3536C171.79 31.8836 171.96 32.6836 171.9 33.8436C171.84 35.0036 170.8 34.7936 170.21 35.4736C169.63 36.1736 169.47 36.8536 169.26 37.1736C169.073 37.4869 168.617 37.4336 167.89 37.0136C167.15 36.5936 165.93 35.7436 164.77 35.4136C163.61 35.1036 161.29 35.5836 160.49 35.8436C159.69 36.1136 158.75 38.2236 157.95 38.3836C157.15 38.5436 156.1 38.6436 154.89 38.7036C153.69 38.7636 152.78 40.1236 151.99 41.0836C151.19 42.0236 149.39 42.7136 148.34 42.7136C146.6 42.8736 144.84 44.0736 143.37 44.4936L143.36 44.4836L143.6 44.8936L143.8 44.8736L143.56 44.9036C143.461 44.7812 143.393 44.6374 143.36 44.4836L143.26 44.3036L142.91 44.9736C141.38 45.0536 142.61 44.3336 142.45 44.1436C141.82 44.3636 141.97 44.4136 141.17 44.5836C140.48 44.7236 138.36 43.2936 137.66 43.2936C136.15 43.2936 135.63 42.6336 134.14 42.6436C133.46 42.6536 133.51 44.7436 133.04 44.7036C132.883 44.7026 132.729 44.665 132.59 44.5936L132.75 46.0936L131.95 46.5936L129.93 46.1636L127.61 46.0136L127.18 47.3936L126.53 48.4736L126.02 49.7736C126.02 49.7736 127.25 50.2136 127.82 50.1436C128.41 50.0736 129.28 50.5736 129.28 50.5736L129.64 51.3736L130.65 52.5236H132.45L133.76 53.1136L134.63 54.0436L136.01 54.9936L136.81 55.4236L137.78 56.1236C137.935 56.0619 138.073 55.9622 138.18 55.8336C138.63 55.2636 137.48 56.4336 138 55.9936C138.067 55.9469 138.2 55.9069 138.4 55.8736C138.34 55.9336 138.19 56.3936 138.14 56.1136C137.62 56.5436 138.76 55.3536 138.31 55.9136C137.88 56.5036 137.3 56.2436 136.41 56.2436C135.52 56.2436 134.78 55.9436 134.41 56.3036C134.05 56.6636 133.11 57.7336 132.51 57.8036C131.91 57.8736 130.96 57.7236 130.51 58.3636C130.06 59.0036 130.81 59.2936 130.67 60.0836C130.52 60.8736 129.75 60.3836 129.01 60.6736C128.27 60.9636 127.84 61.3736 127.17 61.2436C126.5 61.0936 126.15 61.0136 125.64 61.3036C125.12 61.5836 124.37 61.4036 123.86 61.1036C123.34 60.8236 123.21 60.8936 123.21 60.8936C123.21 60.8936 123.11 61.8136 122.89 62.2336C122.67 62.6536 122.02 62.5836 121.59 63.0136C121.14 63.4436 121.22 63.5936 121.59 63.9536C121.95 64.3136 121.96 64.8036 121.96 65.5136C121.96 66.2136 121.26 65.8136 120.89 65.6736C120.292 65.4036 119.646 65.2541 118.99 65.2336C118.19 65.2336 118.32 65.1136 117.59 64.8336C116.86 64.5536 116.91 64.6736 116.39 64.8936C116.16 64.9936 115.99 64.9336 115.89 64.7936C115.64 64.6936 115.53 64.3336 115.53 63.9336C115.534 63.8186 115.499 63.7056 115.43 63.6136C115.18 63.4336 114.75 63.3436 114.18 63.1136C113.29 62.7536 112.93 62.9636 112.93 62.9636C112.93 62.9636 112.33 63.2436 112.12 63.9636C111.9 64.6636 112.04 64.6036 111.9 64.8936C111.75 65.1736 111.47 65.5336 110.8 65.8936C110.44 66.0936 110.19 66.0136 110.01 65.8636C109.78 65.7636 109.66 65.4936 109.61 65.2936C109.585 65.214 109.536 65.144 109.47 65.0936C108.957 64.7798 108.41 64.5248 107.84 64.3336C107.1 64.0436 108.22 65.2436 107.99 65.9536C107.81 66.5336 107.44 67.2536 107.65 67.6036L107.77 67.6536C108.43 67.7936 108.65 67.9336 109.39 68.2936C110.12 68.6536 109.76 67.7936 110.19 68.0936C110.65 68.3736 111.6 68.7936 112.56 68.7936C112.88 68.7936 113.093 68.8502 113.2 68.9636C113.6 69.1336 113.52 69.5636 113.58 70.1636C113.66 70.9636 113.43 70.4836 113.43 70.7636C113.43 71.0536 114.11 71.2636 113.96 71.7036C113.82 72.1336 114.03 72.2536 113.8 72.8236C113.58 73.4036 113.15 73.4936 112.12 73.4236C111.08 73.3436 111.46 73.2636 110.87 73.0436C110.27 72.8436 110.49 72.7436 109.9 72.8936C109.831 72.9148 109.757 72.9167 109.686 72.8991C109.616 72.8815 109.551 72.845 109.5 72.7936C109.2 72.7136 109.17 72.3136 109.17 72.2536C108.935 72.1353 108.708 72.0017 108.49 71.8536L107.95 71.4836C107.625 71.2567 107.318 71.006 107.03 70.7336C106 69.7336 106.51 69.7936 106.23 69.6536C105.93 69.5136 105.48 69.0136 105.41 68.1536C105.383 67.8869 105.327 67.7136 105.24 67.6336C105.04 67.5736 104.76 67.6336 104.37 67.5436C103.89 67.4536 103.76 67.4136 103.69 67.3036C103.54 67.2336 103.53 67.1436 103.49 66.9336C103.42 66.5736 102.76 66.2236 102.76 65.6536L102.74 65.5536C102.51 65.5836 102.08 65.9836 101.72 66.2336C101.2 66.5936 99.28 67.4536 99.28 67.4536C99.28 67.4536 98.52 67.1136 98.38 68.3236C98.23 69.5436 97.5 69.5936 97.5 70.1736C97.5 70.2936 97.54 70.3869 97.62 70.4536C97.94 70.5736 98.5 70.5336 99.13 70.5836C99.3633 70.6036 99.5133 70.6502 99.58 70.7236C100.06 70.8936 99.53 71.3636 99.34 71.6736C99.12 72.0236 99.26 72.1736 99.78 72.6736C100.3 73.1736 99.95 73.1736 99.65 73.6036C99.35 74.0336 99.43 74.1036 99.28 74.7636C99.13 75.4236 98.4 75.9136 97.81 76.4136C97.22 76.9136 96.9 76.6136 96.53 77.0436C96.16 77.4736 95.64 77.6036 94.91 77.8236C94.59 77.9103 94.3633 77.8769 94.23 77.7236C93.93 77.5936 93.83 77.2236 93.83 76.7236C93.83 76.4702 93.7667 76.2836 93.64 76.1636C93.4333 76.0969 93.1467 76.1303 92.78 76.2636C92.35 76.4336 91.94 76.3636 91.66 76.1436C91.5212 76.0645 91.4034 75.9533 91.3164 75.8193C91.2294 75.6854 91.1758 75.5325 91.16 75.3736C91.1501 75.2484 91.1011 75.1295 91.02 75.0336C90.74 74.9336 90.3 75.1336 89.97 75.5336C89.4627 76.1511 88.8371 76.6611 88.13 77.0336C87.89 77.0936 87.61 77.2336 87.31 76.9936C87.1682 76.9137 87.0481 76.8004 86.96 76.6636L86.84 76.5236C86.61 76.4736 86.42 76.8636 86.2 77.1336C85.9 77.4936 84.5 78.5336 83.76 78.5336C83.02 78.5336 82.81 78.2736 82.23 78.3536C81.64 78.4236 81.04 79.7736 80.23 79.9136C79.42 80.0536 79.33 79.7836 78.45 79.5736C77.55 79.3536 78.02 79.9136 77.58 80.1936C77.13 80.4936 77.2 80.0636 76.98 80.3536C76.76 80.6336 76.9 80.8536 76.38 81.7936C75.88 82.7136 75.81 81.9036 75.88 82.6936C75.96 83.4936 76.1 84.2136 75.73 85.0036C75.36 85.7936 74.48 85.6536 74.92 86.4436C75.37 87.2236 74.7 87.1436 74.48 87.9436C74.26 88.7236 73.58 88.5636 72.7 89.0636C72.25 89.3236 71.98 89.2936 71.79 89.1236C71.51 89.0036 71.37 88.6536 71.24 88.2636C71.2025 88.1606 71.1323 88.0728 71.04 88.0136C70.59 87.8136 69.82 87.9236 69.17 87.6636C68.29 87.3036 67.98 88.1536 66.8 88.7236C65.62 89.2936 65.55 89.5636 65.77 90.0636C65.99 90.5636 65.93 91.7836 65.93 92.7836C65.93 93.7836 66.42 94.2236 65.45 93.6536C65.1865 93.4931 64.9358 93.3126 64.7 93.1136C64.06 92.6136 63.53 92.0436 63.08 91.6636C62.68 91.4036 63.18 92.4636 63.18 92.9436C63.18 93.4436 63.05 94.2236 62.46 94.6536C61.86 95.0836 61.2 94.6736 59.21 94.3136C58.62 94.2136 58.33 94.0536 58.16 93.8936C57.85 93.6936 57.8 93.4636 57.71 93.3236C57.58 93.2836 57.37 93.2836 56.99 93.3736C55.85 93.6436 55.24 94.1136 54.64 93.6036C54.52 93.5389 54.4145 93.4505 54.33 93.3436L54.14 93.1436C53.74 92.8836 53.53 93.3436 52.94 93.8736C52.47 94.2736 52.19 94.1936 51.97 94.0236C51.8173 93.9478 51.6865 93.8342 51.59 93.6936C51.29 93.5936 50.29 94.0736 49.46 93.9336C48.87 93.8336 48.7 93.7036 47.59 93.7136C46.42 93.7336 46.93 94.3736 46.93 94.3736C46.93 94.3736 46.88 94.7336 47.25 95.4336C47.62 96.1536 47.66 96.2936 47.59 97.4336C47.51 98.5836 46.73 98.3036 45.63 98.3036C44.53 98.3036 44.63 98.4536 44.34 99.0936C44.04 99.7436 43.54 99.5836 42.5 98.9336L42.37 98.8336C41.5 98.2836 41.5 98.1136 40.87 98.6536C40.21 99.2236 40.16 99.2536 39.57 99.0336C38.98 98.8136 38.97 98.7336 38.75 99.0936C38.63 99.2936 38.35 99.2636 38.15 99.0536C37.91 98.9236 37.69 98.6036 37.65 98.1336C37.6329 98.018 37.5957 97.9063 37.54 97.8036C37.21 97.6536 36.57 98.0336 35.79 98.7536C34.68 99.7536 34.78 99.1736 33.82 99.0336C32.86 98.8836 32.78 99.0336 31.6 98.5336C31.3532 98.4315 31.1212 98.2971 30.91 98.1336C30.5 97.8736 30.54 97.6836 30.09 97.3636C29.29 96.8836 29.51 97.7136 28.26 97.7136C27 97.7136 26.07 98.4336 24.23 97.7136V97.6836C24.1603 97.8867 24.0271 98.0621 23.85 98.1836C23 98.8236 20.99 100.204 19.82 99.7736C18.65 99.3436 17.59 99.8836 17.16 98.7136C16.74 97.5436 16.11 96.8136 15.46 97.1136C14.83 97.4436 11.96 96.9136 11.22 97.8636C10.48 98.8136 9.19999 99.4636 9.51999 100.514C9.83999 101.584 11.54 102.314 11.43 103.494C11.33 104.664 11.23 104.664 11.64 105.394C12.07 106.144 12.71 106.364 11.96 107.204C11.22 108.054 9.51999 111.554 8.35999 111.664C7.17999 111.774 5.38 111.344 6.97 112.624C8.57 113.894 9.83999 113.044 10.27 115.064C10.7 117.084 11.75 118.354 12.27 118.664C12.81 118.994 13.66 124.194 12.07 124.304C10.47 124.404 8.02999 125.464 6.76999 125.044C5.48999 124.624 4.42999 123.984 3.04999 123.874C1.66999 123.764 0.5 124.304 0.5 125.154C0.5 126.004 0.600004 126.524 1.66 127.274C2.72 128.014 4.42 128.654 4 129.924C3.58 131.204 4.52999 131.624 3.14999 132.364C1.76999 133.114 1.34999 135.664 1.23999 136.824C1.12999 137.984 0.28999 139.274 1.23999 140.124C2.18999 140.974 3.57999 142.024 4.73999 142.134C5.08536 142.173 5.41456 142.301 5.69513 142.506C5.9757 142.712 6.19796 142.986 6.34 143.304C6.34 143.304 4.74001 143.624 4.64001 144.784C4.54001 145.964 6.22999 148.714 7.60999 148.934C8.98999 149.134 11.64 149.884 11.64 149.884C11.64 149.884 11.86 147.664 11.86 147.014C11.86 146.384 13.13 145.314 14.08 146.384C15.174 147.429 16.4303 148.29 17.8 148.934C18.55 149.254 19.5 149.034 19.6 148.184C19.7 147.334 19.6 146.384 20.46 146.584C21.3416 146.839 22.1213 147.363 22.69 148.084C23.32 148.824 24.7 149.574 23.96 150.734C23.21 151.904 23.54 152.224 22.9 152.434C22.26 152.644 21.73 152.224 20.67 152.014C19.61 151.804 18.55 152.014 18.55 152.864C18.55 153.714 20.03 155.414 20.45 156.044C20.88 156.684 21.31 158.064 21.31 158.914C21.31 159.764 19.71 159.654 18.76 157.954C17.8 156.254 12.92 157.534 11.22 155.514C10.2363 154.195 9.01127 153.075 7.60999 152.214C6.43999 151.474 5.28 150.314 5.06 150.844C4.84 151.374 6.13 152.324 6.34 154.344C6.36124 154.891 6.4947 155.428 6.73209 155.922C6.96947 156.416 7.30572 156.855 7.72 157.214C7.72 157.214 8.98999 158.594 8.45999 159.334C7.92999 160.074 7.07999 161.034 7.07999 161.774C7.07999 162.524 7.5 163.904 7.5 163.904C7.5 163.904 11.64 164.324 11.75 163.904C11.85 163.474 12.49 163.584 12.18 162.104C11.86 160.604 11.11 160.404 11.22 159.764C11.32 159.124 12.6 158.594 13.13 159.444C13.66 160.294 15.78 161.784 16.85 161.784C17.91 161.784 20.67 163.264 21.1 163.484C21.52 163.684 22.15 164.744 22.26 165.384C22.37 166.024 23.96 166.884 24.7 165.814C25.45 164.754 26.83 164.644 27.35 164.434C28.1063 164.195 28.8975 164.087 29.69 164.114C30.75 164.114 30.33 163.474 30.75 162.944C31.17 162.414 30.97 162.944 31.81 161.674C32.66 160.394 33.61 158.594 33.61 158.594C33.61 158.594 33.83 159.234 34.58 160.184C35.32 161.144 35.63 161.454 37.02 161.674C38.4 161.874 39.14 160.824 40.2 160.934C41.26 161.044 42.43 161.134 42.54 162.204C42.64 163.264 42.11 163.694 41.9 164.644C41.69 165.604 42.64 167.614 44.13 168.674C45.61 169.734 45.73 169.634 47.21 169.524C48.71 169.424 49.86 169.524 49.86 169.524C49.86 169.524 50.29 170.804 50.29 171.864C50.29 172.924 49.97 174.944 50.5 176.004C51.03 177.064 51.24 178.124 53.05 178.004C54.85 177.904 55.7 177.914 55.7 177.914C55.7 177.914 57.08 178.864 56.55 179.514C56.03 180.144 55.81 181.104 55.59 182.054C55.39 183.014 55.49 183.654 54.85 184.924C54.22 186.194 54.33 187.254 52.41 188.104C50.51 188.954 49.12 189.384 48.91 189.704C48.7 190.014 48.06 190.334 47.74 191.184C47.2196 192.233 46.4995 193.17 45.62 193.944C45.49 194.004 45.12 193.964 44.69 193.894C44.7767 194.274 44.89 194.58 45.03 194.814C45.61 195.714 47.28 195.994 48.06 196.314C48.84 196.634 50.52 197.164 50.71 197.944C50.91 198.714 51.87 199.814 52.59 199.814C53.3 199.814 54.28 199.434 54.28 199.434C54.28 199.434 54.15 197.434 54.15 196.904C54.15 196.394 55.25 196.334 55.65 196.724C56.0456 197.11 56.5405 197.38 57.08 197.504C57.35 197.504 57.46 196.204 57.52 195.284C57.59 194.384 57.34 194.284 57.99 193.504C58.64 192.724 58.64 192.154 59.02 191.564C59.41 190.984 60.19 191.204 59.74 190.104C59.28 189.004 58.71 188.074 58.71 188.074C58.71 188.074 58.78 188.074 59.55 187.824C60.33 187.564 61.6 187.114 61.99 186.074C62.38 185.034 61.67 183.974 62.77 184.694C63.87 185.414 63.37 185.424 66.61 186.134C69.85 186.854 71.81 187.374 72.64 186.854C73.47 186.334 73.74 185.834 75.11 185.694C76.47 185.564 77.45 185.534 78.23 185.594C79.01 185.664 81.93 183.904 82.51 183.324C83.09 182.744 83.34 182.624 83.54 182.044C83.74 181.464 82.87 180.744 83.98 180.164C85.08 179.584 86.54 178.424 87.38 179.144C88.22 179.854 88.78 179.764 89.82 179.694C90.86 179.624 91.18 179.264 92.16 180.094C93.13 180.954 92.8 182.034 93.97 182.174C95.14 182.294 95.91 181.774 96.62 180.474C97.34 179.184 97.05 178.474 98.22 178.014C99.39 177.554 99.89 176.544 100.28 175.714C100.67 174.864 99.89 174.074 101.06 174.144C101.939 174.233 102.827 174.127 103.66 173.834C104.11 173.634 103.46 173.744 103.66 172.584C103.85 171.414 103.84 171.354 104.68 171.544C105.53 171.744 106.19 171.544 106 171.084C105.647 170.203 105.372 169.293 105.18 168.364C105.18 167.974 106.25 166.464 107.08 167.114C107.93 167.764 110.7 169.514 110.96 168.914C111.22 168.334 110.44 163.814 110.12 162.714C109.79 161.614 109.66 160.574 108.49 158.494C107.33 156.414 106.89 155.574 106.25 154.394C105.54 152.869 104.932 151.299 104.43 149.694C104.37 149.424 104.63 148.314 105.87 147.474C106.839 146.785 107.628 145.872 108.17 144.814C108.31 144.424 106.57 136.374 106.37 135.664C106.17 134.954 103.34 127.164 103.4 126.514C103.47 125.864 102.54 119.374 103.06 119.054C103.58 118.734 106.26 116.644 106.84 115.804C107.42 114.954 108.44 113.484 108.78 112.834C109.12 112.184 110.38 109.074 110.65 108.614C110.91 108.164 116.41 103.554 117.58 103.554C118.75 103.554 122.67 103.114 123.7 104.084C124.74 105.064 125.05 106.354 125.77 106.744C126.47 107.134 128.77 108.284 129.54 107.114C130.32 105.954 133.23 101.144 134.2 100.434C135.17 99.7236 136.23 100.234 136.16 97.9636C136.09 95.6936 136.2 95.3936 137.7 94.9336C139.19 94.4836 139.46 87.8636 139.72 87.5336C139.98 87.2136 142.88 85.9136 143.78 85.7836C144.7 85.6536 147.83 88.2436 148.34 88.5036C148.87 88.7636 151.78 88.4436 152.69 88.3136C153.6 88.1836 157.81 86.9436 157.81 86.9436C157.81 86.9436 161.57 84.4136 163.06 84.3436C164.56 84.2836 167.53 82.5536 168.3 82.0436C169.08 81.5136 170.21 80.0136 170.99 79.7536C171.29 79.6403 171.507 79.4402 171.64 79.1536L170.46 79.2836C170.46 79.2836 167.98 80.0036 167.78 79.4836C167.58 78.9836 165.92 76.6136 165.92 76.6136C165.92 76.6136 166.34 75.3736 167.47 75.2736C168.6 75.1736 169.12 76.7036 169.94 75.4736C170.2 75.0836 170.44 74.9736 170.66 74.9736C171.14 75.0136 171.5 75.6736 171.5 75.6736L172 78.0836C172.1 77.5169 172.147 76.7936 172.14 75.9136C172.14 73.5136 170.84 70.5336 170.71 69.1136C170.58 67.6836 169.95 64.5136 170.86 64.5136C171.76 64.5136 182.2 57.8936 182.98 57.0536C183.76 56.2136 185.12 55.9936 186.36 55.8036C187.59 55.6036 188.16 54.7936 188.89 54.2736C189.59 53.7536 191.42 53.9336 192.07 53.6136C192.72 53.2936 200.17 46.6136 200.17 46.6136C200.17 46.6136 201.19 41.7536 201.25 40.7736C201.31 39.7936 201.59 37.0236 202.5 36.4336C203.41 35.8336 207.7 31.4136 210.1 30.5036C212.5 29.6036 221.18 24.6836 221.9 23.4436C222.61 22.2136 226.24 17.0836 227.08 16.1036C227.93 15.1336 233.18 9.10355 233.89 8.20355C234.6 7.30355 235.53 7.06355 235.92 4.20355C236.18 2.35355 237.32 1.30358 237.48 0.673584ZM143.94 44.9636L143.89 44.9936L143.87 44.9736L143.94 44.9636ZM174.36 67.6036C173.99 67.6036 173.7 67.9036 173.61 68.5436C173.458 69.3205 173.492 70.1225 173.71 70.8836C173.71 70.8836 173.81 73.1236 173.71 73.5736C173.59 74.0236 173.05 74.4736 173.61 75.8236C174.17 77.1636 173.61 78.8436 173.61 79.2836C173.61 79.5136 174.11 80.5036 174.26 80.1336C174.45 79.6836 174.65 80.2536 174.83 80.1636C174.98 80.0836 175.05 79.4836 175.17 79.2836C175.32 79.0436 175.85 78.3036 175.83 77.9136C175.8 77.2736 175.13 76.9336 174.99 76.4436C174.77 75.7436 174.66 75.7136 174.61 74.8236C174.59 74.5236 174.73 74.0936 174.67 73.6336C174.52 72.3536 175.04 71.7536 175.33 71.1936C175.87 70.1536 176.47 70.1936 175.52 69.1436C175.32 68.9236 175.77 68.5136 175.61 68.3236C175.21 67.8636 174.73 67.6036 174.36 67.6236V67.6036Z" fill="#D1DBDD"/>
<path d="M143.36 44.4836L143.37 44.4936C144.84 44.0736 146.6 42.8736 148.34 42.7136C149.39 42.7136 151.19 42.0236 151.99 41.0836C152.78 40.1236 153.69 38.7636 154.89 38.7036C156.1 38.6436 157.15 38.5436 157.95 38.3836C158.75 38.2236 159.69 36.1136 160.49 35.8436C161.29 35.5836 163.61 35.1036 164.77 35.4136C165.93 35.7436 167.15 36.5936 167.89 37.0136C168.617 37.4336 169.073 37.4869 169.26 37.1736C169.47 36.8536 169.63 36.1736 170.21 35.4736C170.8 34.7936 171.84 35.0036 171.9 33.8436C171.96 32.6836 171.79 31.8836 171.59 31.3536C171.37 30.8236 171.17 29.8236 171.17 28.8236C171.17 27.8236 171.59 27.7136 171.48 26.9236C171.37 26.1336 170.42 25.9136 171.37 24.7036C172.33 23.4836 172.91 22.3236 173.39 21.9436C173.86 21.5836 175.18 21.5236 175.29 21.8436C175.39 22.1636 176.18 24.9136 176.76 25.2836C177.35 25.6536 178.35 27.5036 178.35 28.4536C178.35 29.4136 179.45 28.9136 179.45 28.9136C179.45 28.9136 179.78 28.3436 181.15 27.7136C182.52 27.0736 183.42 27.3436 184 25.9136C184.58 24.4936 184.9 23.8036 185.96 24.1736C187.02 24.5436 187.7 25.1236 188.44 25.2836C189.19 25.4336 190.49 26.0236 191.19 25.7536C191.86 25.4936 192.46 24.5436 192.46 24.5436C192.46 24.5436 190.82 23.8636 190.92 23.0636C191.03 22.2736 191.99 22.1636 192.09 21.2136C192.19 20.2636 190.92 19.2036 191.14 17.5636C191.34 15.9336 191.77 15.7736 193.04 15.3536C194.31 14.9236 197.15 13.1836 198.05 11.9636C198.95 10.7536 199.64 9.85356 199.64 8.90356C199.64 7.95356 199.32 6.84361 199.48 6.57361C199.64 6.31361 200.28 6.68356 200.7 6.15356C201.12 5.62356 201.38 4.52355 201.38 4.20355C201.38 3.88355 200.65 3.40361 201.97 2.88361C203.29 2.34361 203.55 2.77355 204.19 3.14355C204.82 3.51355 205.61 3.25358 206.14 2.29358L206.98 0.763611C206.98 0.763611 207.47 1.02358 207.78 1.92358C208.09 2.82358 207.57 4.04359 208.31 4.99359C209.05 5.93359 209.95 6.42356 210.05 5.83356C210.15 5.25356 210.42 4.41357 210.42 4.41357C210.707 5.14687 211.116 5.82643 211.63 6.42358C212.53 7.47358 212.95 7.84355 213.48 8.64355C214.01 9.43355 215.54 10.0136 217.76 9.85358C219.98 9.68358 221.14 9.69356 222.94 9.58356C224.72 9.48356 225.63 9.27356 226.32 8.58356C227.01 7.90356 228.45 7.43359 229.02 6.05359C229.59 4.67359 229.49 2.62356 231.29 2.40356C233.08 2.19356 234.62 0.723608 235.83 0.823608C236.384 0.850151 236.94 0.799646 237.48 0.673584C237.32 1.30358 236.18 2.35355 235.92 4.20355C235.53 7.06355 234.6 7.30355 233.89 8.20355C233.18 9.10355 227.93 15.1336 227.08 16.1036C226.24 17.0836 222.61 22.2136 221.9 23.4436C221.18 24.6836 212.5 29.6036 210.1 30.5036C207.7 31.4136 203.41 35.8336 202.5 36.4336C201.59 37.0236 201.31 39.7936 201.25 40.7736C201.19 41.7536 200.17 46.6136 200.17 46.6136C200.17 46.6136 192.72 53.2936 192.07 53.6136C191.42 53.9336 189.59 53.7536 188.89 54.2736C188.16 54.7936 187.59 55.6036 186.36 55.8036C185.12 55.9936 183.76 56.2136 182.98 57.0536C182.2 57.8936 171.76 64.5136 170.86 64.5136C169.95 64.5136 170.58 67.6836 170.71 69.1136C170.84 70.5336 172.14 73.5136 172.14 75.9136C172.147 76.7936 172.1 77.5169 172 78.0836L171.5 75.6736C171.5 75.6736 171.14 75.0136 170.66 74.9736C170.44 74.9736 170.2 75.0836 169.94 75.4736C169.12 76.7036 168.6 75.1736 167.47 75.2736C166.34 75.3736 165.92 76.6136 165.92 76.6136C165.92 76.6136 167.58 78.9836 167.78 79.4836C167.98 80.0036 170.46 79.2836 170.46 79.2836L171.64 79.1536C171.507 79.4402 171.29 79.6403 170.99 79.7536C170.21 80.0136 169.08 81.5136 168.3 82.0436C167.53 82.5536 164.56 84.2836 163.06 84.3436C161.57 84.4136 157.81 86.9436 157.81 86.9436C157.81 86.9436 153.6 88.1836 152.69 88.3136C151.78 88.4436 148.87 88.7636 148.34 88.5036C147.83 88.2436 144.7 85.6536 143.78 85.7836C142.88 85.9136 139.98 87.2136 139.72 87.5336C139.46 87.8636 139.19 94.4836 137.7 94.9336C136.2 95.3936 136.09 95.6936 136.16 97.9636C136.23 100.234 135.17 99.7236 134.2 100.434C133.23 101.144 130.32 105.954 129.54 107.114C128.77 108.284 126.47 107.134 125.77 106.744C125.05 106.354 124.74 105.064 123.7 104.084C122.67 103.114 118.75 103.554 117.58 103.554C116.41 103.554 110.91 108.164 110.65 108.614C110.38 109.074 109.12 112.184 108.78 112.834C108.44 113.484 107.42 114.954 106.84 115.804C106.26 116.644 103.58 118.734 103.06 119.054C102.54 119.374 103.47 125.864 103.4 126.514C103.34 127.164 106.17 134.954 106.37 135.664C106.57 136.374 108.31 144.424 108.17 144.814C107.628 145.872 106.839 146.785 105.87 147.474C104.63 148.314 104.37 149.424 104.43 149.694C104.932 151.299 105.54 152.869 106.25 154.394C106.89 155.574 107.33 156.414 108.49 158.494C109.66 160.574 109.79 161.614 110.12 162.714C110.44 163.814 111.22 168.334 110.96 168.914C110.7 169.514 107.93 167.764 107.08 167.114C106.25 166.464 105.18 167.974 105.18 168.364C105.372 169.293 105.647 170.203 106 171.084C106.19 171.544 105.53 171.744 104.68 171.544C103.84 171.354 103.85 171.414 103.66 172.584C103.46 173.744 104.11 173.634 103.66 173.834C102.827 174.127 101.939 174.233 101.06 174.144C99.89 174.074 100.67 174.864 100.28 175.714C99.89 176.544 99.39 177.554 98.22 178.014C97.05 178.474 97.34 179.184 96.62 180.474C95.91 181.774 95.14 182.294 93.97 182.174C92.8 182.034 93.13 180.954 92.16 180.094C91.18 179.264 90.86 179.624 89.82 179.694C88.78 179.764 88.22 179.854 87.38 179.144C86.54 178.424 85.08 179.584 83.98 180.164C82.87 180.744 83.74 181.464 83.54 182.044C83.34 182.624 83.09 182.744 82.51 183.324C81.93 183.904 79.01 185.664 78.23 185.594C77.45 185.534 76.47 185.564 75.11 185.694C73.74 185.834 73.47 186.334 72.64 186.854C71.81 187.374 69.85 186.854 66.61 186.134C63.37 185.424 63.87 185.414 62.77 184.694C61.67 183.974 62.38 185.034 61.99 186.074C61.6 187.114 60.33 187.564 59.55 187.824C58.78 188.074 58.71 188.074 58.71 188.074C58.71 188.074 59.28 189.004 59.74 190.104C60.19 191.204 59.41 190.984 59.02 191.564C58.64 192.154 58.64 192.724 57.99 193.504C57.34 194.284 57.59 194.384 57.52 195.284C57.46 196.204 57.35 197.504 57.08 197.504C56.5405 197.38 56.0456 197.11 55.65 196.724C55.25 196.334 54.15 196.394 54.15 196.904C54.15 197.434 54.28 199.434 54.28 199.434C54.28 199.434 53.3 199.814 52.59 199.814C51.87 199.814 50.91 198.714 50.71 197.944C50.52 197.164 48.84 196.634 48.06 196.314C47.28 195.994 45.61 195.714 45.03 194.814C44.89 194.58 44.7767 194.274 44.69 193.894C45.12 193.964 45.49 194.004 45.62 193.944C46.4995 193.17 47.2196 192.233 47.74 191.184C48.06 190.334 48.7 190.014 48.91 189.704C49.12 189.384 50.51 188.954 52.41 188.104C54.33 187.254 54.22 186.194 54.85 184.924C55.49 183.654 55.39 183.014 55.59 182.054C55.81 181.104 56.03 180.144 56.55 179.514C57.08 178.864 55.7 177.914 55.7 177.914C55.7 177.914 54.85 177.904 53.05 178.004C51.24 178.124 51.03 177.064 50.5 176.004C49.97 174.944 50.29 172.924 50.29 171.864C50.29 170.804 49.86 169.524 49.86 169.524C49.86 169.524 48.71 169.424 47.21 169.524C45.73 169.634 45.61 169.734 44.13 168.674C42.64 167.614 41.69 165.604 41.9 164.644C42.11 163.694 42.64 163.264 42.54 162.204C42.43 161.134 41.26 161.044 40.2 160.934C39.14 160.824 38.4 161.874 37.02 161.674C35.63 161.454 35.32 161.144 34.58 160.184C33.83 159.234 33.61 158.594 33.61 158.594C33.61 158.594 32.66 160.394 31.81 161.674C30.97 162.944 31.17 162.414 30.75 162.944C30.33 163.474 30.75 164.114 29.69 164.114C28.8975 164.087 28.1063 164.195 27.35 164.434C26.83 164.644 25.45 164.754 24.7 165.814C23.96 166.884 22.37 166.024 22.26 165.384C22.15 164.744 21.52 163.684 21.1 163.484C20.67 163.264 17.91 161.784 16.85 161.784C15.78 161.784 13.66 160.294 13.13 159.444C12.6 158.594 11.32 159.124 11.22 159.764C11.11 160.404 11.86 160.604 12.18 162.104C12.49 163.584 11.85 163.474 11.75 163.904C11.64 164.324 7.5 163.904 7.5 163.904C7.5 163.904 7.07999 162.524 7.07999 161.774C7.07999 161.034 7.92999 160.074 8.45999 159.334C8.98999 158.594 7.72 157.214 7.72 157.214C7.30572 156.855 6.96947 156.416 6.73209 155.922C6.4947 155.428 6.36124 154.891 6.34 154.344C6.13 152.324 4.84 151.374 5.06 150.844C5.28 150.314 6.43999 151.474 7.60999 152.214C9.01127 153.075 10.2363 154.195 11.22 155.514C12.92 157.534 17.8 156.254 18.76 157.954C19.71 159.654 21.31 159.764 21.31 158.914C21.31 158.064 20.88 156.684 20.45 156.044C20.03 155.414 18.55 153.714 18.55 152.864C18.55 152.014 19.61 151.804 20.67 152.014C21.73 152.224 22.26 152.644 22.9 152.434C23.54 152.224 23.21 151.904 23.96 150.734C24.7 149.574 23.32 148.824 22.69 148.084C22.1213 147.363 21.3416 146.839 20.46 146.584C19.6 146.384 19.7 147.334 19.6 148.184C19.5 149.034 18.55 149.254 17.8 148.934C16.4303 148.29 15.174 147.429 14.08 146.384C13.13 145.314 11.86 146.384 11.86 147.014C11.86 147.664 11.64 149.884 11.64 149.884C11.64 149.884 8.98999 149.134 7.60999 148.934C6.22999 148.714 4.54001 145.964 4.64001 144.784C4.74001 143.624 6.34 143.304 6.34 143.304C6.19796 142.986 5.9757 142.712 5.69513 142.506C5.41456 142.301 5.08536 142.173 4.73999 142.134C3.57999 142.024 2.18999 140.974 1.23999 140.124C0.28999 139.274 1.12999 137.984 1.23999 136.824C1.34999 135.664 1.76999 133.114 3.14999 132.364C4.52999 131.624 3.58 131.204 4 129.924C4.42 128.654 2.72 128.014 1.66 127.274C0.600004 126.524 0.5 126.004 0.5 125.154C0.5 124.304 1.66999 123.764 3.04999 123.874C4.42999 123.984 5.48999 124.624 6.76999 125.044C8.02999 125.464 10.47 124.404 12.07 124.304C13.66 124.194 12.81 118.994 12.27 118.664C11.75 118.354 10.7 117.084 10.27 115.064C9.83999 113.044 8.57 113.894 6.97 112.624C5.38 111.344 7.17999 111.774 8.35999 111.664C9.51999 111.554 11.22 108.054 11.96 107.204C12.71 106.364 12.07 106.144 11.64 105.394C11.23 104.664 11.33 104.664 11.43 103.494C11.54 102.314 9.83999 101.584 9.51999 100.514C9.19999 99.4636 10.48 98.8136 11.22 97.8636C11.96 96.9136 14.83 97.4436 15.46 97.1136C16.11 96.8136 16.74 97.5436 17.16 98.7136C17.59 99.8836 18.65 99.3436 19.82 99.7736C20.99 100.204 23 98.8236 23.85 98.1836C24.0271 98.0621 24.1603 97.8867 24.23 97.6836V97.7136C26.07 98.4336 27 97.7136 28.26 97.7136C29.51 97.7136 29.29 96.8836 30.09 97.3636C30.54 97.6836 30.5 97.8736 30.91 98.1336C31.1212 98.2971 31.3532 98.4315 31.6 98.5336C32.78 99.0336 32.86 98.8836 33.82 99.0336C34.78 99.1736 34.68 99.7536 35.79 98.7536C36.57 98.0336 37.21 97.6536 37.54 97.8036C37.5957 97.9063 37.6329 98.018 37.65 98.1336C37.69 98.6036 37.91 98.9236 38.15 99.0536C38.35 99.2636 38.63 99.2936 38.75 99.0936C38.97 98.7336 38.98 98.8136 39.57 99.0336C40.16 99.2536 40.21 99.2236 40.87 98.6536C41.5 98.1136 41.5 98.2836 42.37 98.8336L42.5 98.9336C43.54 99.5836 44.04 99.7436 44.34 99.0936C44.63 98.4536 44.53 98.3036 45.63 98.3036C46.73 98.3036 47.51 98.5836 47.59 97.4336C47.66 96.2936 47.62 96.1536 47.25 95.4336C46.88 94.7336 46.93 94.3736 46.93 94.3736C46.93 94.3736 46.42 93.7336 47.59 93.7136C48.7 93.7036 48.87 93.8336 49.46 93.9336C50.29 94.0736 51.29 93.5936 51.59 93.6936C51.6865 93.8342 51.8173 93.9478 51.97 94.0236C52.19 94.1936 52.47 94.2736 52.94 93.8736C53.53 93.3436 53.74 92.8836 54.14 93.1436L54.33 93.3436C54.4145 93.4505 54.52 93.5389 54.64 93.6036C55.24 94.1136 55.85 93.6436 56.99 93.3736C57.37 93.2836 57.58 93.2836 57.71 93.3236C57.8 93.4636 57.85 93.6936 58.16 93.8936C58.33 94.0536 58.62 94.2136 59.21 94.3136C61.2 94.6736 61.86 95.0836 62.46 94.6536C63.05 94.2236 63.18 93.4436 63.18 92.9436C63.18 92.4636 62.68 91.4036 63.08 91.6636C63.53 92.0436 64.06 92.6136 64.7 93.1136C64.9358 93.3126 65.1865 93.4931 65.45 93.6536C66.42 94.2236 65.93 93.7836 65.93 92.7836C65.93 91.7836 65.99 90.5636 65.77 90.0636C65.55 89.5636 65.62 89.2936 66.8 88.7236C67.98 88.1536 68.29 87.3036 69.17 87.6636C69.82 87.9236 70.59 87.8136 71.04 88.0136C71.1323 88.0728 71.2025 88.1606 71.24 88.2636C71.37 88.6536 71.51 89.0036 71.79 89.1236C71.98 89.2936 72.25 89.3236 72.7 89.0636C73.58 88.5636 74.26 88.7236 74.48 87.9436C74.7 87.1436 75.37 87.2236 74.92 86.4436C74.48 85.6536 75.36 85.7936 75.73 85.0036C76.1 84.2136 75.96 83.4936 75.88 82.6936C75.81 81.9036 75.88 82.7136 76.38 81.7936C76.9 80.8536 76.76 80.6336 76.98 80.3536C77.2 80.0636 77.13 80.4936 77.58 80.1936C78.02 79.9136 77.55 79.3536 78.45 79.5736C79.33 79.7836 79.42 80.0536 80.23 79.9136C81.04 79.7736 81.64 78.4236 82.23 78.3536C82.81 78.2736 83.02 78.5336 83.76 78.5336C84.5 78.5336 85.9 77.4936 86.2 77.1336C86.42 76.8636 86.61 76.4736 86.84 76.5236L86.96 76.6636C87.0481 76.8004 87.1682 76.9137 87.31 76.9936C87.61 77.2336 87.89 77.0936 88.13 77.0336C88.8371 76.6611 89.4627 76.1511 89.97 75.5336C90.3 75.1336 90.74 74.9336 91.02 75.0336C91.1011 75.1295 91.1501 75.2484 91.16 75.3736C91.1758 75.5325 91.2294 75.6854 91.3164 75.8193C91.4034 75.9533 91.5212 76.0645 91.66 76.1436C91.94 76.3636 92.35 76.4336 92.78 76.2636C93.1467 76.1303 93.4333 76.0969 93.64 76.1636C93.7667 76.2836 93.83 76.4702 93.83 76.7236C93.83 77.2236 93.93 77.5936 94.23 77.7236C94.3633 77.8769 94.59 77.9103 94.91 77.8236C95.64 77.6036 96.16 77.4736 96.53 77.0436C96.9 76.6136 97.22 76.9136 97.81 76.4136C98.4 75.9136 99.13 75.4236 99.28 74.7636C99.43 74.1036 99.35 74.0336 99.65 73.6036C99.95 73.1736 100.3 73.1736 99.78 72.6736C99.26 72.1736 99.12 72.0236 99.34 71.6736C99.53 71.3636 100.06 70.8936 99.58 70.7236C99.5133 70.6502 99.3633 70.6036 99.13 70.5836C98.5 70.5336 97.94 70.5736 97.62 70.4536C97.54 70.3869 97.5 70.2936 97.5 70.1736C97.5 69.5936 98.23 69.5436 98.38 68.3236C98.52 67.1136 99.28 67.4536 99.28 67.4536C99.28 67.4536 101.2 66.5936 101.72 66.2336C102.08 65.9836 102.51 65.5836 102.74 65.5536L102.76 65.6536C102.76 66.2236 103.42 66.5736 103.49 66.9336C103.53 67.1436 103.54 67.2336 103.69 67.3036C103.76 67.4136 103.89 67.4536 104.37 67.5436C104.76 67.6336 105.04 67.5736 105.24 67.6336C105.327 67.7136 105.383 67.8869 105.41 68.1536C105.48 69.0136 105.93 69.5136 106.23 69.6536C106.51 69.7936 106 69.7336 107.03 70.7336C107.318 71.006 107.625 71.2567 107.95 71.4836L108.49 71.8536C108.708 72.0017 108.935 72.1353 109.17 72.2536C109.17 72.3136 109.2 72.7136 109.5 72.7936C109.551 72.845 109.616 72.8815 109.686 72.8991C109.757 72.9167 109.831 72.9148 109.9 72.8936C110.49 72.7436 110.27 72.8436 110.87 73.0436C111.46 73.2636 111.08 73.3436 112.12 73.4236C113.15 73.4936 113.58 73.4036 113.8 72.8236C114.03 72.2536 113.82 72.1336 113.96 71.7036C114.11 71.2636 113.43 71.0536 113.43 70.7636C113.43 70.4836 113.66 70.9636 113.58 70.1636C113.52 69.5636 113.6 69.1336 113.2 68.9636C113.093 68.8502 112.88 68.7936 112.56 68.7936C111.6 68.7936 110.65 68.3736 110.19 68.0936C109.76 67.7936 110.12 68.6536 109.39 68.2936C108.65 67.9336 108.43 67.7936 107.77 67.6536L107.65 67.6036C107.44 67.2536 107.81 66.5336 107.99 65.9536C108.22 65.2436 107.1 64.0436 107.84 64.3336C108.41 64.5248 108.957 64.7798 109.47 65.0936C109.536 65.144 109.585 65.214 109.61 65.2936C109.66 65.4936 109.78 65.7636 110.01 65.8636C110.19 66.0136 110.44 66.0936 110.8 65.8936C111.47 65.5336 111.75 65.1736 111.9 64.8936C112.04 64.6036 111.9 64.6636 112.12 63.9636C112.33 63.2436 112.93 62.9636 112.93 62.9636C112.93 62.9636 113.29 62.7536 114.18 63.1136C114.75 63.3436 115.18 63.4336 115.43 63.6136C115.499 63.7056 115.534 63.8186 115.53 63.9336C115.53 64.3336 115.64 64.6936 115.89 64.7936C115.99 64.9336 116.16 64.9936 116.39 64.8936C116.91 64.6736 116.86 64.5536 117.59 64.8336C118.32 65.1136 118.19 65.2336 118.99 65.2336C119.646 65.2541 120.292 65.4036 120.89 65.6736C121.26 65.8136 121.96 66.2136 121.96 65.5136C121.96 64.8036 121.95 64.3136 121.59 63.9536C121.22 63.5936 121.14 63.4436 121.59 63.0136C122.02 62.5836 122.67 62.6536 122.89 62.2336C123.11 61.8136 123.21 60.8936 123.21 60.8936C123.21 60.8936 123.34 60.8236 123.86 61.1036C124.37 61.4036 125.12 61.5836 125.64 61.3036C126.15 61.0136 126.5 61.0936 127.17 61.2436C127.84 61.3736 128.27 60.9636 129.01 60.6736C129.75 60.3836 130.52 60.8736 130.67 60.0836C130.81 59.2936 130.06 59.0036 130.51 58.3636C130.96 57.7236 131.91 57.8736 132.51 57.8036C133.11 57.7336 134.05 56.6636 134.41 56.3036C134.78 55.9436 135.52 56.2436 136.41 56.2436C137.3 56.2436 137.88 56.5036 138.31 55.9136C138.76 55.3536 137.62 56.5436 138.14 56.1136C138.19 56.3936 138.34 55.9336 138.4 55.8736C138.2 55.9069 138.067 55.9469 138 55.9936C137.48 56.4336 138.63 55.2636 138.18 55.8336C138.073 55.9622 137.935 56.0619 137.78 56.1236L136.81 55.4236L136.01 54.9936L134.63 54.0436L133.76 53.1136L132.45 52.5236H130.65L129.64 51.3736L129.28 50.5736C129.28 50.5736 128.41 50.0736 127.82 50.1436C127.25 50.2136 126.02 49.7736 126.02 49.7736L126.53 48.4736L127.18 47.3936L127.61 46.0136L129.93 46.1636L131.95 46.5936L132.75 46.0936L132.59 44.5936C132.729 44.665 132.883 44.7026 133.04 44.7036C133.51 44.7436 133.46 42.6536 134.14 42.6436C135.63 42.6336 136.15 43.2936 137.66 43.2936C138.36 43.2936 140.48 44.7236 141.17 44.5836C141.97 44.4136 141.82 44.3636 142.45 44.1436C142.61 44.3336 141.38 45.0536 142.91 44.9736L143.26 44.3036L143.36 44.4836ZM143.36 44.4836L143.6 44.8936L143.8 44.8736L143.56 44.9036C143.461 44.7812 143.393 44.6374 143.36 44.4836ZM143.94 44.9636L143.89 44.9936L143.87 44.9736L143.94 44.9636ZM174.36 67.6036C173.99 67.6036 173.7 67.9036 173.61 68.5436C173.458 69.3205 173.492 70.1225 173.71 70.8836C173.71 70.8836 173.81 73.1236 173.71 73.5736C173.59 74.0236 173.05 74.4736 173.61 75.8236C174.17 77.1636 173.61 78.8436 173.61 79.2836C173.61 79.5136 174.11 80.5036 174.26 80.1336C174.45 79.6836 174.65 80.2536 174.83 80.1636C174.98 80.0836 175.05 79.4836 175.17 79.2836C175.32 79.0436 175.85 78.3036 175.83 77.9136C175.8 77.2736 175.13 76.9336 174.99 76.4436C174.77 75.7436 174.66 75.7136 174.61 74.8236C174.59 74.5236 174.73 74.0936 174.67 73.6336C174.52 72.3536 175.04 71.7536 175.33 71.1936C175.87 70.1536 176.47 70.1936 175.52 69.1436C175.32 68.9236 175.77 68.5136 175.61 68.3236C175.21 67.8636 174.73 67.6036 174.36 67.6236V67.6036Z" stroke="black"/>
</svg>
