<svg width="153" height="94" viewBox="0 0 153 94" fill="none" xmlns="http://www.w3.org/2000/svg">
<path d="M115.594 0.508478C114.884 0.598478 113.934 1.28848 112.824 1.28848C111.024 1.28848 105.894 4.86849 104.324 6.42849C102.764 7.99849 101.194 10.0085 100.974 11.5785C100.754 13.1385 97.1739 14.9285 95.1639 14.4785C93.1439 14.0385 92.0339 12.9185 88.9039 12.9185C85.7739 12.9185 81.3039 10.4585 80.4039 9.3385C79.5039 8.2185 79.2839 6.65849 77.2739 6.20849C75.2639 5.75849 75.2639 9.5585 73.0239 12.2485C70.7939 14.9285 69.2239 14.9285 67.4339 16.2685C65.6539 17.6185 66.0939 19.1785 65.4239 21.4185C64.7539 23.6485 64.0839 22.7585 62.2939 25.2185C60.5039 27.6785 59.3939 29.2385 59.3939 29.2385C59.3939 29.2385 59.1639 29.6885 55.3639 30.5785C51.5639 31.4685 53.3639 32.5885 51.3439 32.3785C49.3239 32.1385 48.6639 31.2485 46.8739 31.4785C45.0739 31.6985 44.6339 34.3785 43.5139 35.0485C42.3939 35.7285 42.4039 38.8485 42.6139 39.9685C42.8539 41.0885 41.2839 43.0985 41.2839 43.0985C41.2839 43.0985 36.5839 44.2185 34.1239 45.1085C31.6739 46.0085 33.2239 46.9085 32.3339 47.5685C31.4439 48.2385 30.7739 49.8085 27.8639 51.3685C24.9639 52.9385 27.8639 52.0385 28.7639 53.3785C29.6639 54.7285 29.2039 56.7385 29.2039 57.6285C29.2039 58.5185 25.1839 60.5385 22.5039 60.5385C19.8239 60.5385 19.8239 60.5385 15.1239 61.2085C10.4239 61.8785 13.7839 62.9985 11.1039 64.3385C8.42391 65.6785 7.07392 63.2185 5.73392 61.8785C4.39392 60.5385 1.0339 59.4185 0.593904 60.3185C0.143904 61.2085 1.49388 68.1385 0.823884 69.2585C0.143884 70.3785 1.26391 73.0585 2.16391 73.7285C3.05391 74.3985 6.62391 73.4985 9.53391 73.9485C12.4339 74.3985 16.9539 74.5585 16.0239 77.7485C15.46 80.2501 15.0856 82.7906 14.9039 85.3485C14.9039 86.2485 16.9039 86.9185 16.9039 86.9185C16.9039 86.9185 18.4739 85.7985 20.9339 85.3585C23.3939 84.9085 22.2739 84.6785 25.1839 83.3385C28.0839 81.9985 26.5239 82.4385 30.5539 81.5485C34.5739 80.6485 35.6939 82.6685 37.7039 83.3485C39.0893 83.7785 40.5123 84.0765 41.9539 84.2385C41.9539 84.2385 42.8539 82.4385 44.8539 81.9985C46.8739 81.5485 48.8839 81.9985 50.8939 81.9985C52.9039 81.9985 55.5939 81.3285 56.0339 80.4285C56.4839 79.5285 57.8239 77.5285 57.8239 77.5285C57.8239 77.5285 57.8239 75.9685 59.6139 74.6285C61.4039 73.2785 61.4039 71.7085 61.8539 70.5985C62.2939 69.4785 66.5539 66.5785 67.2139 64.9985C67.8839 63.4485 69.6739 61.4285 71.0139 60.0985C72.3539 58.7485 76.3739 59.4185 79.2839 59.4185C82.1939 59.4185 79.7339 57.4085 79.9639 56.2885C80.1839 55.1685 82.4139 56.7385 84.4239 56.2885C86.4439 55.8385 85.1039 55.6185 85.5539 54.0585C85.9939 52.4885 86.4439 52.9385 88.9039 52.9385C91.3639 52.9385 91.5839 51.8185 92.9239 51.1385C94.2639 50.4785 94.7139 49.5785 95.6039 48.4685C96.5039 47.3485 97.1739 47.3485 99.4039 47.7985C101.644 48.2385 103.204 46.6785 103.204 46.6785L104.554 43.7785C105.603 43.4192 106.647 43.0425 107.684 42.6485C109.464 41.9785 111.034 42.2085 112.384 42.2085C113.714 42.2085 113.484 43.7685 113.484 43.7685C112.766 45.0859 112.099 46.4302 111.484 47.7985C110.584 49.7985 109.914 51.3685 109.684 52.9385C109.454 54.5085 111.934 56.9585 111.934 56.9585L115.954 60.0885L117.294 61.6585C117.294 61.6585 115.284 62.9985 114.394 63.8885C113.494 64.7885 111.704 65.8985 111.704 65.8985C111.704 65.8985 109.464 66.1285 108.354 66.5785C107.234 67.0185 107.674 67.4785 107.674 67.4785C107.674 67.4785 105.224 67.6885 103.434 67.9185C101.634 68.1385 102.764 68.8085 102.094 70.1485C101.589 71.1286 101.066 72.0988 100.524 73.0585L98.2939 74.6185L97.8439 75.0685L96.2739 75.2985L94.3439 75.8185C94.4572 75.8585 94.5739 75.9252 94.6939 76.0185C95.9639 76.9685 97.3939 77.5985 97.3939 78.3885C97.3939 79.1885 96.7539 79.1885 96.7539 80.9185C96.7539 82.6485 97.0639 82.8185 97.6939 82.9785C98.3339 83.1385 98.8039 84.0785 98.6539 85.1885C98.5039 86.2985 96.9139 86.4585 98.3339 88.0385C99.7539 89.6185 100.704 89.9385 101.334 89.2985C101.974 88.6685 102.914 88.3585 102.914 88.3585C102.914 88.3585 103.394 88.5085 103.074 90.0885C102.754 91.6685 100.864 91.6685 100.234 92.4585C100.031 92.6857 99.8142 92.8995 99.5839 93.0985C100.964 93.4185 102.914 93.1385 105.444 91.1685C107.454 89.5985 105.664 90.2685 105.664 88.4785C105.664 86.6985 110.144 85.7985 112.154 82.8885C114.164 79.9785 113.054 81.5485 117.294 79.3185C121.544 77.0785 118.634 76.8585 119.974 73.5085C121.314 70.1485 121.994 71.0385 123.104 70.8185C124.224 70.5985 127.804 69.6985 127.804 69.6985C127.804 69.6985 128.474 68.1385 130.034 68.3585C131.604 68.5885 131.154 68.5885 133.164 67.4685C135.174 66.3485 134.284 66.1285 136.524 65.0085C138.764 63.8885 137.864 66.7985 139.424 68.1385C140.994 69.4785 141.664 71.2685 143.224 71.4885C144.794 71.7185 148.824 72.1685 149.704 71.4885C150.604 70.8185 149.934 68.5885 148.814 66.7885C147.694 65.0085 148.364 65.2285 145.244 63.4385C142.104 61.6485 142.784 59.4185 141.214 57.8485C139.654 56.2885 142.334 54.7285 142.334 54.7285L146.584 52.0385L150.834 47.7985C150.834 47.7985 152.614 44.8885 152.394 42.4285C152.164 39.9685 151.494 41.3085 150.604 40.4185C149.704 39.5185 150.834 39.7485 151.504 37.0685C152.164 34.3785 151.274 34.8285 151.274 34.8285C151.274 34.8285 148.814 35.0485 147.254 34.8285C145.684 34.5985 145.014 33.2585 142.784 32.8185C140.544 32.3685 140.984 33.2585 139.424 33.4885C137.864 33.7085 137.634 33.2585 136.524 32.3685C135.404 31.4685 133.394 30.5785 132.274 30.5785C131.154 30.5785 127.354 31.2485 127.354 31.2485L122.214 32.3685L124.664 29.6885C124.664 29.6885 127.574 27.6785 128.464 26.5485C129.364 25.4385 130.704 21.8585 130.264 20.9685C129.814 20.0685 128.254 17.8385 127.574 16.2685C126.904 14.7085 125.344 12.2485 125.344 12.2485C125.344 12.2485 123.104 12.9185 121.094 13.8085C119.084 14.7085 120.864 14.4885 119.754 15.8285C118.634 17.1685 117.744 15.5985 117.744 15.5985L118.854 12.2485C118.854 12.2485 121.094 10.6885 122.654 9.56851C124.224 8.44851 123.554 6.20849 123.554 6.20849L121.754 5.3085L117.954 4.64849C117.954 4.64849 117.294 3.08848 116.624 1.28848C116.374 0.618477 116.024 0.458478 115.594 0.508478Z" fill="#D1DBDD" stroke="black"/>
</svg>
