<svg width="164" height="134" viewBox="0 0 164 134" fill="none" xmlns="http://www.w3.org/2000/svg">
<path d="M155.981 0.5084C155.125 0.529662 154.278 0.688351 153.471 0.978401C152.434 1.36905 151.391 1.74243 150.341 2.0984L148.991 5.0084C148.991 5.0084 147.431 6.5684 145.191 6.1284C142.961 5.6784 142.291 5.67841 141.391 6.79841C140.501 7.90841 140.051 8.7984 138.711 9.4784C137.371 10.1484 137.151 11.2684 134.691 11.2684C132.231 11.2684 131.781 10.8184 131.331 12.3884C130.891 13.9484 132.231 14.1684 130.211 14.6184C128.211 15.0684 125.971 13.4984 125.751 14.6184C125.521 15.7384 127.981 17.7484 125.071 17.7484C122.171 17.7484 118.141 17.0784 116.801 18.4184C115.461 19.7584 113.671 21.7784 113.001 23.3384C112.331 24.9084 108.081 27.8084 107.641 28.9284C107.201 30.0484 107.191 31.6084 105.401 32.9484C103.611 34.2984 103.611 35.8584 103.611 35.8584C103.611 35.8584 102.271 37.8584 101.821 38.7584C101.371 39.6584 98.7014 40.3284 96.6814 40.3284C94.6614 40.3284 92.6614 39.8784 90.6514 40.3284C88.6414 40.7784 87.7414 42.5684 87.7414 42.5684C87.7414 42.5684 85.5014 42.3384 83.4914 41.6684C81.4814 40.9984 80.3614 38.9884 76.3414 39.8784C72.3214 40.7684 73.8814 40.3284 70.9714 41.6784C68.0714 43.0084 69.1814 43.2384 66.7214 43.6784C65.2909 43.9312 63.9246 44.4647 62.7014 45.2484C62.7014 45.2484 62.4614 45.1484 62.1614 45.0184L63.1514 49.9484C63.1514 49.9484 61.1314 49.4984 60.0114 49.2684L55.5414 48.3684C55.5414 48.3684 53.3114 49.9484 52.4114 50.6084C51.5214 51.2884 46.8214 51.5084 46.8214 51.5084L44.5914 52.1784C44.5914 52.1784 43.0214 53.2984 41.4614 52.8484C39.9014 52.3984 38.5614 51.9484 37.6614 52.6184C36.7614 53.2984 38.1114 54.8584 34.7614 55.0884C31.4114 55.3184 26.2614 56.6484 25.3614 55.7584C23.8829 54.3297 22.3929 52.913 20.8914 51.5084L18.2114 51.2784L15.7614 53.2984C15.7614 53.2984 13.2914 53.2984 12.6214 54.6384C11.9514 55.9784 13.0714 57.0984 11.7214 56.8684C10.5181 56.628 9.32676 56.3311 8.15142 55.9784L6.81139 57.3184L3.67138 58.9984C4.12138 60.1384 3.79139 62.3584 4.31139 63.9684C4.83139 65.5584 5.96139 66.3884 5.06139 66.2484C-0.638606 65.3284 2.20139 66.3484 2.24139 67.5284C2.24139 67.7584 2.44142 70.3884 1.02142 69.6384C0.351416 69.2884 0.251379 71.0384 1.17138 71.9384C2.69138 73.4284 1.33144 73.5084 0.791435 73.7484C0.171435 74.0184 2.36144 76.0484 2.29144 77.0484C2.21144 78.1084 2.29139 79.5684 2.18139 80.4684L4.35143 81.4684C4.35143 81.4684 6.14141 81.6884 6.14141 83.6984C6.14141 85.7084 4.80142 84.8184 5.02142 87.2784C5.22655 89.0241 5.60166 90.7456 6.14141 92.4184L7.48144 95.5484L7.68139 95.4984C7.52139 94.2684 7.3814 92.6884 7.3814 92.6884C7.3814 92.6884 8.96139 94.7384 9.43139 93.7884C9.90139 92.8384 11.1714 92.2084 10.7014 90.9484C10.2214 89.6784 9.27138 89.0484 9.11138 88.0984C8.96138 87.1484 8.33142 85.7284 8.96142 85.0984C9.59142 84.4584 10.8614 82.0984 10.8614 82.0984C10.8614 82.0984 10.0614 80.9884 11.1714 80.9884C12.2814 80.9884 12.9114 81.2984 14.3314 80.9884C15.7614 80.6684 15.6014 80.6684 16.3914 79.8884C17.1814 79.0884 17.3314 78.4584 19.0814 78.4584C20.8114 78.4584 20.3414 78.4584 21.7614 77.8184C23.1914 77.1884 24.4614 77.0384 24.6114 78.4584C24.7714 79.8784 23.8114 80.1884 25.0814 80.5084C26.3514 80.8284 26.3514 79.7184 27.4514 78.6084C28.5614 77.5084 29.3514 76.7184 29.5114 77.3484C29.6714 77.9784 30.1414 80.6684 30.1414 80.6684C30.1414 80.6684 29.9814 81.9384 31.4014 81.4684C32.8314 80.9884 33.4614 79.7184 34.8814 80.5084C36.3114 81.3084 37.8814 81.6084 38.5214 81.4584C39.1514 81.2984 40.1014 81.2984 40.1014 80.5084C40.1014 79.7184 39.4714 79.5684 41.0414 79.2484C42.6414 78.9284 43.1014 79.8784 43.1014 78.7684C43.1014 77.6584 43.5814 75.6084 43.5814 75.6084C43.5814 75.6084 46.2714 75.1384 46.2714 75.9284C46.2714 76.7184 46.5814 77.5084 46.5814 77.5084C46.5814 77.5084 47.5314 78.6084 48.1614 77.0284C48.7914 75.4484 48.1614 74.9784 50.5314 74.9784C52.9014 74.9784 53.0614 76.0784 54.1714 74.3484C55.2714 72.6084 57.0214 69.7584 58.1214 70.3984C59.2214 71.0384 60.9714 72.6084 60.9714 73.5584C60.9714 74.5084 59.8614 75.1384 60.8114 75.7684C61.7614 76.3984 62.5514 77.0284 61.4414 77.8184C60.3414 78.6184 59.0714 77.8184 59.8614 79.5584C60.6614 81.2984 61.1314 81.2984 61.1314 82.4084C61.1314 83.5084 61.7614 83.3584 63.1814 82.7284C64.6014 82.0884 65.8714 80.6684 67.9214 81.6184C69.9714 82.5684 69.1914 83.0384 70.6214 83.5184C72.0314 83.9884 73.3014 83.3584 73.6214 84.9384C73.9414 86.5184 74.0914 88.2584 73.1414 89.3684C72.1914 90.4784 71.0914 91.2684 73.6114 91.0984C76.1414 90.9484 76.3114 89.3684 76.7814 90.9484C77.2514 92.5184 77.2514 92.5284 77.5714 93.4784C77.8814 94.4184 78.5114 94.7384 78.2014 95.6884C77.8814 96.6384 77.7314 98.0584 76.3014 98.8484C74.8814 99.6484 74.7214 99.4784 73.9314 100.748C73.1314 102.008 72.9814 103.278 72.3514 103.278C71.7214 103.278 72.1914 102.008 70.3014 102.328C68.6014 102.608 68.6714 104.148 69.0414 104.928C69.5014 105.198 69.4314 105.498 69.1914 105.168L69.0414 104.928C68.7925 104.799 68.5265 104.704 68.2514 104.648L68.2914 104.718C68.2914 104.718 72.7614 107.398 73.8814 107.848C75.0014 108.298 76.1114 108.968 76.1114 108.968L73.4314 109.188C73.4314 109.188 69.4114 109.408 70.5314 111.198C71.6514 112.988 73.2114 113.878 73.4314 114.998C73.6514 116.118 73.4314 117.238 73.4314 117.238C73.4314 117.238 70.5314 116.788 70.3014 119.918C70.1845 121.456 70.1145 122.997 70.0914 124.538C70.9414 124.338 71.7714 123.998 72.1914 123.508C73.1414 122.408 73.2914 124.308 73.7714 125.718C74.2414 127.148 74.4014 126.038 74.5714 129.358C74.7214 132.678 74.7214 130.778 76.1414 132.358C76.4214 132.658 76.5614 132.878 76.6714 133.058C76.938 132.858 77.1848 132.625 77.4114 132.358C78.6714 130.778 77.5614 129.518 79.4614 129.358C81.3614 129.198 80.5714 131.098 81.6714 131.728C82.7814 132.358 83.5714 131.728 84.8414 130.628C86.1014 129.518 86.2614 129.828 86.2614 128.098C86.2614 126.368 84.6814 125.878 86.2614 124.458C87.8414 123.038 89.8914 120.978 89.8914 120.978C89.8914 120.978 90.3714 122.558 90.5314 123.978C90.6914 125.408 92.1114 125.718 92.5814 124.458C92.8333 123.769 93.2095 123.132 93.6914 122.578V121.298C93.6914 121.298 94.3214 119.558 95.5914 117.978C96.8514 116.398 95.4314 115.448 95.2714 114.338C95.1114 113.238 95.5914 112.128 96.5414 111.178C97.4814 110.228 98.5914 109.278 98.5914 108.018V104.218C98.5914 103.748 99.0714 102.488 100.011 102.018C100.961 101.538 100.641 101.218 100.641 100.748C100.641 100.278 101.601 99.7984 101.601 99.7984C101.601 99.7984 102.071 98.0584 102.071 97.5884C102.071 97.2084 102.271 96.6284 102.591 96.0884C102.278 95.7766 101.944 95.486 101.591 95.2184C100.011 94.1184 99.3914 91.5784 99.5414 90.6284C99.6914 89.6784 99.7014 87.9384 98.5914 86.6784C97.4814 85.4184 96.5414 86.0484 97.3314 84.4684C98.1214 82.8784 98.7514 82.8784 99.5414 82.4084C100.341 81.9384 101.911 82.4084 102.071 80.9884C102.231 79.5584 101.751 79.2484 102.541 78.1384C103.341 77.0384 104.601 76.8784 104.921 75.9284C105.241 74.9784 105.711 73.7184 106.181 72.7684C106.651 71.8184 107.441 70.5484 108.551 71.0284C109.651 71.4984 111.081 72.1284 112.031 72.2884C112.981 72.4484 113.131 71.0284 112.821 70.3884C112.511 69.7484 111.721 70.2384 112.341 68.9684C112.981 67.7084 113.291 67.3884 113.141 66.9184C112.981 66.4384 112.181 65.1784 112.341 64.2284C112.501 63.2784 112.661 62.9684 113.451 62.3284C114.251 61.6984 113.611 60.4284 115.031 59.3284C116.451 58.2284 116.771 56.1684 116.771 55.2184C116.771 54.2684 116.771 52.3684 117.401 52.0584C118.041 51.7384 119.621 51.4284 120.101 51.8984C120.571 52.3684 122.151 52.9984 122.461 52.2184C122.781 51.4184 122.301 50.3184 123.091 48.5784C123.891 46.8384 126.891 44.9384 128.311 43.5184C129.731 42.0984 131.941 40.5184 133.531 39.0884C135.121 37.6584 138.741 34.8184 138.741 34.8184C138.741 34.8184 139.141 33.6884 140.141 34.1484L142.061 33.6184L143.631 33.3984L144.081 32.9484L146.311 31.3884C146.311 31.3884 147.211 29.8184 147.881 28.4784C148.551 27.1384 147.431 26.4684 149.221 26.2484C151.011 26.0284 153.461 25.7984 153.461 25.7984C153.461 25.7984 153.021 25.3484 154.141 24.8984C155.251 24.4584 157.491 24.2284 157.491 24.2284C157.491 24.2284 159.291 23.1084 160.171 22.2184C161.071 21.3184 163.081 19.9884 163.081 19.9884L161.741 18.4184L157.711 15.2884C157.711 15.2884 155.261 12.8384 155.481 11.2684C155.701 9.69841 156.381 8.1384 157.271 6.1284C157.886 4.7597 158.553 3.41536 159.271 2.0984C159.271 2.0984 159.501 0.538399 158.171 0.538399C157.491 0.538399 156.771 0.4784 155.971 0.5084H155.981Z" fill="#D1DBDD"/>
<path d="M69.0414 104.928C68.6714 104.148 68.6014 102.608 70.3014 102.328C72.1914 102.008 71.7214 103.278 72.3514 103.278C72.9814 103.278 73.1314 102.008 73.9314 100.748C74.7214 99.4784 74.8814 99.6484 76.3014 98.8484C77.7314 98.0584 77.8814 96.6384 78.2014 95.6884C78.5114 94.7384 77.8814 94.4184 77.5714 93.4784C77.2514 92.5284 77.2514 92.5184 76.7814 90.9484C76.3114 89.3684 76.1414 90.9484 73.6114 91.0984C71.0914 91.2684 72.1914 90.4784 73.1414 89.3684C74.0914 88.2584 73.9414 86.5184 73.6214 84.9384C73.3014 83.3584 72.0314 83.9884 70.6214 83.5184C69.1914 83.0384 69.9714 82.5684 67.9214 81.6184C65.8714 80.6684 64.6014 82.0884 63.1814 82.7284C61.7614 83.3584 61.1314 83.5084 61.1314 82.4084C61.1314 81.2984 60.6614 81.2984 59.8614 79.5584C59.0714 77.8184 60.3414 78.6184 61.4414 77.8184C62.5514 77.0284 61.7614 76.3984 60.8114 75.7684C59.8614 75.1384 60.9714 74.5084 60.9714 73.5584C60.9714 72.6084 59.2214 71.0384 58.1214 70.3984C57.0214 69.7584 55.2714 72.6084 54.1714 74.3484C53.0614 76.0784 52.9014 74.9784 50.5314 74.9784C48.1614 74.9784 48.7914 75.4484 48.1614 77.0284C47.5314 78.6084 46.5814 77.5084 46.5814 77.5084C46.5814 77.5084 46.2714 76.7184 46.2714 75.9284C46.2714 75.1384 43.5814 75.6084 43.5814 75.6084C43.5814 75.6084 43.1014 77.6584 43.1014 78.7684C43.1014 79.8784 42.6414 78.9284 41.0414 79.2484C39.4714 79.5684 40.1014 79.7184 40.1014 80.5084C40.1014 81.2984 39.1514 81.2984 38.5214 81.4584C37.8814 81.6084 36.3114 81.3084 34.8814 80.5084C33.4614 79.7184 32.8314 80.9884 31.4014 81.4684C29.9814 81.9384 30.1414 80.6684 30.1414 80.6684C30.1414 80.6684 29.6714 77.9784 29.5114 77.3484C29.3514 76.7184 28.5614 77.5084 27.4514 78.6084C26.3514 79.7184 26.3514 80.8284 25.0814 80.5084C23.8114 80.1884 24.7714 79.8784 24.6114 78.4584C24.4614 77.0384 23.1914 77.1884 21.7614 77.8184C20.3414 78.4584 20.8114 78.4584 19.0814 78.4584C17.3314 78.4584 17.1814 79.0884 16.3914 79.8884C15.6014 80.6684 15.7614 80.6684 14.3314 80.9884C12.9114 81.2984 12.2814 80.9884 11.1714 80.9884C10.0614 80.9884 10.8614 82.0984 10.8614 82.0984C10.8614 82.0984 9.59142 84.4584 8.96142 85.0984C8.33142 85.7284 8.96138 87.1484 9.11138 88.0984C9.27138 89.0484 10.2214 89.6784 10.7014 90.9484C11.1714 92.2084 9.90139 92.8384 9.43139 93.7884C8.96139 94.7384 7.3814 92.6884 7.3814 92.6884C7.3814 92.6884 7.52139 94.2684 7.68139 95.4984L7.48144 95.5484L6.14141 92.4184C5.60166 90.7456 5.22655 89.0241 5.02142 87.2784C4.80142 84.8184 6.14141 85.7084 6.14141 83.6984C6.14141 81.6884 4.35143 81.4684 4.35143 81.4684L2.18139 80.4684C2.29139 79.5684 2.21144 78.1084 2.29144 77.0484C2.36144 76.0484 0.171435 74.0184 0.791435 73.7484C1.33144 73.5084 2.69138 73.4284 1.17138 71.9384C0.251379 71.0384 0.351416 69.2884 1.02142 69.6384C2.44142 70.3884 2.24139 67.7584 2.24139 67.5284C2.20139 66.3484 -0.638606 65.3284 5.06139 66.2484C5.96139 66.3884 4.83139 65.5584 4.31139 63.9684C3.79139 62.3584 4.12138 60.1384 3.67138 58.9984L6.81139 57.3184L8.15142 55.9784C9.32676 56.3311 10.5181 56.628 11.7214 56.8684C13.0714 57.0984 11.9514 55.9784 12.6214 54.6384C13.2914 53.2984 15.7614 53.2984 15.7614 53.2984L18.2114 51.2784L20.8914 51.5084C22.3929 52.913 23.8829 54.3297 25.3614 55.7584C26.2614 56.6484 31.4114 55.3184 34.7614 55.0884C38.1114 54.8584 36.7614 53.2984 37.6614 52.6184C38.5614 51.9484 39.9014 52.3984 41.4614 52.8484C43.0214 53.2984 44.5914 52.1784 44.5914 52.1784L46.8214 51.5084C46.8214 51.5084 51.5214 51.2884 52.4114 50.6084C53.3114 49.9484 55.5414 48.3684 55.5414 48.3684L60.0114 49.2684C61.1314 49.4984 63.1514 49.9484 63.1514 49.9484L62.1614 45.0184C62.4614 45.1484 62.7014 45.2484 62.7014 45.2484C63.9246 44.4647 65.2909 43.9312 66.7214 43.6784C69.1814 43.2384 68.0714 43.0084 70.9714 41.6784C73.8814 40.3284 72.3214 40.7684 76.3414 39.8784C80.3614 38.9884 81.4814 40.9984 83.4914 41.6684C85.5014 42.3384 87.7414 42.5684 87.7414 42.5684C87.7414 42.5684 88.6414 40.7784 90.6514 40.3284C92.6614 39.8784 94.6614 40.3284 96.6814 40.3284C98.7014 40.3284 101.371 39.6584 101.821 38.7584C102.271 37.8584 103.611 35.8584 103.611 35.8584C103.611 35.8584 103.611 34.2984 105.401 32.9484C107.191 31.6084 107.201 30.0484 107.641 28.9284C108.081 27.8084 112.331 24.9084 113.001 23.3384C113.671 21.7784 115.461 19.7584 116.801 18.4184C118.141 17.0784 122.171 17.7484 125.071 17.7484C127.981 17.7484 125.521 15.7384 125.751 14.6184C125.971 13.4984 128.211 15.0684 130.211 14.6184C132.231 14.1684 130.891 13.9484 131.331 12.3884C131.781 10.8184 132.231 11.2684 134.691 11.2684C137.151 11.2684 137.371 10.1484 138.711 9.4784C140.051 8.7984 140.501 7.90841 141.391 6.79841C142.291 5.67841 142.961 5.6784 145.191 6.1284C147.431 6.5684 148.991 5.0084 148.991 5.0084L150.341 2.0984C151.391 1.74243 152.434 1.36905 153.471 0.978401C154.278 0.688351 155.125 0.529662 155.981 0.5084H155.971C156.771 0.4784 157.491 0.538399 158.171 0.538399C159.501 0.538399 159.271 2.0984 159.271 2.0984C158.553 3.41536 157.886 4.7597 157.271 6.1284C156.381 8.1384 155.701 9.69841 155.481 11.2684C155.261 12.8384 157.711 15.2884 157.711 15.2884L161.741 18.4184L163.081 19.9884C163.081 19.9884 161.071 21.3184 160.171 22.2184C159.291 23.1084 157.491 24.2284 157.491 24.2284C157.491 24.2284 155.251 24.4584 154.141 24.8984C153.021 25.3484 153.461 25.7984 153.461 25.7984C153.461 25.7984 151.011 26.0284 149.221 26.2484C147.431 26.4684 148.551 27.1384 147.881 28.4784C147.211 29.8184 146.311 31.3884 146.311 31.3884L144.081 32.9484L143.631 33.3984L142.061 33.6184L140.141 34.1484C139.141 33.6884 138.741 34.8184 138.741 34.8184C138.741 34.8184 135.121 37.6584 133.531 39.0884C131.941 40.5184 129.731 42.0984 128.311 43.5184C126.891 44.9384 123.891 46.8384 123.091 48.5784C122.301 50.3184 122.781 51.4184 122.461 52.2184C122.151 52.9984 120.571 52.3684 120.101 51.8984C119.621 51.4284 118.041 51.7384 117.401 52.0584C116.771 52.3684 116.771 54.2684 116.771 55.2184C116.771 56.1684 116.451 58.2284 115.031 59.3284C113.611 60.4284 114.251 61.6984 113.451 62.3284C112.661 62.9684 112.501 63.2784 112.341 64.2284C112.181 65.1784 112.981 66.4384 113.141 66.9184C113.291 67.3884 112.981 67.7084 112.341 68.9684C111.721 70.2384 112.511 69.7484 112.821 70.3884C113.131 71.0284 112.981 72.4484 112.031 72.2884C111.081 72.1284 109.651 71.4984 108.551 71.0284C107.441 70.5484 106.651 71.8184 106.181 72.7684C105.711 73.7184 105.241 74.9784 104.921 75.9284C104.601 76.8784 103.341 77.0384 102.541 78.1384C101.751 79.2484 102.231 79.5584 102.071 80.9884C101.911 82.4084 100.341 81.9384 99.5414 82.4084C98.7514 82.8784 98.1214 82.8784 97.3314 84.4684C96.5414 86.0484 97.4814 85.4184 98.5914 86.6784C99.7014 87.9384 99.6914 89.6784 99.5414 90.6284C99.3914 91.5784 100.011 94.1184 101.591 95.2184C101.944 95.486 102.278 95.7766 102.591 96.0884C102.271 96.6284 102.071 97.2084 102.071 97.5884C102.071 98.0584 101.601 99.7984 101.601 99.7984C101.601 99.7984 100.641 100.278 100.641 100.748C100.641 101.218 100.961 101.538 100.011 102.018C99.0714 102.488 98.5914 103.748 98.5914 104.218V108.018C98.5914 109.278 97.4814 110.228 96.5414 111.178C95.5914 112.128 95.1114 113.238 95.2714 114.338C95.4314 115.448 96.8514 116.398 95.5914 117.978C94.3214 119.558 93.6914 121.298 93.6914 121.298V122.578C93.2095 123.132 92.8333 123.769 92.5814 124.458C92.1114 125.718 90.6914 125.408 90.5314 123.978C90.3714 122.558 89.8914 120.978 89.8914 120.978C89.8914 120.978 87.8414 123.038 86.2614 124.458C84.6814 125.878 86.2614 126.368 86.2614 128.098C86.2614 129.828 86.1014 129.518 84.8414 130.628C83.5714 131.728 82.7814 132.358 81.6714 131.728C80.5714 131.098 81.3614 129.198 79.4614 129.358C77.5614 129.518 78.6714 130.778 77.4114 132.358C77.1848 132.625 76.938 132.858 76.6714 133.058C76.5614 132.878 76.4214 132.658 76.1414 132.358C74.7214 130.778 74.7214 132.678 74.5714 129.358C74.4014 126.038 74.2414 127.148 73.7714 125.718C73.2914 124.308 73.1414 122.408 72.1914 123.508C71.7714 123.998 70.9414 124.338 70.0914 124.538C70.1145 122.997 70.1845 121.456 70.3014 119.918C70.5314 116.788 73.4314 117.238 73.4314 117.238C73.4314 117.238 73.6514 116.118 73.4314 114.998C73.2114 113.878 71.6514 112.988 70.5314 111.198C69.4114 109.408 73.4314 109.188 73.4314 109.188L76.1114 108.968C76.1114 108.968 75.0014 108.298 73.8814 107.848C72.7614 107.398 68.2914 104.718 68.2914 104.718L68.2514 104.648C68.5265 104.704 68.7925 104.799 69.0414 104.928ZM69.0414 104.928C69.5014 105.198 69.4314 105.498 69.1914 105.168L69.0414 104.928Z" stroke="black"/>
</svg>
