<svg width="126" height="103" viewBox="0 0 126 103" fill="none" xmlns="http://www.w3.org/2000/svg">
<path d="M17.6491 0.511635C17.2147 0.46958 16.7768 0.541972 16.3791 0.721627C14.5591 1.48163 11.1591 1.24163 9.69907 2.22163C8.22907 3.22163 5.69908 2.38164 7.79908 4.48164C8.24584 4.91601 8.66973 5.37329 9.06907 5.85163C9.31555 5.95374 9.5848 5.98826 9.84907 5.95164C10.8191 5.80164 11.7091 5.35164 12.1591 5.73164C13.1135 6.93936 13.6159 8.44272 13.5791 9.98164C13.4291 11.7816 13.3491 15.4316 15.6691 16.2516C17.9791 17.0816 19.5491 15.9516 20.6691 17.6716C21.7891 19.3916 21.4191 19.5416 22.0891 20.7316C22.7591 21.9316 23.3591 21.6316 23.5891 22.3016C23.8191 22.9716 24.3291 23.9416 24.8491 24.3916C25.3791 24.8416 26.2691 26.1116 24.7791 26.7916C23.2791 27.4516 23.0591 27.6816 21.2691 27.0016C19.4691 26.3316 18.8091 26.8516 18.4291 27.3016C18.0491 27.7516 17.3891 29.3216 15.8891 29.8416C14.3991 30.3616 13.7991 30.8916 15.0691 31.8616C16.3391 32.8316 18.8091 32.9016 19.7691 33.8016C20.7391 34.7016 21.4891 37.6016 20.8991 38.5016C20.3091 39.4016 19.0991 40.0016 17.7591 40.0016C16.4191 40.0016 15.7391 39.5416 15.8891 40.3016C16.0391 41.0416 17.8391 43.0516 19.5491 44.4716C21.2591 45.8916 21.5691 46.1916 23.3491 46.5716C25.1491 46.9416 27.1691 48.6516 28.2891 49.4716C29.4091 50.2916 32.1691 51.8716 33.2891 51.8716C34.4091 51.8716 35.6791 52.9816 35.1491 53.8816C34.6291 54.7816 34.9291 56.2016 32.9891 55.8216C31.0491 55.4416 24.5491 54.9216 23.7391 55.2216C22.9091 55.5216 21.4191 55.0716 20.8191 54.9216C20.2191 54.7716 17.0191 55.1516 16.3391 57.2416C15.6691 59.3316 14.4691 60.2216 13.7391 61.7916C12.9791 63.3616 13.6391 63.5916 12.6091 64.3316C11.5691 65.0816 10.1391 64.4816 9.39909 64.3316C8.64909 64.1816 7.82906 63.7316 7.74906 65.1516C7.66906 66.5716 7.89907 68.8916 6.84907 69.5516C5.81907 70.2316 4.24909 69.8516 3.86909 70.9816C3.49909 72.0916 3.49906 72.7716 2.52906 73.5116C1.55906 74.2616 0.729076 74.3316 0.889076 75.7516C1.03908 77.1716 -0.16093 80.2316 1.03907 82.6216C2.23907 85.0216 4.53906 88.5916 5.21906 89.4916C5.89906 90.3916 7.15907 92.4016 6.03907 93.2916C5.09907 94.0516 4.42906 93.8616 4.18906 94.6216L5.45908 94.6316C5.45908 94.6316 5.85909 94.0316 7.11909 94.6016C8.38909 95.1516 7.15908 95.5016 9.57908 95.7016C11.9991 95.9016 11.3491 95.3916 12.6591 96.1016C13.9591 96.8016 15.3891 97.5616 16.6991 96.6516C17.9991 95.7516 17.5291 94.3216 18.1991 93.4116C18.8791 92.5016 20.5391 92.3816 21.0491 93.7616C21.5691 95.1516 20.3391 96.8116 21.9491 96.8616C23.5791 96.8916 23.3491 97.0116 24.3791 96.3016C25.4091 95.6016 24.7291 96.1416 26.3191 96.0216C27.9091 95.9016 28.0191 95.4216 28.4191 94.5916C28.8091 93.7616 29.6391 93.1716 29.7591 94.1616C29.8791 95.1516 29.0591 96.1016 29.7191 96.9316C30.3891 97.7616 30.5891 97.0516 30.8291 98.4816C31.0591 99.9016 30.9891 101.162 32.2891 101.762C33.5891 102.362 35.0591 102.112 35.0191 100.862C34.9791 99.5816 34.5191 98.2416 36.0491 98.7516C37.5891 99.2616 37.4791 100.152 38.4291 100.302C39.3791 100.452 39.4891 101.642 40.0091 99.7816C40.5291 97.9216 39.2591 97.3216 41.3491 96.1416C43.4491 94.9516 43.9291 94.2016 44.8391 96.3416C45.7391 98.4716 45.4691 100.142 47.2191 100.892C48.9491 101.642 49.3091 102.432 49.1891 100.612C49.0691 98.7916 47.729 98.2816 50.389 98.5516C53.029 98.8316 53.1091 99.3516 53.7091 97.8816C54.2991 96.4216 53.109 95.7816 55.639 95.7016C58.169 95.6216 60.0391 96.1416 60.9791 95.1016C61.9291 94.0816 60.6291 93.9616 63.4391 93.9616C66.2491 93.9616 67.1191 94.9616 67.5891 94.0016C68.0691 93.0516 67.7491 92.6216 67.7091 91.6616C67.6691 90.7216 67.9891 89.4516 68.7791 88.9816C69.5791 88.5016 70.7191 87.7516 71.0391 87.3116C71.3591 86.8716 71.839 86.5616 72.139 86.8816C72.439 87.2016 71.939 87.0016 72.579 88.1416C73.209 89.2916 71.8691 89.4516 73.6491 89.6416C75.4291 89.8416 76.2991 90.2016 76.4191 89.8416C76.5391 89.4916 76.4591 89.4416 76.5391 88.1816C76.6191 86.9216 76.9391 86.0816 77.2491 86.8416C77.5691 87.5916 76.4191 87.3916 77.8791 88.4616C79.3491 89.5316 79.2691 89.5616 79.8191 89.6916C80.3791 89.8116 80.2991 88.7816 80.3691 90.2416C80.4591 91.7116 81.2491 92.2616 81.6091 92.3416C81.9591 92.4216 82.1091 92.5016 82.1091 93.4416C82.1091 94.4016 82.1891 94.9116 82.9491 94.4016C83.6991 93.8816 83.9391 91.7916 84.5691 93.4016C85.2091 95.0316 84.2891 94.8016 84.8491 96.1416C85.4091 97.4816 83.9791 97.0916 86.3491 98.5916C88.7191 100.092 89.3991 100.492 89.6491 100.532C89.8791 100.572 90.7791 99.2616 91.5391 98.5116C92.2891 97.7616 92.5291 98.4616 92.9591 96.0916C93.3891 93.7216 93.9091 93.2516 94.1091 93.2516C94.3091 93.2516 95.1391 93.4116 95.6491 94.0816C96.1691 94.7516 96.3291 96.0216 96.9491 94.5916C97.5891 93.1716 98.4591 91.4316 98.8191 91.4716C99.1691 91.5116 99.4891 91.7916 99.5691 92.6216C99.6491 93.4516 99.9291 94.6816 100.669 94.5516C101.429 94.4516 102.299 94.2516 102.499 93.0916C102.699 91.9416 102.739 91.3516 102.969 91.0316C103.209 90.7216 104.559 91.7116 105.069 92.3016C105.579 92.9016 106.969 93.1716 107.049 92.4616C107.129 91.7416 106.849 85.6116 106.819 84.9816C106.783 84.2823 106.931 83.5857 107.249 82.9616C107.529 82.5616 108.709 81.8116 108.349 80.8216C107.989 79.8316 107.129 80.2316 107.329 78.8816C107.529 77.5416 106.929 77.1816 107.999 77.3016C109.069 77.4216 109.629 78.1016 110.299 77.1816C110.969 76.2816 110.419 75.7616 111.129 74.8516C111.829 73.9416 112.949 74.1316 113.929 74.1816C114.929 74.2116 115.789 73.9816 116.029 73.3816C116.269 72.7816 117.779 72.9116 118.329 72.2316C118.879 71.5516 119.159 71.2416 118.999 70.5716C118.839 69.9016 118.399 70.4116 118.399 69.1116C118.399 67.8116 119.639 67.4416 119.279 66.0616C118.919 64.6816 118.049 64.5616 118.049 62.5816C118.049 60.6016 118.169 58.8216 118.879 57.8316C119.599 56.8316 120.699 55.9316 121.689 55.8116C122.679 55.6916 123.709 56.1316 124.229 55.6116C124.729 55.1016 125.489 54.5816 125.449 54.0316C125.419 53.4816 125.609 52.0916 124.659 51.5316C123.719 50.9816 122.059 50.3916 121.419 49.6016C120.716 48.5154 120.23 47.3029 119.989 46.0316C120.029 45.6016 119.319 44.7716 118.489 44.3716C117.659 43.9716 116.829 42.0416 117.419 40.8516C117.939 39.8216 117.889 39.4916 118.269 39.2516L119.169 39.1816L121.309 37.8016L122.559 35.9516L124.229 32.5516C124.349 32.3216 124.049 30.5916 124.049 30.5916L123.569 27.3716L123.089 25.5216L121.919 24.6916C121.499 27.4916 121.439 30.6316 121.119 31.1116C120.859 31.5116 120.219 32.0116 119.449 32.5916C119.309 32.2416 119.129 31.8916 118.799 31.5516C117.939 30.6516 117.259 29.9616 115.439 30.2516C113.619 30.5216 111.239 30.9516 109.899 31.7116C108.549 32.4616 106.899 32.6116 105.659 32.4216C104.439 32.2216 102.959 32.4216 101.029 32.4616C99.0891 32.5016 98.8191 33.5316 97.4291 32.0316C96.2614 30.7917 95.0047 29.6386 93.6691 28.5816C92.9191 27.9816 89.319 28.3016 88.889 29.1816C88.449 30.0416 87.499 31.5516 86.389 31.1116C85.289 30.6816 83.2691 30.4416 82.4691 30.7216C81.6691 31.0016 81.5291 33.2916 79.4691 30.9516C77.4091 28.6116 76.9391 28.3116 75.8691 27.5516C74.7991 26.7916 73.0191 27.1216 72.2291 27.5516C71.4291 27.9916 71.3591 29.4516 69.9291 27.7916C68.4991 26.1316 66.9991 25.6516 66.5591 25.9316C66.1191 26.2116 64.2291 28.1516 63.8391 28.1516C63.4491 28.1516 61.9391 26.5616 61.9391 26.2516C61.9391 25.9316 60.5891 25.1016 59.5191 23.4416C58.4491 21.7816 56.669 20.2716 55.639 20.5916C54.609 20.9116 52.9891 21.6916 51.8391 22.0916C50.6891 22.4916 47.6891 23.6316 46.2591 22.0916C44.8291 20.5516 45.5891 19.8316 42.7791 18.8916C39.9791 17.9416 34.9091 17.5016 33.9991 16.7916C33.0791 16.0916 32.3691 16.3916 32.2491 14.2516C32.1291 12.1216 33.9991 9.51163 31.4491 7.57163C28.9291 5.63163 27.1791 5.03162 26.9891 4.99162C26.7991 4.95162 24.1891 6.34164 23.1891 5.51164C22.1991 4.68164 22.9491 4.88162 21.1691 3.09162C19.8391 1.76162 18.8291 0.671615 17.6491 0.521615V0.511635Z" fill="#D1DBDD"/>
<path d="M118.519 39.0816L118.479 39.1216M17.6491 0.511635C17.2147 0.46958 16.7768 0.541972 16.3791 0.721627C14.5591 1.48163 11.1591 1.24163 9.69907 2.22163C8.22907 3.22163 5.69908 2.38164 7.79908 4.48164C8.24584 4.91601 8.66973 5.37329 9.06907 5.85163C9.31555 5.95374 9.5848 5.98826 9.84907 5.95164C10.8191 5.80164 11.7091 5.35164 12.1591 5.73164C13.1135 6.93936 13.6159 8.44272 13.5791 9.98164C13.4291 11.7816 13.3491 15.4316 15.6691 16.2516C17.9791 17.0816 19.5491 15.9516 20.6691 17.6716C21.7891 19.3916 21.4191 19.5416 22.0891 20.7316C22.7591 21.9316 23.3591 21.6316 23.5891 22.3016C23.8191 22.9716 24.3291 23.9416 24.8491 24.3916C25.3791 24.8416 26.2691 26.1116 24.7791 26.7916C23.2791 27.4516 23.0591 27.6816 21.2691 27.0016C19.4691 26.3316 18.8091 26.8516 18.4291 27.3016C18.0491 27.7516 17.3891 29.3216 15.8891 29.8416C14.3991 30.3616 13.7991 30.8916 15.0691 31.8616C16.3391 32.8316 18.8091 32.9016 19.7691 33.8016C20.7391 34.7016 21.4891 37.6016 20.8991 38.5016C20.3091 39.4016 19.0991 40.0016 17.7591 40.0016C16.4191 40.0016 15.7391 39.5416 15.8891 40.3016C16.0391 41.0416 17.8391 43.0516 19.5491 44.4716C21.2591 45.8916 21.5691 46.1916 23.3491 46.5716C25.1491 46.9416 27.1691 48.6516 28.2891 49.4716C29.4091 50.2916 32.1691 51.8716 33.2891 51.8716C34.4091 51.8716 35.6791 52.9816 35.1491 53.8816C34.6291 54.7816 34.9291 56.2016 32.9891 55.8216C31.0491 55.4416 24.5491 54.9216 23.7391 55.2216C22.9091 55.5216 21.4191 55.0716 20.8191 54.9216C20.2191 54.7716 17.0191 55.1516 16.3391 57.2416C15.6691 59.3316 14.4691 60.2216 13.7391 61.7916C12.9791 63.3616 13.6391 63.5916 12.6091 64.3316C11.5691 65.0816 10.1391 64.4816 9.39909 64.3316C8.64909 64.1816 7.82906 63.7316 7.74906 65.1516C7.66906 66.5716 7.89907 68.8916 6.84907 69.5516C5.81907 70.2316 4.24909 69.8516 3.86909 70.9816C3.49909 72.0916 3.49906 72.7716 2.52906 73.5116C1.55906 74.2616 0.729076 74.3316 0.889076 75.7516C1.03908 77.1716 -0.16093 80.2316 1.03907 82.6216C2.23907 85.0216 4.53906 88.5916 5.21906 89.4916C5.89906 90.3916 7.15907 92.4016 6.03907 93.2916C5.09907 94.0516 4.42906 93.8616 4.18906 94.6216L5.45908 94.6316C5.45908 94.6316 5.85909 94.0316 7.11909 94.6016C8.38909 95.1516 7.15908 95.5016 9.57908 95.7016C11.9991 95.9016 11.3491 95.3916 12.6591 96.1016C13.9591 96.8016 15.3891 97.5616 16.6991 96.6516C17.9991 95.7516 17.5291 94.3216 18.1991 93.4116C18.8791 92.5016 20.5391 92.3816 21.0491 93.7616C21.5691 95.1516 20.3391 96.8116 21.9491 96.8616C23.5791 96.8916 23.3491 97.0116 24.3791 96.3016C25.4091 95.6016 24.7291 96.1416 26.3191 96.0216C27.9091 95.9016 28.0191 95.4216 28.4191 94.5916C28.8091 93.7616 29.6391 93.1716 29.7591 94.1616C29.8791 95.1516 29.0591 96.1016 29.7191 96.9316C30.3891 97.7616 30.5891 97.0516 30.8291 98.4816C31.0591 99.9016 30.9891 101.162 32.2891 101.762C33.5891 102.362 35.0591 102.112 35.0191 100.862C34.9791 99.5816 34.5191 98.2416 36.0491 98.7516C37.5891 99.2616 37.4791 100.152 38.4291 100.302C39.3791 100.452 39.4891 101.642 40.0091 99.7816C40.5291 97.9216 39.2591 97.3216 41.3491 96.1416C43.4491 94.9516 43.9291 94.2016 44.8391 96.3416C45.7391 98.4716 45.4691 100.142 47.2191 100.892C48.9491 101.642 49.3091 102.432 49.1891 100.612C49.0691 98.7916 47.729 98.2816 50.389 98.5516C53.029 98.8316 53.1091 99.3516 53.7091 97.8816C54.2991 96.4216 53.109 95.7816 55.639 95.7016C58.169 95.6216 60.0391 96.1416 60.9791 95.1016C61.9291 94.0816 60.6291 93.9616 63.4391 93.9616C66.2491 93.9616 67.1191 94.9616 67.5891 94.0016C68.0691 93.0516 67.7491 92.6216 67.7091 91.6616C67.6691 90.7216 67.9891 89.4516 68.7791 88.9816C69.5791 88.5016 70.7191 87.7516 71.0391 87.3116C71.3591 86.8716 71.839 86.5616 72.139 86.8816C72.439 87.2016 71.939 87.0016 72.579 88.1416C73.209 89.2916 71.8691 89.4516 73.6491 89.6416C75.4291 89.8416 76.2991 90.2016 76.4191 89.8416C76.5391 89.4916 76.4591 89.4416 76.5391 88.1816C76.6191 86.9216 76.9391 86.0816 77.2491 86.8416C77.5691 87.5916 76.4191 87.3916 77.8791 88.4616C79.3491 89.5316 79.2691 89.5616 79.8191 89.6916C80.3791 89.8116 80.2991 88.7816 80.3691 90.2416C80.4591 91.7116 81.2491 92.2616 81.6091 92.3416C81.9591 92.4216 82.1091 92.5016 82.1091 93.4416C82.1091 94.4016 82.1891 94.9116 82.9491 94.4016C83.6991 93.8816 83.9391 91.7916 84.5691 93.4016C85.2091 95.0316 84.2891 94.8016 84.8491 96.1416C85.4091 97.4816 83.9791 97.0916 86.3491 98.5916C88.7191 100.092 89.3991 100.492 89.6491 100.532C89.8791 100.572 90.7791 99.2616 91.5391 98.5116C92.2891 97.7616 92.5291 98.4616 92.9591 96.0916C93.3891 93.7216 93.9091 93.2516 94.1091 93.2516C94.3091 93.2516 95.1391 93.4116 95.6491 94.0816C96.1691 94.7516 96.3291 96.0216 96.9491 94.5916C97.5891 93.1716 98.4591 91.4316 98.8191 91.4716C99.1691 91.5116 99.4891 91.7916 99.5691 92.6216C99.6491 93.4516 99.9291 94.6816 100.669 94.5516C101.429 94.4516 102.299 94.2516 102.499 93.0916C102.699 91.9416 102.739 91.3516 102.969 91.0316C103.209 90.7216 104.559 91.7116 105.069 92.3016C105.579 92.9016 106.969 93.1716 107.049 92.4616C107.129 91.7416 106.849 85.6116 106.819 84.9816C106.783 84.2823 106.931 83.5857 107.249 82.9616C107.529 82.5616 108.709 81.8116 108.349 80.8216C107.989 79.8316 107.129 80.2316 107.329 78.8816C107.529 77.5416 106.929 77.1816 107.999 77.3016C109.069 77.4216 109.629 78.1016 110.299 77.1816C110.969 76.2816 110.419 75.7616 111.129 74.8516C111.829 73.9416 112.949 74.1316 113.929 74.1816C114.929 74.2116 115.789 73.9816 116.029 73.3816C116.269 72.7816 117.779 72.9116 118.329 72.2316C118.879 71.5516 119.159 71.2416 118.999 70.5716C118.839 69.9016 118.399 70.4116 118.399 69.1116C118.399 67.8116 119.639 67.4416 119.279 66.0616C118.919 64.6816 118.049 64.5616 118.049 62.5816C118.049 60.6016 118.169 58.8216 118.879 57.8316C119.599 56.8316 120.699 55.9316 121.689 55.8116C122.679 55.6916 123.709 56.1316 124.229 55.6116C124.729 55.1016 125.489 54.5816 125.449 54.0316C125.419 53.4816 125.609 52.0916 124.659 51.5316C123.719 50.9816 122.059 50.3916 121.419 49.6016C120.716 48.5154 120.23 47.3029 119.989 46.0316C120.029 45.6016 119.319 44.7716 118.489 44.3716C117.659 43.9716 116.829 42.0416 117.419 40.8516C117.939 39.8216 117.889 39.4916 118.269 39.2516L119.169 39.1816L121.309 37.8016L122.559 35.9516L124.229 32.5516C124.349 32.3216 124.049 30.5916 124.049 30.5916L123.569 27.3716L123.089 25.5216L121.919 24.6916C121.499 27.4916 121.439 30.6316 121.119 31.1116C120.859 31.5116 120.219 32.0116 119.449 32.5916C119.309 32.2416 119.129 31.8916 118.799 31.5516C117.939 30.6516 117.259 29.9616 115.439 30.2516C113.619 30.5216 111.239 30.9516 109.899 31.7116C108.549 32.4616 106.899 32.6116 105.659 32.4216C104.439 32.2216 102.959 32.4216 101.029 32.4616C99.0891 32.5016 98.8191 33.5316 97.4291 32.0316C96.2614 30.7917 95.0047 29.6386 93.6691 28.5816C92.9191 27.9816 89.319 28.3016 88.889 29.1816C88.449 30.0416 87.499 31.5516 86.389 31.1116C85.289 30.6816 83.2691 30.4416 82.4691 30.7216C81.6691 31.0016 81.5291 33.2916 79.4691 30.9516C77.4091 28.6116 76.9391 28.3116 75.8691 27.5516C74.7991 26.7916 73.0191 27.1216 72.2291 27.5516C71.4291 27.9916 71.3591 29.4516 69.9291 27.7916C68.4991 26.1316 66.9991 25.6516 66.5591 25.9316C66.1191 26.2116 64.2291 28.1516 63.8391 28.1516C63.4491 28.1516 61.9391 26.5616 61.9391 26.2516C61.9391 25.9316 60.5891 25.1016 59.5191 23.4416C58.4491 21.7816 56.669 20.2716 55.639 20.5916C54.609 20.9116 52.9891 21.6916 51.8391 22.0916C50.6891 22.4916 47.6891 23.6316 46.2591 22.0916C44.8291 20.5516 45.5891 19.8316 42.7791 18.8916C39.9791 17.9416 34.9091 17.5016 33.9991 16.7916C33.0791 16.0916 32.3691 16.3916 32.2491 14.2516C32.1291 12.1216 33.9991 9.51163 31.4491 7.57163C28.9291 5.63163 27.1791 5.03162 26.9891 4.99162C26.7991 4.95162 24.1891 6.34164 23.1891 5.51164C22.1991 4.68164 22.9491 4.88162 21.1691 3.09162C19.8391 1.76162 18.8291 0.671615 17.6491 0.521615V0.511635Z" stroke="black"/>
</svg>
