<svg width="117" height="198" viewBox="0 0 117 198" fill="none" xmlns="http://www.w3.org/2000/svg">
<path d="M83.1296 0.499756C81.0296 0.499756 78.8296 0.549739 76.7796 0.669739L76.3297 2.84973L74.4296 7.96976L73.6796 9.28973L69.1296 9.66974H68.1896C68.1896 9.66974 70.6496 11.9497 71.9696 12.7097C72.3704 12.9577 72.7134 13.2885 72.9756 13.6801C73.2377 14.0716 73.413 14.5148 73.4896 14.9797L72.9196 15.9197L70.8396 18.3897C70.8396 18.3897 69.3196 17.8198 68.3796 17.0598C67.4296 16.3098 65.7196 15.9197 65.7196 16.4897C65.7196 17.0597 64.9697 17.8197 64.0197 17.8197C63.0697 17.8197 61.5497 19.3398 61.5497 19.3398C61.5497 19.3398 60.2296 18.9497 58.5296 18.1997C56.8296 17.4397 56.0597 17.0598 55.2997 17.0598C54.5397 17.0598 53.2196 16.2997 52.4596 15.3597C51.7096 14.4097 50.5596 14.2197 50.5596 15.3597C50.5596 16.4897 50.1897 18.5797 48.2997 18.1997C46.3997 17.8197 46.5896 19.5197 45.6396 17.6297C45.0638 16.4961 44.2957 15.4709 43.3696 14.5997L43.5596 16.6797C43.5596 16.6797 45.0696 18.1897 45.2596 19.1397C45.4596 20.0897 46.0196 20.8497 45.2596 21.9897C44.4996 23.1197 42.4196 23.8897 42.2296 24.8297C42.0396 25.7797 43.7496 26.9097 45.0696 25.7697C46.3996 24.6397 48.4796 23.5097 49.4296 24.4497C50.3796 25.3897 52.0796 25.2097 52.8396 27.4797C53.5996 29.7497 52.8396 30.6998 54.9296 30.3198C57.0096 29.9498 58.7096 28.0498 59.4696 29.1898C60.2296 30.3198 59.4697 30.6897 60.7997 32.0297C62.1197 33.3497 62.1197 33.1597 60.7997 34.4897C59.4697 35.8197 59.2796 36.3897 59.0996 37.8997C58.8996 39.4197 58.5296 40.1697 56.8196 39.7997C55.1196 39.4197 53.9796 39.2297 52.8396 39.7997C51.7096 40.3597 50.5696 39.4197 50.5696 40.3597C50.5696 41.2997 51.8896 41.3098 50.5696 42.4498C49.2396 43.5798 45.8296 42.6397 46.9696 44.7197C48.0996 46.7997 50.5696 47.7498 50.7496 48.5098C50.9496 49.2598 48.6696 50.2097 46.7796 50.0297C44.8796 49.8297 44.3096 53.2397 44.6996 53.4297C45.0696 53.6297 44.1296 53.6298 42.9896 54.1898C41.8596 54.7598 42.0396 55.8997 40.9096 55.8997C39.7796 55.8997 40.3396 54.7598 38.4396 55.3298C36.5396 55.8998 37.4996 55.7097 37.1196 56.8397C36.7396 57.9797 36.5497 58.7397 34.2697 57.9797C31.9997 57.2197 33.7096 56.4697 31.8096 56.4697C29.9096 56.4697 28.9696 55.8997 29.5396 57.4097C30.0996 58.9297 31.0496 59.8798 30.6696 60.8198C30.2996 61.7698 28.3996 61.5798 28.3996 61.5798L27.0797 63.8597H25.7496C25.7496 63.8597 24.9896 63.2897 25.1796 64.9897C25.3696 66.6897 24.0396 67.8298 23.0996 67.4498C22.1596 67.0698 20.8196 66.8797 20.4496 68.3997C20.0796 69.9197 20.4496 71.8098 19.3096 72.1898C18.1696 72.5698 17.6097 73.5197 18.5497 74.2697C19.4997 75.0297 21.1996 74.0797 20.2496 75.2197C19.3096 76.3497 19.1196 76.3598 17.7896 77.3098C16.4596 78.2498 19.2996 79.7697 17.7896 82.6097C16.2796 85.4497 16.2796 84.1197 16.2796 86.5897C16.2796 89.0597 16.8497 89.0498 15.5197 90.7498L13.3496 92.3397C12.8596 92.7597 12.1596 93.0398 11.1496 93.5698C9.64963 94.3498 9.22964 95.0497 8.37964 95.9697C7.52964 96.8897 7.95965 97.7398 8.16965 99.5698C8.37965 101.42 9.08964 102.62 10.7896 105.09C12.4896 107.57 11.8496 107.36 11.8496 108.63C11.8496 109.91 10.6496 110.4 9.72964 110.97C8.80964 111.54 9.51963 111.81 9.86963 112.1C10.2196 112.39 12.4896 112.67 13.3996 113.37C14.3296 114.07 13.1996 115.91 13.2596 117.54C13.3296 119.17 13.1196 120.87 12.7596 121.22C12.4096 121.57 11.3596 121.43 10.1596 122.07C8.95964 122.71 8.02965 122.57 7.10965 123.7C6.18965 124.83 7.88964 124.69 9.00964 124.75C10.1496 124.83 9.79964 124.83 10.4396 125.96C11.0796 127.09 11.4897 127.44 12.7697 128.44C14.0397 129.42 12.5596 129.29 11.9196 130.28C11.2796 131.27 10.4396 131.98 10.3596 133.18C10.2896 134.38 10.0096 134.58 9.36963 135.65C8.73963 136.71 7.88965 136 7.66965 136.71C7.46965 137.41 8.59963 137.91 9.58963 137.42C10.4592 136.976 11.4564 136.848 12.4096 137.06C13.0496 137.28 13.0496 137.77 13.4096 139.04C13.7596 140.32 16.8696 142.58 18.0696 142.58C19.2696 142.58 20.4696 143.43 21.2496 144.07C22.0296 144.7 22.2496 145.48 21.1096 146.19C19.9796 146.89 19.7696 148.8 19.4896 150.08C19.2096 151.35 18.5696 151.92 16.8696 153.05C15.1696 154.18 13.8997 151.78 13.0497 151.14C12.1997 150.5 10.2196 149.94 9.72964 150.86C9.22964 151.78 7.74965 152.2 7.10965 153.41C6.47965 154.61 6.96964 155.66 6.46964 155.95C5.97964 156.23 4.63965 156.02 4.69965 156.8C4.71477 157.995 4.39989 159.172 3.78964 160.2C3.08964 161.47 3.64964 161.4 4.06964 163.1C4.26751 163.798 4.26659 164.538 4.06696 165.236C3.86732 165.933 3.4769 166.562 2.93964 167.05C2.03964 167.8 1.42963 167.78 0.619629 168.47C0.859629 168.96 1.27963 169.46 1.95963 169.92C4.60963 171.72 6.88963 170.76 9.05963 171.48C11.2296 172.2 12.0696 172.21 12.5596 173.05C13.0296 173.89 12.9096 173.89 13.5096 174.37C14.1096 174.85 13.8796 174.49 14.2396 175.94C14.5996 177.38 14.1197 178.34 15.7997 179.67C17.4897 180.99 17.1196 180.03 18.1996 180.87C19.2996 181.71 19.5296 182.56 18.6896 182.67C17.8496 182.8 16.5197 182.56 16.5197 183.64C16.5197 184.72 16.3996 186.53 17.7196 185.81C19.0496 185.09 19.1696 184.36 19.8896 184.12C20.6196 183.88 22.0596 182.68 21.6896 183.88C21.3396 185.08 20.8597 185.45 22.2997 185.45C23.7497 185.45 24.4696 184.6 24.5896 185.45C24.7096 186.29 23.4996 186.41 23.1496 187.49C22.7796 188.58 22.7796 188.46 23.3796 189.18C23.9796 189.9 24.8296 190.02 24.7096 191.46C24.5896 192.91 23.8697 193.15 24.8297 194.59C25.7897 196.04 26.2696 198.09 27.3596 196.88C28.4396 195.68 28.1996 194.84 29.2796 195.19C30.3596 195.56 31.9296 195.44 34.2196 196.4C36.2596 197.26 36.1997 197.82 37.7997 196.99L37.7396 196.81L37.6396 196.61C37.3696 196.19 37.1896 194.08 36.8396 193.43L38.9996 191.14L39.5396 188.3C39.5396 188.3 38.4996 185.97 40.3396 182.6C41.0396 181.35 42.1996 182.32 42.4996 182C43.1996 181.27 44.8796 180.03 48.0696 178.37C50.4696 177.12 52.1496 172.92 53.0596 172.47C55.1696 171.4 52.3296 171.42 51.6496 169.87C52.1896 169.01 52.8496 168.79 52.9696 168.6C52.0996 168.16 51.5296 167.73 52.3096 168.1C52.8896 168.36 53.0396 168.48 52.9596 168.6C53.7596 169 54.7997 169.42 55.3297 169.24C57.8597 169.37 56.9096 166.88 57.5996 167.04C58.7996 167.31 59.6496 163.48 60.4096 163.28C62.0096 162.86 61.8396 160.91 62.1096 159.71C62.4296 158.4 58.6997 156.39 59.2997 156.53C61.0097 156.9 59.9396 150.41 60.7296 150.27C61.6896 150.11 58.9096 148.8 59.0896 148.37C59.4096 147.58 55.6996 146.37 55.8496 145.3C56.0996 143.54 56.1896 141.84 56.3796 141.67C56.8196 141.25 54.6396 140.69 55.0596 140.11C55.6796 139.25 56.1296 138.33 55.9596 137.61C55.6096 136.11 51.7896 135.83 51.4596 135.41C51.2596 135.15 48.4197 134.03 49.0797 132.95C49.5697 132.17 48.6996 130.91 49.2196 130.15C49.6196 129.55 51.3196 129.35 52.0396 129.28C52.6396 129.22 53.5196 128.54 54.1396 129.03C55.0796 129.79 60.1996 129.88 61.4196 130.72C61.5196 130.79 63.3197 133.98 63.7997 134.77C64.2497 135.5 67.1596 133.82 67.8196 134.55C68.4496 135.23 70.4597 134.78 70.0197 135.23C69.1997 136.09 71.8796 136.28 72.6996 136.55C73.4396 136.79 74.8896 135.78 75.1596 135.73C75.7596 135.61 74.3196 134.27 74.5596 133.8C75.1896 132.61 74.6296 130.49 75.0296 130.47C75.9896 130.45 70.2896 130.53 70.3596 130.27C70.5196 129.67 66.3196 129.23 65.9396 127.72C65.5096 126 65.7996 124.65 65.6396 123.77C65.2296 121.67 64.0996 118.76 64.9196 119.47C66.4896 120.84 64.0496 117.27 64.8896 117.3C65.8196 117.33 64.6697 115.16 64.5197 113.88C64.3297 112.21 63.7797 110.2 64.2697 109.81C65.9797 108.47 62.2196 104.93 64.1696 104.21C65.9696 103.54 67.0696 105.59 68.1996 105.08C69.2096 104.62 67.1797 101.58 67.5197 102.06C68.0697 102.86 67.7296 100.14 68.2796 100.64C69.8596 102.04 69.8896 99.1497 70.1896 97.3997C70.4896 95.6597 72.2196 92.8597 73.4796 93.2697C74.3396 93.5597 75.6796 93.2297 76.4596 93.4697C78.5896 94.1297 78.6097 91.5897 80.2997 92.4697C81.3597 93.0297 81.8996 94.1698 82.5696 94.6298C83.3496 95.1398 84.4196 94.9697 84.4196 95.2297C84.4496 96.9797 85.6096 91.4097 86.6696 90.5197C87.2896 90.0197 87.8696 90.3397 88.2396 89.9297C88.9896 89.1097 88.2296 87.8797 89.0296 87.3497C90.1796 86.5897 91.4297 87.9397 91.7997 87.1697C92.0997 86.5297 90.3496 85.5698 89.4196 85.1298C90.6796 85.2998 88.9596 80.7998 90.2196 79.8798C91.0896 79.2398 91.5796 78.7197 92.5096 75.5197C92.8396 74.3597 94.2596 74.6198 94.7496 74.8198C95.7696 75.2398 96.5296 72.6398 96.7796 72.6998C100.39 73.5398 94.9196 67.8997 96.6296 67.3397C97.7496 66.9797 97.7896 68.0098 98.6596 67.5098C99.1296 67.2398 97.9296 67.2198 98.3396 66.8898C98.9796 66.3598 97.7696 64.3897 98.3696 63.9197C100.71 62.0697 101.97 61.1698 103.37 61.3198C105.87 61.6098 108.35 58.9697 109.02 58.8497C110.61 58.5897 108.93 53.8897 109.2 53.3597C109.45 52.8597 110.77 52.7197 110.87 52.7097C110.72 52.7197 110.59 52.7497 110.52 52.7097C110.3 52.5997 109.85 52.7098 109.7 52.4498C109.55 52.1898 109.59 51.5198 110.04 50.8098C110.49 50.0998 112.39 49.9097 113.36 49.7997C114.34 49.6797 115.56 48.2297 115.12 47.5997C114.68 46.9697 111.02 47.6998 110.15 48.1898C109.29 48.6798 107.54 47.9298 106.9 47.6298C106.27 47.3298 105.82 46.2897 106.12 45.9097C106.42 45.5297 109.32 44.9798 110.34 44.5698C111.34 44.1598 112.32 43.2197 112.32 41.7297C112.32 40.2297 113.44 39.9698 114.56 39.0798C115.68 38.1798 114.97 37.2097 115.04 36.4297C115.12 35.6397 115.38 36.1297 116.16 35.2297C116.95 34.3297 116.06 34.3697 115.79 33.9597C115.53 33.5497 114.49 33.6998 112.84 33.6998C111.2 33.6998 110.04 33.8898 109.81 33.8098C109.58 33.7298 108.43 31.6498 107.61 30.9398C106.79 30.2298 106.23 27.2397 106.41 25.8597C106.61 24.4797 106.61 23.6898 105.74 22.8698C104.88 22.0498 105.11 21.7497 105.48 20.8197C105.86 19.8797 106.83 19.0197 107.24 17.5697C107.65 16.1097 106.23 14.9497 105.71 14.0197C105.18 13.0797 103.99 13.8397 103.61 14.5797C103.24 15.3297 102.35 15.8497 101.04 15.5497C99.7296 15.2497 99.8396 14.4298 99.0996 13.4998C98.3496 12.5598 97.5296 10.7297 96.6696 9.04974C95.8096 7.36974 96.1096 8.51975 95.1696 7.77975C94.2296 7.03975 91.8897 4.27973 90.5797 2.62973C89.7836 1.71216 88.7739 1.00468 87.6396 0.569733C86.14 0.525691 84.6399 0.502379 83.1396 0.499756H83.1296ZM37.7296 196.8L37.8297 196.97L38.4296 196.64C38.4696 196.62 38.5296 196.55 38.5696 196.52C38.329 196.637 38.0671 196.705 37.7997 196.72C37.7463 196.72 37.7263 196.75 37.7396 196.81L37.7296 196.8Z" fill="#D1DBDD"/>
<path d="M37.7396 196.81L37.7997 196.99C36.1997 197.82 36.2596 197.26 34.2196 196.4C31.9296 195.44 30.3596 195.56 29.2796 195.19C28.1996 194.84 28.4396 195.68 27.3596 196.88C26.2696 198.09 25.7897 196.04 24.8297 194.59C23.8697 193.15 24.5896 192.91 24.7096 191.46C24.8296 190.02 23.9796 189.9 23.3796 189.18C22.7796 188.46 22.7796 188.58 23.1496 187.49C23.4996 186.41 24.7096 186.29 24.5896 185.45C24.4696 184.6 23.7497 185.45 22.2997 185.45C20.8597 185.45 21.3396 185.08 21.6896 183.88C22.0596 182.68 20.6196 183.88 19.8896 184.12C19.1696 184.36 19.0496 185.09 17.7196 185.81C16.3996 186.53 16.5197 184.72 16.5197 183.64C16.5197 182.56 17.8496 182.8 18.6896 182.67C19.5296 182.56 19.2996 181.71 18.1996 180.87C17.1196 180.03 17.4897 180.99 15.7997 179.67C14.1197 178.34 14.5996 177.38 14.2396 175.94C13.8796 174.49 14.1096 174.85 13.5096 174.37C12.9096 173.89 13.0296 173.89 12.5596 173.05C12.0696 172.21 11.2296 172.2 9.05963 171.48C6.88963 170.76 4.60963 171.72 1.95963 169.92C1.27963 169.46 0.859629 168.96 0.619629 168.47C1.42963 167.78 2.03964 167.8 2.93964 167.05C3.4769 166.562 3.86732 165.933 4.06696 165.236C4.26659 164.538 4.26751 163.798 4.06964 163.1C3.64964 161.4 3.08964 161.47 3.78964 160.2C4.39989 159.172 4.71477 157.995 4.69965 156.8C4.63965 156.02 5.97964 156.23 6.46964 155.95C6.96964 155.66 6.47965 154.61 7.10965 153.41C7.74965 152.2 9.22964 151.78 9.72964 150.86C10.2196 149.94 12.1997 150.5 13.0497 151.14C13.8997 151.78 15.1696 154.18 16.8696 153.05C18.5696 151.92 19.2096 151.35 19.4896 150.08C19.7696 148.8 19.9796 146.89 21.1096 146.19C22.2496 145.48 22.0296 144.7 21.2496 144.07C20.4696 143.43 19.2696 142.58 18.0696 142.58C16.8696 142.58 13.7596 140.32 13.4096 139.04C13.0496 137.77 13.0496 137.28 12.4096 137.06C11.4564 136.848 10.4592 136.976 9.58963 137.42C8.59963 137.91 7.46965 137.41 7.66965 136.71C7.88965 136 8.73963 136.71 9.36963 135.65C10.0096 134.58 10.2896 134.38 10.3596 133.18C10.4396 131.98 11.2796 131.27 11.9196 130.28C12.5596 129.29 14.0397 129.42 12.7697 128.44C11.4897 127.44 11.0796 127.09 10.4396 125.96C9.79964 124.83 10.1496 124.83 9.00964 124.75C7.88964 124.69 6.18965 124.83 7.10965 123.7C8.02965 122.57 8.95964 122.71 10.1596 122.07C11.3596 121.43 12.4096 121.57 12.7596 121.22C13.1196 120.87 13.3296 119.17 13.2596 117.54C13.1996 115.91 14.3296 114.07 13.3996 113.37C12.4896 112.67 10.2196 112.39 9.86963 112.1C9.51963 111.81 8.80964 111.54 9.72964 110.97C10.6496 110.4 11.8496 109.91 11.8496 108.63C11.8496 107.36 12.4896 107.57 10.7896 105.09C9.08964 102.62 8.37965 101.42 8.16965 99.5698C7.95965 97.7398 7.52964 96.8897 8.37964 95.9697C9.22964 95.0497 9.64963 94.3498 11.1496 93.5698C12.1596 93.0398 12.8596 92.7597 13.3496 92.3397L15.5197 90.7498C16.8497 89.0498 16.2796 89.0597 16.2796 86.5897C16.2796 84.1197 16.2796 85.4497 17.7896 82.6097C19.2996 79.7697 16.4596 78.2498 17.7896 77.3098C19.1196 76.3598 19.3096 76.3497 20.2496 75.2197C21.1996 74.0797 19.4997 75.0297 18.5497 74.2697C17.6097 73.5197 18.1696 72.5698 19.3096 72.1898C20.4496 71.8098 20.0796 69.9197 20.4496 68.3997C20.8196 66.8797 22.1596 67.0698 23.0996 67.4498C24.0396 67.8298 25.3696 66.6897 25.1796 64.9897C24.9896 63.2897 25.7496 63.8597 25.7496 63.8597H27.0797L28.3996 61.5798C28.3996 61.5798 30.2996 61.7698 30.6696 60.8198C31.0496 59.8798 30.0996 58.9297 29.5396 57.4097C28.9696 55.8997 29.9096 56.4697 31.8096 56.4697C33.7096 56.4697 31.9997 57.2197 34.2697 57.9797C36.5497 58.7397 36.7396 57.9797 37.1196 56.8397C37.4996 55.7097 36.5396 55.8998 38.4396 55.3298C40.3396 54.7598 39.7796 55.8997 40.9096 55.8997C42.0396 55.8997 41.8596 54.7598 42.9896 54.1898C44.1296 53.6298 45.0696 53.6297 44.6996 53.4297C44.3096 53.2397 44.8796 49.8297 46.7796 50.0297C48.6696 50.2097 50.9496 49.2598 50.7496 48.5098C50.5696 47.7498 48.0996 46.7997 46.9696 44.7197C45.8296 42.6397 49.2396 43.5798 50.5696 42.4498C51.8896 41.3098 50.5696 41.2997 50.5696 40.3597C50.5696 39.4197 51.7096 40.3597 52.8396 39.7997C53.9796 39.2297 55.1196 39.4197 56.8196 39.7997C58.5296 40.1697 58.8996 39.4197 59.0996 37.8997C59.2796 36.3897 59.4697 35.8197 60.7997 34.4897C62.1197 33.1597 62.1197 33.3497 60.7997 32.0297C59.4697 30.6897 60.2296 30.3198 59.4696 29.1898C58.7096 28.0498 57.0096 29.9498 54.9296 30.3198C52.8396 30.6998 53.5996 29.7497 52.8396 27.4797C52.0796 25.2097 50.3796 25.3897 49.4296 24.4497C48.4796 23.5097 46.3996 24.6397 45.0696 25.7697C43.7496 26.9097 42.0396 25.7797 42.2296 24.8297C42.4196 23.8897 44.4996 23.1197 45.2596 21.9897C46.0196 20.8497 45.4596 20.0897 45.2596 19.1397C45.0696 18.1897 43.5596 16.6797 43.5596 16.6797L43.3696 14.5997C44.2957 15.4709 45.0638 16.4961 45.6396 17.6297C46.5896 19.5197 46.3997 17.8197 48.2997 18.1997C50.1897 18.5797 50.5596 16.4897 50.5596 15.3597C50.5596 14.2197 51.7096 14.4097 52.4596 15.3597C53.2196 16.2997 54.5397 17.0598 55.2997 17.0598C56.0597 17.0598 56.8296 17.4397 58.5296 18.1997C60.2296 18.9497 61.5497 19.3398 61.5497 19.3398C61.5497 19.3398 63.0697 17.8197 64.0197 17.8197C64.9697 17.8197 65.7196 17.0597 65.7196 16.4897C65.7196 15.9197 67.4296 16.3098 68.3796 17.0598C69.3196 17.8198 70.8396 18.3897 70.8396 18.3897L72.9196 15.9197L73.4896 14.9797C73.413 14.5148 73.2377 14.0716 72.9756 13.6801C72.7134 13.2885 72.3704 12.9577 71.9696 12.7097C70.6496 11.9497 68.1896 9.66974 68.1896 9.66974H69.1296L73.6796 9.28973L74.4296 7.96976L76.3297 2.84973L76.7796 0.669739C78.8296 0.549739 81.0296 0.499756 83.1296 0.499756H83.1396C84.6399 0.502379 86.14 0.525691 87.6396 0.569733C88.7739 1.00468 89.7836 1.71216 90.5797 2.62973C91.8897 4.27973 94.2296 7.03975 95.1696 7.77975C96.1096 8.51975 95.8096 7.36974 96.6696 9.04974C97.5296 10.7297 98.3496 12.5598 99.0996 13.4998C99.8396 14.4298 99.7296 15.2497 101.04 15.5497C102.35 15.8497 103.24 15.3297 103.61 14.5797C103.99 13.8397 105.18 13.0797 105.71 14.0197C106.23 14.9497 107.65 16.1097 107.24 17.5697C106.83 19.0197 105.86 19.8797 105.48 20.8197C105.11 21.7497 104.88 22.0498 105.74 22.8698C106.61 23.6898 106.61 24.4797 106.41 25.8597C106.23 27.2397 106.79 30.2298 107.61 30.9398C108.43 31.6498 109.58 33.7298 109.81 33.8098C110.04 33.8898 111.2 33.6998 112.84 33.6998C114.49 33.6998 115.53 33.5497 115.79 33.9597C116.06 34.3697 116.95 34.3297 116.16 35.2297C115.38 36.1297 115.12 35.6397 115.04 36.4297C114.97 37.2097 115.68 38.1798 114.56 39.0798C113.44 39.9698 112.32 40.2297 112.32 41.7297C112.32 43.2197 111.34 44.1598 110.34 44.5698C109.32 44.9798 106.42 45.5297 106.12 45.9097C105.82 46.2897 106.27 47.3298 106.9 47.6298C107.54 47.9298 109.29 48.6798 110.15 48.1898C111.02 47.6998 114.68 46.9697 115.12 47.5997C115.56 48.2297 114.34 49.6797 113.36 49.7997C112.39 49.9097 110.49 50.0998 110.04 50.8098C109.59 51.5198 109.55 52.1898 109.7 52.4498C109.85 52.7098 110.3 52.5997 110.52 52.7097C110.59 52.7497 110.72 52.7197 110.87 52.7097C110.77 52.7197 109.45 52.8597 109.2 53.3597C108.93 53.8897 110.61 58.5897 109.02 58.8497C108.35 58.9697 105.87 61.6098 103.37 61.3198C101.97 61.1698 100.71 62.0697 98.3696 63.9197C97.7696 64.3897 98.9796 66.3598 98.3396 66.8898C97.9296 67.2198 99.1296 67.2398 98.6596 67.5098C97.7896 68.0098 97.7496 66.9797 96.6296 67.3397C94.9196 67.8997 100.39 73.5398 96.7796 72.6998C96.5296 72.6398 95.7696 75.2398 94.7496 74.8198C94.2596 74.6198 92.8396 74.3597 92.5096 75.5197C91.5796 78.7197 91.0896 79.2398 90.2196 79.8798C88.9596 80.7998 90.6796 85.2998 89.4196 85.1298C90.3496 85.5698 92.0997 86.5297 91.7997 87.1697C91.4297 87.9397 90.1796 86.5897 89.0296 87.3497C88.2296 87.8797 88.9896 89.1097 88.2396 89.9297C87.8696 90.3397 87.2896 90.0197 86.6696 90.5197C85.6096 91.4097 84.4496 96.9797 84.4196 95.2297C84.4196 94.9697 83.3496 95.1398 82.5696 94.6298C81.8996 94.1698 81.3597 93.0297 80.2997 92.4697C78.6097 91.5897 78.5896 94.1297 76.4596 93.4697C75.6796 93.2297 74.3396 93.5597 73.4796 93.2697C72.2196 92.8597 70.4896 95.6597 70.1896 97.3997C69.8896 99.1497 69.8596 102.04 68.2796 100.64C67.7296 100.14 68.0697 102.86 67.5197 102.06C67.1797 101.58 69.2096 104.62 68.1996 105.08C67.0696 105.59 65.9696 103.54 64.1696 104.21C62.2196 104.93 65.9797 108.47 64.2697 109.81C63.7797 110.2 64.3297 112.21 64.5197 113.88C64.6697 115.16 65.8196 117.33 64.8896 117.3C64.0496 117.27 66.4896 120.84 64.9196 119.47C64.0996 118.76 65.2296 121.67 65.6396 123.77C65.7996 124.65 65.5096 126 65.9396 127.72C66.3196 129.23 70.5196 129.67 70.3596 130.27C70.2896 130.53 75.9896 130.45 75.0296 130.47C74.6296 130.49 75.1896 132.61 74.5596 133.8C74.3196 134.27 75.7596 135.61 75.1596 135.73C74.8896 135.78 73.4396 136.79 72.6996 136.55C71.8796 136.28 69.1997 136.09 70.0197 135.23C70.4597 134.78 68.4496 135.23 67.8196 134.55C67.1596 133.82 64.2497 135.5 63.7997 134.77C63.3197 133.98 61.5196 130.79 61.4196 130.72C60.1996 129.88 55.0796 129.79 54.1396 129.03C53.5196 128.54 52.6396 129.22 52.0396 129.28C51.3196 129.35 49.6196 129.55 49.2196 130.15C48.6996 130.91 49.5697 132.17 49.0797 132.95C48.4197 134.03 51.2596 135.15 51.4596 135.41C51.7896 135.83 55.6096 136.11 55.9596 137.61C56.1296 138.33 55.6796 139.25 55.0596 140.11C54.6396 140.69 56.8196 141.25 56.3796 141.67C56.1896 141.84 56.0996 143.54 55.8496 145.3C55.6996 146.37 59.4096 147.58 59.0896 148.37C58.9096 148.8 61.6896 150.11 60.7296 150.27C59.9396 150.41 61.0097 156.9 59.2997 156.53C58.6997 156.39 62.4296 158.4 62.1096 159.71C61.8396 160.91 62.0096 162.86 60.4096 163.28C59.6496 163.48 58.7996 167.31 57.5996 167.04C56.9096 166.88 57.8597 169.37 55.3297 169.24C54.7997 169.42 53.7596 169 52.9596 168.6C53.0396 168.48 52.8896 168.36 52.3096 168.1C51.5296 167.73 52.0996 168.16 52.9696 168.6C52.8496 168.79 52.1896 169.01 51.6496 169.87C52.3296 171.42 55.1696 171.4 53.0596 172.47C52.1496 172.92 50.4696 177.12 48.0696 178.37C44.8796 180.03 43.1996 181.27 42.4996 182C42.1996 182.32 41.0396 181.35 40.3396 182.6C38.4996 185.97 39.5396 188.3 39.5396 188.3L38.9996 191.14L36.8396 193.43C37.1896 194.08 37.3696 196.19 37.6396 196.61L37.7396 196.81ZM37.7396 196.81C37.7263 196.75 37.7463 196.72 37.7997 196.72C38.0671 196.705 38.329 196.637 38.5696 196.52C38.5296 196.55 38.4696 196.62 38.4296 196.64L37.8297 196.97L37.7296 196.8L37.7396 196.81Z" stroke="black" stroke-width="0.99943"/>
</svg>
