<svg width="24" height="34" viewBox="0 0 24 34" fill="none" xmlns="http://www.w3.org/2000/svg">
<path d="M8.74599 0.531372C8.74599 0.531372 8.03599 0.611384 7.32599 1.73138C6.62599 2.87138 4.716 3.23141 3.726 3.51141C2.856 3.75141 1.48599 3.56137 1.17599 3.03137L0.645996 3.55139C0.645996 3.55139 1.73599 5.1814 2.18599 6.0014C2.64599 6.8014 3.456 9.62137 4.006 10.3414C4.546 11.0714 4.00598 11.8814 4.80598 12.1514C5.62598 12.4314 7.076 12.1514 7.896 12.4314C8.37388 12.5837 8.83078 12.7954 9.256 13.0614L5.71599 14.2414L6.086 16.8714C6.086 16.8714 8.25599 19.0414 8.71599 19.7714C9.16599 20.4914 9.52599 21.0314 10.076 22.5714C10.616 24.1214 11.336 25.5714 11.876 26.3814C12.426 27.2014 13.246 27.5614 14.326 29.0114C15.426 30.4614 14.696 31.9114 15.426 32.4514C15.666 32.6414 16.086 32.7414 16.596 32.7714C16.206 32.5814 15.956 32.3414 15.906 31.9114C15.806 31.0614 16.756 31.4914 17.396 30.4214C18.026 29.3614 17.396 28.8314 17.926 28.2014C18.446 27.5614 19.826 27.3514 19.826 27.3514C19.826 27.3514 20.896 26.2814 21.006 25.4314C21.116 24.5814 21.106 23.5314 21.106 22.6714C21.106 21.8114 20.896 18.6414 21.206 17.6814C21.536 16.7314 21.316 17.0414 21.856 16.3014C22.386 15.5614 23.016 15.2414 22.386 14.0814C21.746 12.9014 20.786 13.3314 21.636 12.1614C22.486 10.9914 22.916 10.6814 23.016 10.1514C23.126 9.61137 23.866 9.61141 23.116 8.13141C22.386 6.64141 21.426 3.88141 20.896 3.88141C20.366 3.88141 19.836 3.67138 19.196 3.98138C18.556 4.31138 17.496 6.01141 16.866 3.88141L16.856 3.79138C16.546 4.34613 16.1196 4.82714 15.606 5.20135C14.476 5.98135 12.426 4.78137 11.646 4.28137C10.866 3.79137 8.74599 0.531372 8.74599 0.531372Z" fill="#D1DBDD"/>
<path d="M18.906 0.891357C18.616 1.23136 18.356 1.69138 17.936 2.16138M8.74599 0.531372C8.74599 0.531372 8.03599 0.611384 7.32599 1.73138C6.62599 2.87138 4.716 3.23141 3.726 3.51141C2.856 3.75141 1.48599 3.56137 1.17599 3.03137L0.645996 3.55139C0.645996 3.55139 1.73599 5.1814 2.18599 6.0014C2.64599 6.8014 3.456 9.62137 4.006 10.3414C4.546 11.0714 4.00598 11.8814 4.80598 12.1514C5.62598 12.4314 7.076 12.1514 7.896 12.4314C8.37388 12.5837 8.83078 12.7954 9.256 13.0614L5.71599 14.2414L6.086 16.8714C6.086 16.8714 8.25599 19.0414 8.71599 19.7714C9.16599 20.4914 9.52599 21.0314 10.076 22.5714C10.616 24.1214 11.336 25.5714 11.876 26.3814C12.426 27.2014 13.246 27.5614 14.326 29.0114C15.426 30.4614 14.696 31.9114 15.426 32.4514C15.666 32.6414 16.086 32.7414 16.596 32.7714C16.206 32.5814 15.956 32.3414 15.906 31.9114C15.806 31.0614 16.756 31.4914 17.396 30.4214C18.026 29.3614 17.396 28.8314 17.926 28.2014C18.446 27.5614 19.826 27.3514 19.826 27.3514C19.826 27.3514 20.896 26.2814 21.006 25.4314C21.116 24.5814 21.106 23.5314 21.106 22.6714C21.106 21.8114 20.896 18.6414 21.206 17.6814C21.536 16.7314 21.316 17.0414 21.856 16.3014C22.386 15.5614 23.016 15.2414 22.386 14.0814C21.746 12.9014 20.786 13.3314 21.636 12.1614C22.486 10.9914 22.916 10.6814 23.016 10.1514C23.126 9.61137 23.866 9.61141 23.116 8.13141C22.386 6.64141 21.426 3.88141 20.896 3.88141C20.366 3.88141 19.836 3.67138 19.196 3.98138C18.556 4.31138 17.496 6.01141 16.866 3.88141L16.856 3.79138C16.546 4.34613 16.1196 4.82714 15.606 5.20135C14.476 5.98135 12.426 4.78137 11.646 4.28137C10.866 3.79137 8.74599 0.531372 8.74599 0.531372Z" stroke="black"/>
</svg>
