<svg width="185" height="150" viewBox="0 0 185 150" fill="none" xmlns="http://www.w3.org/2000/svg">
<path d="M91.6033 0.50415C91.4448 0.505456 91.287 0.525595 91.1333 0.564148C89.6133 0.924148 88.2033 2.56416 86.6833 2.67416C86.3633 2.69416 86.0233 2.41414 85.6633 1.93414C85.3133 2.91414 86.3833 3.73417 86.9733 4.39417C87.6433 5.12417 87.3133 8.07416 87.3133 8.07416C87.3133 8.07416 85.3033 10.7442 85.2333 11.9542C85.1733 13.1542 86.9133 14.4241 88.1133 15.4941C89.3133 16.5641 87.5833 16.2942 86.2433 16.2942C84.9033 16.2942 82.8333 17.0342 82.2333 17.9742C81.6333 18.9142 80.5533 19.9741 79.7533 20.1141C78.9533 20.2441 77.2833 19.6441 76.1433 18.7741C75.0033 17.9041 75.4733 14.2242 75.1433 13.6942C74.8033 13.1542 73.8633 12.6941 72.3333 14.0241C70.7933 15.3641 68.1833 15.0242 65.6333 15.4242C63.1033 15.8242 60.6233 15.7642 59.7533 17.1042C58.8833 18.4442 59.0233 19.9042 57.7533 20.8542C56.4733 21.7842 54.7333 20.5142 53.3333 20.3842C51.9333 20.2442 50.6533 18.8442 48.9133 18.3842C47.1733 17.9042 45.9733 16.1042 44.0333 15.1642C42.0933 14.2242 41.5633 14.8942 39.8833 15.7642C38.2133 16.6342 34.9333 16.5642 33.4633 16.2342C31.9933 15.9042 31.7233 14.8342 30.7233 14.8942C29.7233 14.9642 28.5133 16.2342 28.1233 15.6942C27.7133 15.1642 26.1733 15.4242 25.0333 15.2242C23.9033 15.0242 23.8333 14.0242 23.2933 13.4242C22.7633 12.8242 20.3533 13.5541 19.6133 14.3641C18.8833 15.1641 19.8133 16.3642 20.0933 17.7642C20.3533 19.1742 18.4133 24.3242 17.6833 24.7242C16.9533 25.1242 13.4033 24.2641 12.5333 23.9941C11.6633 23.7241 5.63327 22.3941 5.03327 22.5941C4.43327 22.7941 2.49327 27.4741 2.49327 28.3441C2.49327 29.2041 3.16327 30.4842 3.03327 31.8842C2.89327 33.2842 1.43327 33.2841 0.693271 34.0841C-0.0467291 34.8841 1.49327 35.9641 2.69327 37.0341C3.89327 38.1041 5.03327 36.6342 5.90327 36.2342C7.53729 35.2713 9.10421 34.1988 10.5933 33.0241C11.3933 32.3541 12.4633 31.0841 13.1933 30.5541C13.9333 30.0141 16.6733 29.0742 17.8133 29.0742C18.9533 29.0742 18.8133 30.6141 18.6833 31.2841C18.5433 31.9541 14.4033 33.7541 13.2633 34.1541C12.1233 34.5541 9.05327 35.8941 8.78327 36.9041C8.51327 37.9041 8.04327 38.3041 7.44327 39.3041C6.84327 40.3141 8.71327 41.6541 8.71327 41.6541C8.71327 41.6541 12.5933 45.5941 13.1933 46.9341C13.7933 48.2741 14.9933 50.2842 15.5333 50.7542C16.0733 51.2242 23.6933 57.1741 25.8333 58.0441C28.9247 59.5032 31.9207 61.1565 34.8033 62.9941C35.9433 63.7941 43.6333 64.4642 44.8333 64.4642C46.0433 64.4642 46.6333 63.4642 46.7133 62.5942C46.7733 61.7242 47.3133 60.7141 48.7833 61.1841C50.2533 61.6541 55.5433 62.3241 56.2833 62.1841C57.0133 62.0541 57.8133 60.7141 57.3433 60.1141C56.8733 59.5141 58.4133 58.6341 59.4833 57.9741C60.5533 57.3141 60.8833 57.9742 61.9633 58.5042C63.0333 59.0442 64.1033 59.1742 65.1633 58.4442C66.2433 57.7042 67.1133 57.5042 67.1133 57.5042C67.1133 57.5042 66.9133 55.5041 67.3133 54.6241C67.7133 53.7441 69.9833 54.8941 71.0533 55.6241C72.1233 56.3641 71.4533 56.7642 71.1933 58.0342C70.9233 59.3142 70.1233 59.7741 69.3933 59.9141C68.6433 60.0441 66.0433 61.7842 65.3733 62.7142C64.7033 63.6542 63.6333 64.2642 62.4933 65.2642C61.549 66.0666 60.8347 67.1053 60.4233 68.2742C59.8833 69.5442 56.4733 69.9441 55.0633 69.8741C53.6633 69.8141 52.0633 69.8742 51.6633 70.2742C51.2633 70.6742 50.5833 71.9542 48.9133 72.0142C47.0251 72.1583 45.1949 72.733 43.5633 73.6942C42.4333 74.4942 42.7633 74.6941 41.1633 74.4941C39.5533 74.2941 38.6133 73.1541 37.5433 73.4941C36.4733 73.8241 36.7433 74.9642 36.2733 74.9642C35.2619 75.0568 34.2705 75.3029 33.3333 75.6942C32.7933 76.0342 30.9933 75.7641 30.5933 75.2941C30.1933 74.8341 29.0533 71.2241 28.4533 70.7441C27.8533 70.2841 24.3033 71.0141 22.6933 71.4141C21.0833 71.8141 21.2933 73.7542 21.2933 74.7642C21.2933 75.7642 22.1633 82.3141 22.6933 83.6641C23.2333 84.9941 27.5833 88.0042 27.5833 88.0042C27.5833 88.0042 37.2133 97.6441 39.4133 100.244C41.6233 102.854 43.0933 104.734 43.4333 104.934C43.7733 105.134 44.9733 105.134 46.9133 110.084C48.8533 115.034 51.8533 117.234 53.8033 119.384C55.7433 121.524 59.5533 123.594 60.3533 125.334C61.1533 127.064 64.5633 129.274 64.5633 129.274C64.5633 129.274 66.1733 128.814 68.5133 129.074C70.8533 129.344 71.7233 131.284 73.3333 131.824C74.9333 132.354 77.2133 132.084 78.1433 131.424C79.0833 130.754 80.0233 129.744 81.8233 130.754C82.5733 131.164 83.3233 131.084 84.1133 130.814C83.2933 130.774 82.7733 130.214 82.7733 130.214C82.7733 130.214 82.3533 129.964 82.0333 129.014C81.7133 128.044 80.7633 126.914 80.8633 126.174C80.9733 125.424 85.1733 123.134 84.8533 122.074C84.7733 121.804 84.9833 121.674 85.3233 121.674C86.3533 121.654 88.6833 122.604 88.8033 123.204C88.9633 124.004 87.5233 124.364 89.1733 125.744C90.8333 127.134 91.7433 127.774 91.0533 128.414C90.7273 128.645 90.3748 128.837 90.0033 128.984C92.1533 128.424 94.3333 127.584 95.2033 126.664C96.3433 125.464 97.6833 125.264 100.283 124.594C102.883 123.924 102.763 125.394 105.903 122.454C109.043 119.514 108.653 120.514 110.593 120.314C112.533 120.114 112.733 118.714 113.133 117.774C113.533 116.834 115.003 113.954 115.803 113.084C116.603 112.224 119.553 109.414 119.953 108.684C120.353 107.954 119.353 105.264 119.353 105.264C119.353 105.264 117.813 101.924 118.013 101.254C118.213 100.584 119.353 99.3142 119.413 98.7742C119.483 98.2442 118.683 95.2341 118.143 94.2241C117.613 93.2241 119.623 90.4142 119.883 90.0842C120.153 89.7442 121.563 85.8641 121.563 85.8641L122.493 84.0641C122.493 84.0641 125.303 83.9241 126.713 84.1241C128.123 84.3241 129.583 86.0641 129.583 86.8041C129.583 87.5341 126.183 87.8042 125.173 88.3442C124.173 88.8842 123.903 93.0941 124.703 94.2941C125.503 95.4941 126.973 94.0941 128.053 94.3641C129.123 94.6241 128.853 95.3642 129.053 95.8342C129.253 96.3042 127.983 98.3041 127.983 98.3041C127.983 98.3041 125.103 99.3042 124.903 99.7842C124.703 100.254 125.033 101.924 126.573 103.054C128.113 104.194 130.253 102.794 132.263 102.794C134.263 102.794 134.063 103.324 134.463 104.464C134.863 105.594 132.933 105.864 130.993 106.264C129.053 106.664 128.723 107.404 128.783 108.604C128.853 109.814 129.253 110.614 128.313 111.824C127.373 113.024 126.313 112.954 125.913 113.154C125.513 113.354 125.113 114.954 125.843 116.974C126.573 118.974 128.113 120.574 128.383 121.254C128.653 121.924 128.783 122.654 129.313 123.724C129.853 124.794 131.593 131.024 131.653 132.494C131.713 133.964 133.403 137.174 133.403 137.834C133.403 138.494 132.533 140.244 132.133 140.914C131.733 141.584 129.183 144.464 128.783 145.404C128.383 146.334 129.323 146.734 130.793 146.934C132.263 147.134 131.053 147.004 132.393 147.804C133.733 148.604 134.063 148.544 136.813 148.674C139.553 148.814 138.013 148.074 138.143 147.674C138.163 147.594 138.15 147.507 138.103 147.414L138.023 147.364C137.373 146.744 136.493 146.284 136.133 145.434C136.533 144.734 136.903 144.454 137.273 144.164C137.443 144.074 138.573 143.914 139.473 143.524C139.573 143.484 139.67 143.437 139.763 143.384C139.89 143.317 140.017 143.241 140.143 143.154C140.253 143.071 140.353 142.978 140.443 142.874C141.423 141.604 141.543 141.514 143.543 141.094C144.763 141.504 145.193 141.234 145.843 141.874C146.073 142.084 146.263 142.504 146.103 142.774C145.959 142.933 145.79 143.069 145.603 143.174C145.223 143.024 144.233 143.304 143.633 143.664C143.353 143.931 143.207 144.158 143.193 144.344L143.253 144.414C143.693 145.214 144.343 144.294 145.033 144.744C145.313 144.864 145.553 145.124 145.703 145.414C146.363 146.134 146.843 146.684 147.473 147.314L147.453 147.504L147.513 147.534C148.113 148.014 151.793 146.404 152.993 145.534C154.193 144.664 153.863 142.124 153.733 141.124C153.603 140.124 154.533 139.184 155.403 138.174C156.273 137.174 155.343 135.234 154.603 134.564C153.873 133.894 153.533 133.294 153.803 132.364C154.063 131.424 155.943 130.684 156.943 130.954C157.943 131.214 157.413 131.824 157.743 132.754C157.922 133.185 158.206 133.565 158.57 133.858C158.933 134.152 159.364 134.35 159.823 134.434C160.493 134.494 161.493 134.694 162.693 135.034C163.893 135.374 166.443 134.564 166.973 134.034C167.513 133.494 167.043 132.624 167.513 131.754C167.983 130.884 169.053 129.014 169.383 127.944C169.713 126.874 169.323 125.864 169.323 124.934C169.323 123.994 167.913 123.454 166.783 121.384C165.653 119.314 165.383 119.654 164.903 119.384C164.433 119.114 162.103 118.584 161.423 118.044C160.763 117.504 162.223 117.504 163.103 117.244C163.973 116.974 165.173 116.844 166.043 116.844C166.913 116.844 166.783 115.034 166.913 114.164C167.043 113.294 167.313 114.234 168.583 114.294C169.853 114.364 170.923 112.824 171.593 112.294C172.263 111.754 172.193 110.014 172.863 109.344C173.533 108.674 175.343 108.004 176.873 107.804C178.413 107.604 180.353 107.604 181.293 107.344C182.233 107.074 181.963 106.474 182.033 105.804C182.058 105.502 182.01 105.198 181.894 104.918C181.777 104.638 181.595 104.39 181.363 104.194C180.963 103.864 179.823 103.994 178.413 104.864C177.013 105.734 177.143 104.994 175.543 104.994C173.943 104.994 174.543 105.194 172.933 105.134C171.333 105.064 171.063 105.264 170.123 105.734C169.183 106.204 168.583 106.074 167.913 105.804C167.243 105.534 167.313 104.464 167.043 103.264C166.783 102.064 167.783 101.724 168.783 101.584C169.783 101.444 169.323 100.514 169.653 99.3842C169.993 98.2442 169.583 98.6441 169.183 98.1841C168.783 97.7041 168.583 96.0342 168.583 96.0342C168.583 96.0342 170.123 95.8941 170.723 95.5641C171.323 95.2341 171.193 94.2242 171.463 93.8242C171.723 93.4242 172.263 93.5641 173.063 93.5641C173.863 93.5641 174.203 92.8941 174.203 92.3641C174.203 91.8141 174.603 89.2142 174.673 88.2742C174.743 87.3342 174.133 86.1941 173.273 84.9341C172.403 83.6641 171.733 80.1141 171.663 79.3141C171.593 78.5141 173.063 78.2442 173.733 78.5142C174.403 78.7742 174.873 79.7141 176.073 79.9141C177.273 80.1141 178.013 78.9141 177.953 78.3141C177.893 77.7141 177.553 76.9741 176.553 76.1641C175.543 75.3641 175.143 74.8241 175.473 74.2941C175.813 73.7541 176.003 73.6942 175.943 73.1542C175.883 72.6142 176.543 71.0841 177.343 70.6841C178.143 70.2841 178.413 70.6842 180.023 71.0242C181.623 71.3542 181.023 70.0841 181.763 69.4741C182.493 68.8741 182.833 67.2042 182.963 66.4042C183.093 65.6042 184.443 63.9242 184.443 62.5242C184.443 61.1242 183.963 61.2542 182.833 60.3842C181.703 59.5142 181.363 58.7742 181.563 57.5042C181.61 57.1575 181.643 56.8242 181.663 56.5042C180.773 56.5842 180.303 56.5342 179.613 55.6542C178.876 54.6929 177.915 53.9271 176.813 53.4241C175.633 52.8341 175.163 53.5341 175.163 52.1241C175.163 50.7241 174.693 50.3742 173.993 49.9042C173.293 49.4342 173.523 49.6742 172.823 48.5042C172.113 47.3242 171.293 48.3842 171.183 47.3242C171.063 46.2742 169.773 45.8041 169.773 45.8041C169.773 45.8041 168.713 45.5642 168.253 46.5042C167.773 47.4442 167.083 49.3241 166.023 48.0341C164.963 46.7341 163.443 45.6842 162.503 44.9842C161.563 44.2842 162.273 42.0541 162.033 40.5341C161.803 39.0041 162.273 38.4241 160.513 37.5941C158.753 36.7841 157.933 37.5942 156.643 36.5442C155.353 35.4942 153.363 33.2641 153.363 32.0941C153.363 30.9241 154.653 30.2142 155.243 29.6342C155.833 29.0542 155.123 26.5842 154.773 25.8842C154.423 25.1842 153.713 24.4741 153.373 23.0641C153.212 22.3898 153.011 21.7254 152.773 21.0742L151.253 22.2441L150.673 24.7141L149.503 25.4142C149.503 25.4142 148.443 24.3542 148.443 23.4142C148.443 22.4742 148.673 22.0141 148.093 21.0841C147.503 20.1341 146.923 19.5541 146.693 19.0841C146.453 18.6141 145.863 16.6241 146.573 16.2741C147.273 15.9241 148.213 15.6841 148.563 15.2141C148.913 14.7441 147.863 12.8741 147.623 12.4041C147.383 11.9341 145.863 7.83416 145.393 7.13416C144.923 6.43416 145.163 8.41415 144.813 9.12415C144.453 9.82415 143.873 11.9341 143.413 12.2841C142.933 12.6341 140.823 14.3942 140.243 14.1642C139.653 13.9242 137.773 13.8141 136.953 13.4641C136.133 13.1141 134.503 11.8142 134.023 11.7042C133.553 11.5842 131.103 9.24417 130.623 8.89417C130.163 8.53417 129.573 9.35416 129.573 9.70416C129.573 10.0542 125.243 7.60414 123.943 7.71414C122.663 7.83414 121.373 7.48414 122.543 6.77414C123.713 6.06414 125.353 6.31416 125.473 5.60416C125.583 4.90416 125.943 4.08414 124.413 4.08414C122.893 4.08414 119.023 4.08414 117.733 3.61414C116.453 3.14414 113.403 4.55414 113.163 3.61414C112.933 2.67414 111.643 1.51415 111.523 2.44415C111.403 3.37415 112.463 4.78416 111.063 4.32416C109.663 3.84416 109.303 3.62417 108.133 3.14417C106.963 2.67417 106.133 2.91416 105.553 2.32416C104.963 1.74416 101.803 1.50415 100.513 1.97415C99.2133 2.44415 96.5333 3.73415 94.8833 3.37415C93.2433 3.02415 92.0833 3.96416 91.9533 2.79416C91.8533 1.77416 92.4733 0.56416 91.6033 0.51416V0.50415ZM135.573 129.154C135.573 129.154 136.073 129.674 136.033 129.914C135.993 130.164 135.473 131.244 136.133 131.844C136.803 132.444 137.543 132.864 137.403 133.434C137.263 133.994 136.703 135.294 136.293 134.764C135.863 134.234 134.603 133.814 134.433 134.024C134.263 134.234 133.513 135.074 133.263 134.904C133.013 134.734 132.493 134.694 132.493 133.884C132.493 133.084 131.863 131.984 131.893 131.784C131.933 131.564 131.933 131.114 131.933 131.114C131.933 131.114 132.873 130.014 132.913 129.884C132.953 129.744 135.583 129.154 135.583 129.154H135.573Z" fill="#D1DBDD" stroke="black"/>
</svg>
