<svg width="89" height="92" viewBox="0 0 89 92" fill="none" xmlns="http://www.w3.org/2000/svg">
<path d="M32.2377 0.5H32.1677C31.9677 0.6 31.7677 1.66 29.8777 2.64C27.1877 4.04 28.2077 2.83 26.1677 1.44C25.4877 0.970002 24.8977 1.17001 24.5977 1.15001C23.9777 1.11001 23.7177 1.73 22.4177 2.42C20.4677 3.44 19.0677 3.53 17.6777 6.69C16.2877 9.85 16.4677 7.52 14.9777 8.17C13.4977 8.82 13.2177 8.17 11.4577 8.64C9.68775 9.1 9.96774 11.06 9.13774 10.68C8.29774 10.31 8.29774 9.94 5.97774 9.2C5.80182 9.14345 5.62104 9.10329 5.43773 9.08L5.21776 9.91C5.58776 10.54 6.26774 11.41 6.53774 12.08L6.74776 12.54C6.94776 12.89 6.83776 12.37 6.74776 12.54L6.71776 12.63C6.62776 13.19 7.27775 14.58 8.11775 16.99C8.95775 19.4 7.08773 22.29 6.90773 22.66L6.80775 22.82L6.93773 22.98C6.93773 22.98 7.26775 24.79 7.26775 25.78C7.26775 26.77 5.95775 28.41 5.95775 28.41C5.95775 28.41 4.47773 28.91 3.81773 29.56C3.15773 30.22 1.34773 30.22 1.18773 32.2C1.01773 34.17 0.357741 34 0.527741 35.98C0.697741 37.96 0.52775 37.63 1.67775 38.28C2.82775 38.94 6.44776 40.58 6.77776 41.41C7.10776 42.23 7.92774 42.07 8.41774 42.89C8.91774 43.71 8.58775 44.86 7.92775 45.52C7.27775 46.18 8.91775 51.28 9.89775 52.76C10.8978 54.24 11.3877 53.09 11.5477 55.72C11.7077 58.36 11.8777 58.52 13.1977 59.67C14.5177 60.82 14.8377 60.99 16.3177 60.99C17.7977 60.99 17.9678 60.17 18.6178 59.51C19.2778 58.85 19.9477 57.37 20.1077 58.36C20.2677 59.34 19.6077 60.33 20.4377 61.16C21.2577 61.97 23.2378 62.96 23.5578 64.11C23.8778 65.26 25.5377 64.61 26.1877 64.61C26.8477 64.61 27.3477 64.61 27.3477 66.09C27.3477 67.57 26.8477 65.59 26.8477 68.55C26.8477 71.52 25.6977 73.99 26.6877 74.48C27.6677 74.98 27.0178 73.98 29.1478 73.82C29.7121 73.7364 30.2878 73.8565 30.7716 74.1589C31.2554 74.4613 31.6156 74.9261 31.7877 75.47C31.8408 75.611 31.9215 75.7399 32.0251 75.8492C32.1287 75.9585 32.253 76.046 32.3909 76.1066C32.5288 76.1671 32.6774 76.1995 32.828 76.2018C32.9785 76.2041 33.1281 76.1763 33.2677 76.12C34.4177 75.8 34.2477 75.96 36.0677 77.44C37.8677 78.92 37.5477 79.09 38.6977 79.58C39.8477 80.07 40.3378 80.24 40.4978 81.06C40.6578 81.88 40.4978 86.49 40.8378 87.31C41.1678 88.13 40.3378 88.79 40.9978 89.29C41.6578 89.78 42.1478 89.12 42.8078 88.96C43.4678 88.79 43.6278 89.12 44.6178 89.46C45.5978 89.78 46.2677 89.12 47.4177 88.79C48.5677 88.46 48.4078 89.95 49.0578 90.44C49.7178 90.94 51.0377 91.26 51.6877 90.6C52.3477 89.94 51.6878 90.6 53.8378 89.78C55.9678 88.96 57.6177 89.12 57.2877 87.31C56.9577 85.5 57.2877 83.36 56.2977 82.21C55.3177 81.06 54.1577 79.74 54.6577 78.92C55.1477 78.1 58.1077 77.28 58.4377 76.45C58.7677 75.63 57.9378 73.49 57.7778 72.67C57.6178 71.84 57.7777 71.19 59.0977 70.2C60.4177 69.22 61.3977 68.39 62.2277 68.06C63.3602 67.6325 64.4144 67.0209 65.3477 66.25C66.4977 65.27 66.3378 65.59 68.1478 64.61C69.9578 63.62 71.1077 65.1 71.7677 63.62C72.4277 62.14 72.9177 61.81 73.7377 62.8C74.5677 63.78 76.5377 65.6 76.5377 65.6C76.5377 65.6 76.5377 67.4 77.6877 65.92C78.8477 64.44 79.3377 64.44 80.4877 65.26C81.864 66.2662 83.56 66.7355 85.2577 66.58C87.3977 66.42 85.0878 60.82 85.0878 60.82L84.5977 59.51L87.3978 56.71C87.3978 56.71 83.7778 51.28 83.7778 49.97C83.7778 48.66 84.5977 47.67 84.7577 46.67C84.9277 45.69 83.2778 42.23 83.2778 42.23C83.2778 42.23 81.1478 41.57 81.1478 40.26C81.1478 38.94 81.3078 38.12 80.6478 37.3C79.9878 36.47 78.5077 35.48 78.5077 35.48L77.8577 33.68V27.92L78.1677 24.93C77.7077 24.94 77.4578 24.67 77.0578 24.83C75.6578 25.39 74.6377 25.85 72.9577 25.67C71.2977 25.48 72.3177 24.27 72.6877 22.7C73.0577 21.13 72.8777 20.56 73.7077 19.82C74.5477 19.07 74.3577 18.24 74.8277 15.73C75.2877 13.23 74.0777 15.27 73.3277 15.83C72.5977 16.38 72.5978 16.57 69.8978 16.85C67.2078 17.13 69.4377 17.78 69.1577 18.33C68.8777 18.89 67.8577 18.7 66.0977 21.21C64.3277 23.71 64.5177 21.58 64.3277 21.11C64.1377 20.64 64.7077 18.89 64.4277 18.15C64.1477 17.4 63.4077 17.87 62.1977 16.94C60.9877 16.01 62.2877 15.92 62.2877 14.99C62.2877 14.06 61.8178 13.97 60.3378 13.59C58.8578 13.21 59.7878 12.49 60.5278 12.39C61.2678 12.29 61.3577 12.11 61.0777 9.97C60.7977 7.83 60.4277 10.07 58.8577 9.60001C57.2877 9.13001 58.1078 8.30001 56.8078 6.54001C55.5078 4.77001 55.2277 8.4 54.3877 10.34C53.5577 12.29 52.8177 10.72 51.6077 10.62C50.3977 10.52 49.4777 10.44 49.1977 11.74C48.9177 13.04 48.2678 12.85 47.6178 12.29C46.9678 11.74 45.6677 11.74 43.3477 10.53C41.0277 9.33 41.2077 9.13 38.5177 8.39C35.8177 7.65 37.4977 7.19 35.5477 5.14C33.5977 3.09 33.3177 2.36 32.5777 0.970001C32.4077 0.660001 32.3077 0.53 32.2377 0.5Z" fill="#D1DBDD"/>
<path d="M6.74776 12.54L6.53774 12.08C6.26774 11.41 5.58776 10.54 5.21776 9.91L5.43773 9.08C5.62104 9.10329 5.80182 9.14345 5.97774 9.2C8.29774 9.94 8.29774 10.31 9.13774 10.68C9.96774 11.06 9.68775 9.1 11.4577 8.64C13.2177 8.17 13.4977 8.82 14.9777 8.17C16.4677 7.52 16.2877 9.85 17.6777 6.69C19.0677 3.53 20.4677 3.44 22.4177 2.42C23.7177 1.73 23.9777 1.11001 24.5977 1.15001C24.8977 1.17001 25.4877 0.970002 26.1677 1.44C28.2077 2.83 27.1877 4.04 29.8777 2.64C31.7677 1.66 31.9677 0.6 32.1677 0.5H32.2377C32.3077 0.53 32.4077 0.660001 32.5777 0.970001C33.3177 2.36 33.5977 3.09 35.5477 5.14C37.4977 7.19 35.8177 7.65 38.5177 8.39C41.2077 9.13 41.0277 9.33 43.3477 10.53C45.6677 11.74 46.9678 11.74 47.6178 12.29C48.2678 12.85 48.9177 13.04 49.1977 11.74C49.4777 10.44 50.3977 10.52 51.6077 10.62C52.8177 10.72 53.5577 12.29 54.3877 10.34C55.2277 8.4 55.5078 4.77001 56.8078 6.54001C58.1078 8.30001 57.2877 9.13001 58.8577 9.60001C60.4277 10.07 60.7977 7.83 61.0777 9.97C61.3577 12.11 61.2678 12.29 60.5278 12.39C59.7878 12.49 58.8578 13.21 60.3378 13.59C61.8178 13.97 62.2877 14.06 62.2877 14.99C62.2877 15.92 60.9877 16.01 62.1977 16.94C63.4077 17.87 64.1477 17.4 64.4277 18.15C64.7077 18.89 64.1377 20.64 64.3277 21.11C64.5177 21.58 64.3277 23.71 66.0977 21.21C67.8577 18.7 68.8777 18.89 69.1577 18.33C69.4377 17.78 67.2078 17.13 69.8978 16.85C72.5978 16.57 72.5977 16.38 73.3277 15.83C74.0777 15.27 75.2877 13.23 74.8277 15.73C74.3577 18.24 74.5477 19.07 73.7077 19.82C72.8777 20.56 73.0577 21.13 72.6877 22.7C72.3177 24.27 71.2977 25.48 72.9577 25.67C74.6377 25.85 75.6578 25.39 77.0578 24.83C77.4578 24.67 77.7077 24.94 78.1677 24.93L77.8577 27.92V33.68L78.5077 35.48C78.5077 35.48 79.9878 36.47 80.6478 37.3C81.3078 38.12 81.1478 38.94 81.1478 40.26C81.1478 41.57 83.2778 42.23 83.2778 42.23C83.2778 42.23 84.9277 45.69 84.7577 46.67C84.5977 47.67 83.7778 48.66 83.7778 49.97C83.7778 51.28 87.3978 56.71 87.3978 56.71L84.5977 59.51L85.0878 60.82C85.0878 60.82 87.3977 66.42 85.2577 66.58C83.56 66.7355 81.864 66.2662 80.4877 65.26C79.3377 64.44 78.8477 64.44 77.6877 65.92C76.5377 67.4 76.5377 65.6 76.5377 65.6C76.5377 65.6 74.5677 63.78 73.7377 62.8C72.9177 61.81 72.4277 62.14 71.7677 63.62C71.1077 65.1 69.9578 63.62 68.1478 64.61C66.3378 65.59 66.4977 65.27 65.3477 66.25C64.4144 67.0209 63.3602 67.6325 62.2277 68.06C61.3977 68.39 60.4177 69.22 59.0977 70.2C57.7777 71.19 57.6178 71.84 57.7778 72.67C57.9378 73.49 58.7677 75.63 58.4377 76.45C58.1077 77.28 55.1477 78.1 54.6577 78.92C54.1577 79.74 55.3177 81.06 56.2977 82.21C57.2877 83.36 56.9577 85.5 57.2877 87.31C57.6177 89.12 55.9678 88.96 53.8378 89.78C51.6878 90.6 52.3477 89.94 51.6877 90.6C51.0377 91.26 49.7178 90.94 49.0578 90.44C48.4078 89.95 48.5677 88.46 47.4177 88.79C46.2677 89.12 45.5978 89.78 44.6178 89.46C43.6278 89.12 43.4678 88.79 42.8078 88.96C42.1478 89.12 41.6578 89.78 40.9978 89.29C40.3378 88.79 41.1678 88.13 40.8378 87.31C40.4978 86.49 40.6578 81.88 40.4978 81.06C40.3378 80.24 39.8477 80.07 38.6977 79.58C37.5477 79.09 37.8677 78.92 36.0677 77.44C34.2477 75.96 34.4177 75.8 33.2677 76.12C33.1281 76.1763 32.9785 76.2041 32.828 76.2018C32.6774 76.1995 32.5288 76.1671 32.3909 76.1066C32.253 76.046 32.1287 75.9585 32.0251 75.8492C31.9215 75.7399 31.8408 75.611 31.7877 75.47C31.6156 74.9261 31.2554 74.4613 30.7716 74.1589C30.2878 73.8565 29.7121 73.7364 29.1478 73.82C27.0178 73.98 27.6677 74.98 26.6877 74.48C25.6977 73.99 26.8477 71.52 26.8477 68.55C26.8477 65.59 27.3477 67.57 27.3477 66.09C27.3477 64.61 26.8477 64.61 26.1877 64.61C25.5377 64.61 23.8778 65.26 23.5578 64.11C23.2378 62.96 21.2577 61.97 20.4377 61.16C19.6077 60.33 20.2677 59.34 20.1077 58.36C19.9477 57.37 19.2778 58.85 18.6178 59.51C17.9678 60.17 17.7977 60.99 16.3177 60.99C14.8377 60.99 14.5177 60.82 13.1977 59.67C11.8777 58.52 11.7077 58.36 11.5477 55.72C11.3877 53.09 10.8978 54.24 9.89775 52.76C8.91775 51.28 7.27775 46.18 7.92775 45.52C8.58775 44.86 8.91774 43.71 8.41774 42.89C7.92774 42.07 7.10776 42.23 6.77776 41.41C6.44776 40.58 2.82775 38.94 1.67775 38.28C0.52775 37.63 0.697741 37.96 0.527741 35.98C0.357741 34 1.01773 34.17 1.18773 32.2C1.34773 30.22 3.15773 30.22 3.81773 29.56C4.47773 28.91 5.95775 28.41 5.95775 28.41C5.95775 28.41 7.26775 26.77 7.26775 25.78C7.26775 24.79 6.93773 22.98 6.93773 22.98L6.80775 22.82L6.90773 22.66C7.08773 22.29 8.95775 19.4 8.11775 16.99C7.27775 14.58 6.62776 13.19 6.71776 12.63L6.74776 12.54ZM6.74776 12.54C6.83776 12.37 6.94776 12.89 6.74776 12.54Z" stroke="black"/>
</svg>
