<svg width="88" height="101" viewBox="0 0 88 101" fill="none" xmlns="http://www.w3.org/2000/svg">
<path d="M73.0401 0.798737L72.7801 1.44873C72.7801 1.44873 71.4701 2.26875 70.8101 2.59875C70.4501 2.77875 69.9001 2.66875 69.4201 2.52875C69.3401 2.91875 69.1301 3.34875 69.0901 3.84875C68.9901 4.81875 68.5601 4.37874 68.1201 4.20874C67.8301 4.08874 67.4601 4.00875 67.1001 4.24875L67.6801 6.86874C67.6801 6.86874 65.8801 7.86875 64.7201 8.18875C63.5701 8.51875 62.5801 8.35873 62.5801 8.35873C62.5801 8.35873 62.0901 9.00873 61.7601 9.66873C61.4301 10.3287 58.3001 10.9887 58.3001 10.9887C58.3001 10.9887 58.9601 11.6487 59.1301 12.6387C59.3001 13.6287 59.4601 13.4588 59.1301 14.9388C58.8001 16.4188 59.4601 17.5687 58.4701 17.8987C57.4801 18.2287 55.5101 18.2287 55.0101 17.2387C54.5201 16.2487 53.5301 14.2787 53.5301 15.2687C53.5301 16.2487 52.7101 16.7487 52.0501 16.4187C51.4001 16.0887 50.5701 14.2787 49.9201 16.0887C49.2501 17.8987 48.4301 21.5187 47.4501 22.5087C46.4501 23.4887 46.9501 24.4787 46.4501 25.9587C45.9701 27.4387 48.1101 29.2587 44.3201 28.4287C41.5549 27.8634 38.8099 27.203 36.0901 26.4487C33.7901 25.7987 34.1201 25.9587 33.1301 26.4487C32.1501 26.9487 30.3301 27.2787 29.1901 27.1087C28.0301 26.9487 28.0301 27.1088 27.5401 28.0988C27.0401 29.0888 25.7301 30.0787 25.7301 30.0787C25.7301 30.0787 24.0901 31.3887 24.0901 32.0487C24.0901 32.7087 23.0901 34.1887 21.7901 33.5287C20.4701 32.8687 20.6301 32.8687 19.9701 31.2287C19.3101 29.5787 20.4701 28.2587 19.6401 26.9487C18.8201 25.6287 19.8101 26.6187 18.0001 26.2887C16.1801 25.9587 15.5301 26.1187 15.2001 24.8087C14.8701 23.4887 15.3601 24.1488 13.8801 23.1588C12.4001 22.1688 14.0501 22.9988 11.7401 21.8488C9.43008 20.6988 8.62009 19.8687 8.45009 20.5287C8.28009 21.1887 7.80008 23.2388 5.33008 22.9088C2.86008 22.5788 2.53009 19.8688 2.03009 21.3488C1.55009 22.8288 2.03009 24.3087 0.730087 24.6487L0.330078 24.6987L1.88008 25.1288C1.88008 25.1288 3.00008 25.2987 3.08008 25.9887C3.17008 26.6887 3.60009 28.1487 2.40009 28.8287C1.20009 29.5187 0.500092 30.1287 0.500092 30.5587C0.500092 30.9887 1.70009 31.8387 2.48009 31.8387C3.26009 31.8387 5.58008 31.6687 5.58008 31.6687C5.58008 31.6687 7.13008 31.6687 6.35008 32.6987C5.82467 33.3464 5.1008 33.8032 4.29008 33.9987C4.29008 33.9987 2.74009 37.0887 3.17009 38.4587C3.60009 39.8287 2.74009 40.2688 2.31009 40.0988C1.88009 39.9288 1.11009 40.8687 1.36009 41.3887C1.63009 41.9087 2.56008 41.6487 3.08008 42.7687C3.60008 43.8887 3.60008 44.9187 4.38008 44.8287C5.15008 44.7387 8.24009 42.6787 9.97009 43.4487C11.6801 44.2287 13.2301 46.1187 14.1801 46.6387C15.1301 47.1487 16.6801 48.6088 18.7401 48.0988C20.8001 47.5788 21.2301 47.3187 21.7401 46.9787C22.2601 46.6387 23.3001 46.9787 23.9001 48.2787C24.5001 49.5587 27.5101 52.3087 27.6001 55.1487C27.6901 57.9887 27.8601 59.1087 28.6301 60.1387C29.4001 61.1687 28.5401 61.2587 29.1501 62.8087C29.7501 64.3587 30.5201 64.3587 30.3501 65.7287C30.1801 67.1087 31.2101 70.1987 32.2501 70.8887C33.2701 71.5787 32.6701 71.1487 33.8801 72.8687C35.0801 74.5887 34.6501 75.8787 36.8001 76.1387C38.9501 76.3987 39.7301 77.9388 40.3301 78.7188C40.9301 79.4887 42.1301 81.3787 41.6201 82.6787C41.1001 83.9587 40.3301 83.0187 40.5001 84.4787C40.6701 85.9387 41.1001 86.3787 41.3601 87.0587C41.6201 87.7587 42.1301 87.2287 41.0201 88.6087C40.5645 89.1334 40.3351 89.8171 40.382 90.5103C40.4288 91.2036 40.7481 91.8501 41.2701 92.3087C42.6937 93.1756 44.3454 93.5937 46.0101 93.5087C47.4701 93.3387 48.3301 92.5687 47.8901 92.0487C47.4701 91.5287 46.2601 91.6187 46.6101 89.8087C46.9501 88.0087 46.9501 87.9187 46.9501 87.9187C46.9501 87.9187 45.9201 87.2287 47.5501 86.9787C49.1901 86.7187 50.7301 87.8387 50.7301 87.8387C50.7301 87.8387 51.6801 87.4887 51.7701 86.7188C51.8501 85.9388 52.0201 85.1687 51.8501 84.7387C51.6801 84.3087 51.4201 84.3087 50.8201 83.7887C50.2201 83.2787 49.8801 83.0987 49.9601 82.7587C50.0501 82.4187 51.3401 81.4687 51.8501 81.9887C52.3701 82.4987 52.5501 83.0187 53.4801 84.0487C54.4301 85.0787 54.7801 85.0787 55.3801 86.2887C55.9801 87.4887 55.7201 87.8387 56.5801 88.2687C57.4401 88.6987 58.9901 88.6887 59.2501 88.1687C59.5011 87.6031 59.6175 86.987 59.5901 86.3687C59.5901 85.6787 60.0201 85.1687 60.7901 84.7387C61.5701 84.3087 61.0501 84.2188 61.7401 83.8788C62.4301 83.5388 62.3401 83.5387 63.0401 83.3587C63.7201 83.1887 63.9801 82.5887 64.5001 81.9887C65.0101 81.3887 65.3601 81.8087 66.0401 82.5887C66.7401 83.3587 66.4701 82.9288 66.9901 84.2188C67.5101 85.5187 67.7601 85.5187 68.1101 86.1187C68.4501 86.7187 68.3701 87.5788 68.3701 88.3488C68.3701 89.1288 68.6201 89.7287 68.8001 90.1487C68.9701 90.5887 69.6601 90.7588 68.9701 91.1888C68.2801 91.6188 67.5101 91.0187 67.0801 92.3887C66.6501 93.7687 66.3001 94.0287 66.7301 94.7087C67.1027 95.2996 67.2843 95.991 67.2501 96.6888C67.2501 97.3888 66.8201 98.4887 67.4201 99.0187C68.0201 99.5287 68.7201 99.9587 69.3201 99.3587C69.8048 98.8681 70.1827 98.2825 70.4301 97.6387C70.6001 97.2087 71.2001 97.2987 71.2901 98.2387C71.3801 99.1887 70.4301 99.8787 71.2901 100.039C72.1501 100.219 73.2701 100.309 73.3601 99.3587C73.4401 98.4187 73.7801 98.7587 73.6101 97.8087C73.4401 96.8687 73.7001 96.4387 72.7501 96.1787C71.8101 95.9187 70.0001 95.6587 71.2001 94.9787C72.4101 94.2787 73.8701 94.2787 74.3001 94.7087C74.7301 95.1387 76.0201 95.4087 77.2301 95.3087C78.4301 95.2287 78.8601 96.0087 78.9401 95.1487C79.0401 94.2887 79.2901 94.2888 78.7701 93.5988C78.2601 92.8988 76.6201 92.5587 77.8301 91.6987C79.0301 90.8487 78.9501 91.4488 79.5501 90.8488C80.1501 90.2488 80.3201 89.7287 80.5801 89.0387C80.8401 88.3487 80.1501 88.3387 81.2701 88.0887C82.3901 87.8387 83.1601 87.8387 83.4201 87.4887C83.6801 87.1387 84.2801 86.0287 83.8501 85.3387C83.4201 84.6487 82.3001 83.2787 82.2201 81.8987C82.1201 80.5287 83.1601 80.5287 82.9901 79.4987C82.8201 78.4587 82.7301 78.1188 83.0701 77.5988C83.4101 77.0788 84.1001 76.8187 83.4201 75.9587C82.7201 75.1087 82.6401 75.1087 82.2201 74.3287C81.7901 73.5587 81.7901 72.6087 81.7901 72.6087C81.7901 72.6087 80.4901 72.6087 80.2401 73.4688C79.9801 74.3288 80.5801 75.4488 79.7201 75.1888C78.4456 74.8192 77.2301 74.2704 76.1101 73.5587C75.1601 72.8587 73.7801 71.9188 73.3601 72.4388C72.9301 72.9588 72.5801 73.8987 71.8901 74.3387C71.2001 74.7587 70.0901 76.0487 69.6601 74.6687C69.2301 73.2887 69.5601 72.9587 69.0601 72.0887C68.5401 71.2387 67.2501 72.0888 68.2801 70.3788C69.3101 68.6488 69.8301 68.8288 70.5201 68.2188C71.2001 67.6187 70.8901 66.9387 70.4701 65.9887C70.0401 65.0487 70.8701 63.8388 70.8701 62.6288C70.8701 61.4288 70.9401 60.9087 71.8101 60.7387C72.6801 60.5687 72.8401 60.5687 74.1301 60.4787C75.4201 60.3887 75.9301 60.1387 75.6801 59.6187C75.4201 59.1087 74.7301 58.9287 74.5601 58.3387C74.3901 57.7487 74.4701 53.1687 74.3901 52.4787C74.3001 51.7987 73.7901 51.0187 74.0501 49.2987C74.3101 47.5787 73.5301 47.6687 73.2701 46.1987C73.0101 44.7387 73.5301 44.5687 73.1001 42.2487C72.6701 39.9287 72.2401 40.6087 71.8001 38.9787C71.3701 37.3487 72.5001 33.0487 72.4101 32.1787C72.3201 31.3287 72.4901 31.2387 73.9601 28.0587C75.4201 24.8687 75.1601 25.2987 75.5901 23.5887C76.0201 21.8587 76.8901 21.1787 78.2601 19.4587C79.6301 17.7387 82.3001 15.9287 83.1601 15.4187C83.9601 14.9387 87.2701 12.3587 87.3401 10.6787C85.3101 11.4487 85.9101 10.8287 85.2601 11.4787C84.6101 12.1387 83.2901 11.8087 82.6301 11.3187C81.9801 10.8187 82.1401 9.34873 80.9901 9.66873C79.8401 9.98873 79.1801 10.6587 78.1901 10.3287C77.2001 9.99874 77.0401 9.66874 76.3801 9.82874C75.7201 9.98874 75.2301 10.6588 74.5801 10.1588C73.9101 9.66875 74.7401 9.00875 74.4101 8.18875C74.0801 7.36875 74.2401 2.75875 74.0801 1.93875C73.9601 1.33875 73.6501 1.07874 73.0401 0.798737Z" fill="#D1DBDD"/>
<path d="M72.2701 0.45874L73.0301 0.788727M73.0401 0.798737L72.7801 1.44873C72.7801 1.44873 71.4701 2.26875 70.8101 2.59875C70.4501 2.77875 69.9001 2.66875 69.4201 2.52875C69.3401 2.91875 69.1301 3.34875 69.0901 3.84875C68.9901 4.81875 68.5601 4.37874 68.1201 4.20874C67.8301 4.08874 67.4601 4.00875 67.1001 4.24875L67.6801 6.86874C67.6801 6.86874 65.8801 7.86875 64.7201 8.18875C63.5701 8.51875 62.5801 8.35873 62.5801 8.35873C62.5801 8.35873 62.0901 9.00873 61.7601 9.66873C61.4301 10.3287 58.3001 10.9887 58.3001 10.9887C58.3001 10.9887 58.9601 11.6487 59.1301 12.6387C59.3001 13.6287 59.4601 13.4588 59.1301 14.9388C58.8001 16.4188 59.4601 17.5687 58.4701 17.8987C57.4801 18.2287 55.5101 18.2287 55.0101 17.2387C54.5201 16.2487 53.5301 14.2787 53.5301 15.2687C53.5301 16.2487 52.7101 16.7487 52.0501 16.4187C51.4001 16.0887 50.5701 14.2787 49.9201 16.0887C49.2501 17.8987 48.4301 21.5187 47.4501 22.5087C46.4501 23.4887 46.9501 24.4787 46.4501 25.9587C45.9701 27.4387 48.1101 29.2587 44.3201 28.4287C41.5549 27.8634 38.8099 27.203 36.0901 26.4487C33.7901 25.7987 34.1201 25.9587 33.1301 26.4487C32.1501 26.9487 30.3301 27.2787 29.1901 27.1087C28.0301 26.9487 28.0301 27.1088 27.5401 28.0988C27.0401 29.0888 25.7301 30.0787 25.7301 30.0787C25.7301 30.0787 24.0901 31.3887 24.0901 32.0487C24.0901 32.7087 23.0901 34.1887 21.7901 33.5287C20.4701 32.8687 20.6301 32.8687 19.9701 31.2287C19.3101 29.5787 20.4701 28.2587 19.6401 26.9487C18.8201 25.6287 19.8101 26.6187 18.0001 26.2887C16.1801 25.9587 15.5301 26.1187 15.2001 24.8087C14.8701 23.4887 15.3601 24.1488 13.8801 23.1588C12.4001 22.1688 14.0501 22.9988 11.7401 21.8488C9.43008 20.6988 8.62009 19.8687 8.45009 20.5287C8.28009 21.1887 7.80008 23.2388 5.33008 22.9088C2.86008 22.5788 2.53009 19.8688 2.03009 21.3488C1.55009 22.8288 2.03009 24.3087 0.730087 24.6487L0.330078 24.6987L1.88008 25.1288C1.88008 25.1288 3.00008 25.2987 3.08008 25.9887C3.17008 26.6887 3.60009 28.1487 2.40009 28.8287C1.20009 29.5187 0.500092 30.1287 0.500092 30.5587C0.500092 30.9887 1.70009 31.8387 2.48009 31.8387C3.26009 31.8387 5.58008 31.6687 5.58008 31.6687C5.58008 31.6687 7.13008 31.6687 6.35008 32.6987C5.82467 33.3464 5.1008 33.8032 4.29008 33.9987C4.29008 33.9987 2.74009 37.0887 3.17009 38.4587C3.60009 39.8287 2.74009 40.2688 2.31009 40.0988C1.88009 39.9288 1.11009 40.8687 1.36009 41.3887C1.63009 41.9087 2.56008 41.6487 3.08008 42.7687C3.60008 43.8887 3.60008 44.9187 4.38008 44.8287C5.15008 44.7387 8.24009 42.6787 9.97009 43.4487C11.6801 44.2287 13.2301 46.1187 14.1801 46.6387C15.1301 47.1487 16.6801 48.6088 18.7401 48.0988C20.8001 47.5788 21.2301 47.3187 21.7401 46.9787C22.2601 46.6387 23.3001 46.9787 23.9001 48.2787C24.5001 49.5587 27.5101 52.3087 27.6001 55.1487C27.6901 57.9887 27.8601 59.1087 28.6301 60.1387C29.4001 61.1687 28.5401 61.2587 29.1501 62.8087C29.7501 64.3587 30.5201 64.3587 30.3501 65.7287C30.1801 67.1087 31.2101 70.1987 32.2501 70.8887C33.2701 71.5787 32.6701 71.1487 33.8801 72.8687C35.0801 74.5887 34.6501 75.8787 36.8001 76.1387C38.9501 76.3987 39.7301 77.9388 40.3301 78.7188C40.9301 79.4887 42.1301 81.3787 41.6201 82.6787C41.1001 83.9587 40.3301 83.0187 40.5001 84.4787C40.6701 85.9387 41.1001 86.3787 41.3601 87.0587C41.6201 87.7587 42.1301 87.2287 41.0201 88.6087C40.5645 89.1334 40.3351 89.8171 40.382 90.5103C40.4288 91.2036 40.7481 91.8501 41.2701 92.3087C42.6937 93.1756 44.3454 93.5937 46.0101 93.5087C47.4701 93.3387 48.3301 92.5687 47.8901 92.0487C47.4701 91.5287 46.2601 91.6187 46.6101 89.8087C46.9501 88.0087 46.9501 87.9187 46.9501 87.9187C46.9501 87.9187 45.9201 87.2287 47.5501 86.9787C49.1901 86.7187 50.7301 87.8387 50.7301 87.8387C50.7301 87.8387 51.6801 87.4887 51.7701 86.7188C51.8501 85.9388 52.0201 85.1687 51.8501 84.7387C51.6801 84.3087 51.4201 84.3087 50.8201 83.7887C50.2201 83.2787 49.8801 83.0987 49.9601 82.7587C50.0501 82.4187 51.3401 81.4687 51.8501 81.9887C52.3701 82.4987 52.5501 83.0187 53.4801 84.0487C54.4301 85.0787 54.7801 85.0787 55.3801 86.2887C55.9801 87.4887 55.7201 87.8387 56.5801 88.2687C57.4401 88.6987 58.9901 88.6887 59.2501 88.1687C59.5011 87.6031 59.6175 86.987 59.5901 86.3687C59.5901 85.6787 60.0201 85.1687 60.7901 84.7387C61.5701 84.3087 61.0501 84.2188 61.7401 83.8788C62.4301 83.5388 62.3401 83.5387 63.0401 83.3587C63.7201 83.1887 63.9801 82.5887 64.5001 81.9887C65.0101 81.3887 65.3601 81.8087 66.0401 82.5887C66.7401 83.3587 66.4701 82.9288 66.9901 84.2188C67.5101 85.5187 67.7601 85.5187 68.1101 86.1187C68.4501 86.7187 68.3701 87.5788 68.3701 88.3488C68.3701 89.1288 68.6201 89.7287 68.8001 90.1487C68.9701 90.5887 69.6601 90.7588 68.9701 91.1888C68.2801 91.6188 67.5101 91.0187 67.0801 92.3887C66.6501 93.7687 66.3001 94.0287 66.7301 94.7087C67.1027 95.2996 67.2843 95.991 67.2501 96.6888C67.2501 97.3888 66.8201 98.4887 67.4201 99.0187C68.0201 99.5287 68.7201 99.9587 69.3201 99.3587C69.8048 98.8681 70.1827 98.2825 70.4301 97.6387C70.6001 97.2087 71.2001 97.2987 71.2901 98.2387C71.3801 99.1887 70.4301 99.8787 71.2901 100.039C72.1501 100.219 73.2701 100.309 73.3601 99.3587C73.4401 98.4187 73.7801 98.7587 73.6101 97.8087C73.4401 96.8687 73.7001 96.4387 72.7501 96.1787C71.8101 95.9187 70.0001 95.6587 71.2001 94.9787C72.4101 94.2787 73.8701 94.2787 74.3001 94.7087C74.7301 95.1387 76.0201 95.4087 77.2301 95.3087C78.4301 95.2287 78.8601 96.0087 78.9401 95.1487C79.0401 94.2887 79.2901 94.2888 78.7701 93.5988C78.2601 92.8988 76.6201 92.5587 77.8301 91.6987C79.0301 90.8487 78.9501 91.4488 79.5501 90.8488C80.1501 90.2488 80.3201 89.7287 80.5801 89.0387C80.8401 88.3487 80.1501 88.3387 81.2701 88.0887C82.3901 87.8387 83.1601 87.8387 83.4201 87.4887C83.6801 87.1387 84.2801 86.0287 83.8501 85.3387C83.4201 84.6487 82.3001 83.2787 82.2201 81.8987C82.1201 80.5287 83.1601 80.5287 82.9901 79.4987C82.8201 78.4587 82.7301 78.1188 83.0701 77.5988C83.4101 77.0788 84.1001 76.8187 83.4201 75.9587C82.7201 75.1087 82.6401 75.1087 82.2201 74.3287C81.7901 73.5587 81.7901 72.6087 81.7901 72.6087C81.7901 72.6087 80.4901 72.6087 80.2401 73.4688C79.9801 74.3288 80.5801 75.4488 79.7201 75.1888C78.4456 74.8192 77.2301 74.2704 76.1101 73.5587C75.1601 72.8587 73.7801 71.9188 73.3601 72.4388C72.9301 72.9588 72.5801 73.8987 71.8901 74.3387C71.2001 74.7587 70.0901 76.0487 69.6601 74.6687C69.2301 73.2887 69.5601 72.9587 69.0601 72.0887C68.5401 71.2387 67.2501 72.0888 68.2801 70.3788C69.3101 68.6488 69.8301 68.8288 70.5201 68.2188C71.2001 67.6187 70.8901 66.9387 70.4701 65.9887C70.0401 65.0487 70.8701 63.8388 70.8701 62.6288C70.8701 61.4288 70.9401 60.9087 71.8101 60.7387C72.6801 60.5687 72.8401 60.5687 74.1301 60.4787C75.4201 60.3887 75.9301 60.1387 75.6801 59.6187C75.4201 59.1087 74.7301 58.9287 74.5601 58.3387C74.3901 57.7487 74.4701 53.1687 74.3901 52.4787C74.3001 51.7987 73.7901 51.0187 74.0501 49.2987C74.3101 47.5787 73.5301 47.6687 73.2701 46.1987C73.0101 44.7387 73.5301 44.5687 73.1001 42.2487C72.6701 39.9287 72.2401 40.6087 71.8001 38.9787C71.3701 37.3487 72.5001 33.0487 72.4101 32.1787C72.3201 31.3287 72.4901 31.2387 73.9601 28.0587C75.4201 24.8687 75.1601 25.2987 75.5901 23.5887C76.0201 21.8587 76.8901 21.1787 78.2601 19.4587C79.6301 17.7387 82.3001 15.9287 83.1601 15.4187C83.9601 14.9387 87.2701 12.3587 87.3401 10.6787C85.3101 11.4487 85.9101 10.8287 85.2601 11.4787C84.6101 12.1387 83.2901 11.8087 82.6301 11.3187C81.9801 10.8187 82.1401 9.34873 80.9901 9.66873C79.8401 9.98873 79.1801 10.6587 78.1901 10.3287C77.2001 9.99874 77.0401 9.66874 76.3801 9.82874C75.7201 9.98874 75.2301 10.6588 74.5801 10.1588C73.9101 9.66875 74.7401 9.00875 74.4101 8.18875C74.0801 7.36875 74.2401 2.75875 74.0801 1.93875C73.9601 1.33875 73.6501 1.07874 73.0401 0.798737Z" stroke="black"/>
</svg>
