<svg width="121" height="106" viewBox="0 0 121 106" fill="none" xmlns="http://www.w3.org/2000/svg">
<path d="M117.256 0.528076C116.93 0.525578 116.606 0.576237 116.296 0.67807C116.426 1.15807 116.706 0.978077 116.826 1.49808C116.986 2.16808 116.716 2.47805 116.156 3.15805C115.606 3.82805 114.096 3.70807 113.856 4.29807C113.616 4.89807 112.756 5.12805 111.756 5.09805C110.776 5.05805 109.656 4.85807 108.956 5.76807C108.246 6.66807 108.796 7.18805 108.126 8.09805C107.456 9.00805 106.896 8.33808 105.826 8.21808C104.756 8.09808 105.356 8.45807 105.156 9.80807C104.956 11.1481 105.826 10.7481 106.186 11.7381C106.536 12.7381 105.356 13.4781 105.076 13.8781C104.759 14.5021 104.61 15.1987 104.646 15.8981C104.676 16.5281 104.946 22.6681 104.876 23.3781C104.796 24.0881 103.406 23.8081 102.896 23.2181C102.386 22.6181 101.036 21.6381 100.796 21.9481C100.556 22.2581 100.516 22.8581 100.326 24.0081C100.126 25.1581 99.2564 25.3581 98.5064 25.4681C97.7564 25.5981 97.4764 24.3681 97.3964 23.5381C97.3164 22.7081 96.9964 22.4281 96.6364 22.3881C96.2864 22.3481 95.4164 24.0881 94.7864 25.5181C94.1564 26.9381 93.9864 25.6681 93.4864 24.9981C93.1001 24.5271 92.5426 24.2285 91.9364 24.1681C91.7364 24.1681 91.2164 24.6381 90.7864 27.0081C90.3564 29.3781 90.1164 28.6781 89.3664 29.4281C88.6064 30.1881 87.6964 31.4881 87.4664 31.4481C87.2264 31.4081 86.5564 31.0181 84.1764 29.5081C81.8064 28.0081 83.2364 28.4081 82.6764 27.0581C82.1164 25.7081 83.0364 25.9481 82.3964 24.3281C81.7664 22.7081 81.5265 24.7981 80.7765 25.3181C80.0165 25.8281 79.9464 25.3181 79.9464 24.3681C79.9464 23.4181 79.7864 23.3381 79.4364 23.2681C79.0764 23.1881 78.2864 22.6281 78.2064 21.1681C78.1264 19.6981 78.2064 20.7281 77.6464 20.6081C77.0964 20.4881 77.1764 20.4481 75.7064 19.3781C74.2464 18.3081 75.3964 18.5081 75.0764 17.7581C74.7564 17.0081 74.4464 17.8381 74.3664 19.1081C74.2864 20.3681 74.3664 20.4081 74.2464 20.7681C74.1264 21.1281 73.2464 20.7681 71.4764 20.5681C69.6964 20.3681 71.0364 20.2081 70.4064 19.0681C69.7764 17.9281 70.2864 18.1181 69.9764 17.7981C69.6564 17.4881 69.1764 17.7981 68.8664 18.2281C68.5464 18.6681 67.3964 19.4181 66.6064 19.8981C65.8064 20.3681 65.5064 21.6381 65.5364 22.5881C65.5664 23.5381 65.8964 23.9681 65.4164 24.9181C64.9464 25.8681 64.0764 24.8781 61.2664 24.8781C58.4564 24.8781 59.7664 24.9981 58.8064 26.0281C57.8664 27.0581 56.0064 26.5381 53.4664 26.6281C50.9364 26.6981 52.1265 27.3381 51.5265 28.7981C50.9265 30.2581 50.8564 29.7481 48.2064 29.4681C45.5564 29.1881 46.9064 29.7081 47.0164 31.5281C47.1264 33.3481 46.7764 32.5581 45.0364 31.8081C43.2964 31.0481 43.5764 29.3881 42.6664 27.2581C41.7564 25.1181 41.2764 25.8681 39.1764 27.0581C37.0764 28.2481 38.3464 28.8381 37.8364 30.6981C37.3264 32.5581 37.2064 31.3681 36.2564 31.2181C35.3064 31.0681 35.4164 30.1781 33.8764 29.6681C32.3364 29.1581 32.8064 30.4981 32.8464 31.7681C32.8864 33.0381 31.4264 33.2681 30.1164 32.6681C28.8164 32.0781 28.8864 30.8181 28.6564 29.3881C28.4164 27.9681 28.2164 28.6881 27.5464 27.8481C26.8764 27.0081 27.7064 26.0681 27.5864 25.0781C27.4664 24.0881 26.6364 24.6781 26.2364 25.5181C25.8364 26.3481 25.7264 26.818 24.1364 26.938C22.5564 27.058 23.2364 26.5081 22.2064 27.2181C21.1764 27.9281 21.4064 27.8181 19.7864 27.7681C18.1664 27.7181 19.3864 26.0681 18.8864 24.6781C18.3664 23.2981 16.7064 23.4181 16.0264 24.3281C15.3564 25.2281 15.8264 26.6581 14.5264 27.5681C13.2264 28.4781 11.7964 27.7281 10.4864 27.0181C9.18641 26.3081 9.81643 26.8181 7.40643 26.6181C4.99643 26.4181 6.20644 26.0681 4.94644 25.5181C3.68644 24.9581 3.28643 25.5481 3.28643 25.5481H2.01641C1.95841 25.7226 1.92478 25.9043 1.91644 26.0881C1.84644 27.4981 2.44644 29.9681 1.91644 30.8581C1.40644 31.7581 0.356413 33.0281 0.516413 35.4181C0.626413 37.3181 0.876434 38.3181 0.756434 38.7981C1.18977 39.0981 1.58644 39.4647 1.94644 39.8981C3.24644 41.5481 5.60641 44.3181 6.54641 45.0581C7.48641 45.7981 7.17643 44.6581 8.03643 46.3281C8.89643 48.0081 9.71643 49.8481 10.4664 50.7781C11.2064 51.7081 11.0964 52.5281 12.4064 52.8281C13.7064 53.1281 14.6064 52.6081 14.9864 51.8581C15.3564 51.1181 16.5464 50.3581 17.0664 51.2981C17.5964 52.2281 19.0164 53.3881 18.6064 54.8481C18.1964 56.3081 17.2264 57.1581 16.8464 58.0981C16.4764 59.0281 16.2464 59.3281 17.1164 60.1481C17.9664 60.9681 17.9664 61.7581 17.7764 63.1381C17.5864 64.5181 18.1564 67.5081 18.9764 68.2181C19.8064 68.9181 20.9564 71.0181 21.1764 71.0881C21.3964 71.1581 22.5664 70.9781 24.2064 70.9781C25.8464 70.9781 26.8964 70.828 27.1564 71.238C27.4164 71.648 28.3164 71.6181 27.5264 72.5081C26.7464 73.4081 26.4864 72.9281 26.4164 73.7081C26.3464 74.4881 27.0464 75.4581 25.9164 76.3581C24.8064 77.2581 23.6864 77.5181 23.6864 79.0081C23.6864 80.5081 22.7164 81.4381 21.7064 81.8481C20.7064 82.2581 17.7764 82.8181 17.4864 83.1981C17.1864 83.5681 17.6364 84.6081 18.2664 84.9181C18.9064 85.2181 20.6664 85.9581 21.5164 85.4681C22.3764 84.9881 26.0364 84.238 26.4864 84.868C26.9364 85.508 25.6964 86.9681 24.7264 87.0781C23.7564 87.1881 21.8564 87.3781 21.4064 88.0781C20.9564 88.7981 20.9164 89.4781 21.0664 89.7281C21.2164 89.9981 21.6664 89.878 21.8864 89.998C22.1164 90.098 22.7164 89.538 23.8664 90.998C25.0264 92.458 26.1064 94.658 27.5664 94.998C29.0264 95.338 33.0264 95.028 33.4664 94.178C33.9164 93.318 34.5164 93.0581 35.8264 93.3881C37.1364 93.7181 39.5964 93.7281 39.9264 93.0081C40.2664 92.3081 40.3464 91.598 41.7564 91.748C43.1664 91.898 44.8164 92.7181 45.6764 92.4181C46.5464 92.1181 47.1364 90.6581 47.4364 90.4781C47.7364 90.2881 49.3064 90.1781 49.3764 90.9181C49.4564 91.6681 50.3464 95.108 49.9064 96.938C49.4564 98.768 49.8264 101.718 50.6864 102.388C51.5464 103.068 52.3264 103.848 52.8464 104.038C53.3664 104.228 54.9064 103.768 54.9064 103.248C54.9064 102.728 55.6564 102.428 56.1764 102.498C56.6964 102.578 57.8565 102.048 58.2765 101.598C58.6765 101.158 59.9764 100.788 60.2064 101.118C60.4364 101.448 60.8464 102.088 61.8064 101.868C62.7864 101.638 63.8664 101.118 64.4664 101.598C65.0664 102.098 67.0464 103.808 67.4164 103.438C67.7964 103.058 69.1764 101.378 69.3564 101.238C69.5564 101.078 70.3264 100.778 70.2964 101.238C70.2564 101.678 69.5064 102.058 69.4364 102.238C69.3564 102.438 69.6564 102.878 69.8364 103.138C70.0364 103.398 69.9964 103.658 69.5864 104.138C69.1764 104.628 68.9164 105.338 69.2864 105.298C69.8889 105.106 70.4373 104.773 70.8864 104.328C71.0864 104.028 71.5964 104.408 71.8664 104.518C72.1918 104.586 72.5274 104.588 72.8537 104.524C73.1799 104.461 73.4902 104.333 73.7664 104.148C74.4364 103.648 75.3664 102.728 75.4064 101.348C75.4464 99.9581 75.3364 98.468 75.7464 97.118C76.1564 95.778 76.6864 96.2181 76.2664 95.3281C75.8664 94.4281 75.1064 92.528 75.1064 92.048C75.1064 91.558 75.1064 88.648 75.5564 88.498C76.0064 88.348 77.8364 88.598 78.1364 89.058C78.4364 89.508 78.2464 90.0581 80.3764 90.2581C82.5064 90.4381 82.9164 92.3781 83.3664 93.0881C83.8164 93.7981 84.3664 94.8081 85.0464 94.9181C85.7264 95.0281 86.6864 94.3181 86.6864 93.8781C86.6864 93.4381 87.1664 92.2681 88.0364 92.8281C88.8864 93.3881 89.1464 94.3581 90.9064 94.7281C92.6797 95.1214 93.5898 95.398 93.6364 95.558C93.6764 95.708 94.5364 95.8181 95.2364 95.7781C95.9364 95.7381 96.6264 95.8181 96.5464 95.1381C96.4764 94.4681 96.1464 94.2081 96.5464 93.7581C96.9464 93.3081 97.8164 93.3181 97.7064 92.0381C97.5964 90.7681 97.6664 90.028 96.6264 89.738C95.5764 89.428 94.9764 88.1581 95.2464 87.7081C95.4964 87.2581 96.2064 86.9281 95.9864 86.0681C95.7564 85.2081 95.1664 84.758 94.1564 84.988C93.1564 85.208 92.3264 84.3481 92.9264 83.6381C93.5264 82.9381 94.2664 83.078 94.2664 81.998C94.2664 80.908 94.6764 81.068 93.7864 80.428C92.8864 79.798 92.0264 80.358 92.1064 78.928C92.1764 77.518 92.3264 77.4781 92.7064 76.7281C93.0764 75.9881 93.7464 75.6881 93.1464 75.2281C92.5464 74.7881 91.6964 74.0081 91.4364 74.3481C91.1664 74.6781 91.3965 75.1281 90.2765 74.7881C89.1565 74.4581 87.8064 74.228 87.1764 73.748C86.8915 73.5298 86.7036 73.2085 86.6532 72.8532C86.6027 72.4979 86.6936 72.137 86.9064 71.8481C87.3264 71.2781 87.7764 71.3881 87.4764 70.1581C87.2212 69.4025 87.1192 68.6035 87.1764 67.808C87.2464 67.168 87.0164 66.538 86.1264 66.498C85.2264 66.458 84.5264 66.2381 83.6264 66.6481C82.7264 67.0581 82.9164 67.9181 81.3064 67.6581C79.6964 67.3981 76.7564 67.0981 75.7864 66.1281C74.8164 65.1581 74.6964 64.4781 73.5864 64.4481C72.4664 64.4081 72.3464 64.7081 71.7464 63.2081C71.1464 61.7081 71.1864 60.9681 70.4464 61.3381C69.6964 61.7181 69.2864 62.8781 68.7264 62.6581C68.1664 62.4281 67.8264 62.0181 67.7864 61.6481C67.7564 61.2681 67.1164 58.9881 67.8664 57.8681C68.6164 56.7481 69.5864 55.3281 70.2164 54.9681C70.8564 54.5781 72.2364 52.3781 73.2864 52.4581C74.3364 52.5381 75.8964 52.8581 76.4164 53.3581C76.9464 53.8381 78.0564 54.3581 78.7364 54.1681C79.4164 53.9781 81.6864 51.4881 82.0164 50.8481C82.3564 50.2181 82.9864 49.4281 82.5764 48.8281C82.1664 48.2281 81.6464 48.4981 81.9464 47.8981C82.2464 47.2981 83.4064 47.0781 83.6264 46.8181C84.1627 46.1996 84.8426 45.7223 85.6064 45.4281C86.5364 45.1781 86.8364 44.6881 87.5064 44.6081C88.1864 44.5381 89.6764 44.4281 90.4664 44.9881C91.2464 45.5481 92.7764 46.4781 93.2964 46.2181C93.8264 45.9581 94.5664 44.9181 94.4964 44.2381C94.4264 43.5581 95.7664 42.4881 96.2564 41.8881C96.7364 41.2881 98.1864 41.4381 98.5564 41.5881C98.9364 41.7381 100.956 41.2481 101.366 40.4981C101.766 39.7581 101.216 39.7181 102.036 39.0481C102.856 38.3781 104.086 39.0081 104.356 39.0881C104.616 39.1581 105.776 39.1281 105.286 37.8881C104.806 36.6581 104.876 34.9381 105.366 34.2681C105.846 33.5981 107.116 34.0081 107.566 33.1081C108.016 32.2081 108.536 31.3881 108.686 31.8381C108.836 32.2881 108.876 33.8581 109.246 34.0081C109.616 34.1581 110.666 33.5581 110.746 33.0381C110.816 32.5181 111.296 32.4781 111.786 31.9581C112.276 31.4281 112.786 31.2481 112.786 30.8681C112.786 30.4881 113.016 29.5681 113.286 29.0681C113.536 28.5881 113.836 28.0681 114.216 28.1781C114.596 28.2981 115.446 28.1081 115.366 27.5081C115.296 26.9081 114.886 26.7981 115.146 25.7881C115.406 24.7881 115.856 24.5181 116.086 24.1081C116.316 23.6981 116.866 22.6081 117.046 21.3081C117.246 20.0081 117.246 19.6581 117.726 18.9881C118.206 18.3181 119.556 15.6281 119.816 14.7381C120.076 13.8481 120.156 13.0181 120.186 12.4981C120.226 11.9681 120.036 7.74807 120.036 6.89807C120.036 6.03807 119.706 6.25807 119.926 4.76807C120.156 3.26807 120.456 2.96808 119.706 2.21808C118.956 1.46808 119.146 0.878064 117.756 0.578064C117.592 0.544086 117.424 0.524018 117.256 0.518066V0.528076ZM2.67642 24.8781C2.37642 25.0081 2.13642 25.1681 2.02642 25.5281C2.14642 25.1581 2.36642 25.0181 2.67642 24.8781Z" fill="#D1DBDD"/>
<path d="M4.14642 23.8881L4.09643 23.9581M3.27642 24.5881L3.12643 24.6681M117.256 0.528076C116.93 0.525578 116.606 0.576237 116.296 0.67807C116.426 1.15807 116.706 0.978077 116.826 1.49808C116.986 2.16808 116.716 2.47805 116.156 3.15805C115.606 3.82805 114.096 3.70807 113.856 4.29807C113.616 4.89807 112.756 5.12805 111.756 5.09805C110.776 5.05805 109.656 4.85807 108.956 5.76807C108.246 6.66807 108.796 7.18805 108.126 8.09805C107.456 9.00805 106.896 8.33808 105.826 8.21808C104.756 8.09808 105.356 8.45807 105.156 9.80807C104.956 11.1481 105.826 10.7481 106.186 11.7381C106.536 12.7381 105.356 13.4781 105.076 13.8781C104.759 14.5021 104.61 15.1987 104.646 15.8981C104.676 16.5281 104.946 22.6681 104.876 23.3781C104.796 24.0881 103.406 23.8081 102.896 23.2181C102.386 22.6181 101.036 21.6381 100.796 21.9481C100.556 22.2581 100.516 22.8581 100.326 24.0081C100.126 25.1581 99.2564 25.3581 98.5064 25.4681C97.7564 25.5981 97.4764 24.3681 97.3964 23.5381C97.3164 22.7081 96.9964 22.4281 96.6364 22.3881C96.2864 22.3481 95.4164 24.0881 94.7864 25.5181C94.1564 26.9381 93.9864 25.6681 93.4864 24.9981C93.1001 24.5271 92.5426 24.2285 91.9364 24.1681C91.7364 24.1681 91.2164 24.6381 90.7864 27.0081C90.3564 29.3781 90.1164 28.6781 89.3664 29.4281C88.6064 30.1881 87.6964 31.4881 87.4664 31.4481C87.2264 31.4081 86.5564 31.0181 84.1764 29.5081C81.8064 28.0081 83.2364 28.4081 82.6764 27.0581C82.1164 25.7081 83.0364 25.9481 82.3964 24.3281C81.7664 22.7081 81.5265 24.7981 80.7765 25.3181C80.0165 25.8281 79.9464 25.3181 79.9464 24.3681C79.9464 23.4181 79.7864 23.3381 79.4364 23.2681C79.0764 23.1881 78.2864 22.6281 78.2064 21.1681C78.1264 19.6981 78.2064 20.7281 77.6464 20.6081C77.0964 20.4881 77.1764 20.4481 75.7064 19.3781C74.2464 18.3081 75.3964 18.5081 75.0764 17.7581C74.7564 17.0081 74.4464 17.8381 74.3664 19.1081C74.2864 20.3681 74.3664 20.4081 74.2464 20.7681C74.1264 21.1281 73.2464 20.7681 71.4764 20.5681C69.6964 20.3681 71.0364 20.2081 70.4064 19.0681C69.7764 17.9281 70.2864 18.1181 69.9764 17.7981C69.6564 17.4881 69.1764 17.7981 68.8664 18.2281C68.5464 18.6681 67.3964 19.4181 66.6064 19.8981C65.8064 20.3681 65.5064 21.6381 65.5364 22.5881C65.5664 23.5381 65.8964 23.9681 65.4164 24.9181C64.9464 25.8681 64.0764 24.8781 61.2664 24.8781C58.4564 24.8781 59.7664 24.9981 58.8064 26.0281C57.8664 27.0581 56.0064 26.5381 53.4664 26.6281C50.9364 26.6981 52.1265 27.3381 51.5265 28.7981C50.9265 30.2581 50.8564 29.7481 48.2064 29.4681C45.5564 29.1881 46.9064 29.7081 47.0164 31.5281C47.1264 33.3481 46.7764 32.5581 45.0364 31.8081C43.2964 31.0481 43.5764 29.3881 42.6664 27.2581C41.7564 25.1181 41.2764 25.8681 39.1764 27.0581C37.0764 28.2481 38.3464 28.8381 37.8364 30.6981C37.3264 32.5581 37.2064 31.3681 36.2564 31.2181C35.3064 31.0681 35.4164 30.1781 33.8764 29.6681C32.3364 29.1581 32.8064 30.4981 32.8464 31.7681C32.8864 33.0381 31.4264 33.2681 30.1164 32.6681C28.8164 32.0781 28.8864 30.8181 28.6564 29.3881C28.4164 27.9681 28.2164 28.6881 27.5464 27.8481C26.8764 27.0081 27.7064 26.0681 27.5864 25.0781C27.4664 24.0881 26.6364 24.6781 26.2364 25.5181C25.8364 26.3481 25.7264 26.818 24.1364 26.938C22.5564 27.058 23.2364 26.5081 22.2064 27.2181C21.1764 27.9281 21.4064 27.8181 19.7864 27.7681C18.1664 27.7181 19.3864 26.0681 18.8864 24.6781C18.3664 23.2981 16.7064 23.4181 16.0264 24.3281C15.3564 25.2281 15.8264 26.6581 14.5264 27.5681C13.2264 28.4781 11.7964 27.7281 10.4864 27.0181C9.18641 26.3081 9.81643 26.8181 7.40643 26.6181C4.99643 26.4181 6.20644 26.0681 4.94644 25.5181C3.68644 24.9581 3.28643 25.5481 3.28643 25.5481H2.01641C1.95841 25.7226 1.92478 25.9043 1.91644 26.0881C1.84644 27.4981 2.44644 29.9681 1.91644 30.8581C1.40644 31.7581 0.356413 33.0281 0.516413 35.4181C0.626413 37.3181 0.876434 38.3181 0.756434 38.7981C1.18977 39.0981 1.58644 39.4647 1.94644 39.8981C3.24644 41.5481 5.60641 44.3181 6.54641 45.0581C7.48641 45.7981 7.17643 44.6581 8.03643 46.3281C8.89643 48.0081 9.71643 49.8481 10.4664 50.7781C11.2064 51.7081 11.0964 52.5281 12.4064 52.8281C13.7064 53.1281 14.6064 52.6081 14.9864 51.8581C15.3564 51.1181 16.5464 50.3581 17.0664 51.2981C17.5964 52.2281 19.0164 53.3881 18.6064 54.8481C18.1964 56.3081 17.2264 57.1581 16.8464 58.0981C16.4764 59.0281 16.2464 59.3281 17.1164 60.1481C17.9664 60.9681 17.9664 61.7581 17.7764 63.1381C17.5864 64.5181 18.1564 67.5081 18.9764 68.2181C19.8064 68.9181 20.9564 71.0181 21.1764 71.0881C21.3964 71.1581 22.5664 70.9781 24.2064 70.9781C25.8464 70.9781 26.8964 70.828 27.1564 71.238C27.4164 71.648 28.3164 71.6181 27.5264 72.5081C26.7464 73.4081 26.4864 72.9281 26.4164 73.7081C26.3464 74.4881 27.0464 75.4581 25.9164 76.3581C24.8064 77.2581 23.6864 77.5181 23.6864 79.0081C23.6864 80.5081 22.7164 81.4381 21.7064 81.8481C20.7064 82.2581 17.7764 82.8181 17.4864 83.1981C17.1864 83.5681 17.6364 84.6081 18.2664 84.9181C18.9064 85.2181 20.6664 85.9581 21.5164 85.4681C22.3764 84.9881 26.0364 84.238 26.4864 84.868C26.9364 85.508 25.6964 86.9681 24.7264 87.0781C23.7564 87.1881 21.8564 87.3781 21.4064 88.0781C20.9564 88.7981 20.9164 89.4781 21.0664 89.7281C21.2164 89.9981 21.6664 89.878 21.8864 89.998C22.1164 90.098 22.7164 89.538 23.8664 90.998C25.0264 92.458 26.1064 94.658 27.5664 94.998C29.0264 95.338 33.0264 95.028 33.4664 94.178C33.9164 93.318 34.5164 93.0581 35.8264 93.3881C37.1364 93.7181 39.5964 93.7281 39.9264 93.0081C40.2664 92.3081 40.3464 91.598 41.7564 91.748C43.1664 91.898 44.8164 92.7181 45.6764 92.4181C46.5464 92.1181 47.1364 90.6581 47.4364 90.4781C47.7364 90.2881 49.3064 90.1781 49.3764 90.9181C49.4564 91.6681 50.3464 95.108 49.9064 96.938C49.4564 98.768 49.8264 101.718 50.6864 102.388C51.5464 103.068 52.3264 103.848 52.8464 104.038C53.3664 104.228 54.9064 103.768 54.9064 103.248C54.9064 102.728 55.6564 102.428 56.1764 102.498C56.6964 102.578 57.8565 102.048 58.2765 101.598C58.6765 101.158 59.9764 100.788 60.2064 101.118C60.4364 101.448 60.8464 102.088 61.8064 101.868C62.7864 101.638 63.8664 101.118 64.4664 101.598C65.0664 102.098 67.0464 103.808 67.4164 103.438C67.7964 103.058 69.1764 101.378 69.3564 101.238C69.5564 101.078 70.3264 100.778 70.2964 101.238C70.2564 101.678 69.5064 102.058 69.4364 102.238C69.3564 102.438 69.6564 102.878 69.8364 103.138C70.0364 103.398 69.9964 103.658 69.5864 104.138C69.1764 104.628 68.9164 105.338 69.2864 105.298C69.8889 105.106 70.4373 104.773 70.8864 104.328C71.0864 104.028 71.5964 104.408 71.8664 104.518C72.1918 104.586 72.5274 104.588 72.8537 104.524C73.1799 104.461 73.4902 104.333 73.7664 104.148C74.4364 103.648 75.3664 102.728 75.4064 101.348C75.4464 99.9581 75.3364 98.468 75.7464 97.118C76.1564 95.778 76.6864 96.2181 76.2664 95.3281C75.8664 94.4281 75.1064 92.528 75.1064 92.048C75.1064 91.558 75.1064 88.648 75.5564 88.498C76.0064 88.348 77.8364 88.598 78.1364 89.058C78.4364 89.508 78.2464 90.0581 80.3764 90.2581C82.5064 90.4381 82.9164 92.3781 83.3664 93.0881C83.8164 93.7981 84.3664 94.8081 85.0464 94.9181C85.7264 95.0281 86.6864 94.3181 86.6864 93.8781C86.6864 93.4381 87.1664 92.2681 88.0364 92.8281C88.8864 93.3881 89.1464 94.3581 90.9064 94.7281C92.6797 95.1214 93.5898 95.398 93.6364 95.558C93.6764 95.708 94.5364 95.8181 95.2364 95.7781C95.9364 95.7381 96.6264 95.8181 96.5464 95.1381C96.4764 94.4681 96.1464 94.2081 96.5464 93.7581C96.9464 93.3081 97.8164 93.3181 97.7064 92.0381C97.5964 90.7681 97.6664 90.028 96.6264 89.738C95.5764 89.428 94.9764 88.1581 95.2464 87.7081C95.4964 87.2581 96.2064 86.9281 95.9864 86.0681C95.7564 85.2081 95.1664 84.758 94.1564 84.988C93.1564 85.208 92.3264 84.3481 92.9264 83.6381C93.5264 82.9381 94.2664 83.078 94.2664 81.998C94.2664 80.908 94.6764 81.068 93.7864 80.428C92.8864 79.798 92.0264 80.358 92.1064 78.928C92.1764 77.518 92.3264 77.4781 92.7064 76.7281C93.0764 75.9881 93.7464 75.6881 93.1464 75.2281C92.5464 74.7881 91.6964 74.0081 91.4364 74.3481C91.1664 74.6781 91.3965 75.1281 90.2765 74.7881C89.1565 74.4581 87.8064 74.228 87.1764 73.748C86.8915 73.5298 86.7036 73.2085 86.6532 72.8532C86.6027 72.4979 86.6936 72.137 86.9064 71.8481C87.3264 71.2781 87.7764 71.3881 87.4764 70.1581C87.2212 69.4025 87.1192 68.6035 87.1764 67.808C87.2464 67.168 87.0164 66.538 86.1264 66.498C85.2264 66.458 84.5264 66.2381 83.6264 66.6481C82.7264 67.0581 82.9164 67.9181 81.3064 67.6581C79.6964 67.3981 76.7564 67.0981 75.7864 66.1281C74.8164 65.1581 74.6964 64.4781 73.5864 64.4481C72.4664 64.4081 72.3464 64.7081 71.7464 63.2081C71.1464 61.7081 71.1864 60.9681 70.4464 61.3381C69.6964 61.7181 69.2864 62.8781 68.7264 62.6581C68.1664 62.4281 67.8264 62.0181 67.7864 61.6481C67.7564 61.2681 67.1164 58.9881 67.8664 57.8681C68.6164 56.7481 69.5864 55.3281 70.2164 54.9681C70.8564 54.5781 72.2364 52.3781 73.2864 52.4581C74.3364 52.5381 75.8964 52.8581 76.4164 53.3581C76.9464 53.8381 78.0564 54.3581 78.7364 54.1681C79.4164 53.9781 81.6864 51.4881 82.0164 50.8481C82.3564 50.2181 82.9864 49.4281 82.5764 48.8281C82.1664 48.2281 81.6464 48.4981 81.9464 47.8981C82.2464 47.2981 83.4064 47.0781 83.6264 46.8181C84.1627 46.1996 84.8426 45.7223 85.6064 45.4281C86.5364 45.1781 86.8364 44.6881 87.5064 44.6081C88.1864 44.5381 89.6764 44.4281 90.4664 44.9881C91.2464 45.5481 92.7764 46.4781 93.2964 46.2181C93.8264 45.9581 94.5664 44.9181 94.4964 44.2381C94.4264 43.5581 95.7664 42.4881 96.2564 41.8881C96.7364 41.2881 98.1864 41.4381 98.5564 41.5881C98.9364 41.7381 100.956 41.2481 101.366 40.4981C101.766 39.7581 101.216 39.7181 102.036 39.0481C102.856 38.3781 104.086 39.0081 104.356 39.0881C104.616 39.1581 105.776 39.1281 105.286 37.8881C104.806 36.6581 104.876 34.9381 105.366 34.2681C105.846 33.5981 107.116 34.0081 107.566 33.1081C108.016 32.2081 108.536 31.3881 108.686 31.8381C108.836 32.2881 108.876 33.8581 109.246 34.0081C109.616 34.1581 110.666 33.5581 110.746 33.0381C110.816 32.5181 111.296 32.4781 111.786 31.9581C112.276 31.4281 112.786 31.2481 112.786 30.8681C112.786 30.4881 113.016 29.5681 113.286 29.0681C113.536 28.5881 113.836 28.0681 114.216 28.1781C114.596 28.2981 115.446 28.1081 115.366 27.5081C115.296 26.9081 114.886 26.7981 115.146 25.7881C115.406 24.7881 115.856 24.5181 116.086 24.1081C116.316 23.6981 116.866 22.6081 117.046 21.3081C117.246 20.0081 117.246 19.6581 117.726 18.9881C118.206 18.3181 119.556 15.6281 119.816 14.7381C120.076 13.8481 120.156 13.0181 120.186 12.4981C120.226 11.9681 120.036 7.74807 120.036 6.89807C120.036 6.03807 119.706 6.25807 119.926 4.76807C120.156 3.26807 120.456 2.96808 119.706 2.21808C118.956 1.46808 119.146 0.878064 117.756 0.578064C117.592 0.544086 117.424 0.524018 117.256 0.518066V0.528076ZM2.67642 24.8781C2.37642 25.0081 2.13642 25.1681 2.02642 25.5281C2.14642 25.1581 2.36642 25.0181 2.67642 24.8781Z" stroke="black"/>
</svg>
