<svg width="140" height="208" viewBox="0 0 140 208" fill="none" xmlns="http://www.w3.org/2000/svg">
<path d="M101.358 0.500247C101.058 0.520247 100.748 0.860269 100.358 0.960269C99.5784 1.17027 97.2484 5.00028 96.1884 6.97028C95.1284 8.95028 94.7684 8.46023 91.8684 9.17023C88.9684 9.87023 89.3985 11.0703 89.0385 11.7803C88.6785 12.4903 87.9084 13.6203 88.1184 14.4003C88.3384 15.1803 88.4785 16.4503 88.2585 17.5103C88.0585 18.5703 86.5584 17.6502 84.8684 17.7302C83.1784 17.8102 84.5184 18.0003 84.1684 19.7803C83.8084 21.5403 83.3884 22.5303 82.2484 23.6003C81.1184 24.6603 81.3285 23.1003 81.2585 22.0403C81.1885 20.9803 80.6984 20.5503 80.2684 21.2603C79.8484 21.9603 78.2184 22.4603 78.0784 21.7603C77.9384 21.0503 77.9384 20.2703 77.9384 20.2703C77.9384 20.2703 77.2984 19.4903 77.0184 20.6903C76.7384 21.8903 74.3184 24.0203 73.9084 24.5203C73.4784 25.0103 72.2085 25.7202 71.7885 26.9202C71.3685 28.1202 72.2084 30.3902 74.3984 30.8102C76.5984 31.2402 74.5384 32.0103 74.1184 33.1403C73.6984 34.2703 71.6384 33.4202 70.5784 33.0002C69.5184 32.5802 68.5284 32.5803 66.9784 33.2803C65.4184 33.9903 64.4284 33.2203 63.6484 32.7203C62.8684 32.2203 62.3784 31.8703 60.2484 32.2903C58.1384 32.7203 57.1484 32.4303 55.1584 31.9403C53.1784 31.4403 52.2584 29.8902 50.7084 29.2502C49.1484 28.6202 49.3584 29.6103 49.5784 31.5903C49.7784 33.5703 50.6384 32.7203 50.6384 34.7703C50.6384 36.8203 50.0684 35.8303 50.0684 37.0303C50.0684 38.2303 51.2084 39.0102 51.5584 40.9902C51.9084 42.9702 50.0684 42.6902 49.3584 42.9802C48.6584 43.2602 41.5884 42.9002 40.3784 43.6802C39.1784 44.4602 38.8984 45.4502 36.2084 46.2302C33.5184 47.0102 33.0284 45.1702 31.2584 44.1102C29.4884 43.0402 28.9884 42.9702 28.6384 44.6102C28.2884 46.2302 28.1484 48.9903 27.5784 49.1303C27.0184 49.2703 24.6084 49.2703 22.9084 49.8303C21.2084 50.4003 21.0084 51.1803 20.2284 52.5903C19.4484 54.0103 17.5384 53.6502 16.6184 53.2302C15.6984 52.8102 14.5684 52.5303 13.5084 53.5803C12.4484 54.6403 10.6084 54.2203 9.11844 54.1503C7.62844 54.0803 6.99844 55.3502 7.77844 56.5502C8.55844 57.7502 9.61843 58.7502 9.67843 59.6702C9.75843 60.5902 10.8184 62.7103 12.1684 63.1303C13.5084 63.5603 13.5684 65.4703 13.3684 67.0303C13.1484 68.5803 11.8084 68.3603 11.7384 69.2103C11.6684 70.0603 12.4384 70.8403 12.0184 72.8203C11.5984 74.8003 10.1084 75.8602 9.47844 76.4202C8.83844 77.0002 6.07843 77.5602 4.87843 77.0602C3.67843 76.5602 3.45843 77.6302 2.53843 78.6902C2.07843 79.2202 1.77843 79.7903 1.45843 80.3203V80.4202C2.09843 82.5402 3.15843 80.8403 3.79843 80.5203C4.43843 80.2003 4.96844 80.4202 5.49844 80.4202C6.02844 80.4202 6.98844 83.1703 7.72844 84.6603C8.46844 86.1403 7.72843 86.1402 7.62843 86.6802C7.51843 87.2102 7.09843 87.5202 6.23843 88.6902C5.39843 89.8602 6.33843 89.4302 6.98843 90.6102C7.61843 91.7702 6.98843 92.0903 6.45843 92.8303C5.91843 93.5703 6.13843 93.2603 5.81843 94.2103C5.49843 95.1703 5.71844 98.3503 5.71844 99.2003C5.71844 100.05 5.71844 101.11 5.60844 101.96C5.49844 102.81 4.43844 103.88 4.43844 103.88C4.43844 103.88 3.05844 104.08 2.52844 104.73C1.99844 105.36 2.62844 105.89 1.99844 106.95C1.35844 108.01 0.398436 107.59 0.508436 108.44C0.608436 109.29 1.46843 109.39 2.62843 109.82C3.80843 110.24 5.06844 111.84 5.49844 112.79C5.91844 113.75 4.43844 114.28 4.43844 115.66C4.43844 117.04 4.75843 116.08 6.45843 116.72C8.15843 117.36 8.15844 122.14 8.68844 123.62C9.20844 125.11 9.95844 124.79 9.63844 125.74C9.31844 126.69 8.68843 127.97 9.95843 129.99C11.2384 132.01 12.9284 135.41 12.7184 136.89C12.5084 138.37 15.4784 142.2 14.7384 143.9C13.9884 145.6 14.8384 146.87 14.8384 147.93C14.8384 148.99 16.2184 158.23 16.2184 160.36C16.2184 162.49 19.8284 168.86 19.8284 168.86C19.8284 168.86 21.6284 170.02 22.2684 170.02C22.9084 170.02 26.5184 169.06 27.3684 169.17C28.2184 169.28 28.5384 171.07 29.0684 171.82C29.5984 172.57 30.1284 172.25 31.1884 172.67C32.2484 173.1 32.2484 173.41 32.8884 173.95C33.5284 174.48 33.2084 174.58 33.6284 175.11C34.0584 175.64 34.5884 175.01 35.1184 174.58C35.6484 174.16 36.1784 174.9 36.2884 175.54C36.3984 176.18 36.2884 176.92 37.0284 177.77C37.7784 178.62 38.5184 177.98 38.7284 178.72C38.9384 179.46 39.2584 181.48 39.2584 183.08C39.2584 184.67 40.3284 183.82 41.6984 184.88C43.0784 185.94 43.8284 187.32 44.5684 188.28C45.3084 189.23 45.6284 189.98 47.3284 191.25C49.0284 192.52 50.1984 191.57 51.6784 191.99C53.1684 192.42 52.3184 193.16 52.3184 194.65C52.3184 196.14 53.9184 195.5 55.0784 195.92C56.2484 196.35 58.2584 195.92 59.2184 195.28C60.1784 194.65 61.6584 195.81 61.8684 197.3C62.0884 198.79 62.6184 200.06 64.6384 199.96C66.6484 199.86 67.8185 202.19 68.5685 203.46C69.3085 204.73 69.6185 205.48 70.5685 205.58C71.5285 205.68 71.6384 205.05 72.1684 204.31C72.6984 203.56 73.4484 204.1 74.2984 204.21C75.1484 204.32 77.5885 205.69 78.0085 206.11C78.4385 206.54 81.6185 206.64 83.3185 207.07C85.0185 207.5 83.9484 206.97 84.2784 205.47C84.5884 203.99 84.6985 203.35 85.7585 202.08C86.8185 200.81 89.5784 201.23 90.4284 201.23C91.2784 201.23 92.1284 202.4 92.7684 201.97C93.4084 201.54 97.5484 200.17 99.2384 200.49C100.938 200.8 102.108 201.66 102.638 201.34C103.168 201.01 103.598 200.06 104.438 198.15C105.298 196.24 105.718 196.88 106.778 196.88C107.838 196.88 108.478 196.45 109.438 195.92L110.608 195.28C110.608 195.28 111.028 194.43 111.768 193.91C112.508 193.37 113.368 190.08 113.258 189.66C113.148 189.23 112.088 189.56 109.328 189.34C106.568 189.13 105.188 189.02 105.078 187.96C104.978 186.9 106.138 186.16 107.838 184.88C108.494 184.435 108.999 183.8 109.285 183.06C109.571 182.32 109.624 181.511 109.438 180.74C109.118 179.68 107.948 179.46 107.948 177.87C107.948 176.28 109.008 174.9 110.288 174.79C111.568 174.68 111.458 174.79 112.408 174.16C113.358 173.52 113.468 172.36 114.748 171.93C116.028 171.5 115.798 170.23 116.128 169.7C116.438 169.17 117.178 168.96 119.308 169.06C121.438 169.16 122.488 170.12 123.338 170.23C124.188 170.34 127.058 171.18 127.478 170.97C128.362 170.198 129.085 169.26 129.608 168.21C129.928 167.36 130.558 167.04 130.778 166.72C130.978 166.41 132.358 165.98 134.278 165.13C136.188 164.28 136.078 163.23 136.718 161.95C137.358 160.68 137.248 160.04 137.458 159.08C137.678 158.13 137.888 157.18 138.418 156.53C138.948 155.9 137.568 154.94 137.568 154.94C137.568 154.94 136.718 154.94 134.908 155.04C133.108 155.15 132.898 154.09 132.368 153.04C131.838 151.97 132.148 149.95 132.148 148.89C132.148 147.83 131.728 146.55 131.728 146.55C131.728 146.55 130.558 146.45 129.078 146.55C127.588 146.65 127.478 146.77 125.998 145.7C124.508 144.64 123.558 142.63 123.768 141.67C123.978 140.72 124.508 140.29 124.408 139.23C124.298 138.17 123.128 138.06 122.068 137.96C121.008 137.86 120.268 138.91 118.878 138.7C117.498 138.49 117.178 138.17 116.438 137.21C115.698 136.26 115.488 135.62 115.488 135.62C115.488 135.62 114.528 137.42 113.688 138.7C112.828 139.97 113.048 139.44 112.618 139.97C112.198 140.5 112.618 141.14 111.558 141.14C110.498 141.14 109.758 141.24 109.218 141.46C108.698 141.67 107.318 141.78 106.568 142.84C105.828 143.9 104.228 143.05 104.128 142.41C104.028 141.78 103.378 140.71 102.958 140.51C102.538 140.29 99.7784 138.81 98.7184 138.81C97.6484 138.81 95.5184 137.31 94.9984 136.47C94.4684 135.62 93.1984 136.15 93.0884 136.79C92.9884 137.42 93.7285 137.63 94.0385 139.12C94.3585 140.62 93.7284 140.5 93.6184 140.92C93.5084 141.34 89.3684 140.92 89.3684 140.92C89.3684 140.92 88.9384 139.55 88.9384 138.8C88.9384 138.06 89.7884 137.1 90.3284 136.36C90.8684 135.62 89.5884 134.24 89.5884 134.24C89.5884 134.24 88.4184 133.39 88.1984 131.37C87.9984 129.35 86.7184 128.4 86.9284 127.87C87.1384 127.34 88.3084 128.5 89.4784 129.25C90.6384 129.99 91.3784 130.52 93.0784 132.54C94.7784 134.56 99.6684 133.28 100.618 134.98C101.568 136.68 103.168 136.78 103.168 135.94C103.168 135.1 102.748 133.71 102.318 133.07C101.898 132.44 100.418 130.74 100.418 129.89C100.418 129.04 101.468 128.83 102.538 129.04C103.598 129.24 104.128 129.68 104.758 129.46C105.408 129.25 105.078 128.93 105.828 127.76C106.568 126.6 105.188 125.86 104.548 125.11C103.978 124.394 103.199 123.873 102.318 123.62C101.468 123.42 101.578 124.37 101.468 125.22C101.368 126.06 100.408 126.28 99.6684 125.96C98.2988 125.317 97.0425 124.456 95.9484 123.41C94.9984 122.35 93.7284 123.41 93.7284 124.05C93.7284 124.69 93.5085 126.91 93.5085 126.91C93.5085 126.91 90.8584 126.17 89.4784 125.96C88.0984 125.75 86.3984 122.99 86.4984 121.82C86.5984 120.65 88.1984 120.33 88.1984 120.33C88.1984 120.33 87.7784 119.27 86.6084 119.16C85.4384 119.05 84.0584 118 83.1084 117.15C82.1584 116.3 83.0084 115.02 83.1084 113.85C83.2084 112.68 83.6385 110.15 85.0085 109.4C86.3985 108.65 85.4384 108.23 85.8684 106.95C86.2884 105.68 84.5884 105.05 83.5284 104.3C82.4684 103.55 82.3584 103.03 82.3584 102.18C82.3584 101.33 83.5284 100.8 84.9084 100.9C86.2884 101 87.3484 101.65 88.6284 102.07C89.8984 102.49 92.3384 101.43 93.9284 101.33C95.5284 101.22 94.6784 96.0203 94.1484 95.7003C93.6184 95.3803 92.5484 94.1003 92.1284 92.0903C91.7084 90.0703 90.4284 90.9203 88.8384 89.6503C87.2384 88.3803 89.0484 88.8002 90.2184 88.6902C91.3884 88.5802 93.0884 85.0902 93.8284 84.2402C94.5684 83.3902 93.9285 83.1702 93.5085 82.4302C93.0885 81.6902 93.1884 81.6903 93.2984 80.5203C93.3984 79.3503 91.6984 78.6103 91.3884 77.5403C91.0684 76.4903 92.3384 75.8403 93.0884 74.8903C93.8284 73.9403 96.6884 74.4703 97.3284 74.1503C97.9684 73.8303 98.6084 74.5702 99.0284 75.7502C99.4584 76.9102 100.518 76.3802 101.688 76.8002C102.858 77.2202 104.868 75.8503 105.718 75.2103C106.568 74.5703 106.148 73.3103 106.148 71.0703C106.148 68.8303 106.778 67.6703 106.888 66.7203C106.988 65.7603 109.008 65.4403 109.648 65.0203C110.288 64.5903 109.548 64.1703 108.158 63.9603C106.778 63.7403 106.458 62.6803 105.718 62.5803C104.978 62.4803 103.918 63.4303 103.598 63.2203C103.278 63.0003 100.618 61.8303 100.098 61.4103C99.5584 60.9903 100.298 59.7103 101.468 58.5403C102.638 57.3803 104.658 55.8903 104.968 55.4603C105.298 55.0403 104.448 54.2902 104.868 52.4902C105.288 50.6902 104.548 50.5902 104.228 49.3102C103.918 48.0302 105.188 47.3902 105.828 46.8602C106.458 46.3302 105.298 45.4902 105.078 44.7402C104.878 44.0002 105.928 42.9403 106.038 42.1903C106.148 41.4403 105.608 41.0202 104.758 40.8102C103.918 40.6102 103.058 39.4303 103.808 38.5803C104.456 37.8412 105.057 37.063 105.608 36.2502C106.038 35.6102 107.838 34.3403 108.588 33.3803C109.328 32.4303 110.288 32.4303 111.138 32.2103C111.988 31.9903 114.208 28.8102 113.148 28.9202C112.088 29.0302 109.328 28.3903 108.898 27.5403C108.478 26.6903 108.898 27.5403 106.458 27.0103C104.018 26.4803 105.188 25.3103 105.398 24.1403C105.608 22.9803 106.678 22.9802 107.948 22.9802C109.218 22.9802 108.908 21.2803 110.068 20.6403C111.248 20.0103 110.818 18.0903 110.818 16.8203C110.818 15.5503 110.708 14.0602 109.968 12.6802C109.218 11.3002 109.328 10.6602 109.438 9.18024C109.538 7.68024 109.438 6.84026 109.218 6.20026C109.008 5.57026 107.948 5.14026 107.948 5.14026L107.318 4.78028C107.172 5.08028 107.022 5.36359 106.868 5.63025C105.728 7.47025 105.728 6.76026 104.528 6.76026C103.328 6.76026 102.768 4.29027 102.198 1.96027C101.918 0.780269 101.648 0.490247 101.358 0.500247Z" fill="#D1DBDD" stroke="black"/>
</svg>
