<svg width="84" height="141" viewBox="0 0 84 141" fill="none" xmlns="http://www.w3.org/2000/svg">
<path d="M1.31969 0.702515L0.679688 1.10254C0.679688 1.10254 3.10968 5.18256 3.24968 5.37256C3.38968 5.56256 7.85969 17.7325 8.47969 18.5425C9.09969 19.3425 12.8497 23.9026 13.8497 24.4326C14.8497 24.9626 16.5097 25.7625 17.7897 27.5225C19.3746 29.4599 21.0567 31.3156 22.8297 33.0825C23.0697 33.3225 23.4897 34.8426 24.0597 36.3126C24.6397 37.7826 25.3997 40.9725 25.3997 40.9725C25.3997 40.9725 28.7697 45.8125 29.2997 47.2925C29.8197 48.7625 30.9497 50.7626 31.4297 51.6226C31.9097 52.4826 32.8597 54.4725 32.6297 55.8525C32.3797 57.2225 32.2897 58.4126 32.8097 59.1226C33.3297 59.8326 33.0997 61.5925 33.7597 63.2625C34.4297 64.9225 35.4197 68.1625 36.0397 69.1025C36.6597 70.0525 38.8397 73.9525 39.1797 74.7125C39.5097 75.4725 40.4197 75.3726 41.2197 75.5726C42.0297 75.7626 43.3197 77.6625 43.3197 78.2325C43.3197 78.7925 43.0297 80.3226 42.0797 79.9926C41.1297 79.6526 40.6597 79.4225 40.3697 79.6525C40.0797 79.8925 40.6497 84.0326 41.8397 86.5026C42.7267 88.4375 43.5045 90.4206 44.1697 92.4426C44.2197 92.5826 44.5997 98.8126 45.0697 100.373C45.5497 101.943 45.7397 104.513 46.6397 105.513C47.5397 106.513 48.1097 107.363 47.8797 108.413C47.6397 109.453 47.1197 111.213 48.4997 112.823C49.7179 114.199 50.8153 115.678 51.7797 117.243C52.1997 118.103 51.7297 120.143 53.2497 121.623C54.8985 123.142 56.642 124.554 58.4697 125.853C58.6697 125.903 63.4197 130.603 65.0797 130.893C66.7497 131.173 67.2697 131.173 67.5997 132.033C67.9297 132.893 67.1197 134.073 67.9297 134.883C68.7397 135.683 72.0697 139.253 73.1597 139.543C74.2597 139.823 75.7697 139.253 75.7697 139.253L76.2397 138.993C75.8697 139.073 75.5697 139.183 75.5197 139.153C75.1952 138.521 74.9852 137.837 74.8997 137.133C74.8997 136.593 76.1497 134.623 76.7097 133.803C77.2525 132.988 77.5636 132.041 77.6097 131.063C77.6097 130.293 76.6097 128.893 76.2297 128.353C75.8497 127.813 75.3297 127.093 75.6497 126.383C75.9497 125.663 76.4097 125.583 77.1497 125.153C77.8997 124.713 77.8197 123.003 77.7497 122.003C77.6797 121.003 76.6597 120.703 76.0797 119.983C75.783 119.584 75.5834 119.121 75.4966 118.632C75.4098 118.142 75.4383 117.639 75.5797 117.163C75.8797 116.243 76.5397 116.303 77.5397 115.563C78.5397 114.823 78.7697 114.123 78.8097 113.203C78.8697 112.283 79.3097 109.023 79.6097 108.283C79.9097 107.543 80.8897 107.053 81.9597 106.263C83.0397 105.463 82.6797 102.243 82.6597 101.453C82.6297 100.653 82.3497 100.633 81.9897 100.073C81.6297 99.5026 80.1497 98.4125 79.7397 98.4125C79.3297 98.4125 78.9197 98.7825 78.1397 99.7325C77.3797 100.683 76.5397 100.273 76.0997 100.233C75.6697 100.173 75.8197 98.8625 75.9997 98.3325C76.1797 97.7925 76.6997 97.0025 77.3997 96.1025C78.1297 95.2025 78.1497 94.0325 78.2297 93.7725C78.3097 93.5125 77.8897 92.6725 77.6597 92.1425C77.4397 91.5925 77.8197 90.6725 78.1797 89.7825C78.5297 88.8825 78.7897 86.4525 78.6397 85.7825C78.4897 85.1125 77.7897 84.1826 77.3797 83.1826C76.9797 82.1826 78.1797 82.2025 78.5597 81.8525C78.9397 81.5025 79.6597 80.4626 79.8597 80.1826C80.0697 79.9026 79.2797 78.6225 78.7097 78.2325C78.1397 77.8425 77.2497 77.5726 76.6097 77.3726C75.9697 77.1626 75.4397 77.8025 74.8197 78.2125C74.2097 78.6225 71.5697 79.5625 70.8597 80.2325C70.1397 80.8925 69.2597 80.7725 69.0097 80.6125C68.6163 80.2993 68.2724 79.9284 67.9897 79.5125C67.5297 78.9525 66.6897 79.3625 65.7097 77.8325C64.7297 76.3025 65.7597 75.7026 66.0997 74.6826C66.4297 73.6626 66.1697 72.1226 66.1997 71.3026C66.2297 70.4826 64.8197 68.6925 64.8697 68.2025C64.9197 67.7125 66.0197 67.3625 66.4497 67.1525C66.8897 66.9525 68.0097 65.7526 68.2697 65.4426C68.5297 65.1426 68.1197 63.3725 67.8897 62.8525C67.6597 62.3525 67.1697 62.1626 66.2997 61.8026C65.4297 61.4426 62.8497 60.2425 62.2297 59.9625C61.6197 59.6825 61.3297 59.1626 61.0797 58.6826C60.8197 58.2026 60.9797 57.8125 61.3097 57.2825C61.6397 56.7325 62.3797 56.2825 62.6697 55.9725C62.9497 55.6725 62.6397 54.3026 62.4397 53.2526C62.2397 52.2026 61.8997 52.5925 61.6397 52.3925C61.3897 52.1825 60.0597 51.3125 59.5697 50.9525C59.0797 50.5925 57.4897 48.9826 57.2197 48.2426C56.9297 47.5026 57.4197 46.7525 57.1197 46.1625C56.8097 45.5825 55.3697 45.0925 54.8797 44.7825C54.3997 44.4825 53.7297 44.2825 53.6797 43.9125C53.6297 43.5525 52.1497 42.9725 51.7597 42.3525C51.3797 41.7425 51.5297 42.0525 50.8197 41.3325C50.0997 40.6125 50.6197 40.3526 50.7197 39.6926C50.8279 38.9875 50.8414 38.2712 50.7597 37.5626C50.6978 36.9814 50.5635 36.4103 50.3597 35.8625L50.2897 35.7426C49.5497 34.4726 48.3897 32.1426 46.3597 32.2426C44.3497 32.3426 43.8197 31.0725 43.6097 29.5825C43.3897 28.0925 41.9097 26.9326 40.9497 27.5626C39.9897 28.2026 37.9797 28.6225 36.8097 28.2025C35.6397 27.7825 34.0497 28.4126 34.0497 26.9326C34.0497 25.4526 34.8997 24.7025 33.4097 24.2725C31.9297 23.8525 30.7497 24.8025 29.0597 23.5325C27.3597 22.2625 27.0397 21.5126 26.2997 20.5626C25.5597 19.6126 24.8097 18.2225 23.4297 17.1625C22.0497 16.1025 20.9897 16.9525 20.9897 15.3625C20.9897 13.7625 20.6697 11.7426 20.4597 11.0026C20.2497 10.2626 19.5097 10.9026 18.7597 10.0526C18.0197 9.20255 18.1197 8.45257 18.0197 7.82257C17.9197 7.18257 17.3797 6.44255 16.8497 6.86255C16.3197 7.29255 15.7897 7.92252 15.3597 7.39252C14.9297 6.86252 15.2597 6.75254 14.6197 6.23254C13.9797 5.70254 13.9797 5.38251 12.9197 4.95251C11.8597 4.53251 11.3297 4.85254 10.7997 4.10254C10.2697 3.36254 9.94969 1.55251 9.09969 1.45251C8.24969 1.35251 4.63968 2.30255 3.99968 2.30255C3.35968 2.30255 1.55969 1.13257 1.55969 1.13257L1.31969 0.702515ZM30.1397 41.2725C30.4497 41.2425 30.7397 41.2825 30.9197 41.5325C30.9978 41.6139 31.089 41.6816 31.1897 41.7325L31.5397 41.9326C31.7897 42.0726 31.9997 42.2125 31.9697 42.3925C31.9497 42.4859 31.8897 42.5792 31.7897 42.6725C31.5897 42.8725 31.3097 43.0726 31.1997 43.1926C31.173 43.2192 31.1597 43.2425 31.1597 43.2625C31.1597 43.2825 31.1764 43.2959 31.2097 43.3026C31.8297 43.4292 32.203 43.5959 32.3297 43.8026L32.3897 43.9525L32.3797 44.1226L32.2997 44.2925L32.1697 44.4725C32.1179 44.5262 32.052 44.5643 31.9797 44.5825C31.7797 44.6525 31.4997 44.5725 31.2297 44.5125C30.8697 44.4325 30.5197 44.3925 30.2997 44.7725C30.0797 45.1625 30.0697 45.5726 30.0197 45.8126C29.9697 46.0526 29.8697 46.1126 29.4697 45.8126C28.9697 45.4126 29.1197 45.1425 28.9897 44.8625L28.8597 44.6926C28.6788 44.5255 28.4686 44.3933 28.2397 44.3026C26.9397 43.7426 27.8697 43.1725 27.8697 43.1725L29.1697 42.6725L29.0697 42.2426C29.0397 42.0126 29.0097 41.7725 29.0697 41.7025C29.1825 41.6236 29.3031 41.5567 29.4297 41.5026L29.7697 41.3726L30.1397 41.2725Z" fill="#D1DBDD"/>
<path d="M50.8097 36.6226L50.9797 36.8826M53.8597 36.6525C53.6597 36.9792 53.4797 37.2525 53.3197 37.4725M51.2497 37.2625L51.3097 37.3425M51.4597 37.4926L51.5597 37.5726M53.2597 37.5526L53.1597 37.6525M51.7097 37.6725L51.8297 37.7325M1.31969 0.702515L0.679688 1.10254C0.679688 1.10254 3.10968 5.18256 3.24968 5.37256C3.38968 5.56256 7.85969 17.7325 8.47969 18.5425C9.09969 19.3425 12.8497 23.9026 13.8497 24.4326C14.8497 24.9626 16.5097 25.7625 17.7897 27.5225C19.3746 29.4599 21.0567 31.3156 22.8297 33.0825C23.0697 33.3225 23.4897 34.8426 24.0597 36.3126C24.6397 37.7826 25.3997 40.9725 25.3997 40.9725C25.3997 40.9725 28.7697 45.8125 29.2997 47.2925C29.8197 48.7625 30.9497 50.7626 31.4297 51.6226C31.9097 52.4826 32.8597 54.4725 32.6297 55.8525C32.3797 57.2225 32.2897 58.4126 32.8097 59.1226C33.3297 59.8326 33.0997 61.5925 33.7597 63.2625C34.4297 64.9225 35.4197 68.1625 36.0397 69.1025C36.6597 70.0525 38.8397 73.9525 39.1797 74.7125C39.5097 75.4725 40.4197 75.3726 41.2197 75.5726C42.0297 75.7626 43.3197 77.6625 43.3197 78.2325C43.3197 78.7925 43.0297 80.3226 42.0797 79.9926C41.1297 79.6526 40.6597 79.4225 40.3697 79.6525C40.0797 79.8925 40.6497 84.0326 41.8397 86.5026C42.7267 88.4375 43.5045 90.4206 44.1697 92.4426C44.2197 92.5826 44.5997 98.8126 45.0697 100.373C45.5497 101.943 45.7397 104.513 46.6397 105.513C47.5397 106.513 48.1097 107.363 47.8797 108.413C47.6397 109.453 47.1197 111.213 48.4997 112.823C49.7179 114.199 50.8153 115.678 51.7797 117.243C52.1997 118.103 51.7297 120.143 53.2497 121.623C54.8985 123.142 56.642 124.554 58.4697 125.853C58.6697 125.903 63.4197 130.603 65.0797 130.893C66.7497 131.173 67.2697 131.173 67.5997 132.033C67.9297 132.893 67.1197 134.073 67.9297 134.883C68.7397 135.683 72.0697 139.253 73.1597 139.543C74.2597 139.823 75.7697 139.253 75.7697 139.253L76.2397 138.993C75.8697 139.073 75.5697 139.183 75.5197 139.153C75.1952 138.521 74.9852 137.837 74.8997 137.133C74.8997 136.593 76.1497 134.623 76.7097 133.803C77.2525 132.988 77.5636 132.041 77.6097 131.063C77.6097 130.293 76.6097 128.893 76.2297 128.353C75.8497 127.813 75.3297 127.093 75.6497 126.383C75.9497 125.663 76.4097 125.583 77.1497 125.153C77.8997 124.713 77.8197 123.003 77.7497 122.003C77.6797 121.003 76.6597 120.703 76.0797 119.983C75.783 119.584 75.5834 119.121 75.4966 118.632C75.4098 118.142 75.4383 117.639 75.5797 117.163C75.8797 116.243 76.5397 116.303 77.5397 115.563C78.5397 114.823 78.7697 114.123 78.8097 113.203C78.8697 112.283 79.3097 109.023 79.6097 108.283C79.9097 107.543 80.8897 107.053 81.9597 106.263C83.0397 105.463 82.6797 102.243 82.6597 101.453C82.6297 100.653 82.3497 100.633 81.9897 100.073C81.6297 99.5026 80.1497 98.4125 79.7397 98.4125C79.3297 98.4125 78.9197 98.7825 78.1397 99.7325C77.3797 100.683 76.5397 100.273 76.0997 100.233C75.6697 100.173 75.8197 98.8625 75.9997 98.3325C76.1797 97.7925 76.6997 97.0025 77.3997 96.1025C78.1297 95.2025 78.1497 94.0325 78.2297 93.7725C78.3097 93.5125 77.8897 92.6725 77.6597 92.1425C77.4397 91.5925 77.8197 90.6725 78.1797 89.7825C78.5297 88.8825 78.7897 86.4525 78.6397 85.7825C78.4897 85.1125 77.7897 84.1826 77.3797 83.1826C76.9797 82.1826 78.1797 82.2025 78.5597 81.8525C78.9397 81.5025 79.6597 80.4626 79.8597 80.1826C80.0697 79.9026 79.2797 78.6225 78.7097 78.2325C78.1397 77.8425 77.2497 77.5726 76.6097 77.3726C75.9697 77.1626 75.4397 77.8025 74.8197 78.2125C74.2097 78.6225 71.5697 79.5625 70.8597 80.2325C70.1397 80.8925 69.2597 80.7725 69.0097 80.6125C68.6163 80.2993 68.2724 79.9284 67.9897 79.5125C67.5297 78.9525 66.6897 79.3625 65.7097 77.8325C64.7297 76.3025 65.7597 75.7026 66.0997 74.6826C66.4297 73.6626 66.1697 72.1226 66.1997 71.3026C66.2297 70.4826 64.8197 68.6925 64.8697 68.2025C64.9197 67.7125 66.0197 67.3625 66.4497 67.1525C66.8897 66.9525 68.0097 65.7526 68.2697 65.4426C68.5297 65.1426 68.1197 63.3725 67.8897 62.8525C67.6597 62.3525 67.1697 62.1626 66.2997 61.8026C65.4297 61.4426 62.8497 60.2425 62.2297 59.9625C61.6197 59.6825 61.3297 59.1626 61.0797 58.6826C60.8197 58.2026 60.9797 57.8125 61.3097 57.2825C61.6397 56.7325 62.3797 56.2825 62.6697 55.9725C62.9497 55.6725 62.6397 54.3026 62.4397 53.2526C62.2397 52.2026 61.8997 52.5925 61.6397 52.3925C61.3897 52.1825 60.0597 51.3125 59.5697 50.9525C59.0797 50.5925 57.4897 48.9826 57.2197 48.2426C56.9297 47.5026 57.4197 46.7525 57.1197 46.1625C56.8097 45.5825 55.3697 45.0925 54.8797 44.7825C54.3997 44.4825 53.7297 44.2825 53.6797 43.9125C53.6297 43.5525 52.1497 42.9725 51.7597 42.3525C51.3797 41.7425 51.5297 42.0525 50.8197 41.3325C50.0997 40.6125 50.6197 40.3526 50.7197 39.6926C50.8279 38.9875 50.8414 38.2712 50.7597 37.5626C50.6978 36.9814 50.5635 36.4103 50.3597 35.8625L50.2897 35.7426C49.5497 34.4726 48.3897 32.1426 46.3597 32.2426C44.3497 32.3426 43.8197 31.0725 43.6097 29.5825C43.3897 28.0925 41.9097 26.9326 40.9497 27.5626C39.9897 28.2026 37.9797 28.6225 36.8097 28.2025C35.6397 27.7825 34.0497 28.4126 34.0497 26.9326C34.0497 25.4526 34.8997 24.7025 33.4097 24.2725C31.9297 23.8525 30.7497 24.8025 29.0597 23.5325C27.3597 22.2625 27.0397 21.5126 26.2997 20.5626C25.5597 19.6126 24.8097 18.2225 23.4297 17.1625C22.0497 16.1025 20.9897 16.9525 20.9897 15.3625C20.9897 13.7625 20.6697 11.7426 20.4597 11.0026C20.2497 10.2626 19.5097 10.9026 18.7597 10.0526C18.0197 9.20255 18.1197 8.45257 18.0197 7.82257C17.9197 7.18257 17.3797 6.44255 16.8497 6.86255C16.3197 7.29255 15.7897 7.92252 15.3597 7.39252C14.9297 6.86252 15.2597 6.75254 14.6197 6.23254C13.9797 5.70254 13.9797 5.38251 12.9197 4.95251C11.8597 4.53251 11.3297 4.85254 10.7997 4.10254C10.2697 3.36254 9.94969 1.55251 9.09969 1.45251C8.24969 1.35251 4.63968 2.30255 3.99968 2.30255C3.35968 2.30255 1.55969 1.13257 1.55969 1.13257L1.31969 0.702515ZM30.1397 41.2725C30.4497 41.2425 30.7397 41.2825 30.9197 41.5325C30.9978 41.6139 31.089 41.6816 31.1897 41.7325L31.5397 41.9326C31.7897 42.0726 31.9997 42.2125 31.9697 42.3925C31.9497 42.4859 31.8897 42.5792 31.7897 42.6725C31.5897 42.8725 31.3097 43.0726 31.1997 43.1926C31.173 43.2192 31.1597 43.2425 31.1597 43.2625C31.1597 43.2825 31.1764 43.2959 31.2097 43.3026C31.8297 43.4292 32.203 43.5959 32.3297 43.8026L32.3897 43.9525L32.3797 44.1226L32.2997 44.2925L32.1697 44.4725C32.1179 44.5262 32.052 44.5643 31.9797 44.5825C31.7797 44.6525 31.4997 44.5725 31.2297 44.5125C30.8697 44.4325 30.5197 44.3925 30.2997 44.7725C30.0797 45.1625 30.0697 45.5726 30.0197 45.8126C29.9697 46.0526 29.8697 46.1126 29.4697 45.8126C28.9697 45.4126 29.1197 45.1425 28.9897 44.8625L28.8597 44.6926C28.6788 44.5255 28.4686 44.3933 28.2397 44.3026C26.9397 43.7426 27.8697 43.1725 27.8697 43.1725L29.1697 42.6725L29.0697 42.2426C29.0397 42.0126 29.0097 41.7725 29.0697 41.7025C29.1825 41.6236 29.3031 41.5567 29.4297 41.5026L29.7697 41.3726L30.1397 41.2725Z" stroke="black"/>
</svg>
