<svg width="250" height="195" viewBox="0 0 250 195" fill="none" xmlns="http://www.w3.org/2000/svg">
<path d="M60.8671 0.506512C60.6738 0.473178 60.4204 0.563198 60.1071 0.776531C58.4071 1.90653 58.4071 5.69651 55.5571 5.12651C52.8271 4.57651 53.4171 8.22651 49.5571 5.62651C49.4734 5.80807 49.3372 5.96038 49.1661 6.06376C48.9949 6.16715 48.7968 6.21689 48.5971 6.20652C47.7971 6.20652 47.2571 6.07654 46.9971 6.47654C46.7271 6.87654 46.8571 7.87653 46.2571 8.21653C45.6571 8.55653 44.1171 8.6865 44.1171 8.6865C44.1171 8.6865 44.3171 10.3565 44.7171 10.8265C45.1171 11.2965 45.5171 10.8965 45.1871 12.0265C44.8571 13.1665 45.3171 14.1066 44.3171 14.2366C43.3171 14.3766 42.3171 14.7065 42.5771 15.9065C42.8471 17.1065 42.7771 18.1765 43.4471 18.4465C44.1171 18.7165 44.7171 18.8465 45.6571 18.3865C46.5971 17.9265 46.8571 17.7165 48.4571 17.7865C50.0671 17.8465 49.4671 17.6465 51.0771 17.6465C52.6871 17.6465 52.5471 18.3865 53.9471 17.5165C55.3471 16.6465 56.4871 16.5165 56.8971 16.8465C57.1278 17.0409 57.3088 17.2874 57.4253 17.5656C57.5418 17.8438 57.5904 18.1458 57.5671 18.4465C57.4971 19.1265 57.7671 19.7266 56.8271 19.9866C55.8871 20.2566 53.9471 20.2565 52.4071 20.4565C50.8671 20.6565 49.0671 21.3265 48.3971 21.9965C47.7271 22.6665 47.7971 24.4065 47.1271 24.9465C46.4571 25.4765 45.3871 27.0165 44.1171 26.9465C42.8471 26.8765 42.5771 25.9465 42.4471 26.8165C42.3071 27.6865 42.4471 29.4866 41.5771 29.4866C40.7071 29.4866 39.5071 29.6265 38.6271 29.8865C37.7671 30.1565 36.2871 30.1565 36.9571 30.6865C37.6271 31.2265 39.9671 31.7565 40.4371 32.0265C40.9071 32.2965 41.1771 31.9565 42.3071 34.0265C43.4471 36.1165 44.8571 36.6465 44.8571 37.5865C44.8571 38.5265 45.2571 39.5165 44.9171 40.5865C44.5871 41.6665 43.5171 43.5365 43.0471 44.4065C42.5771 45.2765 43.0471 46.1465 42.5071 46.6865C41.9771 47.2165 39.4371 48.0165 38.2271 47.6865C37.2873 47.4129 36.3278 47.2123 35.3571 47.0865C34.8978 47.0022 34.4669 46.8043 34.1036 46.5108C33.7403 46.2174 33.4562 45.8378 33.2771 45.4065C32.9471 44.4765 33.4771 43.8665 32.4771 43.6065C31.4771 43.3365 29.5971 44.0765 29.3271 45.0065C29.0671 45.9465 29.3971 46.5465 30.1271 47.2065C30.8771 47.8865 31.8071 49.8265 30.9371 50.8265C30.0671 51.8265 29.1371 52.7665 29.2671 53.7665C29.3971 54.7665 29.7371 57.3065 28.5271 58.1865C27.3371 59.0365 23.7271 60.6165 23.0771 60.2065L22.8771 61.7265C22.8771 61.7265 22.5671 62.0065 22.2371 62.2765C21.8971 62.5365 21.5271 62.7765 21.3871 62.7165C20.3856 62.2183 19.372 61.7448 18.3471 61.2966C18.0571 61.1966 17.4171 60.9265 16.7871 60.7065C16.492 60.6009 16.1916 60.5108 15.8871 60.4365H15.8771C15.6646 60.3844 15.445 60.3675 15.2271 60.3865C14.7471 60.5065 14.5771 60.5065 13.6771 60.2465V60.3265C13.5471 60.7265 15.0871 61.4665 12.3371 61.3265C9.5871 61.1865 9.26709 61.2565 7.93709 60.4565C6.58709 59.6565 7.79709 59.7865 6.32709 59.5865C5.71911 59.5505 5.12741 59.376 4.59709 59.0765C4.35484 60.1158 4.14805 61.1631 3.9771 62.2165C3.9771 62.5765 2.92709 66.0365 2.42709 67.0265C1.92709 68.0265 0.5271 71.0565 0.5271 71.0565L1.78709 76.1565C1.86709 76.4365 3.6971 78.1965 3.6971 78.4865C3.6971 78.7665 3.55709 80.0365 3.34709 80.5365C3.19071 80.9985 3.07691 81.4738 3.0071 81.9565C2.9271 82.5365 2.88709 83.0765 2.98709 83.2265C3.20709 83.5065 5.53709 84.8465 5.53709 84.8465L4.0571 87.3265C4.0571 87.3265 3.9171 91.6365 3.9171 92.2765C3.9171 92.7565 3.9971 96.1766 4.2771 97.6766C4.30827 97.871 4.3585 98.0619 4.42709 98.2465C4.48709 98.3665 4.55376 98.4032 4.62709 98.3565C5.18709 97.9365 7.0971 94.3965 7.4471 94.0465C7.6529 93.9201 7.8799 93.832 8.1171 93.7865C9.0971 93.5365 10.7771 93.3365 10.7771 93.3365C10.7771 93.3365 12.1171 94.7565 11.1271 95.3865C10.1371 96.0265 8.29709 96.0965 8.01709 96.3065C7.95042 96.3732 7.90043 96.5365 7.8671 96.7965C7.83864 97.089 7.82862 97.3829 7.8371 97.6766C7.8571 98.3166 7.9371 98.9865 8.0871 99.2065C8.2971 99.5165 8.8671 100.117 8.8671 100.457C8.88043 100.577 8.80709 100.653 8.64709 100.687C8.27709 100.767 7.09709 100.946 6.09709 101.246C5.80709 101.326 5.5071 101.407 5.2771 101.517C5.12288 101.588 4.97837 101.679 4.84709 101.787C4.75102 101.874 4.6729 101.979 4.6171 102.097C4.3371 103.017 5.3171 106.487 5.7571 107.397C6.0671 108.097 6.7071 109.177 6.8571 109.737C6.91043 109.937 6.89709 110.057 6.81709 110.097C6.45709 110.237 4.9771 111.297 4.9771 111.297C4.9771 111.297 4.9071 111.356 4.8571 111.496C4.78378 111.694 4.75975 111.907 4.78709 112.117C4.83638 112.507 4.9621 112.884 5.15709 113.227C5.49289 113.834 5.90637 114.396 6.3871 114.897C6.9871 115.543 7.45376 116.127 7.78709 116.647C8.55507 117.66 8.88955 118.937 8.7171 120.197C8.64043 120.911 8.67415 121.633 8.81709 122.337C8.98511 123.13 9.28965 123.888 9.7171 124.577C10.1671 125.277 10.5471 126.067 10.9671 127.047C11.3871 128.027 11.8671 129.217 12.5371 130.737C13.1097 132.017 13.4322 133.395 13.4871 134.797C13.5471 135.987 13.4571 137.027 13.5271 137.947C13.6271 139.327 12.9871 140.587 12.8971 141.547C12.8571 141.867 12.9038 142.15 13.0371 142.397C13.2011 142.649 13.4199 142.861 13.6771 143.017C14.2071 143.357 14.8871 143.577 15.2971 143.817C15.5038 143.95 15.6238 144.09 15.6571 144.237C15.6571 144.39 15.5804 144.517 15.4271 144.617C15.2738 144.717 15.0971 144.843 14.8971 144.997C14.7346 145.128 14.6061 145.296 14.5226 145.488C14.439 145.679 14.4028 145.888 14.4171 146.097V146.167C14.4171 146.367 14.4504 146.597 14.5171 146.857C14.6638 147.383 14.8271 147.84 15.0071 148.227C15.3571 149.007 15.7271 149.547 15.9771 149.987C16.0901 150.175 16.1712 150.381 16.2171 150.597L16.1971 150.877C16.2771 151.987 15.3271 158.797 16.2171 161.067C17.0853 163.19 17.4184 165.494 17.1871 167.777C17.1604 168.083 17.1704 168.457 17.2171 168.897C17.2638 169.33 17.3371 169.813 17.4371 170.347C18.0371 173.497 19.4871 177.917 20.1771 179.027C21.0483 180.398 21.6049 181.945 21.8071 183.557C21.8771 184.757 22.2271 187.727 23.4271 188.577C24.2972 189.205 24.9926 190.044 25.4471 191.017C25.5671 191.283 25.6271 191.507 25.6271 191.687C25.6271 191.867 25.7171 192.017 25.8971 192.137C26.2271 192.377 26.8371 192.507 27.4171 192.507C27.7104 192.507 27.9871 192.47 28.2471 192.397C28.7371 192.257 29.4671 192.097 30.1471 191.827C30.3204 191.753 30.4871 191.673 30.6471 191.587C31.1237 191.376 31.5372 191.045 31.8471 190.627C32.0125 190.348 32.2218 190.098 32.4671 189.887C32.9171 189.487 33.2671 189.417 33.2671 189.417C33.2671 189.417 35.3871 192.677 36.1671 193.167C36.5571 193.417 37.2671 193.837 38.0171 194.107C38.3971 194.247 38.7704 194.327 39.1371 194.347H39.1871C39.3485 194.349 39.5097 194.333 39.6671 194.297C39.7538 194.27 39.8404 194.23 39.9271 194.177C39.9938 194.157 40.0604 194.127 40.1271 194.087C40.3891 193.899 40.6275 193.681 40.8371 193.437C40.9504 193.29 41.0538 193.14 41.1471 192.987L41.3671 192.687C41.6971 192.147 41.9971 191.587 42.4671 191.057C42.9171 190.527 43.1971 189.997 43.5171 189.657C43.654 189.493 43.8397 189.377 44.0471 189.327C44.3013 189.278 44.5644 189.313 44.7971 189.427C45.9971 189.927 48.7571 189.357 49.3971 188.787C49.7071 188.507 50.2371 188.097 50.7371 187.517C51.0038 187.223 51.2404 186.887 51.4471 186.507C51.8824 185.711 52.0933 184.812 52.0571 183.907C52.0443 183.586 52.0008 183.268 51.9271 182.957L51.7271 182.227C51.6649 182.016 51.6379 181.796 51.6471 181.577C51.6561 181.483 51.6837 181.393 51.7284 181.31C51.773 181.228 51.8338 181.155 51.9071 181.097C52.1671 180.867 52.5871 180.697 52.8971 180.317L52.9471 180.267C53.1275 180.007 53.244 179.709 53.2871 179.397C53.4471 178.217 53.4371 176.867 52.8671 176.067C52.6679 175.803 52.3919 175.607 52.0771 175.507C51.7226 175.38 51.4013 175.175 51.1371 174.907C50.3443 174.13 49.81 173.128 49.6071 172.037C49.5776 171.792 49.503 171.554 49.3871 171.337C49.0171 170.607 48.2871 169.837 47.6871 168.927C47.5093 168.657 47.3995 168.348 47.3671 168.027C47.3342 167.756 47.387 167.483 47.518 167.244C47.6489 167.005 47.8515 166.814 48.0971 166.697C48.3912 166.561 48.7138 166.5 49.0371 166.517C50.1571 166.577 51.4671 166.817 52.4971 166.497C52.8506 166.405 53.1722 166.218 53.4271 165.957C53.7299 165.646 54.1111 165.424 54.5302 165.313C54.9492 165.202 55.3905 165.207 55.8071 165.327C56.0671 165.4 56.3104 165.49 56.5371 165.597C57.1671 165.897 58.2471 166.107 59.1271 165.787C59.3722 165.707 59.5997 165.582 59.7971 165.417C59.9346 165.284 60.0525 165.132 60.1471 164.967C60.5371 164.267 60.7771 163.707 61.1471 163.267L61.2171 163.207C61.6481 162.727 62.2065 162.381 62.8271 162.207C64.5271 161.647 66.9271 161.647 67.4971 161.507C67.7771 161.427 67.9571 160.707 68.0971 159.797C68.2571 158.897 68.3771 157.797 68.5571 156.977C68.5771 156.877 68.6171 156.837 68.6371 156.747C68.7071 156.487 68.7771 156.217 68.8671 156.067C68.9671 155.917 69.0871 155.867 69.2071 155.817C69.2571 155.797 69.2871 155.727 69.3371 155.717C69.5914 155.706 69.8437 155.765 70.0671 155.887C70.3671 156.02 70.7371 156.22 71.1771 156.487C72.7271 157.417 73.2971 158.937 75.2171 158.787C76.5123 158.643 77.7418 158.141 78.7671 157.337C79.3271 156.887 79.6971 156.447 80.2971 156.057C81.4971 155.287 88.5671 155.637 89.2771 155.357C89.7271 155.177 90.6071 155.217 91.1171 154.797C91.4271 154.537 91.6171 154.117 91.4771 153.367C91.1171 151.387 89.9871 150.617 89.9871 149.407C89.9871 149.107 90.0271 148.947 90.0871 148.837C90.2371 148.517 90.5571 148.687 90.5571 147.147C90.5571 145.607 90.0771 145.707 89.7571 145.007C89.6087 144.678 89.5206 144.326 89.4971 143.967C89.3971 142.967 89.2771 142.227 89.3971 141.807L89.5271 141.567C89.5883 141.502 89.6692 141.46 89.7571 141.447C89.9571 141.407 90.2471 141.467 90.6271 141.627C91.7871 142.107 92.6071 143.107 93.7671 143.777C94.1538 144.01 94.5904 144.19 95.0771 144.317C96.0771 144.567 96.8171 144.757 97.5771 144.837C98.4467 144.926 99.325 144.872 100.177 144.677C100.895 144.494 101.641 144.447 102.377 144.537C102.857 144.637 103.177 144.847 103.577 145.097C103.764 145.23 103.97 145.363 104.197 145.497C104.647 145.757 105.177 145.977 105.827 145.947C106.198 145.92 106.561 145.825 106.897 145.667C108.447 144.957 109.437 144.967 110.497 145.377C111.297 145.697 112.647 146.257 113.457 146.037C113.59 146.006 113.713 145.943 113.815 145.852C113.916 145.761 113.993 145.645 114.037 145.517C114.247 144.957 114.867 144.477 115.157 144.087C115.221 144.005 115.271 143.914 115.307 143.817C115.36 143.65 115.244 143.5 114.957 143.367C114.751 143.286 114.536 143.229 114.317 143.197C113.805 143.114 113.322 142.901 112.917 142.577C112.218 142.028 111.753 141.235 111.617 140.357C111.548 140.002 111.575 139.636 111.697 139.297C111.808 139.008 111.963 138.738 112.157 138.497C112.337 138.259 112.538 138.038 112.757 137.837C113.187 137.457 113.617 137.147 113.827 136.907C114.137 136.527 115.577 135.247 116.387 134.117C116.636 133.813 116.823 133.463 116.937 133.087C117.217 131.887 117.857 132.657 117.857 132.657C117.857 132.657 117.857 133.437 117.997 134.137C118.012 134.216 118.05 134.289 118.107 134.347C118.527 134.727 119.817 134.267 120.187 133.647C120.294 133.473 120.404 133.363 120.517 133.317C120.568 133.299 120.623 133.295 120.675 133.305C120.728 133.316 120.777 133.341 120.817 133.377C120.997 133.527 121.147 133.897 121.177 134.427C121.247 135.487 121.037 137.047 122.177 135.987C122.953 135.279 123.514 134.368 123.797 133.357C123.904 133.003 123.997 132.603 124.077 132.157C124.149 131.811 124.159 131.456 124.107 131.107C124.007 130.567 123.777 130.327 124.007 130.207C124.258 130.122 124.523 130.088 124.787 130.107C125.196 130.095 125.605 130.125 126.007 130.197L127.037 130.377C127.497 130.437 127.847 130.437 128.037 130.207C128.1 130.115 128.147 130.014 128.177 129.907V129.807C128.377 128.777 128.247 127.547 128.037 126.797C127.947 126.457 128.057 126.037 128.227 125.637L128.287 125.457C128.497 124.987 128.787 124.527 128.957 124.167C129.037 124 129.097 123.8 129.137 123.567L129.257 123.297C129.284 123.15 129.337 123.007 129.417 122.867C129.55 122.627 129.804 122.393 130.177 122.167C130.537 121.94 131.074 121.74 131.787 121.567C132.987 121.267 133.567 121.187 134.127 121.047C134.484 120.965 134.823 120.82 135.127 120.617C135.207 120.557 135.307 120.537 135.387 120.447C135.672 120.122 135.914 119.763 136.107 119.377C136.417 118.777 136.947 117.957 137.407 117.177C137.727 116.657 137.967 116.197 138.297 115.707C138.654 115.155 139.038 114.621 139.447 114.107C139.787 113.697 140.077 113.417 140.277 113.367C140.477 113.3 140.657 113.213 140.817 113.107C140.951 113.002 141.109 112.933 141.277 112.907C141.567 112.897 141.837 113.187 142.117 114.357C142.397 115.527 142.677 116.727 143.037 117.637C143.224 118.103 143.43 118.47 143.657 118.737C143.89 119.017 144.157 119.16 144.457 119.167C145.057 119.167 145.357 119.347 145.647 119.287C145.78 119.267 145.934 119.167 146.107 118.987C146.364 118.693 146.592 118.375 146.787 118.037C147.35 117.072 147.844 116.07 148.267 115.037C148.697 114.037 149.047 113.157 149.327 112.667C149.607 112.177 150.147 112.077 150.687 111.907C150.971 111.823 151.24 111.699 151.487 111.537C151.624 111.439 151.749 111.325 151.857 111.197C151.982 111.042 152.083 110.87 152.157 110.687C152.237 110.497 152.247 110.417 152.287 110.267C152.327 110.117 152.427 109.907 152.437 109.787C152.464 109.593 152.474 109.427 152.467 109.287V109.257L152.497 109.137C152.49 109.023 152.52 108.877 152.587 108.697C152.687 108.467 152.847 108.157 153.147 107.717C153.747 106.837 154.227 106.657 154.667 106.547L155.107 106.407C155.463 106.286 155.769 106.05 155.977 105.737C156.075 105.601 156.156 105.453 156.217 105.297C156.266 105.173 156.29 105.04 156.287 104.907C156.287 104.477 156.117 104.157 156.277 103.907V103.827C156.407 103.697 156.647 103.587 157.107 103.477C158.447 103.177 158.807 103.597 158.927 103.457H158.947C158.995 103.326 159.016 103.186 159.007 103.047L159.017 102.987C159.024 102.893 159.04 102.807 159.067 102.727C159.197 101.827 159.587 101.147 158.947 100.377C158.597 99.9465 157.627 99.0965 156.787 98.1565C155.957 97.2065 155.277 96.1565 155.487 95.3565C155.687 94.5365 155.957 94.1265 156.207 93.8865C156.407 93.6765 156.587 93.5865 156.717 93.4565L156.817 93.3666C157.073 92.9961 157.297 92.6047 157.487 92.1965C157.789 91.5848 158.066 90.9609 158.317 90.3265C158.436 90.0263 158.583 89.7383 158.757 89.4665C158.908 89.2284 159.075 89.0012 159.257 88.7865C159.607 88.3865 159.897 88.1066 160.007 87.9266C160.06 87.8399 160.094 87.8165 160.107 87.8565C160.14 87.8899 160.197 87.9766 160.277 88.1166C160.405 88.3136 160.556 88.4948 160.727 88.6565C160.94 88.8699 161.267 89.1232 161.707 89.4165C163.027 90.2565 164.037 90.8765 164.907 91.0665C165.178 91.1378 165.461 91.1515 165.737 91.1065C166.264 91.0552 166.767 90.8654 167.197 90.5565C167.642 90.2232 167.951 89.7401 168.067 89.1965C168.287 88.2965 168.017 87.6365 168.147 86.9965C168.19 86.7676 168.286 86.552 168.427 86.3666C168.569 86.1794 168.759 86.0342 168.977 85.9465C169.177 85.8665 169.39 85.7998 169.617 85.7465L170.017 85.5765C170.11 85.5498 170.207 85.5065 170.307 85.4465C170.534 85.3132 170.754 85.0798 170.967 84.7465C171.817 83.4065 171.817 82.6265 171.327 81.8465C171.077 81.4565 171.187 81.1566 171.407 80.8666C171.627 80.5766 171.957 80.2965 172.177 79.9365C172.377 79.5865 172.947 78.6665 173.367 77.7465C173.567 77.2865 173.747 76.8265 173.817 76.4365C173.847 76.2615 173.854 76.0833 173.837 75.9065C173.818 75.7729 173.755 75.6496 173.657 75.5565C173.265 75.2057 172.945 74.781 172.717 74.3065C172.626 74.1172 172.565 73.9147 172.537 73.7065C172.523 73.6219 172.528 73.5352 172.55 73.4524C172.572 73.3696 172.612 73.2926 172.667 73.2265C172.887 72.9765 173.367 72.9765 173.867 73.1265C174.12 73.2065 174.367 73.3165 174.607 73.4565C174.827 73.5901 175.028 73.7514 175.207 73.9365C175.667 74.4365 176.027 74.9565 176.547 74.6965L176.617 74.6865C176.717 74.6265 176.837 74.4465 176.947 74.3365C177.047 74.2165 177.147 74.1665 177.267 73.9965C177.471 73.6984 177.695 73.4144 177.937 73.1465C178.537 72.5065 179.037 72.4765 179.887 73.0165C181.017 73.7165 182.217 73.5065 183.557 73.7965C184.237 73.9365 184.697 73.8765 185.087 74.0465C185.308 74.1496 185.495 74.3124 185.627 74.5165C185.856 74.8623 186.04 75.2351 186.177 75.6265C186.757 77.1665 186.277 78.2265 187.217 78.9065C187.364 79.0132 187.564 79.1132 187.817 79.2065C188.07 79.2999 188.37 79.3798 188.717 79.4465C190.177 79.7365 191.007 79.9065 191.587 80.0965C192.167 80.2865 192.507 80.4765 192.967 80.7965C193.887 81.4265 194.447 81.9265 195.727 82.4165C196.677 82.7965 197.477 83.3965 197.997 83.3865C198.084 83.3833 198.168 83.3576 198.241 83.312C198.315 83.2664 198.376 83.2025 198.417 83.1265C198.634 82.7595 198.771 82.3504 198.817 81.9266C198.884 81.4799 198.917 81.0099 198.917 80.5165C198.917 80.3832 198.944 80.2799 198.997 80.2065C199.066 80.1277 199.147 80.0602 199.237 80.0065C199.637 79.8165 200.357 79.8965 201.037 80.1065C201.37 80.2199 201.674 80.3532 201.947 80.5065C202.997 81.1465 204.607 82.1765 206.767 81.7965H206.827L207.207 81.6965C207.899 81.5427 208.57 81.3078 209.207 80.9965C209.817 80.7165 210.407 80.4565 211.357 80.3065C213.267 80.0265 214.327 79.5365 215.597 80.9465C216.237 81.6565 217.067 82.3665 217.737 83.0065C218.084 83.3332 218.367 83.6332 218.587 83.9065C218.807 84.2065 218.92 84.4698 218.927 84.6965L218.917 84.8365C218.846 86.6831 218.659 88.5235 218.357 90.3465C218.295 90.7485 218.184 91.1414 218.027 91.5165C217.926 91.7546 217.802 91.9823 217.657 92.1965C217.527 92.3865 217.407 92.5565 217.327 92.7865C217.226 93.0729 217.168 93.373 217.157 93.6766C217.097 94.8366 217.407 94.8065 217.837 95.3765C218.25 95.9468 218.505 96.616 218.577 97.3165C218.617 97.6765 218.634 98.0199 218.627 98.3465C218.627 98.6799 218.644 99.0132 218.677 99.3465C218.71 99.6932 218.79 100.04 218.917 100.387C219.207 101.087 219.317 101.677 219.387 102.237C219.477 102.807 219.527 103.347 219.707 103.987C219.78 104.307 219.84 104.597 219.887 104.857C220.047 105.647 220.327 106.157 222.387 106.317C225.147 106.527 227.197 106.607 228.047 105.817C228.897 105.047 229.537 105.117 230.447 104.347C230.99 103.858 231.384 103.227 231.586 102.525C231.787 101.823 231.788 101.079 231.587 100.377C231.157 98.6765 230.587 98.7565 231.297 97.4765C232.007 96.1965 232.297 94.8665 232.217 94.0765C232.147 93.3065 233.497 93.5165 233.987 93.2365C234.487 92.9565 233.987 91.8965 234.627 90.6965C235.267 89.4965 236.747 89.0665 237.247 88.1465C237.737 87.2265 239.717 87.7866 240.567 88.4266C241.417 89.0666 242.687 91.4665 244.387 90.3365C246.087 89.2065 246.717 88.6366 247.007 87.3666C247.287 86.0966 247.507 84.1865 248.627 83.4765C249.757 82.7765 249.547 81.9965 248.767 81.3565C247.997 80.7165 246.787 79.8666 245.587 79.8666C244.387 79.8666 241.277 77.6065 240.917 76.3365C240.567 75.0565 240.567 74.5665 239.927 74.3565C238.975 74.142 237.978 74.2657 237.107 74.7065C236.107 75.2065 234.977 74.7065 235.187 74.0065C235.407 73.2965 236.247 74.0065 236.887 72.9365C237.527 71.8765 237.807 71.6665 237.877 70.4665C237.957 69.2665 238.797 68.5565 239.437 67.5665C240.067 66.5665 241.557 66.7165 240.287 65.7265C239.007 64.7265 238.587 64.3765 237.947 63.2465C237.307 62.1165 237.667 62.1166 236.537 62.0466C235.407 61.9766 233.707 62.1166 234.627 60.9866C235.547 59.8566 236.467 59.9966 237.667 59.3666C238.867 58.7166 239.927 58.8665 240.287 58.5065C240.637 58.1565 240.847 56.4565 240.787 54.8365C240.707 53.2065 241.837 51.3665 240.917 50.6565C239.997 49.9465 237.737 49.6665 237.387 49.3865C237.027 49.1065 236.317 48.8165 237.247 48.2565C238.157 47.6865 239.367 47.1966 239.367 45.9266C239.367 44.6466 239.997 44.8565 238.307 42.3865C236.607 39.9065 235.897 38.7066 235.687 36.8666C235.477 35.0266 235.047 34.1765 235.897 33.2665C236.747 32.3365 237.167 31.6365 238.657 30.8565C240.147 30.0765 240.987 29.8565 241.417 28.9565C241.837 28.0265 242.897 22.5865 241.137 21.6565C239.357 20.7465 238.587 22.5065 235.617 18.4065L231.917 16.4365L231.597 16.5165C231.163 16.3557 230.697 16.2975 230.237 16.3465C227.387 16.5265 222.837 17.4766 221.337 18.4266C219.817 19.3666 218.677 19.3665 216.407 18.9965C214.127 18.6165 214.317 16.5266 211.287 18.0466C208.257 19.5566 208.637 18.9865 207.307 17.8565C205.987 16.7265 204.467 16.9165 202.767 15.9565C201.057 15.0165 199.167 13.4965 198.407 14.0765C197.647 14.6365 199.537 16.7265 196.507 16.7265C193.477 16.7265 191.207 15.3965 190.067 17.6665C188.937 19.9365 189.697 21.6465 188.737 21.8365C187.797 22.0265 184.577 23.3565 181.737 22.2165C178.887 21.0765 180.407 20.3165 176.617 18.9965C172.827 17.6765 171.117 17.6765 169.417 19.9465C167.717 22.2165 167.147 22.0265 164.687 22.9765C162.227 23.9265 162.597 24.2965 159.567 24.1065C156.537 23.9165 154.647 22.7865 153.127 24.1065C151.607 25.4365 149.907 24.8665 148.957 23.3565C148.017 21.8365 146.497 21.2665 147.637 20.5165C148.767 19.7565 150.287 20.3165 150.847 19.5565C151.417 18.8065 152.747 19.5565 151.607 16.9065C150.477 14.2565 151.987 13.1166 150.287 12.3666C148.587 11.6066 144.597 9.52654 143.087 11.2265C141.577 12.9265 144.227 14.4465 140.247 14.0765C136.267 13.6865 132.477 11.7965 130.957 14.0765C129.437 16.3565 129.057 16.3366 127.927 18.0466C126.797 19.7466 126.227 19.1865 126.227 20.3165C126.227 21.4465 126.787 21.6465 125.087 22.9765C123.387 24.2965 123.007 22.5965 122.817 25.8165C122.617 29.0365 125.657 29.7965 121.677 30.3565C117.697 30.9165 118.077 30.5565 117.317 32.2565C116.567 33.9565 117.697 34.9065 115.997 34.1565C114.297 33.3965 113.147 32.4465 111.067 33.2065C108.987 33.9565 109.747 34.7065 109.747 30.3565C109.747 25.9965 108.227 23.1565 103.677 23.5365C99.1271 23.9165 99.5071 24.6766 97.6171 23.7366C95.7171 22.7866 94.9671 22.2165 93.6371 23.3565C92.3071 24.4865 90.2371 23.9165 86.4371 23.3565C82.6571 22.7865 84.1671 24.4866 82.2671 24.6766C80.3771 24.8766 80.9471 24.2965 80.3771 22.2165C79.8071 20.1365 80.7571 20.6965 78.8571 18.8065C76.9671 16.9065 77.3471 16.7265 75.2571 16.1565C73.1671 15.5865 71.8571 16.9065 70.5271 16.9065C69.1971 16.9065 69.5771 17.1065 68.2471 15.2065C66.9171 13.3065 65.0271 14.2566 64.0871 12.3666C63.1371 10.4666 65.7871 7.81656 64.0871 6.11656C62.3871 4.41656 61.8171 6.48655 61.6271 4.41655C61.4671 2.71655 61.6871 0.646541 60.8671 0.536541V0.506512Z" fill="#D1DBDD" stroke="black" stroke-width="0.99943"/>
</svg>
