<svg width="75" height="40" viewBox="0 0 75 40" fill="none" xmlns="http://www.w3.org/2000/svg">
<path d="M3.52347 22.8727C3.52347 22.8727 5.10346 24.9327 5.57346 23.9827C6.05346 23.0327 7.31348 22.4027 6.84348 21.1427C6.36348 19.8727 5.41345 19.2427 5.25345 18.2927C5.10345 17.3427 4.47349 15.9227 5.10349 15.2927C5.73349 14.6527 7.00345 12.2927 7.00345 12.2927C7.00345 12.2927 6.20345 11.1827 7.31345 11.1827C8.42345 11.1827 9.05349 11.4927 10.4735 11.1827C11.9035 10.8627 11.7435 10.8627 12.5335 10.0827C13.3235 9.28266 13.4735 8.65267 15.2235 8.65267C16.9535 8.65267 16.4835 8.65266 17.9135 8.02266C19.3335 7.38266 20.5935 7.22267 20.7535 8.65267C20.9135 10.0727 19.9535 10.3827 21.2235 10.7027C22.4935 11.0227 22.4935 9.91266 23.5935 8.80266C24.7035 7.70266 25.4935 6.91265 25.6535 7.54265C25.8135 8.17265 26.2835 10.8627 26.2835 10.8627C26.2835 10.8627 26.1235 12.1326 27.5435 11.6626C28.9735 11.1826 29.6035 9.91265 31.0235 10.7027C32.4535 11.5027 34.0235 11.8027 34.6635 11.6527C35.2935 11.4927 36.2435 11.4927 36.2435 10.7127C36.2435 9.91266 35.6135 9.75264 37.1935 9.44264C38.7735 9.13264 39.2435 10.0727 39.2435 8.96266C39.2435 7.85266 39.7235 5.80266 39.7235 5.80266C39.7235 5.80266 42.4135 5.33267 42.4135 6.12267C42.4135 6.91267 42.7235 7.70265 42.7235 7.70265C42.7235 7.70265 43.6735 8.80264 44.3135 7.22264C44.9435 5.64264 44.3135 5.17266 46.6735 5.17266C49.0535 5.17266 49.2035 6.27265 50.3135 4.54265C51.4135 2.80265 53.1635 -0.0473315 54.2635 0.592669C55.3635 1.23267 57.1135 2.80264 57.1135 3.75264C57.1135 4.70264 56.0035 5.33266 56.9535 5.96266C57.9035 6.59266 58.6935 7.22266 57.5835 8.02266C56.4835 8.81266 55.2135 8.02264 56.0035 9.75264C56.8035 11.4926 57.2735 11.4926 57.2735 12.6026C57.2735 13.7026 57.9035 13.5527 59.3235 12.9227C60.7435 12.2827 62.0135 10.8626 64.0635 11.8126C66.1135 12.7626 65.3335 13.2327 66.7535 13.7127C68.1735 14.1827 69.4435 13.5526 69.7535 15.1326C70.0635 16.7126 70.2335 18.4526 69.2835 19.5626C68.3335 20.6726 67.2335 21.4627 69.7535 21.2927C72.2835 21.1427 72.4535 19.5627 72.9235 21.1427C73.3935 22.7227 73.3935 22.7227 73.7135 23.6727C74.0235 24.6127 74.6535 24.9326 74.3435 25.8826C74.0235 26.8226 73.8635 28.2527 72.4435 29.0427C71.0235 29.8427 70.8635 29.6726 70.0735 30.9426C69.2735 32.2026 69.1235 33.4726 68.4935 33.4726C67.8635 33.4726 68.3335 32.2027 66.4335 32.5227C64.5335 32.8327 64.8535 34.7327 65.3335 35.3627C65.8035 36.0027 65.6435 34.2627 62.0135 34.8927C58.3735 35.5227 58.5335 33.7927 57.4235 35.3627C56.3235 36.9427 59.0135 37.1027 56.1635 37.7427C53.3135 38.3827 47.6235 37.2626 46.3635 37.2626C45.1035 37.2626 41.4635 34.8927 40.5135 35.2127C39.5635 35.5227 40.1935 36.9426 37.6635 37.4126C35.1335 37.8826 31.0235 37.5827 30.3935 37.1127C29.7635 36.6327 28.6535 33.6326 27.3935 36.0026C26.1235 38.3726 27.0735 38.3727 24.5435 38.6827C22.0135 38.9927 21.5435 39.1627 19.4835 38.8427C17.4235 38.5227 17.1135 38.2127 15.2235 37.9027C13.3235 37.5827 13.0035 38.0527 12.0535 38.0527C11.1035 38.0527 8.89349 36.4727 7.47349 36.1527C6.05349 35.8327 4.47347 36.7826 3.20347 36.0026C1.94347 35.2026 1.78348 34.2627 1.46348 32.5227C1.14348 30.7827 -0.436496 30.3126 1.3035 28.7226C3.0435 27.1526 4.00347 27.1526 3.83347 25.8826C3.71656 24.8841 3.61322 23.884 3.52347 22.8826V22.8727Z" fill="#D1DBDD" stroke="black"/>
</svg>
