<svg width="46" height="62" viewBox="0 0 46 62" fill="none" xmlns="http://www.w3.org/2000/svg">
<path d="M40.81 0.664062C40.81 0.664062 39.86 1.46406 39.23 2.56406C38.6 3.66406 37.18 4.93404 35.91 6.36404C34.65 7.78404 35.12 8.41406 33.86 8.72406C32.59 9.04406 30.53 9.35406 30.69 8.09406C30.85 6.83406 29.9 6.51404 29.74 7.14404C29.58 7.77404 28.48 8.88406 28.32 8.25406C28.16 7.62406 27.85 7.45405 26.74 7.15405C25.64 6.83405 22.94 6.35405 21.21 7.15405C19.47 7.93405 18.84 8.88404 19.15 9.67404C19.47 10.474 20.58 10.944 19.63 11.894C18.68 12.834 17.73 12.9941 17.57 14.0941C17.42 15.2141 16.63 16.634 16.63 17.424C16.63 18.214 17.73 19.1641 16.15 18.6941C14.57 18.2141 13.94 16.954 12.52 16.954C11.09 16.954 10.14 16.794 9.66998 17.424C9.24189 17.9766 8.96607 18.6317 8.87 19.324C8.87 19.794 8.40002 21.524 8.40002 21.524C8.40002 21.524 7.46002 22.014 7.46002 22.484C7.46002 22.954 7.77001 23.274 6.82001 23.744C6.42995 23.9816 6.0993 24.3051 5.85321 24.6898C5.60713 25.0745 5.45213 25.5103 5.40002 25.9641V29.7541C5.40002 31.0141 4.30004 31.9641 3.35004 32.9141C2.40004 33.8641 1.92002 34.974 2.08002 36.074C2.24002 37.174 3.66002 38.1341 2.40002 39.7141C1.60645 40.721 0.96616 41.8398 0.5 43.0341V44.3141L0.660034 44.1341C0.660034 44.1341 1.60999 45.094 1.60999 46.834C1.60999 48.564 0.810005 50.774 1.13 52.994C1.45 55.204 2.23998 55.834 3.97998 55.834C5.71998 55.834 7.45001 54.8841 7.45001 54.8841C7.45001 54.8841 8.56004 54.884 9.35004 55.364C10.15 55.834 10.15 54.2641 11.57 56.6341C12.99 58.9941 13.78 57.4141 14.1 59.6341C14.16 60.0341 14.26 60.534 14.35 61.014C16.05 60.414 17.41 59.8041 17.73 59.1641C18.53 57.5641 19.15 56.944 20.1 57.894C20.9209 58.7437 21.8858 59.4411 22.95 59.954C23.74 60.264 22.79 58.5241 26.27 59.3141C29.74 60.1141 30.69 61.054 30.69 61.054C30.69 61.054 34.49 59.474 34.65 58.524C34.81 57.574 34.49 57.1041 34.17 56.1541C33.85 55.2041 32.75 54.0941 34.01 53.1541C35.28 52.1941 36.23 48.404 36.54 47.774C36.86 47.144 37.49 43.1941 37.49 43.1941C37.49 43.1941 39.55 42.0841 39.71 40.8141C40.0622 39.0088 40.4825 37.2175 40.97 35.4441L43.5 31.9641L45.24 26.7541L44.44 21.6841L42.87 19.484H41.6L40.34 15.2141L42.87 12.6841L43.5 11.2541L43.66 10.1541L41.13 8.41406C41.13 8.41406 40.5 5.09404 41.13 4.14404C41.5742 3.48944 42.048 2.85545 42.55 2.24405L40.81 0.664062Z" fill="#D1DBDD" stroke="black"/>
</svg>
