<svg width="257" height="184" viewBox="0 0 257 184" fill="none" xmlns="http://www.w3.org/2000/svg">
<path d="M128.002 0.499756C127.552 0.499756 127.062 0.659762 126.442 1.09976C124.802 2.29976 125.022 3.26977 122.712 3.41977C120.402 3.56977 118.682 4.53976 117.112 4.53976L116.792 4.52979C117.332 5.58979 117.772 6.64977 115.452 6.75977C112.872 6.86977 112.642 7.21978 111.932 7.92978C111.232 8.62978 110.992 9.09977 109.592 9.32977C108.192 9.56977 107.482 10.0298 107.482 10.0298C107.482 10.0298 108.072 10.9698 107.482 11.5598C106.892 12.1498 107.482 10.9698 105.952 11.7898C104.432 12.6098 102.912 13.3198 102.452 13.3198C101.972 13.3198 100.562 11.6798 98.5722 14.0198C96.5722 16.3698 98.6922 16.8298 96.4722 17.6598C94.2322 18.4698 90.6022 19.2998 90.1322 20.1198C89.6622 20.9398 89.4322 21.8698 88.6122 22.2198C87.7922 22.5698 85.4522 22.8198 84.8622 23.2798C84.2722 23.7398 84.8622 24.9198 84.3922 25.9798C83.9222 27.0298 84.1622 26.9198 83.4622 27.4998C82.7622 28.0798 83.2222 28.3198 82.4022 28.8998C81.5822 29.4998 81.2322 29.2598 79.1222 29.4998C77.0122 29.7398 75.9522 30.1998 75.8422 31.2498C75.7222 32.3098 75.6022 34.0598 74.3122 35.1198C73.0322 36.1698 73.6122 37.4598 74.3122 38.8698C75.0122 40.2698 73.7322 42.4998 75.7222 43.7898C77.7222 45.0798 79.8222 46.0198 81.4622 47.4198C83.1022 48.8198 83.1021 49.7598 85.4521 49.7598C87.7921 49.7598 88.6122 50.6998 89.9022 49.7598C91.1922 48.8198 91.5422 48.8298 93.0722 49.0598C94.5922 49.2998 94.8222 50.1198 95.2922 49.1798C95.7622 48.2398 96.5822 45.8998 97.3922 45.6698C98.2222 45.4298 98.3422 44.4998 99.0422 45.4298C99.7422 46.3698 99.1522 47.0698 99.3922 48.5898C99.6322 50.1098 99.7421 50.2298 100.452 50.5898C101.152 50.9398 101.852 51.3998 101.272 52.1098C100.682 52.8098 99.9721 51.8798 100.452 53.1598C100.912 54.4598 101.502 54.8098 101.032 55.2798C100.562 55.7398 99.1622 56.5598 98.3322 56.0998C97.5222 55.6298 96.4622 55.1498 96.0022 55.2798C95.5222 55.3798 92.7122 56.7998 91.3022 56.9198C89.9022 57.0298 88.2622 56.3298 86.9722 57.0198C85.6822 57.7298 84.9721 60.5498 85.4521 61.1298C85.9221 61.7198 86.2722 62.3098 85.6822 63.0098C85.1022 63.7098 84.0422 63.1198 84.6222 64.1798C85.2222 65.2398 86.5022 64.7598 87.7922 65.5798C88.5594 66.0831 89.1732 66.7879 89.5666 67.6169C89.9599 68.4459 90.1175 69.3672 90.0222 70.2798C89.9022 72.6098 90.3722 74.2598 89.0822 74.3798C87.7922 74.4998 85.6822 74.3798 84.6222 73.6798C83.5722 72.9698 82.7522 72.0298 82.6422 72.7298C82.5222 73.4298 82.0522 73.3198 82.8722 74.4898C83.6922 75.6598 83.8122 75.4298 83.6922 76.5998C83.5722 77.7698 83.2222 77.8998 83.3422 78.9398C83.4522 79.9998 82.1722 79.4198 83.8122 80.2398C85.4522 81.0498 85.8021 81.5198 85.4521 82.9298C85.1021 84.3298 84.8622 84.9298 84.8622 85.8598C84.8622 86.7898 83.6922 88.0898 83.3422 87.4998C82.9922 86.9198 83.3422 86.0998 82.4022 85.9798C81.4622 85.8598 81.0022 86.2098 80.0622 84.9198C79.1222 83.6398 79.5921 82.6998 79.7021 82.1098C79.8221 81.5198 80.1722 79.6498 78.4122 81.0598C76.6622 82.4598 75.8422 83.6298 75.9622 84.3398C76.0722 85.0398 74.7821 85.5098 74.2021 84.6898C73.6021 83.8698 73.1422 82.4598 70.9122 82.6898C68.6922 82.9298 65.9922 83.3898 65.6422 82.8098C65.2922 82.2298 66.1122 80.9398 64.8222 80.5798C63.5322 80.2198 62.4822 80.7098 62.4822 82.1098C62.4822 83.5098 63.1822 84.8098 62.4822 85.9798C61.7822 87.1498 59.4322 89.1398 58.3822 89.4898C57.3222 89.8498 58.7322 90.4298 57.2022 91.7198C55.6722 93.0098 55.2122 94.1798 54.3922 94.1798C53.5722 94.1798 51.6922 92.6598 50.9922 92.8898C50.2922 93.1298 50.4122 94.1898 50.4122 95.1198C50.4122 96.0598 49.9422 96.8798 49.1222 96.1698C48.3022 95.4698 48.1822 94.9998 47.2422 95.3498C46.3022 95.6998 46.5422 95.4698 45.8422 94.5298C45.1422 93.5898 45.1422 92.3098 44.0822 91.9498C43.0222 91.5898 41.8522 91.3698 42.9122 90.6598C43.9622 89.9598 45.1322 90.4298 46.1922 89.8498C47.2522 89.2698 47.3622 88.1998 48.2922 88.1998C49.2222 88.1998 50.6422 88.8998 50.6422 89.4998C50.6422 90.0998 52.1622 90.8998 52.7522 89.1398C53.3422 87.3798 53.5722 88.5498 52.9822 86.5598C52.4022 84.5598 51.8122 84.0998 52.4022 83.0598C52.9922 81.9898 55.3322 81.6398 54.9822 80.8198C54.6322 79.9998 51.7022 79.6498 51.7022 77.7698C51.7022 75.8898 52.0522 75.1998 52.6322 75.5498C53.2122 75.8998 55.5622 76.1298 56.1522 74.8498C56.7322 73.5498 57.4422 73.4398 56.1522 71.9198C54.8622 70.3998 54.8622 70.0398 54.8622 68.1598C54.8622 66.2798 55.2122 64.9998 54.2722 65.1198L53.3422 65.2398C53.3422 65.2398 52.0422 66.5198 50.8822 66.1698C49.7122 65.8198 49.7122 65.9398 49.1222 66.7598C48.5322 67.5798 48.5322 67.5798 47.2422 67.3398C45.9522 67.0998 46.5422 66.7598 45.3722 67.6998C44.2022 68.6398 43.8522 68.8698 42.9122 67.9298C41.9722 66.9898 41.2722 66.5298 39.8622 66.5298C38.4622 66.5298 37.7522 66.9898 37.1622 66.4098C36.5822 65.8098 36.1122 63.4798 36.4622 63.0098C36.8122 62.5398 38.3422 61.8398 38.8022 62.1898C39.2722 62.5398 39.5022 63.3598 40.5622 62.8898C41.6222 62.4198 42.3222 62.3098 41.9622 61.8298C41.6222 61.3698 40.3322 61.5998 39.5122 60.8998C38.6922 60.1998 38.1122 59.8398 38.6922 59.4998L39.2722 59.1398C39.2722 59.1398 40.3322 59.4998 40.8022 58.9098C41.2722 58.3198 41.5022 55.8598 41.1522 55.7398C40.8022 55.6298 35.9922 56.3298 35.9922 56.3298C35.9922 56.3298 34.1222 58.7898 33.8922 59.6098C33.6522 60.4298 33.0622 61.4898 31.8922 61.4898C30.7222 61.4898 29.4322 62.4198 28.6122 61.1298C27.7922 59.8498 26.2722 59.3698 26.2722 59.3698C26.2722 59.3698 25.5722 60.7798 26.3822 61.4798C27.2022 62.1798 27.5522 63.1298 28.4922 63.4798C29.4322 63.8298 29.7922 64.7598 28.9622 65.7098C28.1422 66.6398 28.7322 66.9898 27.3222 66.9898C25.9222 66.9898 24.1522 67.5798 24.0422 68.5198C24.0314 68.9144 23.9428 69.3031 23.7815 69.6635C23.6202 70.0238 23.3893 70.3488 23.1022 70.6198C22.4022 71.4398 22.8722 71.9198 23.8022 73.0898C24.7422 74.2598 25.9222 74.2598 24.9722 76.3698C24.0422 78.4698 22.9822 78.0098 23.8022 79.4098C24.6222 80.8098 25.4522 80.9398 26.2722 81.1698C27.0922 81.4098 25.4522 83.0498 26.7322 84.9198C28.0322 86.7998 28.7322 86.6798 28.6122 87.4998C28.5022 88.3198 28.3722 89.3798 27.6722 90.5498C26.9722 91.7198 26.0322 92.8898 27.0922 94.1798C28.1422 95.4798 29.1922 96.1798 28.3822 97.2298C27.5622 98.2898 27.2022 99.0998 27.5522 99.9298C27.9122 100.74 26.7322 101.8 25.6822 102.15C24.6322 102.5 23.9222 103.21 23.8022 103.79C23.6922 104.38 22.2822 104.49 20.4022 104.73C18.5222 104.97 16.4222 106.72 16.4222 107.77C16.4222 108.83 15.7222 109.42 15.7222 109.77C15.7222 110.12 16.3122 110 17.4822 110.35C18.6522 110.71 19.5822 109.89 20.4122 111.17C21.2322 112.47 22.0522 113.64 21.3422 114.22C20.6422 114.81 18.7622 115.04 17.7122 115.51C16.6522 115.98 16.4222 115.28 14.6622 116.21C12.9122 117.15 12.3222 117.74 11.0322 117.86L10.5022 117.9C10.4875 118.235 10.4541 118.569 10.4022 118.9C10.2022 120.16 10.5322 120.9 11.6722 121.77C12.8022 122.64 13.2722 122.51 13.2722 123.91C13.2722 125.31 11.9422 126.99 11.8022 127.79C11.6622 128.59 11.3322 130.26 10.6022 130.87C9.86216 131.47 10.4722 132.74 8.86217 132.41C7.25217 132.08 6.99216 131.67 6.18216 132.07C5.38216 132.47 4.71217 134.01 4.78217 134.54C4.84217 135.08 4.64217 135.14 4.31217 135.68C3.98217 136.22 4.38216 136.75 5.38216 137.55C6.38216 138.35 6.72217 139.09 6.78217 139.7C6.85217 140.3 6.12217 141.5 4.91217 141.3C3.71217 141.1 3.24216 140.16 2.57216 139.9C1.90216 139.63 0.43217 139.9 0.50217 140.7C0.57217 141.5 1.23216 145.05 2.10216 146.31C2.97216 147.59 3.58217 148.72 3.50217 149.66C3.44217 150.6 3.04216 153.2 3.04216 153.74C3.04392 153.923 2.9955 154.102 2.90216 154.26C6.57216 156.66 6.05217 153.14 8.75217 153.68C11.6022 154.25 11.6022 150.46 13.3022 149.33C13.6222 149.116 13.8722 149.026 14.0522 149.06V149.09C14.2455 149.123 14.3888 149.246 14.4822 149.46C14.9222 150.03 14.8022 151.69 14.9322 153.11C14.9622 153.55 15.0322 153.74 15.1222 153.88C15.4622 154.11 16.0822 153.46 17.2822 154.66L17.3622 154.79L17.3922 154.81C19.0922 156.51 16.4422 159.17 17.3922 161.07C17.4784 161.228 17.5788 161.379 17.6922 161.52C18.7222 162.61 20.2922 162.12 21.4522 163.76L21.5522 163.9V163.91C22.1622 164.77 22.3722 165.11 22.5922 165.33C22.8322 165.51 23.0622 165.46 23.7222 165.46C25.0522 165.46 26.3722 164.14 28.4622 164.71C30.5422 165.28 30.1622 165.47 32.0622 167.36C32.5822 167.88 32.8622 168.2 33.0422 168.46C33.6722 169.26 33.2422 169.31 33.6922 170.92C33.9622 171.92 33.9622 172.55 34.1222 172.94C34.3022 173.22 34.6222 173.32 35.4722 173.24C37.3722 173.04 35.8522 171.34 39.6322 171.91C43.4322 172.47 45.5122 173.04 46.8322 171.91C48.1622 170.77 48.9222 171.34 50.8122 172.29C52.7122 173.23 52.3222 172.48 56.8722 172.09C59.2022 171.9 60.7322 172.56 61.6722 173.83C62.6522 175.03 63.0522 176.85 63.0522 179.06C63.0522 181.2 62.8722 182.06 62.9322 182.34C63.1022 182.32 63.4822 182.04 64.2622 181.76C66.3422 181 67.4922 181.95 69.1922 182.7C70.8922 183.46 69.7622 182.52 70.5122 180.81C71.2722 179.11 70.8922 179.48 74.8722 178.91C78.8522 178.34 75.8222 177.59 76.0122 174.37C76.2022 171.15 76.5822 172.86 78.2822 171.53C79.9822 170.2 79.4221 170.01 79.4221 168.88C79.4221 167.75 79.9822 168.31 81.1222 166.6C82.2622 164.9 82.6422 164.9 84.1522 162.63C85.6722 160.35 89.4622 162.25 93.4422 162.63C97.4222 163 94.7622 161.49 96.2822 159.78C97.7922 158.08 101.782 160.16 103.482 160.92C103.776 161.053 103.975 161.203 104.082 161.37C104.122 161.41 104.155 161.453 104.182 161.5L104.252 161.58C104.782 162.34 104.002 163.48 104.922 165.61C106.052 168.26 104.722 167.51 104.162 168.26C103.592 169.02 102.072 168.46 100.942 169.21C100.402 169.57 100.482 169.89 100.792 170.29C101.152 170.7 101.712 171.19 102.152 171.91C103.102 173.42 104.812 173.99 106.322 172.66C107.842 171.34 109.732 172.47 112.762 172.66C115.792 172.86 115.412 172.47 117.882 171.53C120.342 170.58 120.912 170.77 122.612 168.5C124.312 166.23 126.022 166.22 129.812 167.55C133.602 168.88 132.092 169.63 134.932 170.77C137.772 171.91 140.992 170.58 141.932 170.39C142.882 170.19 142.132 168.49 143.262 166.22C144.392 163.95 146.672 165.28 149.712 165.28C152.742 165.28 150.842 163.19 151.602 162.63C152.362 162.07 154.252 163.57 155.962 164.51C157.662 165.47 159.182 165.28 160.512 166.41C161.832 167.55 161.452 168.11 164.482 166.6C167.512 165.08 167.322 167.17 169.602 167.55C171.872 167.92 173.002 167.93 174.522 166.98C176.042 166.04 180.582 165.08 183.422 164.9C184.032 164.86 184.452 164.94 184.792 165.08L185.112 164.99L188.812 166.96C191.782 171.06 192.562 169.3 194.332 170.22C196.102 171.14 195.032 176.58 194.612 177.5C194.482 177.768 194.295 178.004 194.062 178.19L194.142 178.69C194.142 178.69 194.902 178.31 196.232 176.6C197.552 174.9 196.992 174.9 196.992 172.43C196.992 169.96 196.992 171.29 198.502 168.45C200.012 165.61 197.172 164.1 198.502 163.15C199.832 162.21 200.012 162.2 200.972 161.07C201.912 159.93 200.212 160.87 199.262 160.12C198.312 159.36 198.882 158.42 200.012 158.04C201.162 157.66 200.772 155.76 201.162 154.24C201.532 152.73 202.862 152.92 203.812 153.3C204.752 153.68 206.082 152.54 205.892 150.84C205.702 149.13 206.462 149.7 206.462 149.7H207.782L209.112 147.43C209.112 147.43 211.012 147.61 211.382 146.67C211.762 145.72 210.822 144.77 210.252 143.26C209.682 141.75 210.632 142.31 212.522 142.31C214.412 142.31 212.712 143.07 214.982 143.83C217.262 144.58 217.452 143.83 217.832 142.69C218.212 141.55 217.252 141.74 219.152 141.17C221.052 140.61 220.482 141.74 221.622 141.74C222.752 141.74 222.562 140.61 223.692 140.04C224.842 139.47 225.792 139.47 225.412 139.28C225.032 139.09 225.592 135.68 227.492 135.87C229.392 136.06 231.652 135.11 231.462 134.35C231.282 133.6 228.812 132.65 227.682 130.56C226.542 128.48 229.952 129.43 231.282 128.29C232.602 127.16 231.282 127.16 231.282 126.21C231.282 125.26 232.412 126.21 233.552 125.64C234.682 125.07 235.822 125.26 237.532 125.64C239.232 126.02 239.612 125.26 239.802 123.74C239.992 122.23 240.182 121.66 241.502 120.34C242.832 119.01 242.832 119.2 241.502 117.87C240.182 116.55 240.942 116.17 240.182 115.03C239.422 113.89 237.722 115.79 235.642 116.17C233.562 116.55 234.312 115.6 233.552 113.32C232.792 111.05 231.092 111.24 230.142 110.29C229.192 109.34 227.112 110.49 225.782 111.62C224.462 112.76 222.752 111.62 222.942 110.67C223.132 109.73 225.212 108.97 225.972 107.83C226.732 106.7 226.172 105.93 225.972 104.99C225.782 104.04 224.272 102.53 224.272 102.53L224.082 100.44C224.082 100.44 225.402 101.58 226.352 103.48C227.302 105.37 227.112 103.66 229.002 104.04C230.902 104.42 231.282 102.34 231.282 101.2C231.282 100.06 232.412 100.25 233.182 101.2C233.932 102.15 235.262 102.9 236.012 102.9C236.772 102.9 237.532 103.28 239.232 104.04C240.218 104.482 241.229 104.863 242.262 105.18C242.262 105.18 243.782 103.66 244.732 103.66C245.672 103.66 246.432 102.91 246.432 102.33C246.432 101.77 248.132 102.15 249.092 102.9C250.032 103.66 251.552 104.23 251.552 104.23L253.632 101.77L254.202 100.82C254.202 100.82 254.002 99.3098 252.692 98.5498C251.362 97.7898 248.892 95.5198 248.892 95.5198H249.842L254.392 95.1398L255.152 93.8098L255.382 93.1798C254.732 93.0298 254.532 92.5798 253.802 91.9698C252.902 91.2198 251.932 90.6998 251.492 89.9498C251.042 89.1998 250.662 86.8098 251.262 85.9898C251.862 85.1698 251.262 84.1998 252.232 83.8298C253.202 83.4598 253.652 83.3798 254.702 82.7798C255.742 82.1798 256.112 81.9598 255.812 81.8198C255.512 81.6598 254.622 81.5198 253.432 81.4398C252.232 81.3698 251.562 81.6598 251.562 80.0198C251.562 78.3798 251.932 77.5598 251.562 77.0398C251.192 76.5098 251.492 75.0998 251.932 74.5698C252.382 74.0498 251.492 74.0498 251.632 73.2998C251.782 72.5598 253.502 71.9598 253.572 71.5898C253.652 71.2098 252.902 71.0698 251.272 70.0198C249.622 68.9698 249.102 68.2998 248.722 68.9698C248.352 69.6498 248.122 70.9098 246.782 70.0898C245.442 69.2698 245.292 67.8498 244.092 68.4498C242.892 69.0498 242.972 69.9498 242.972 70.7598C242.972 71.5898 243.132 72.6298 242.002 71.8898C240.872 71.1498 240.362 69.8698 239.242 69.4898C238.122 69.1098 239.242 70.3198 237.822 67.9298C236.412 65.5298 236.922 65.0198 235.062 65.0198C233.202 65.0198 232.672 65.4598 232.082 64.7198C231.482 63.9698 231.632 64.8698 229.842 62.9198C228.042 60.9798 228.122 60.6898 226.182 60.5398C224.242 60.3898 224.462 59.9398 223.042 58.9698C221.622 57.9998 221.622 58.1498 220.432 58.1498C219.232 58.1498 219.092 57.0998 219.162 56.6498C219.232 56.1998 220.732 54.4098 219.312 54.7098C217.892 55.0098 217.812 55.6098 217.292 55.9098C216.772 56.2098 214.982 56.8798 213.932 56.1298C212.892 55.3898 212.142 54.2698 211.402 55.2298C210.652 56.2098 210.502 56.9498 210.802 57.6998C211.102 58.4498 210.502 58.2198 210.052 58.8998C209.612 59.5698 209.532 59.4998 210.052 60.3098C210.582 61.1298 211.252 61.8798 210.052 62.2498C208.513 62.6661 206.891 62.6661 205.352 62.2498C203.782 61.8098 201.622 62.0998 200.502 62.0998C199.382 62.0998 198.182 61.1298 198.332 60.0198C198.482 58.8898 198.852 58.9698 199.232 57.9998C199.602 57.0298 200.352 55.9798 200.052 55.6798C199.771 55.3568 199.52 55.0087 199.302 54.6398C199.302 54.6398 198.632 54.3398 197.962 55.0098C197.292 55.6798 196.762 55.6098 196.092 55.8298C195.422 56.0598 194.592 56.2798 195.052 57.2598C195.492 58.2198 196.612 58.7398 195.502 58.8898C194.372 59.0498 193.562 59.4898 193.332 58.3698C193.102 57.2498 194.232 56.0598 192.662 56.4298C191.092 56.7998 190.342 56.8098 190.422 57.3298C190.502 57.8498 190.272 57.9298 190.042 58.3698C189.822 58.8198 189.892 59.1198 189.892 59.4898C189.892 59.8598 188.852 60.8398 188.102 59.8698C187.362 58.8898 188.262 57.9198 186.312 58.8198C184.372 59.7198 182.812 60.1598 183.172 58.5998C183.552 57.0298 184.452 57.4798 184.822 55.8998C185.202 54.3398 184.152 51.0598 183.252 49.9398C182.352 48.8198 182.512 48.0698 181.752 47.7698C181.012 47.4698 179.822 47.4698 179.752 48.1498C179.682 48.8298 180.192 49.1898 179.222 49.1098C178.252 49.0398 178.922 48.5098 177.282 48.6698C175.642 48.8298 174.582 49.7098 174.742 50.3098C174.892 50.9098 174.072 51.8798 173.242 52.0298C172.432 52.1798 170.862 51.3498 170.782 52.3998C170.712 53.4398 171.232 55.8298 170.862 56.4998C170.492 57.1798 167.362 57.0998 165.862 56.8798C164.362 56.6498 164.362 56.4298 163.102 55.7598C161.832 55.0898 161.532 56.3598 161.532 56.3598C161.532 56.3598 161.452 56.9598 160.562 57.5498C159.662 58.1498 159.892 57.6298 159.212 57.6998C158.542 57.7798 158.092 58.7398 158.092 58.7398C158.092 58.7398 156.672 58.6698 156.752 56.8798C156.822 55.0798 157.652 55.3098 158.322 54.7798C158.992 54.2698 161.012 54.0398 159.522 53.0798C158.022 52.0998 156.672 51.2798 156.222 52.1798C155.772 53.0698 155.782 52.7798 154.742 53.3798C153.692 53.9698 153.392 54.2698 153.762 54.8598C154.142 55.4598 152.342 55.9798 151.522 55.6798C150.702 55.3798 150.852 56.3598 150.552 56.8098C150.252 57.2598 149.812 57.2498 149.652 56.6498C149.512 56.0498 150.102 55.2398 149.062 55.6098C148.022 55.9898 147.942 56.5098 147.342 54.9398C146.742 53.3698 146.222 51.2798 145.552 52.0298C144.882 52.7698 143.462 53.9698 142.792 54.1198C142.122 54.2698 141.372 53.8198 141.822 53.2998C142.272 52.7798 143.022 52.9998 142.642 51.9498C142.272 50.9098 141.972 50.6798 141.672 50.1598C141.372 49.6398 140.772 47.8498 142.422 47.4698C144.062 47.0998 144.962 47.6198 144.722 46.5698C144.512 45.5298 144.722 45.6798 144.212 45.1598C143.692 44.6398 143.392 42.6898 142.712 42.9998C142.042 43.2898 141.522 43.2198 141.602 44.4798C141.672 45.7498 141.152 45.3798 140.482 45.6798C139.812 45.9798 139.952 46.6498 140.102 47.2498C140.252 47.8498 140.032 49.5598 138.762 49.5598C137.492 49.5598 137.042 49.6398 136.152 48.2998C135.252 46.9498 135.102 46.4298 134.502 47.3198C133.902 48.2098 133.832 49.0398 133.462 49.4898C133.082 49.9298 132.342 49.3398 131.742 50.3898C131.142 51.4298 130.242 52.3898 130.622 52.7698C131.002 53.1498 132.642 53.3698 133.682 54.1898C134.732 55.0098 136.152 56.5098 136.152 56.5098C136.152 56.5098 136.072 57.7798 135.922 58.5998C135.772 59.4198 135.322 61.0598 136.222 61.8798C137.122 62.6998 138.832 64.2698 139.062 64.8698C139.292 65.4698 139.362 65.5398 138.982 66.4298C138.612 67.3298 139.282 70.1698 139.732 70.5398C140.182 70.9098 141.592 71.1398 141.822 70.7598C142.042 70.3898 143.462 71.1398 143.462 72.5598C143.462 73.9698 143.012 75.1698 143.692 75.9898C144.362 76.8098 143.462 78.5298 143.242 79.4998C143.012 80.4698 141.742 82.1898 141.672 82.7098C141.602 83.2298 140.622 84.7998 140.622 84.7998C140.622 84.7998 139.422 83.2298 138.612 82.9998C137.792 82.7798 136.812 83.3798 136.812 83.3798C136.812 83.3798 135.182 82.2598 134.212 80.6898C133.242 79.1198 132.562 78.0798 131.892 77.9298C131.222 77.7798 130.022 78.4498 129.802 79.0498C129.572 79.6498 128.302 81.9598 127.782 81.8898C127.262 81.8198 127.042 79.2798 127.042 78.2998C127.042 77.3398 121.962 73.5298 122.862 71.4398C123.762 69.3498 124.352 69.0398 123.762 68.2198C123.162 67.4098 122.782 68.9698 122.332 66.8098C121.882 64.6498 122.332 65.0898 121.892 64.1898C121.442 63.2898 120.992 63.3698 120.992 62.5498C120.992 61.7298 122.042 61.2798 122.792 60.9898C123.856 60.4094 124.791 59.6203 125.542 58.6698C126.142 57.8498 126.962 57.5498 126.962 55.9098C126.962 54.2698 126.742 53.8898 127.042 53.1498C127.342 52.3998 127.112 52.0998 126.662 51.4298C126.222 50.7598 125.172 48.0698 125.762 46.9498C126.362 45.8298 126.962 44.1898 127.632 42.9198C128.302 41.6498 129.802 40.2298 130.702 40.4598C131.602 40.6898 133.162 41.3498 134.132 41.0498C135.102 40.7498 138.162 39.5498 138.612 38.8898C139.062 38.2098 140.032 37.8398 139.512 36.9498C138.982 36.0498 137.262 36.5698 137.942 35.0098C138.612 33.4398 139.362 33.3598 140.032 33.2098C140.702 33.0598 141.822 33.2098 141.822 32.6098C141.822 32.0098 141.822 31.8698 141.742 30.9698C141.662 30.0698 142.192 29.4798 142.712 28.4398C143.242 27.3898 144.512 26.8698 144.432 25.8198C144.362 24.7798 143.832 24.5498 143.692 23.5798C143.552 22.6098 144.882 21.4898 145.482 20.1498C146.082 18.8098 146.972 19.3998 147.572 18.3498C148.172 17.3098 149.362 16.7898 148.242 14.4798C147.122 12.1698 146.442 11.6398 146.002 10.5198C145.562 9.39978 146.152 8.12976 144.432 6.93976C142.722 5.73976 140.702 4.53976 139.802 4.31976C138.902 4.09976 138.982 3.49977 138.012 3.04977C137.042 2.59977 137.042 1.63976 135.182 1.93976C133.312 2.23976 133.762 3.04978 132.942 2.89978C132.122 2.74978 131.812 2.07976 130.322 1.40976C129.392 0.98976 128.752 0.509766 128.002 0.509766V0.499756Z" fill="#D1DBDD" stroke="black" stroke-width="0.99943"/>
</svg>
