<svg width="36" height="89" viewBox="0 0 36 89" fill="none" xmlns="http://www.w3.org/2000/svg">
<path d="M15.8542 0.353516C15.8542 0.353516 13.7942 2.41353 12.2142 3.83353C10.6342 5.25353 12.2142 5.73351 12.2142 7.47351C12.2142 9.21351 12.0543 8.89351 10.7943 10.0035C9.52425 11.1035 8.73422 11.7335 7.63422 11.1035C6.53422 10.4735 7.31425 8.57352 5.41425 8.73352C3.51425 8.89352 4.62426 10.1535 3.36426 11.7335C3.15092 12.0002 2.90092 12.2335 2.61426 12.4335C3.05426 13.1835 2.19421 13.0835 1.94421 14.1135C1.62421 15.3735 1.62425 17.4235 2.41425 18.3735C3.21425 19.3235 3.36422 19.4835 3.51422 20.5935C3.67422 21.6935 2.57423 23.4335 1.46423 22.9635C0.364233 22.4835 1.46423 23.4335 1.46423 25.1735C1.46423 26.7735 0.934238 26.3735 0.594238 27.3035C0.780905 27.4502 0.967569 27.5302 1.15424 27.5435C2.88424 27.5435 1.15426 28.4935 0.994263 29.7635C0.834263 31.0235 2.41422 32.2935 3.20422 32.7635C4.00422 33.2435 4.15423 35.7635 3.83423 37.1935C3.51423 38.6235 5.10422 40.9835 5.57422 42.0935C6.05422 43.1935 8.57422 47.1535 8.57422 47.1535C8.57422 47.1535 6.52422 52.6835 6.20422 53.4735C5.89422 54.2635 8.57421 58.0535 10.0042 59.3235C11.4342 60.5935 11.2642 62.1635 11.2642 63.5935C11.2642 65.0235 11.7442 68.0135 11.9042 69.2835C12.0542 70.5435 12.6942 73.8635 12.5342 74.8135C12.3742 75.7635 13.4843 79.0835 13.4843 79.0835L13.0042 84.2935C13.0042 84.2935 14.4243 87.4635 15.0543 87.9335C15.6943 88.4135 17.9042 86.8335 17.9042 86.8335L19.3242 84.7735C19.3242 84.7735 22.1742 86.5135 23.9142 87.6135C25.6542 88.7235 26.1242 86.1935 26.1242 85.4135C26.1242 84.6135 27.8642 81.6135 28.6542 80.0335C29.4542 78.4535 30.7142 77.8135 30.8742 77.0335C31.0242 76.2335 30.2343 71.1735 30.2343 71.1735V67.2235C30.2003 65.9339 29.9883 64.6551 29.6042 63.4235C29.4442 62.9535 28.3443 60.9035 28.1843 59.0035C28.0243 57.1035 27.7042 56.0035 27.7042 56.0035C27.7042 56.0035 26.1243 53.4735 25.8043 51.5735C25.4843 49.6735 27.2342 49.5235 29.4442 49.0435C31.6642 48.5735 34.5042 46.5135 34.5042 46.5135C34.5042 46.5135 34.5042 46.2035 35.1342 41.3035C35.7742 36.4035 33.3942 37.1935 32.6042 35.6035C31.8142 34.0135 32.7643 34.0235 33.5543 33.0735C34.3543 32.1335 34.1942 30.7035 34.1942 29.6035C34.1942 28.5035 34.6642 23.4335 34.6642 23.4335C34.6642 23.4335 33.5643 19.4835 33.2443 17.2735C32.9243 15.0535 32.1342 16.6335 30.7042 14.2735C29.2842 11.8935 29.2842 13.4735 28.5042 13.0035C27.7042 12.5235 26.6042 12.5235 26.6042 12.5235C26.6042 12.5235 24.8642 13.4735 23.1242 13.4735C21.3842 13.4735 20.5942 12.8435 20.2742 10.6335C19.9642 8.41351 20.7542 6.2035 20.7542 4.4635C20.7542 2.7335 19.8043 1.77353 19.8043 1.77353C19.2454 2.36681 18.8133 3.06773 18.5342 3.83353C18.0642 5.09353 16.6343 4.78353 16.4843 3.36353C16.3243 1.93353 15.8442 0.363525 15.8442 0.363525L15.8542 0.353516Z" fill="#D1DBDD" stroke="black"/>
</svg>
