<svg width="53" height="65" viewBox="0 0 53 65" fill="none" xmlns="http://www.w3.org/2000/svg">
<path d="M43.147 0.5C42.477 0.5 42.207 1.30002 42.207 1.30002C42.207 1.30002 38.5771 4.14 36.9971 5.56C35.4071 6.99 33.197 8.57002 31.777 9.99002C30.357 11.41 27.3471 13.31 26.5671 15.05C25.7671 16.79 26.2471 17.9 25.9271 18.69C25.6171 19.48 24.0271 18.84 23.5571 18.37C23.0871 17.9 21.5071 18.21 20.8671 18.53C20.2371 18.84 20.2371 20.74 20.2371 21.69C20.2371 22.64 19.9171 24.69 18.4971 25.79C17.0771 26.91 17.697 28.17 16.917 28.8C16.127 29.44 15.9671 29.75 15.8171 30.7C15.6471 31.65 16.447 32.91 16.607 33.38C16.757 33.86 16.4471 34.18 15.8071 35.44C15.1771 36.71 15.967 36.24 16.287 36.87C16.607 37.5 16.4471 38.92 15.4871 38.77C14.5471 38.6 13.127 37.97 12.017 37.5C10.917 37.02 10.117 38.29 9.64702 39.23C9.15808 40.258 8.73717 41.3169 8.38701 42.4C8.06701 43.34 6.79707 43.5 6.00707 44.61C5.21707 45.72 5.69704 46.03 5.53704 47.46C5.37704 48.88 3.79707 48.4 3.00707 48.88C2.21707 49.35 1.58705 49.35 0.797048 50.94C-0.00295225 52.52 0.947057 51.88 2.05706 53.15C3.15706 54.41 3.16707 56.15 3.00707 57.1C2.84707 58.05 3.47706 60.58 5.05706 61.68C5.33039 61.88 5.66372 62.1733 6.05706 62.56L6.32702 62.16C6.79702 61.52 7.74705 61.68 9.17705 61.68C10.5971 61.68 11.2271 62.95 12.8071 63.42C14.3871 63.9 13.287 62.95 13.287 62.16C13.287 61.36 14.077 59.95 14.227 58.84C14.387 57.74 15.337 57.57 16.287 56.63C17.237 55.68 16.1271 55.2 15.8071 54.41C15.4871 53.62 16.1271 52.67 17.8671 51.88C19.6071 51.09 22.297 51.57 23.397 51.88C24.497 52.2 24.827 52.36 24.977 52.99C25.127 53.62 26.247 52.52 26.397 51.89C26.557 51.25 27.507 51.57 27.357 52.83C27.207 54.09 29.2571 53.78 30.5071 53.46C31.7771 53.16 31.3071 52.52 32.5671 51.09C33.8371 49.67 35.257 48.41 35.887 47.29C36.517 46.19 37.467 45.4 37.467 45.4L39.207 46.98C39.207 46.98 38.417 47.93 37.787 48.88C37.157 49.83 37.787 53.15 37.787 53.15L40.3171 54.89L40.157 55.99L39.987 56.37C41.297 55.66 42.527 55.05 42.527 55.05C42.527 55.05 45.687 51.09 46.477 50.15C47.277 49.2 47.907 45.72 47.907 45.72C47.907 45.72 48.0571 41.29 48.3771 40.02C48.6971 38.76 50.4371 34.97 50.4371 34.18C50.4371 33.38 48.847 31.65 48.847 31.02C48.847 30.39 48.217 26.27 48.217 26.27C48.217 26.27 46.4871 22.8 46.3171 21.37C46.1671 19.95 48.847 18.05 49.487 17.27C50.117 16.47 52.017 16.47 52.327 14.89C52.637 13.31 52.167 13.15 52.167 13.15C52.167 13.15 51.227 13.47 50.587 14.1C49.957 14.73 49.007 14.42 47.587 12.84C46.157 11.26 47.747 11.1 47.907 9.99002C48.057 8.89002 47.587 7.94 46.957 7.78C46.317 7.62 46.0071 7.46 46.0071 5.72C46.0071 3.98 46.637 3.98 46.637 3.19C46.637 2.4 45.2171 1.77001 43.9471 0.820007C43.7207 0.631893 43.4407 0.519914 43.147 0.5Z" fill="#D1DBDD" stroke="black"/>
</svg>
