<svg width="173" height="147" viewBox="0 0 173 147" fill="none" xmlns="http://www.w3.org/2000/svg">
<path d="M128.491 0.5V0.51001C128.31 0.498802 128.129 0.512237 127.951 0.549988C127.501 0.699988 127.501 3.60998 127.501 4.09998C127.501 4.59998 128.251 6.48 128.661 7.38C129.081 8.28 128.551 7.82999 128.131 9.17999C127.731 10.52 127.841 12.01 127.801 13.4C127.761 14.79 126.831 15.7 126.161 16.2C125.885 16.3849 125.575 16.5128 125.249 16.5764C124.922 16.6399 124.587 16.6377 124.261 16.57C123.991 16.46 123.471 16.09 123.281 16.38C122.843 16.8387 122.291 17.1733 121.681 17.35C121.301 17.39 121.571 16.68 121.981 16.2C122.381 15.7 122.421 15.45 122.241 15.2C122.041 14.92 121.741 14.49 121.831 14.29C121.901 14.1 122.651 13.73 122.691 13.29C122.731 12.83 121.941 13.13 121.751 13.29C121.571 13.43 120.181 15.11 119.811 15.49C119.441 15.86 117.461 14.14 116.861 13.66C116.261 13.16 115.181 13.7 114.211 13.92C113.241 14.14 112.821 13.51 112.611 13.17C112.381 12.83 111.071 13.21 110.661 13.66C110.251 14.1 109.091 14.63 108.561 14.56C108.051 14.48 107.301 14.78 107.301 15.3C107.301 15.82 105.771 16.27 105.241 16.1C104.721 15.9 103.941 15.11 103.081 14.44C102.221 13.77 101.851 10.82 102.301 8.97998C102.741 7.15998 101.851 3.71998 101.771 2.97998C101.701 2.22998 100.131 2.34003 99.8313 2.53003C99.5313 2.71003 98.9313 4.17003 98.0713 4.47003C97.2213 4.77003 95.5713 3.94999 94.1513 3.79999C92.7313 3.64999 92.6513 4.36001 92.3213 5.07001C91.9913 5.77001 89.5213 5.77 88.2213 5.44C86.9113 5.11 86.3213 5.37003 85.8613 6.22003C85.4213 7.08003 81.4213 7.37999 79.9613 7.04999C78.5013 6.70999 77.4213 4.50999 76.2613 3.04999C75.4613 2.04999 74.9413 2.00999 74.6213 2.04999C74.5013 2.04999 73.2213 2.19 72.9513 2.69C72.6913 3.22 74.3713 7.92 72.7813 8.19C72.1113 8.29 69.6213 10.94 67.1313 10.66C65.7313 10.51 64.4713 11.39 62.1313 13.25C61.5313 13.72 62.7413 15.69 62.1013 16.21C61.7013 16.55 62.9013 16.57 62.4213 16.84C61.5513 17.34 61.5113 16.3 60.3913 16.67C58.6813 17.23 64.1513 22.87 60.5413 22.03C60.2913 21.97 59.5413 24.57 58.5113 24.15C58.0113 23.95 56.6113 23.69 56.2713 24.85C55.3413 28.05 54.8513 28.57 53.9813 29.2C52.7313 30.12 54.4413 34.61 53.1813 34.46C54.1113 34.9 55.8613 35.86 55.5613 36.5C55.1813 37.27 53.9413 35.92 52.7913 36.68C51.9913 37.21 52.7513 38.44 52.0113 39.26C51.6313 39.67 51.0513 39.36 50.4413 39.86C49.3713 40.73 48.2213 46.31 48.1813 44.56C48.1813 44.3 47.1113 44.47 46.3413 43.96C45.6613 43.5 45.1213 42.36 44.0613 41.8C42.3613 40.92 42.3613 43.46 40.2213 42.8C39.4313 42.56 38.1013 42.9 37.2413 42.6C35.9813 42.2 34.2413 45 33.9513 46.73C33.6513 48.48 33.6213 51.38 32.0513 49.97C31.4913 49.47 31.8313 52.2 31.2813 51.39C30.9513 50.91 32.9813 53.95 31.9613 54.41C30.8413 54.91 29.7313 52.87 27.9213 53.54C25.9813 54.26 29.7413 57.8 28.0213 59.14C27.5413 59.52 28.0913 61.54 28.2813 63.21C28.4213 64.49 29.5813 66.66 28.6613 66.63C27.8113 66.61 30.2613 70.17 28.6813 68.8C27.8613 68.09 28.9913 71 29.3913 73.1C29.5613 73.97 29.2713 75.33 29.7013 77.05C30.0813 78.55 34.2713 78.99 34.1213 79.6C34.0513 79.86 39.7513 79.77 38.7913 79.8C38.3913 79.81 38.9513 81.94 38.3313 83.13C38.0813 83.6 39.5213 84.94 38.9313 85.06C38.6613 85.11 37.2013 86.12 36.4613 85.87C35.6413 85.6 32.9613 85.42 33.7913 84.56C34.2213 84.11 32.2113 84.56 31.5913 83.88C30.9213 83.15 28.0113 84.83 27.5613 84.1C27.0813 83.3 25.2913 80.12 25.1813 80.04C23.9713 79.21 18.8413 79.12 17.8913 78.36C17.2813 77.86 16.4113 78.55 15.7913 78.61C15.0913 78.68 13.3813 78.88 12.9813 79.47C12.4713 80.24 13.3313 81.5 12.8413 82.28C12.1813 83.35 15.0413 84.48 15.2313 84.74C15.5513 85.14 19.3713 85.44 19.7313 86.94C19.8913 87.66 19.4313 88.58 18.8313 89.44C18.4013 90.02 20.5913 90.57 20.1313 91C19.9513 91.17 19.8613 92.87 19.6113 94.63C19.4613 95.7 23.1713 96.91 22.8613 97.69C22.6813 98.13 25.4513 99.44 24.5013 99.6C23.7013 99.74 24.7713 106.23 23.0613 105.86C22.4613 105.73 26.1913 107.73 25.8813 109.04C25.6013 110.24 25.7613 112.19 24.1813 112.61C23.4113 112.81 22.5613 116.64 21.3613 116.37C20.6813 116.21 21.6313 118.7 19.1013 118.57C18.5713 118.75 17.5213 118.33 16.7213 117.93C16.6213 118.13 15.9513 118.34 15.4113 119.2C16.1013 120.75 18.9313 120.73 16.8213 121.8C15.9213 122.25 14.2413 126.44 11.8213 127.7C8.64132 129.36 6.96132 130.6 6.26132 131.33C5.96132 131.65 4.80133 130.68 4.11133 131.93C2.26133 135.29 3.30133 137.63 3.30133 137.63L2.77133 140.47L0.611328 142.77C0.951328 143.4 1.14134 145.52 1.40134 145.95L1.50131 146.14C1.48798 146.073 1.51132 146.043 1.57132 146.05C2.04132 146.16 5.42131 144.36 6.47131 144.36C7.84844 144.281 9.14817 143.698 10.1213 142.72C10.9213 141.78 11.8213 140.4 13.0313 140.35C14.0578 140.318 15.0805 140.211 16.0913 140.03C16.8913 139.87 17.8413 137.76 18.6313 137.49C19.4313 137.23 21.7513 136.75 22.9113 137.07C24.0713 137.39 25.2913 138.24 26.0213 138.66C26.7613 139.08 27.1913 139.13 27.4013 138.82C27.6113 138.5 27.7713 137.82 28.3513 137.12C28.9313 136.42 29.9913 136.65 30.0413 135.49C30.1161 134.644 30.0104 133.792 29.7313 132.99C29.4538 132.178 29.3087 131.328 29.3013 130.47C29.3013 129.47 29.7213 129.36 29.6213 128.57C29.5213 127.77 28.5613 127.57 29.5213 126.35C30.4713 125.13 31.0413 123.97 31.5213 123.6C32.0013 123.23 33.3213 123.18 33.4213 123.5C33.5213 123.8 34.3213 126.56 34.9013 126.93C35.7631 127.784 36.3186 128.898 36.4813 130.1C36.4813 131.05 37.6013 130.57 37.6013 130.57C37.6013 130.57 37.9113 129.99 39.2913 129.36C40.6613 128.72 41.5613 128.99 42.1413 127.56C42.7213 126.14 43.0413 125.45 44.1013 125.82C45.1513 126.19 45.8413 126.77 46.5813 126.93C47.3213 127.09 48.6413 127.67 49.3313 127.41C50.0113 127.14 50.5913 126.19 50.5913 126.19C50.5913 126.19 48.9513 125.5 49.0613 124.71C49.1613 123.91 50.1213 123.81 50.2213 122.86C50.3213 121.91 49.0613 120.86 49.2713 119.22C49.4813 117.58 49.9113 117.42 51.1713 117C52.4413 116.57 55.3013 114.83 56.1913 113.61C57.0913 112.41 57.7913 111.5 57.7913 110.55C57.7913 109.6 57.4613 108.49 57.6213 108.22C57.7813 107.96 58.4213 108.33 58.8213 107.8C59.2613 107.27 59.5313 106.17 59.5313 105.85C59.5313 105.53 58.7813 105.05 60.1013 104.53C61.4313 104 61.7013 104.43 62.3213 104.79C62.9613 105.16 63.7513 104.89 64.2813 103.94C64.8113 103 65.1213 102.41 65.1213 102.41C65.1213 102.41 65.6013 102.68 65.9213 103.57C66.2213 104.47 65.7213 105.69 66.4513 106.64C67.1813 107.59 68.0813 108.07 68.1813 107.49C68.2813 106.91 68.5613 106.06 68.5613 106.06C68.5613 106.06 68.8813 107.01 69.7713 108.06C70.6713 109.13 71.0913 109.49 71.6213 110.29C72.1513 111.08 73.6813 111.66 75.9013 111.49C78.1213 111.34 79.2813 111.34 81.0813 111.24C82.8813 111.14 83.7813 110.92 84.4613 110.24C85.1413 109.54 86.5813 109.07 87.1613 107.7C87.7413 106.33 87.6313 104.26 89.4213 104.05C91.2213 103.85 92.7513 102.36 93.9713 102.47C95.1913 102.58 97.6213 102.1 98.4113 100.46C99.2013 98.82 100.311 97.5 101.691 96.23C103.061 94.97 106.071 95.01 107.021 93.06C107.971 91.11 109.871 91.74 110.081 90.58C110.291 89.42 110.981 87.36 109.501 87.14C108.021 86.94 106.121 87.46 105.641 86.46C105.171 85.46 105.341 84.71 106.281 84.19C107.231 83.66 110.561 81.33 111.081 81.28C111.621 81.23 111.511 83.4 111.561 83.71C111.621 84.03 112.041 86.46 113.461 86.72C114.891 86.99 115.681 86.52 117.161 85.93C118.641 85.35 120.551 84.66 121.921 83.77C123.291 82.88 130.901 79.59 134.491 78.27C138.091 76.95 141.681 73.94 142.791 72.35C143.891 70.77 147.811 66.33 148.291 66.22C148.761 66.12 150.501 64 150.611 62.79C150.711 61.57 149.761 60.47 150.031 59.14C150.291 57.82 152.351 56.08 152.771 55.66C153.201 55.23 154.411 53.49 154.781 52.96C155.151 52.43 154.301 50.37 154.301 49.84C154.301 49.32 154.631 47.84 154.941 47.2C155.261 46.57 154.891 45.46 154.461 44.77C154.041 44.08 149.861 41.07 150.291 38.97C150.711 36.85 151.721 36.27 152.671 35.1C153.621 33.94 155.891 32.14 156.741 31.2C157.581 30.24 158.431 29.56 159.591 29.5C160.751 29.45 161.971 28.6 163.711 27.86C165.451 27.12 164.131 26.54 167.091 26.28C168.901 26.11 170.211 26.15 171.441 26.03L168.641 22.07L167.051 21.25L165.091 20.05L162.821 18.72L161.121 17.52L159.781 17.77L158.581 18.66L157.071 18.72V17.77L156.251 16.57L154.731 14.36L153.651 14.11L152.951 13.61L152.011 13.03L150.311 12.78L147.961 11.64L147.141 10.82L146.831 8.72998L148.081 7.79999C147.941 7.79999 147.795 7.81002 147.641 7.83002C146.931 7.87002 146.071 7.75999 146.041 7.60999C145.981 7.44332 145.068 7.16998 143.301 6.78998C141.551 6.40998 141.281 5.44 140.431 4.88C139.581 4.32 139.081 5.47999 139.081 5.92999C139.081 6.37999 138.111 7.08003 137.441 6.97003C136.771 6.86003 136.211 5.85001 135.761 5.14001C135.311 4.44001 134.901 2.48999 132.771 2.29999C130.641 2.10999 130.831 1.55998 130.531 1.09998C130.311 0.769976 129.221 0.54 128.501 0.5H128.491Z" fill="#D1DBDD" stroke="black"/>
</svg>
