<svg width="94" height="93" viewBox="0 0 94 93" fill="none" xmlns="http://www.w3.org/2000/svg">
<path d="M60.2909 0.5L59.891 1.21999C59.711 1.58999 59.0609 2.24 58.2309 3.17C57.3909 4.1 55.531 4.65 53.211 5.87C50.891 7.07 51.541 7.52999 50.711 8.73999C49.871 9.93999 49.491 9.39 49.491 8.37C49.491 7.35 48.841 7.24999 47.731 7.71999C46.611 8.17999 46.801 8.18 46.331 7.53C45.861 6.88 43.271 5.29999 43.361 6.04999C43.461 6.78999 42.061 8.82999 42.061 8.82999L40.911 9.50999L40.791 9.90999C40.791 9.90999 41.941 10.41 43.431 11.56C44.911 12.72 43.591 14.36 43.431 15.51C43.261 16.66 39.481 18.14 38.161 17.98C36.841 17.82 33.721 18.97 31.411 20.12C29.101 21.27 29.771 22.26 28.291 22.42C26.811 22.59 25.491 22.75 24.671 23.08C23.851 23.41 21.541 27.52 20.551 29.5C19.571 31.47 20.551 29.82 21.051 32.46C21.541 35.09 22.531 35.75 23.681 37.89C24.831 40.03 23.511 41.18 21.871 42.33C20.231 43.48 20.561 44.8 20.891 46.28C21.211 47.76 22.361 49.9 22.361 49.9C22.361 49.9 21.211 50.39 19.731 50.72C18.251 51.05 16.771 52.7 16.611 53.84C16.441 55 14.141 57.63 13.641 60.1C13.151 62.57 11.511 62.07 9.86095 63.39C8.22095 64.71 8.55097 65.03 7.56097 66.35C6.57097 67.67 5.26096 68.16 4.10096 69.48C2.95096 70.79 4.10096 70.63 4.60096 72.6C5.09096 74.58 3.61095 78.2 3.61095 78.2C3.61095 78.2 1.31096 79.18 0.650963 79.35C-0.00903681 79.52 1.64095 80.99 2.78095 81.82C3.94095 82.64 6.74096 82.47 7.72096 82.31C8.72096 82.14 8.55096 82.31 10.681 81.98C12.821 81.65 11.341 82.64 12.981 82.64C14.631 82.64 14.631 82.14 15.451 82.14C16.271 82.14 18.751 82.8 20.061 82.47C21.371 82.14 20.881 80.66 21.381 79.18C21.871 77.7 22.201 80.41 24.681 80.74C27.141 81.07 27.631 79.02 27.791 78.36C27.961 77.7 28.791 78.53 31.091 79.68C33.391 80.83 31.741 80.01 33.221 80.99C34.701 81.99 34.211 81.32 34.541 82.64C34.871 83.96 35.531 83.79 37.341 84.12C39.151 84.45 38.161 83.46 38.981 84.78C39.811 86.09 38.651 87.41 39.311 89.05C39.971 90.7 39.811 90.7 41.121 91.35C42.441 92.02 43.421 90.53 43.421 89.88C43.421 89.22 45.071 87.91 45.071 87.91C45.071 87.91 46.391 86.91 46.881 85.93C47.381 84.94 47.381 84.78 48.531 84.94C49.879 85.0567 51.2346 84.8296 52.471 84.28C53.471 83.79 53.131 83.63 55.431 84.28C57.731 84.94 59.881 85.44 63.661 86.26C67.441 87.08 65.301 85.26 65.801 83.79C66.291 82.31 65.801 81.32 66.781 80.34C67.781 79.34 68.6009 75.73 69.2609 73.92C69.9209 72.11 70.741 73.92 71.391 74.25C72.051 74.58 72.871 74.08 72.871 73.1C72.871 72.1 73.8609 74.08 74.3509 75.07C74.8509 76.06 76.821 76.06 77.811 75.73C78.801 75.4 78.141 74.25 78.471 72.77C78.801 71.28 78.631 71.45 78.471 70.47C78.301 69.47 77.641 68.82 77.641 68.82C77.641 68.82 80.7709 68.16 81.1009 67.5C81.4309 66.84 81.921 66.19 81.921 66.19C81.921 66.19 82.921 66.35 84.061 66.02C85.201 65.69 87.021 64.7 87.021 64.7L86.441 62.08C86.2047 62.2554 86.0101 62.4808 85.871 62.74C85.341 63.71 84.371 62.65 83.841 62.39C83.311 62.12 82.7909 61.95 81.8209 60.45C80.8509 58.95 82.261 59.22 82.441 58.78C82.621 58.34 83.841 57.63 83.841 57.63C83.851 57.63 85.341 57.73 85.691 58.16C86.041 58.59 87.631 58.78 88.431 59.39C88.801 59.69 88.8309 60.01 88.7609 60.36C89.2309 60.5 89.791 60.61 90.151 60.43C90.811 60.1 92.121 59.28 92.121 59.28L92.381 58.63L91.611 58.29C90.461 57.79 90.7909 57.63 88.9809 56.15C87.1609 54.67 87.331 54.51 86.181 54.83C86.0413 54.8863 85.8917 54.9141 85.7412 54.9118C85.5906 54.9095 85.442 54.8771 85.3041 54.8165C85.1662 54.756 85.0419 54.6685 84.9383 54.5592C84.8347 54.4498 84.754 54.3209 84.701 54.18C84.701 54.18 84.201 52.36 82.061 52.53C79.931 52.69 80.5909 53.68 79.6009 53.19C78.6109 52.69 79.7609 50.23 79.7609 47.26C79.7609 44.29 80.2609 46.27 80.2609 44.8C80.2609 43.32 79.7609 43.32 79.1009 43.32C78.4409 43.32 76.801 43.97 76.471 42.82C76.151 41.67 74.1709 40.68 73.3509 39.86C72.5309 39.04 73.181 38.06 73.021 37.06C72.861 36.08 72.1909 37.56 71.5409 38.22C70.8809 38.88 70.711 39.7 69.241 39.7C67.751 39.7 67.421 39.53 66.111 38.38C64.791 37.23 64.621 37.07 64.461 34.43C64.301 31.8 63.801 32.95 62.811 31.47C61.821 29.99 60.191 24.89 60.841 24.23C61.491 23.57 61.831 22.43 61.341 21.6C60.841 20.78 60.021 20.94 59.691 20.12C59.361 19.3 55.741 17.65 54.591 16.99C53.441 16.33 53.601 16.66 53.441 14.69C53.271 12.71 53.9309 12.88 54.1009 10.9C54.2609 8.92999 56.0709 8.92999 56.7309 8.26999C57.3909 7.60999 58.871 7.12 58.871 7.12C58.871 7.12 60.181 5.47999 60.181 4.48999C60.181 3.49999 59.8509 1.68999 59.8509 1.68999L59.711 1.53C59.9153 1.19481 60.1055 0.851173 60.281 0.5H60.2909Z" fill="#D1DBDD" stroke="black"/>
</svg>
