<svg width="243" height="218" viewBox="0 0 243 218" fill="none" xmlns="http://www.w3.org/2000/svg">
<path d="M126.506 0.666748L126.026 0.806732C123.686 1.50673 126.146 2.21674 122.746 2.68674C119.346 3.15674 116.416 3.85675 115.596 4.32675C114.776 4.79675 111.266 17.6867 111.266 18.5067C111.266 19.3267 108.796 20.9667 108.096 22.2567C107.396 23.5467 106.336 24.7167 105.986 25.8867C105.636 27.0567 105.286 26.7168 105.046 27.7668C104.816 28.8268 98.6057 36.4367 98.0257 37.1467C97.4257 37.8467 94.2657 38.5467 91.9257 38.3167C89.5757 38.0767 88.2957 38.8968 88.0557 39.9568C87.8647 41.1945 87.2912 42.3414 86.4157 43.2368C85.2457 44.5268 84.6557 44.4067 82.7857 45.6967C80.9057 46.9867 80.4457 52.6067 79.0357 54.8367C77.6357 57.0667 74.2357 58.2367 72.7057 59.1767C71.1757 60.1167 70.5957 61.8768 70.2457 63.8568C69.8957 65.8568 69.5457 65.5067 69.0757 66.6767C68.6057 67.8467 65.2057 68.0767 63.5657 67.9667C61.9257 67.8467 59.4657 66.9068 56.0657 67.2668C52.6657 67.6068 53.3657 68.4268 49.2657 68.5468C45.1657 68.6668 44.9357 69.1368 43.9957 69.9568C42.9665 70.7709 41.761 71.3325 40.4757 71.5967C39.8957 71.5967 39.7757 70.1868 39.7757 69.4868C39.7757 68.7868 38.7157 67.9667 38.2457 66.6767C37.7857 65.3767 38.2457 62.5767 38.2457 61.9767C38.2457 61.3967 36.8457 60.2267 35.3157 59.7567C33.7957 59.2867 25.4757 62.6867 24.5357 64.2167C23.5957 65.7467 15.3957 75.6967 14.8157 76.3967C14.2357 77.0967 5.78567 84.0167 4.84567 84.5967C3.29178 85.7473 2.01409 87.2299 1.10568 88.9367C0.405676 90.5767 0.50567 92.1067 0.50567 94.3367C0.50567 96.5567 3.20567 101.477 4.97567 103.707C6.72567 105.937 8.83567 104.297 10.0057 104.527C11.1757 104.757 12.3457 106.397 13.1757 106.867C13.9957 107.337 16.8057 106.517 17.6257 106.517C18.4457 106.517 19.2657 107.337 19.0257 107.817C18.7957 108.277 19.9757 110.967 19.9757 111.447C19.9757 111.917 15.7557 120.817 15.1657 121.517C14.5757 122.217 16.5657 127.617 16.5657 128.667C16.5657 129.717 22.3157 134.997 23.4857 136.757C24.6557 138.517 28.1757 136.637 29.8157 135.937C31.4557 135.237 32.8557 136.047 33.2157 137.107C33.5757 138.167 31.6857 139.807 30.7557 140.737C29.8157 141.677 32.7457 146.597 32.7457 147.647C32.7457 148.707 36.7257 153.517 36.4957 154.917C36.2557 156.317 38.5957 163.357 40.1257 163.237C41.6557 163.117 43.0557 161.487 44.5857 161.137C46.1157 160.787 45.2857 162.187 45.3957 163.357C45.5057 164.527 46.6857 163.587 48.3257 163.937C49.9757 164.297 52.6657 163.007 53.9557 162.537C55.2357 162.067 58.4057 162.307 58.9957 162.887C59.5757 163.477 60.3957 163.237 61.5757 163.707C62.7457 164.177 63.0957 164.407 64.5057 164.887C65.9057 165.347 64.8557 163.937 64.9757 163.007C65.0757 162.067 66.3757 163.237 66.6057 164.177C66.8457 165.117 69.8957 163.707 71.1857 164.177C72.4657 164.647 76.3357 164.647 77.8557 164.647C79.3857 164.647 79.0257 165.467 78.9157 166.167C78.7957 166.867 77.1557 166.637 75.9857 167.337C74.8157 168.037 76.1057 168.397 77.3857 168.277C78.6857 168.167 83.0157 170.617 83.0157 170.277C83.0157 169.917 83.6057 169.097 84.0757 169.447C84.5457 169.807 86.9957 172.147 87.4757 172.267C87.9357 172.377 89.5757 173.667 90.3957 174.027C91.2157 174.377 93.0957 174.487 93.6857 174.727C94.2757 174.967 96.3757 173.197 96.8457 172.847C97.3157 172.497 97.9057 170.387 98.2457 169.687C98.6057 168.987 98.3657 166.987 98.8457 167.687C99.3057 168.397 100.826 172.497 101.066 172.967C101.296 173.437 102.356 175.307 102.006 175.777C101.656 176.247 100.706 176.477 100.006 176.837C99.3057 177.187 99.9057 179.177 100.126 179.647C100.366 180.117 100.946 180.697 101.526 181.647C102.126 182.577 101.886 183.047 101.886 183.977C101.886 184.907 102.946 185.977 102.946 185.977L104.116 185.277L104.696 182.817L106.226 181.637C106.226 181.637 106.456 182.227 106.806 183.637C107.156 185.037 107.866 185.737 108.206 186.437C108.566 187.137 109.276 189.607 108.686 190.197C108.096 190.787 106.806 191.487 106.806 192.657C106.806 193.827 108.806 196.057 110.086 197.107C111.386 198.167 112.196 197.337 113.956 198.157C115.716 198.977 115.246 199.567 115.476 201.097C115.716 202.617 115.006 204.847 115.946 205.547C116.886 206.247 118.406 207.307 119.466 208.597C120.526 209.887 121.216 208.007 121.696 207.067C122.156 206.127 123.216 206.367 123.216 206.367C123.216 206.367 124.506 206.837 124.616 207.887C124.736 208.947 125.556 207.887 126.256 209.067C126.956 210.247 126.736 209.997 127.426 210.467C128.136 210.937 128.606 211.287 128.606 212.697C128.606 214.097 129.076 213.397 130.246 213.977C131.416 214.577 132.246 215.157 133.056 216.207C133.876 217.267 134.346 217.147 135.636 217.027C136.926 216.907 137.516 216.327 139.266 215.387C141.026 214.457 141.266 215.157 142.316 214.687C143.376 214.217 145.246 213.987 145.946 213.397C146.646 212.817 145.826 211.647 145.016 210.347C144.196 209.067 143.256 209.887 142.086 209.527C140.916 209.167 140.326 209.297 140.326 208.937C140.326 208.587 141.026 208.007 141.026 206.947C141.026 205.897 143.136 204.147 145.016 203.907C146.886 203.667 148.296 203.557 148.416 202.967C148.526 202.387 149.236 201.677 150.286 201.327C151.336 200.977 152.516 199.927 152.156 199.097C151.806 198.277 152.156 197.457 152.986 196.397C153.806 195.347 152.746 194.647 151.686 193.357C150.636 192.067 151.576 190.897 152.286 189.727C152.986 188.557 153.096 187.497 153.216 186.677C153.336 185.857 152.626 185.977 151.336 184.097C150.056 182.227 151.696 180.587 150.876 180.347C150.056 180.117 149.236 179.997 148.406 178.587C147.586 177.187 148.646 177.657 149.576 175.547C150.516 173.437 149.346 173.437 148.406 172.267C147.466 171.097 147.006 170.617 147.706 169.797C148.406 168.977 148.526 168.627 148.646 167.697C148.766 166.767 150.526 166.167 151.926 166.167C153.326 166.167 152.746 165.817 153.566 164.877C154.386 163.937 154.036 163.007 153.096 162.657C152.156 162.307 151.806 161.357 150.996 160.657C150.166 159.957 150.876 158.557 150.876 158.557C150.876 158.557 152.396 159.017 153.216 160.307C154.036 161.607 155.316 160.667 156.496 160.667C157.676 160.667 158.256 159.607 158.496 158.787C158.736 157.967 160.596 155.507 160.596 155.507C160.596 155.507 165.396 154.807 165.756 154.917C166.106 155.037 165.866 157.497 165.406 158.087C164.936 158.677 163.876 158.317 163.876 158.317L163.296 158.667C162.706 159.017 163.296 159.367 164.116 160.077C164.936 160.777 166.216 160.537 166.576 161.017C166.936 161.497 166.226 161.597 165.176 162.067C164.116 162.537 163.876 161.717 163.406 161.367C162.936 161.017 161.416 161.717 161.066 162.187C160.716 162.657 161.186 164.987 161.766 165.587C162.356 166.167 163.066 165.697 164.466 165.697C165.866 165.697 166.566 166.167 167.516 167.107C168.466 168.047 168.806 167.807 169.976 166.877C171.146 165.937 170.556 166.277 171.846 166.517C173.136 166.757 173.136 166.757 173.726 165.937C174.316 165.117 174.306 164.997 175.486 165.347C176.656 165.697 177.946 164.417 177.946 164.417L178.876 164.297C179.816 164.177 179.476 165.467 179.476 167.337C179.476 169.207 179.476 169.567 180.756 171.097C182.046 172.617 181.336 172.727 180.756 174.027C180.166 175.307 177.826 175.077 177.246 174.727C176.646 174.367 176.306 175.077 176.306 176.957C176.306 178.837 179.236 179.177 179.586 179.997C179.936 180.817 177.586 181.167 177.006 182.227C176.416 183.277 177.006 183.747 177.586 185.737C178.176 187.737 177.946 186.557 177.356 188.317C176.766 190.077 175.256 189.257 175.256 188.667C175.256 188.087 173.836 187.387 172.906 187.387C171.976 187.387 171.846 188.437 170.796 189.027C169.736 189.607 168.566 189.137 167.516 189.837C166.456 190.537 167.626 190.787 168.686 191.137C169.746 191.487 169.736 192.767 170.446 193.707C171.146 194.647 170.916 194.887 171.846 194.527C172.786 194.177 172.906 194.647 173.726 195.347C174.546 196.047 175.006 195.237 175.006 194.297C175.006 193.357 174.906 192.297 175.606 192.067C176.306 191.837 178.176 193.367 179.006 193.367C179.816 193.367 180.286 192.187 181.806 190.897C183.336 189.607 181.926 189.017 182.976 188.667C184.036 188.317 186.376 186.327 187.076 185.157C187.786 183.987 187.076 182.697 187.076 181.287C187.076 179.887 188.136 179.407 189.426 179.757C190.716 180.117 189.896 181.407 190.246 181.987C190.596 182.567 193.296 182.107 195.526 181.877C197.746 181.637 198.216 183.047 198.796 183.867C199.396 184.687 200.676 184.217 200.556 183.517C200.436 182.817 201.256 181.637 203.016 180.237C204.776 178.837 204.426 180.697 204.316 181.287C204.196 181.877 203.716 182.807 204.666 184.097C205.596 185.397 206.066 185.037 207.006 185.157C207.946 185.267 207.596 186.097 207.946 186.677C208.296 187.257 209.466 185.977 209.466 185.037C209.466 184.097 209.706 183.517 210.056 182.107C210.406 180.707 210.056 180.227 208.416 179.407C206.776 178.597 208.066 179.177 207.946 178.127C207.826 177.067 208.176 176.957 208.296 175.777C208.406 174.607 208.296 174.837 207.476 173.667C206.656 172.497 207.126 172.617 207.246 171.907C207.356 171.207 208.176 172.147 209.236 172.847C210.286 173.547 212.396 173.667 213.686 173.547C214.976 173.427 214.506 171.797 214.626 169.447C214.746 167.097 213.686 165.577 212.396 164.767C211.106 163.947 209.816 164.407 209.236 163.357C208.646 162.297 209.706 162.887 210.286 162.187C210.866 161.487 210.516 160.897 210.056 160.307C209.596 159.717 210.286 156.907 211.576 156.207C212.876 155.507 214.506 156.207 215.916 156.097C217.326 155.987 220.126 154.567 220.596 154.447C221.066 154.327 222.126 154.797 222.946 155.267C223.766 155.737 225.166 154.917 225.646 154.447C226.106 153.977 225.526 153.627 225.046 152.347C224.586 151.047 225.286 151.987 225.876 151.287C226.456 150.587 225.756 150.117 225.056 149.757C224.356 149.407 224.236 149.297 223.996 147.767C223.766 146.247 224.346 145.537 223.646 144.607C222.946 143.677 222.826 144.607 222.006 144.847C221.186 145.087 220.366 147.417 219.896 148.347C219.426 149.297 219.196 148.477 217.666 148.247C216.146 148.007 215.796 148.007 214.506 148.947C213.206 149.877 212.406 148.947 210.056 148.947C207.706 148.947 207.706 148.007 206.066 146.597C204.426 145.197 202.316 144.257 200.326 142.967C198.336 141.677 199.626 139.457 198.926 138.047C198.226 136.647 197.626 135.347 198.926 134.297C200.206 133.237 200.326 131.487 200.446 130.427C200.556 129.367 201.616 128.907 203.726 128.667C205.836 128.427 206.186 128.667 207.006 128.077C207.826 127.497 207.356 127.257 208.066 126.677C208.766 126.087 208.526 126.207 208.996 125.147C209.466 124.097 208.886 122.927 209.466 122.457C210.056 121.987 212.396 121.757 213.216 121.397C214.036 121.047 214.276 120.117 214.736 119.297C215.206 118.477 218.836 117.647 221.066 116.827C223.296 116.007 221.186 115.547 223.176 113.197C225.176 110.857 226.576 112.497 227.046 112.497C227.516 112.497 229.046 111.797 230.556 110.967C232.086 110.147 231.496 111.327 232.086 110.737C232.676 110.147 232.086 109.217 232.086 109.217C232.086 109.217 232.786 108.747 234.186 108.517C235.596 108.277 235.836 107.817 236.536 107.107C237.236 106.407 237.476 106.047 240.056 105.937C242.636 105.817 241.816 104.527 241.226 103.357C240.646 102.187 240.756 102.177 241.456 101.597C242.156 101.017 242.286 100.547 242.046 99.5967C241.806 98.6667 241.346 99.2567 240.166 99.3667C238.996 99.4867 238.416 100.067 236.766 99.3667C235.126 98.6667 234.546 99.7267 233.846 100.187C233.146 100.657 232.906 100.887 231.026 101.007C229.146 101.127 228.926 101.007 228.576 101.827C228.226 102.647 226.926 102.887 226.926 102.887C226.926 102.887 226.576 101.247 226.696 99.8367C226.806 98.4367 227.636 98.9067 228.566 98.7867C229.496 98.6667 231.966 99.1367 232.556 98.9067C233.136 98.6667 234.196 97.7267 234.076 96.4367C233.956 95.1467 233.496 96.2068 232.676 96.2068C231.856 96.2068 230.446 96.2067 230.916 95.1467C231.386 94.0967 230.096 94.3268 230.096 94.3268L229.276 93.5168C228.456 92.6868 230.096 92.6867 230.796 92.6867C231.496 92.6867 232.796 91.4067 233.496 90.3467C234.196 89.2867 233.026 89.5267 232.556 88.4667C232.086 87.4067 232.316 87.1867 232.206 86.3667C232.086 85.5467 231.266 85.1868 229.976 84.0168C228.686 82.8468 228.686 83.3167 227.976 82.9667C227.276 82.6167 226.696 83.0768 226.456 84.0168C226.216 84.9568 225.286 84.3667 224.586 83.3167C223.886 82.2567 224.236 77.9167 224.236 77.9167L224.466 76.3967L224.346 75.1167L223.946 74.6567C223.696 74.6367 223.246 74.3767 222.526 74.4267C221.326 74.5167 220.026 74.2468 219.596 73.8268C219.166 73.3968 217.696 73.3968 216.496 74.0768C215.296 74.7568 217.096 75.0267 218.046 75.2867C218.996 75.5467 218.746 75.9767 218.906 76.9167C219.076 77.8667 218.736 77.5167 218.656 78.4667C218.566 79.4067 217.446 79.3267 216.586 79.1567C215.726 78.9867 216.676 78.2968 216.586 77.3568C216.496 76.4168 215.896 76.3167 215.726 76.7567C215.474 77.3978 215.093 77.9799 214.606 78.4667C214.006 79.0667 213.316 78.6367 212.716 78.1267C212.116 77.6067 212.546 76.4867 212.546 75.8067C212.58 75.109 212.398 74.4177 212.026 73.8268C211.596 73.1368 211.946 72.8767 212.376 71.4967C212.806 70.1267 213.576 70.7268 214.256 70.2968C214.956 69.8668 214.256 69.6968 214.086 69.2668C213.916 68.8368 213.656 68.2367 213.656 67.4667C213.656 66.6867 213.756 65.8267 213.406 65.2267C213.056 64.6267 212.806 64.6268 212.286 63.3268C211.776 62.0468 212.026 62.4667 211.336 61.6967C210.646 60.9167 210.306 60.4967 209.796 61.0967C209.276 61.6967 209.016 62.2967 208.326 62.4667C207.636 62.6367 207.726 62.6368 207.036 62.9868C206.346 63.3368 206.866 63.4167 206.096 63.8467C205.309 64.2667 204.909 64.8101 204.896 65.4767C204.92 66.0958 204.8 66.7119 204.546 67.2767C204.286 67.7967 202.746 67.7967 201.876 67.3767C201.006 66.9567 201.276 66.5967 200.676 65.3967C200.076 64.1967 199.726 64.1967 198.776 63.1567C197.836 62.1267 197.676 61.6067 197.146 61.0967C196.636 60.5767 195.346 61.5267 195.256 61.8667C195.166 62.2067 195.516 62.3867 196.116 62.8967C196.716 63.4167 196.976 63.4167 197.146 63.8467C197.316 64.2767 197.146 65.0468 197.066 65.8268C196.966 66.5968 196.026 66.9467 196.026 66.9467C196.026 66.9467 194.486 65.8267 192.846 66.0867C191.216 66.3367 192.246 67.0267 192.246 67.0267C192.246 67.0267 192.246 67.1167 191.906 68.9267C191.566 70.7367 192.756 70.6367 193.186 71.1567C193.616 71.6767 192.756 72.4467 191.306 72.6167C189.639 72.7212 187.982 72.3016 186.566 71.4167C186.044 70.9581 185.724 70.3116 185.678 69.6183C185.631 68.9251 185.86 68.2414 186.316 67.7167C187.426 66.3367 186.916 66.8567 186.656 66.1667C186.396 65.4767 185.976 65.0467 185.796 63.5867C185.616 62.1267 186.396 63.0667 186.916 61.7867C187.426 60.4867 186.216 58.5968 185.616 57.8268C185.016 57.0468 184.246 55.5067 182.096 55.2467C179.946 54.9867 180.376 53.6967 179.176 51.9767C177.976 50.2567 178.576 50.6867 177.536 49.9967C176.506 49.3067 175.476 46.2167 175.646 44.8367C175.816 43.4667 175.046 43.4667 174.446 41.9167C173.846 40.3667 174.696 40.2767 173.926 39.2467C173.156 38.2167 172.986 37.0967 172.896 34.2567C172.806 31.4167 169.796 28.6667 169.196 27.3767C168.596 26.0767 167.556 25.7467 167.046 26.0867C166.526 26.4267 166.096 26.6868 164.036 27.2068C161.966 27.7168 160.426 26.2567 159.476 25.7467C158.536 25.2267 156.976 23.3367 155.266 22.5567C153.536 21.7867 150.446 23.8567 149.666 23.9367C148.896 24.0267 148.896 22.9967 148.376 21.8767C147.866 20.7567 146.926 21.0167 146.656 20.4967C146.406 19.9767 147.176 19.0368 147.606 19.2068C148.036 19.3768 148.906 18.9468 148.466 17.5768C148.036 16.1968 149.586 13.0967 149.586 13.0967C149.586 13.0967 150.876 12.8467 151.646 11.8067C152.426 10.7767 150.876 10.7767 150.876 10.7767C150.876 10.7767 148.556 10.9467 147.776 10.9467C147.006 10.9467 145.806 10.0867 145.806 9.66675C145.806 9.22675 146.486 8.62674 147.696 7.93674C148.906 7.24674 148.466 5.78674 148.386 5.09674C148.306 4.40674 147.176 4.23676 147.176 4.23676L145.626 3.80673C144.266 3.95673 142.156 3.42673 141.406 3.42673C140.586 3.42673 140.586 3.91675 138.946 3.91675C137.306 3.91675 138.776 2.92674 136.646 3.25674C134.506 3.58674 134.666 3.41673 133.676 3.58673C132.696 3.74673 129.896 3.91674 128.736 3.09674C127.666 2.32674 126.146 0.976727 126.506 0.676727V0.666748Z" fill="#D1DBDD" stroke="black"/>
</svg>
