<svg width="34" height="44" viewBox="0 0 34 44" fill="none" xmlns="http://www.w3.org/2000/svg">
<path d="M17.1024 0.527069H16.6324C14.1024 0.687069 12.6824 2.73708 11.5724 3.37708C10.4724 4.00708 7.47236 5.27707 5.57236 5.58707C3.67236 5.89707 1.61237 5.42706 1.77237 7.48706C1.93237 9.53706 4.14238 10.3271 4.46238 11.4371C4.76238 12.5371 4.77237 15.0771 3.83237 15.8671C2.87237 16.6571 1.30237 19.8171 1.45237 20.6071C1.61237 21.3971 2.72235 26.6071 1.93235 27.5571C1.13235 28.5071 0.662365 31.9871 0.512365 32.4571C0.352365 32.9371 1.77236 34.6771 3.19236 37.0471C3.90213 38.4923 4.56579 39.9597 5.18235 41.4471C5.38235 40.5271 6.09238 39.1571 8.52238 39.7271C12.1024 40.5671 10.8024 40.5471 12.7224 39.9471C16.9124 38.6671 15.8924 41.4071 17.5224 39.1071C18.5124 37.7171 20.1924 39.5671 23.1624 39.1671C24.1824 39.0271 23.6424 37.4471 25.0224 37.2071C27.0224 37.4671 26.6224 41.3271 30.2624 37.9371C30.7624 37.4871 29.7924 38.4071 30.2624 37.9371C30.2124 37.9071 32.9223 37.1071 31.7423 35.6771C31.4323 35.2971 33.3524 33.4771 32.8924 32.9171C32.5524 32.5171 30.3924 31.8371 29.9624 31.3171C29.5924 30.8671 29.3224 29.8271 28.8724 29.2871C28.2724 28.5571 29.5124 27.8371 28.7624 26.9271C28.6124 26.2971 28.6123 25.6871 28.6123 25.6871C28.6123 25.6871 30.8324 24.1071 29.7224 22.2071C28.6224 20.3071 27.1924 20.9471 26.8824 18.7371C26.5624 16.5171 28.1424 14.3071 28.1424 13.5171C28.1424 12.7171 25.1624 8.75708 25.1624 8.75708L21.6924 2.26709C21.6924 2.26709 19.4724 0.59709 17.1024 0.51709V0.527069Z" fill="#D1DBDD"/>
<path d="M30.2624 37.9371C26.6224 41.3271 27.0224 37.4671 25.0224 37.2071C23.6424 37.4471 24.1824 39.0271 23.1624 39.1671C20.1924 39.5671 18.5124 37.7171 17.5224 39.1071C15.8924 41.4071 16.9124 38.6671 12.7224 39.9471C10.8024 40.5471 12.1024 40.5671 8.52238 39.7271C6.09238 39.1571 5.38235 40.5271 5.18235 41.4471C4.56579 39.9597 3.90213 38.4923 3.19236 37.0471C1.77236 34.6771 0.352365 32.9371 0.512365 32.4571C0.662365 31.9871 1.13235 28.5071 1.93235 27.5571C2.72235 26.6071 1.61237 21.3971 1.45237 20.6071C1.30237 19.8171 2.87237 16.6571 3.83237 15.8671C4.77237 15.0771 4.76238 12.5371 4.46238 11.4371C4.14238 10.3271 1.93237 9.53706 1.77237 7.48706C1.61237 5.42706 3.67236 5.89707 5.57236 5.58707C7.47236 5.27707 10.4724 4.00708 11.5724 3.37708C12.6824 2.73708 14.1024 0.687069 16.6324 0.527069H17.1024V0.51709C19.4724 0.59709 21.6924 2.26709 21.6924 2.26709L25.1624 8.75708C25.1624 8.75708 28.1424 12.7171 28.1424 13.5171C28.1424 14.3071 26.5624 16.5171 26.8824 18.7371C27.1924 20.9471 28.6224 20.3071 29.7224 22.2071C30.8324 24.1071 28.6123 25.6871 28.6123 25.6871C28.6123 25.6871 28.6124 26.2971 28.7624 26.9271C29.5124 27.8371 28.2724 28.5571 28.8724 29.2871C29.3224 29.8271 29.5924 30.8671 29.9624 31.3171C30.3924 31.8371 32.5524 32.5171 32.8924 32.9171C33.3524 33.4771 31.4323 35.2971 31.7423 35.6771C32.9223 37.1071 30.2124 37.9071 30.2624 37.9371ZM30.2624 37.9371C29.7924 38.4071 30.7624 37.4871 30.2624 37.9371Z" stroke="black"/>
</svg>
