<svg width="122" height="118" viewBox="0 0 122 118" fill="none" xmlns="http://www.w3.org/2000/svg">
<path d="M38.6876 0.504311C37.6876 0.614311 37.6376 1.86434 36.7876 2.84434C36.7876 2.84434 35.6976 1.5443 35.0976 1.1843C34.4269 0.883762 33.6819 0.789748 32.9576 0.914284C33.2176 2.28428 33.2676 2.75434 34.3176 3.40434C33.7076 4.21434 33.6576 4.4843 33.6376 5.8643C32.9076 7.3943 31.8876 7.97429 31.6176 9.29429C31.6976 10.6043 32.2876 11.5943 31.4576 12.4743C30.5076 13.4943 30.2776 13.4243 28.9276 13.9243C28.4276 14.8243 28.3976 17.3743 28.3976 17.1343C28.7476 17.4643 27.2276 19.2143 24.4876 18.4943C24.1476 17.5443 24.0076 17.8343 22.7476 17.3243C22.1276 17.2043 20.9376 15.3743 20.3276 15.5543C18.9076 17.3943 19.1976 18.1143 17.6076 20.1543C17.1576 20.8343 16.7176 21.3343 16.1876 22.0143C15.2876 23.1343 16.3376 24.2643 16.7876 24.9843C17.4772 25.9397 18.3304 26.7658 19.3076 27.4243C19.4276 27.4243 19.8576 28.8643 19.8576 28.8443C20.0076 31.0743 19.9876 29.7643 19.4876 31.2443C18.7976 31.0243 17.4676 30.2843 16.8676 31.5843C17.8076 33.2643 15.2676 34.4843 14.3276 34.3843C12.4076 37.6043 13.9076 34.7543 12.7076 37.4543C12.6476 38.4143 11.4976 39.8543 9.95758 40.0543C9.03758 40.8243 8.75757 42.7543 7.97757 44.9943C8.24757 45.5343 10.3476 45.3443 9.43756 46.8643C10.1176 47.1743 10.0076 50.8943 9.93756 51.6943C11.6576 53.8243 10.9776 57.7943 11.1776 60.0943C11.1076 60.6943 9.24758 61.1243 9.32758 62.5943C8.38758 62.6643 6.78757 62.6343 6.38757 63.5243C6.17757 64.0043 5.45758 65.3043 5.42758 65.8543C4.21758 66.2343 6.69756 67.6443 7.34756 67.4943C10.6076 67.3943 9.12757 68.5143 11.1676 68.9143C13.4476 69.0143 13.1376 69.6143 13.2076 70.6143C12.7876 70.6343 13.0176 70.8743 12.6076 70.9743C11.9576 71.1543 11.9376 71.5143 11.4476 71.9143C10.4876 72.7043 9.74758 72.1843 9.07758 73.3543C7.72758 74.8343 7.06758 75.6143 5.32758 76.7343C5.21758 77.1843 4.00758 78.7843 4.04758 79.5043C4.07758 79.9043 5.10758 80.4743 5.48758 80.6043C7.84758 82.4643 5.40758 82.8543 5.32758 84.7643C5.30758 85.4043 6.72759 86.3043 6.52759 86.9043C2.70759 89.3343 5.52757 89.9943 5.50757 93.2343C5.15757 94.8543 5.35756 94.2143 5.71756 95.7843C4.81756 95.7143 3.14757 97.3343 2.91757 98.0343C1.96757 99.2043 0.917578 99.9843 0.517578 101.374C0.667578 101.974 1.88756 102.594 3.15756 102.964C3.97756 103.204 4.42756 103.764 5.65756 103.404C6.30756 103.214 7.88758 103.814 9.70758 103.964C9.76758 105.964 9.17757 106.344 7.56757 106.464C6.74757 107.634 6.71758 109.444 6.64758 110.884C6.58758 112.124 6.41756 113.724 6.46756 114.954C8.30756 115.664 9.25757 114.964 10.5076 114.964C11.7576 114.964 11.5376 114.104 12.3576 114.604C13.1676 115.104 12.6476 115.244 13.8376 115.744C15.0076 116.244 15.0876 116.104 16.0376 116.244C17.0076 116.394 16.9276 116.964 18.0376 115.964C19.1476 114.964 19.9576 114.604 20.0376 115.464C20.0976 116.324 20.7676 116.674 20.9876 116.324C21.2076 115.964 21.2176 116.024 21.8076 116.244C22.3976 116.464 22.4676 116.464 23.1276 115.884C23.7976 115.314 23.7176 115.524 24.7476 116.174C25.7976 116.814 26.2976 116.964 26.5976 116.314C26.8976 115.674 26.7376 115.534 27.8476 115.534C28.9576 115.534 29.7776 115.824 29.8476 114.664C29.9176 113.524 29.8476 113.384 29.4776 112.664C29.1176 111.964 29.1776 111.594 29.1776 111.594C29.1776 111.594 28.6776 110.974 29.8476 110.954C30.9576 110.934 31.0976 111.074 31.6976 111.174C32.5676 111.314 33.6876 110.744 33.9076 110.954C34.1276 111.174 34.4276 111.744 35.1676 111.094C35.8976 110.454 36.0476 109.874 36.7176 110.674C37.3776 111.454 37.9676 110.874 39.2276 110.594C40.7676 110.244 39.4476 111.174 41.4376 111.524C43.4376 111.884 44.0976 112.314 44.6876 111.884C45.2876 111.454 45.4276 110.664 45.4276 110.164C45.4276 109.664 44.8276 108.464 45.4276 108.964C46.0176 109.444 46.7576 110.304 47.7176 110.884C48.6776 111.464 48.1576 111.024 48.1576 110.024C48.1576 109.024 48.2576 107.804 48.0176 107.304C47.7876 106.804 47.8676 106.524 49.0476 105.944C50.2276 105.384 50.5276 104.514 51.4076 104.884C52.2976 105.234 53.3876 104.944 53.6176 105.584C53.8476 106.224 54.0576 106.804 54.9476 106.304C55.8376 105.804 56.4976 105.944 56.7176 105.164C56.9376 104.364 57.6176 104.454 57.1676 103.664C56.7176 102.874 57.6076 103.014 57.9776 102.224C58.3476 101.434 58.2076 100.724 58.1276 99.9243C58.0476 99.1443 58.1276 99.9243 58.6276 99.0043C59.1576 98.0743 59.0076 97.8543 59.2276 97.5743C59.4476 97.2943 59.3776 97.7143 59.8076 97.4243C60.2576 97.1443 59.8076 96.5743 60.7076 96.7843C61.5876 97.0043 61.6676 97.2843 62.4676 97.1443C63.2876 97.0043 63.8776 95.6543 64.4676 95.5743C65.0576 95.4943 65.2876 95.7843 66.0176 95.7843C66.7476 95.7843 68.1476 94.7143 68.4476 94.3543C68.7476 93.9943 68.9676 93.4243 69.3376 93.9943C69.7076 94.5643 70.0776 94.3543 70.3776 94.2743C71.0847 93.9019 71.7102 93.3919 72.2176 92.7743C72.7376 92.1343 73.4676 91.9943 73.5476 92.7043C73.6276 93.4143 74.2876 93.7743 75.0276 93.4943C75.7676 93.2143 76.2076 93.3443 76.2076 94.0643C76.2076 94.7743 76.4276 95.2743 77.1676 95.0643C77.8976 94.8443 78.4176 94.7043 78.7876 94.2743C79.1476 93.8343 79.4476 94.1343 80.0476 93.6343C80.6276 93.1243 81.3776 92.6343 81.5176 91.9843C81.6676 91.3443 81.5976 91.2743 81.8876 90.8443C82.1776 90.4143 82.5476 90.4143 82.0376 89.9143C81.5076 89.4143 81.3676 89.2643 81.5876 88.9143C81.8076 88.5543 82.4676 87.9843 81.5076 87.9143C80.5476 87.8443 79.7476 87.9843 79.7476 87.4143C79.7476 86.8443 80.4876 86.7743 80.6276 85.5543C80.7876 84.3343 81.5276 84.6943 81.5276 84.6943C81.5276 84.6943 83.4476 83.8443 83.9576 83.4743C84.4676 83.1243 85.1376 82.4043 85.1376 82.9743C85.1376 83.5443 85.7876 83.9043 85.8676 84.2643C85.9476 84.6243 85.8676 84.6243 86.6076 84.7643C87.3476 84.9043 87.7176 84.6143 87.7876 85.4843C87.8676 86.3343 88.3176 86.8543 88.6076 86.9843C88.9076 87.1143 88.3776 87.0543 89.4076 88.0543C90.0369 88.6691 90.7633 89.1759 91.5576 89.5543C91.5576 89.5543 91.5476 90.2843 92.1376 90.1343C92.7276 89.9843 92.5076 90.0543 93.0976 90.2743C93.6976 90.4843 93.3276 90.5643 94.3576 90.6343C95.3876 90.7043 95.8376 90.6343 96.0576 90.0543C96.2776 89.4843 96.0576 89.3443 96.2076 88.9143C96.3576 88.4843 95.6876 88.2743 95.6876 87.9843C95.6876 87.6943 95.9076 88.1943 95.8276 87.4143C95.7476 86.6243 95.9076 86.1243 94.9476 86.1243C94.1106 86.0899 93.2956 85.8458 92.5776 85.4143C92.1376 85.1243 92.5176 85.9843 91.7776 85.6243C91.0376 85.2643 90.8076 85.1243 90.1476 84.9843C89.4876 84.8443 89.9976 83.9043 90.2276 83.1943C90.4476 82.4743 89.3476 81.2643 90.0776 81.5443C90.8176 81.8343 91.9276 82.2643 91.9976 82.6143C92.0776 82.9743 92.3676 83.4743 93.0376 83.1143C93.6976 82.7643 93.9976 82.4143 94.1476 82.1143C94.2876 81.8343 94.1476 81.9043 94.3676 81.1843C94.5776 80.4743 95.1676 80.1843 95.1676 80.1843C95.1676 80.1843 95.5376 79.9743 96.4376 80.3243C97.3176 80.6943 97.9076 80.6943 97.9076 81.2643C97.9076 81.8343 98.1276 82.3243 98.6476 82.1243C99.1576 81.9043 99.0976 81.7543 99.8276 82.0443C100.558 82.3343 100.428 82.4743 101.228 82.4743C101.89 82.489 102.542 82.6352 103.148 82.9043C103.518 83.0443 104.188 83.4743 104.188 82.7643C104.188 82.0443 104.188 81.5343 103.818 81.1843C103.448 80.8343 103.368 80.6843 103.818 80.2643C104.258 79.8243 104.928 79.9043 105.138 79.4743C105.368 79.0443 105.438 78.1143 105.438 78.1143C105.438 78.1143 105.598 78.0443 106.108 78.3243C106.618 78.6043 107.358 78.8243 107.878 78.5443C108.388 78.2543 108.758 78.3243 109.428 78.4643C110.088 78.6143 110.528 78.1843 111.268 77.8943C112.008 77.6043 112.748 78.1143 112.898 77.3243C113.048 76.5343 112.298 76.2543 112.748 75.6043C113.198 74.9543 114.158 75.1043 114.738 75.0343C115.338 74.9643 116.298 73.8843 116.658 73.5343C117.028 73.1643 117.768 73.4643 118.658 73.4643C119.298 73.4643 119.778 73.6043 120.158 73.4643L119.188 72.7543L118.388 72.3243L117.018 71.3743L116.148 70.4443L114.848 69.8543H113.038L112.028 68.7043L111.668 67.9043C111.668 67.9043 110.798 67.4043 110.218 67.4743C109.638 67.5443 108.408 67.1043 108.408 67.1043L108.908 65.8043L109.568 64.7243L109.998 63.3443L112.318 63.4943L114.338 63.9243L115.138 63.4243L114.978 61.9243C114.328 61.6543 114.058 60.9743 113.298 60.7943C113.238 60.5943 112.998 60.0443 112.158 58.4543C112.158 56.9143 112.998 56.3943 112.328 55.3543C111.988 54.8143 110.818 54.3143 110.738 53.5943C110.678 53.0943 112.518 50.8343 112.108 50.3543C112.108 50.3143 109.488 50.5143 109.488 50.5143C108.628 50.3643 110.448 48.6543 109.488 48.3443C109.018 47.3443 105.018 51.5243 105.218 51.0443C104.118 50.8843 104.298 47.8243 104.898 48.0843C104.028 48.2543 107.838 46.7643 107.428 47.0243C106.848 47.4043 106.288 45.8243 106.288 45.8243C106.288 45.8243 106.748 47.5143 102.748 41.9743C101.648 40.0843 101.778 39.6143 100.158 38.1343C99.8876 37.2243 98.2476 36.7143 96.3276 36.3043C95.7876 36.2843 90.8276 36.2343 90.6776 35.3243C89.2776 34.6143 89.8076 35.0343 88.3876 33.9643C85.8775 33.9762 83.3682 33.8727 80.8676 33.6543C80.3176 32.2043 80.3676 32.2143 79.9376 31.0143C79.7176 30.3843 79.4876 27.8143 79.0876 27.3543C78.7476 26.9543 79.1876 24.9543 78.9076 24.5943C78.4276 23.4743 78.2076 23.1943 77.8476 22.4943C78.0276 21.0443 78.1376 19.9243 78.8076 18.4943C79.1176 17.5243 79.4276 15.5443 79.3576 14.4243C79.2876 13.2643 79.3976 13.0743 79.3676 12.1643C78.6576 11.4343 77.0876 9.88433 76.3476 8.89433C75.5476 7.78433 75.1676 7.9843 74.1676 7.4943C73.0676 7.7443 70.9776 8.49428 69.9776 8.53428C69.2576 9.18428 67.3176 9.52433 65.4176 9.58433L64.4976 9.23429C64.4976 9.23429 63.9676 8.81433 61.5276 7.83433C59.7276 6.46433 59.3676 8.88432 59.3676 8.88432C58.9576 9.38432 59.4176 10.0843 59.1576 10.9843C57.7776 10.9643 53.9576 9.39428 52.7076 8.28428C51.4576 7.60428 50.9276 7.66433 50.2476 7.46433C49.0476 7.23433 48.2876 6.61428 47.0276 6.53428C47.6976 5.09428 46.7576 3.20433 45.8576 1.90434C44.9376 1.84434 44.6476 1.52433 43.7176 1.52433C42.6876 1.52433 40.0476 0.684279 39.1776 0.534279C39.0128 0.503365 38.8448 0.493318 38.6776 0.504311H38.6876Z" fill="#D1DBDD" stroke="black"/>
</svg>
