<svg width="128" height="165" viewBox="0 0 128 165" fill="none" xmlns="http://www.w3.org/2000/svg">
<path d="M119.397 0.547546L119.557 1.00757C119.757 1.45757 119.087 1.66754 118.247 1.47754C117.407 1.28754 117.407 1.33757 117.207 2.50757C117.007 3.67757 117.667 3.55757 117.207 3.75757C116.377 4.04959 115.492 4.15542 114.617 4.06757C113.447 4.00757 114.227 4.78756 113.837 5.62756C113.447 6.46756 112.947 7.48757 111.777 7.94757C110.607 8.40757 110.897 9.10759 110.177 10.4076C109.477 11.7076 108.697 12.2276 107.537 12.0976C106.377 11.9676 106.687 10.8776 105.717 10.0276C104.747 9.17759 104.417 9.55756 103.377 9.62756C102.337 9.69756 101.777 9.77757 100.947 9.06757C100.097 8.34757 98.6468 9.5076 97.5468 10.0976C96.4368 10.6776 97.2968 11.3876 97.0968 11.9676C96.8968 12.5476 96.6468 12.6676 96.0668 13.2476C95.4868 13.8276 92.5668 15.5976 91.7868 15.5276C90.7459 15.4705 89.702 15.5039 88.6668 15.6276C87.3068 15.7476 87.0468 16.2576 86.1968 16.7776C85.3568 17.2976 83.4168 16.7776 80.1668 16.0576C76.9268 15.3476 77.4268 15.3376 76.3268 14.6276C75.2268 13.9076 75.9368 14.9576 75.5468 15.9976C75.1568 17.0376 73.8868 17.4876 73.1068 17.7476C72.3368 18.0076 72.2668 17.9976 72.2668 17.9976C72.2668 17.9976 72.8468 18.9276 73.3068 20.0276C73.7568 21.1276 72.9668 20.9076 72.5768 21.4976C72.1968 22.0776 72.2068 22.6576 71.5468 23.4376C70.9068 24.2076 71.1468 24.3076 71.0868 25.2076C71.0168 26.1176 70.9068 27.4276 70.6468 27.4276C70.3868 27.4276 69.5968 27.0376 69.2068 26.6476C68.8168 26.2576 67.7068 26.3176 67.7068 26.8376C67.7068 27.3576 67.8368 29.3676 67.8368 29.3676C67.8368 29.3676 66.8568 29.7476 66.1368 29.7476C65.4368 29.7476 64.4668 28.6476 64.2668 27.8676C64.0868 27.0876 62.3968 26.5675 61.6168 26.2375C60.8368 25.9075 59.1768 25.6475 58.5868 24.7375C58.4376 24.4721 58.3297 24.1855 58.2668 23.8876C57.2268 23.6876 55.7468 23.2975 55.1668 23.2275C54.3168 23.1275 53.2668 22.1676 51.1368 22.0576C49.0168 21.9576 48.2668 22.1576 47.9568 22.6976C47.6268 23.2276 47.8468 24.4976 46.5768 24.9276C45.2968 25.3476 45.1868 26.5176 44.2368 27.1576C43.2768 27.7876 43.3868 27.6876 42.1168 27.7876C40.8368 27.8876 39.7768 29.2876 39.7768 30.8676C39.7768 32.4676 40.9468 32.6675 41.2668 33.7375C41.4526 34.5085 41.3991 35.3177 41.1132 36.0574C40.8273 36.797 40.3228 37.432 39.6668 37.8776C37.9668 39.1476 36.8068 39.8976 36.9068 40.9576C37.0068 42.0176 38.3968 42.1276 41.1568 42.3376C43.9168 42.5476 44.9768 42.2376 45.0868 42.6576C45.1868 43.0776 44.3368 46.3676 43.5968 46.9076C42.8568 47.4276 42.4268 48.2776 42.4268 48.2776L41.2568 48.9175C40.3068 49.4475 39.6768 49.8776 38.6068 49.8776C37.5368 49.8776 37.1168 49.2376 36.2768 51.1476C35.4268 53.0476 34.9968 54.0176 34.4768 54.3376C33.9368 54.6476 32.7768 53.7975 31.0768 53.4875C29.3768 53.1675 25.2368 54.5476 24.5968 54.9676C23.9568 55.3976 23.1068 54.2275 22.2568 54.2275C21.4068 54.2275 18.6568 53.7976 17.5868 55.0776C16.5268 56.3476 16.4168 56.9775 16.1068 58.4775C15.7768 59.9575 16.8468 60.4876 15.1468 60.0676C13.4468 59.6376 10.2668 59.5375 9.8468 59.1075C9.4168 58.6875 6.9768 57.3076 6.1268 57.2076C5.2768 57.0876 4.5268 56.5576 3.9968 57.3076C3.4668 58.0476 3.35682 58.6876 2.39682 58.5776C1.48682 58.4776 1.1468 57.7776 0.466797 56.5776C0.935415 57.7975 1.05319 59.1242 0.806793 60.4076C0.706793 61.0676 0.196799 61.3275 0.906799 62.0475C1.6268 62.7675 1.47681 62.4476 1.85681 63.0676C2.24681 63.6776 3.72679 64.2676 3.77679 64.6276C3.82679 64.9876 4.49681 65.1976 4.97681 65.4976C5.47681 65.7976 6.89682 66.2976 7.20682 66.8776C7.50682 67.4776 7.02679 68.2176 7.30679 68.9576C7.58679 69.6976 9.17681 71.3075 9.66681 71.6675C10.1568 72.0275 11.4868 72.8975 11.7368 73.1075C11.9968 73.3075 12.3368 72.9176 12.5368 73.9676C12.7368 75.0176 13.0368 76.3776 12.7568 76.6876C12.4768 76.9876 11.7368 77.4475 11.4068 77.9875C11.0768 78.5275 10.9168 78.9176 11.1768 79.3976C11.4368 79.8876 11.7168 80.3976 12.3268 80.6776C12.9468 80.9576 15.5268 82.1576 16.3968 82.5176C17.2668 82.8776 17.7568 83.0576 17.9868 83.5676C18.2068 84.0876 18.6268 85.8476 18.3668 86.1576C17.827 86.7948 17.2164 87.3685 16.5468 87.8676C16.1168 88.0676 15.0168 88.4375 14.9668 88.9175C14.9168 89.3975 16.3168 91.1976 16.2968 92.0176C16.2768 92.8376 16.5168 94.3676 16.1968 95.3976C15.8568 96.4176 14.8368 97.0175 15.8068 98.5475C16.7868 100.088 17.6268 99.6675 18.0868 100.228C18.5468 100.798 18.8568 101.178 19.1068 101.328C19.3668 101.488 20.2368 101.608 20.9568 100.948C21.6768 100.278 24.3068 99.3376 24.9268 98.9276C25.5268 98.5176 26.0668 97.8776 26.7168 98.0876C27.3568 98.2876 28.2468 98.5676 28.8168 98.9476C29.3768 99.3376 30.1668 100.618 29.9568 100.898C29.7568 101.178 29.0368 102.198 28.6568 102.558C28.2768 102.918 27.0668 102.898 27.4768 103.898C27.8868 104.898 28.5768 105.838 28.7368 106.498C28.8968 107.158 28.6368 109.598 28.2768 110.498C27.9168 111.398 27.5268 112.308 27.7568 112.848C27.9868 113.388 28.3968 114.228 28.3268 114.488C28.2568 114.748 28.2268 115.928 27.5068 116.818C26.9298 117.488 26.4547 118.239 26.0968 119.048C25.9168 119.588 25.7668 120.888 26.1968 120.938C26.6268 120.988 27.4768 121.398 28.2468 120.448C29.0168 119.508 29.4268 119.118 29.8368 119.118C30.2368 119.118 31.7268 120.218 32.0868 120.778C32.4468 121.348 32.7268 121.378 32.7568 122.168C32.7768 122.968 33.1368 126.188 32.0568 126.968C30.9868 127.768 30.0168 128.258 29.7068 128.998C29.4068 129.738 28.9668 132.998 28.9068 133.918C28.8668 134.838 28.6268 135.518 27.6268 136.268C26.6268 137.018 25.9668 136.968 25.6868 137.878C25.4068 138.808 25.5868 139.978 26.1768 140.698C26.7568 141.418 27.7568 141.718 27.8368 142.718C27.9168 143.718 27.9968 145.428 27.2468 145.868C26.5068 146.298 26.0468 146.368 25.7468 147.098C25.4368 147.808 25.9468 148.528 26.3268 149.068C26.7168 149.608 27.7068 151.008 27.7068 151.778C27.6608 152.756 27.3497 153.703 26.8068 154.518C26.2468 155.338 25.0068 157.318 25.0068 157.838C25.0849 158.544 25.2881 159.232 25.6068 159.868C25.7368 159.938 27.4268 159.028 28.3068 160.228C29.1668 161.428 28.2768 162.478 30.0368 162.758C31.8068 163.038 32.5268 163.458 33.4368 163.598C34.3668 163.758 36.1068 164.248 36.6968 164.068C37.2868 163.888 41.0168 161.148 41.6868 160.868C42.3568 160.588 46.2168 158.128 47.1068 157.258C48.0068 156.388 52.1068 154.338 52.6068 154.338C53.1268 154.338 55.9868 154.208 56.4568 152.648C56.9168 151.088 56.9868 147.578 57.2668 146.868C57.5568 146.148 57.8068 140.388 57.7768 139.798C57.7568 139.208 59.4168 135.478 59.4168 135.478C59.4168 135.478 62.5468 132.948 63.4668 132.708C64.3868 132.488 66.4268 132.708 67.9168 132.638C69.4068 132.568 71.3768 131.408 72.5468 130.938C73.7268 130.488 78.5168 130.638 79.8468 130.458C81.1768 130.278 85.5068 130.098 85.9668 129.508C86.4268 128.918 87.4668 128.338 86.7768 127.338C86.0868 126.338 85.6368 124.628 83.8368 123.088C82.0468 121.548 81.2568 121.348 81.1468 120.688C81.0468 120.018 83.2468 113.518 84.0168 112.858C84.7868 112.198 86.8568 110.188 87.7768 109.218C88.7068 108.248 91.4868 105.458 91.5168 104.528C91.5468 103.608 90.6468 102.638 90.4668 102.028C90.2868 101.418 93.2368 96.7676 94.0968 96.7676C94.9668 96.7676 97.3768 96.3976 98.1768 96.7676C98.9668 97.1676 103.627 97.6476 104.597 97.5176C105.567 97.3876 111.177 96.0875 112.017 95.4175C112.867 94.7575 113.627 94.9875 112.527 93.5475C111.427 92.1075 111.227 89.0676 111.197 87.8476C111.197 87.4476 111.257 86.5476 111.317 85.5076C110.597 85.1876 109.557 82.9976 109.557 82.9976C108.547 83.4976 107.327 84.6176 106.597 83.5276C105.837 82.3876 107.307 81.4275 108.357 79.8575C109.567 78.0375 107.857 78.1576 109.317 78.1576C109.317 78.1576 110.657 79.6276 111.447 81.5576C111.417 80.6576 111.317 79.9376 111.097 79.6576C110.327 78.6776 109.977 75.2775 110.027 74.6675C110.077 74.0575 110.847 70.5376 110.537 69.6976C110.227 68.8576 109.717 66.2976 109.097 64.9376C108.487 63.5776 107.337 60.8676 107.497 60.4376C107.589 60.2356 107.703 60.0444 107.837 59.8676C106.813 59.5834 105.841 59.1378 104.957 58.5475C102.297 56.8475 103.507 56.8575 103.507 56.8575C103.507 56.8575 104.957 56.6176 105.207 54.6776C105.257 54.1976 105.427 53.9975 105.637 53.9775C106.287 53.9075 107.377 55.4076 107.377 55.4076C107.377 55.4076 107.947 55.2976 108.537 55.2876C108.197 54.6876 107.897 54.3676 107.797 54.0576C107.647 53.5976 107.767 50.5076 108.387 50.1176C108.997 49.7376 109.667 45.7176 109.817 45.3076C109.967 44.8976 110.537 41.2876 112.047 40.8076C113.547 40.3076 115.527 39.7076 116.147 38.8076C116.747 37.9076 119.087 34.7676 119.207 34.4276C119.327 34.0876 119.207 31.7176 118.807 31.3276C118.387 30.9476 116.547 28.8275 116.607 28.4175C116.667 28.0075 116.677 28.1876 117.977 27.6176C119.287 27.0576 123.207 24.2476 123.377 23.3476C123.557 22.4476 124.407 19.7676 124.407 19.7676C124.407 19.7676 127.147 16.6176 127.167 15.5376C127.197 14.4676 127.297 9.54755 127.147 9.11755C126.997 8.67755 126.817 5.4276 125.307 3.7876C123.787 2.1576 123.457 1.99759 122.207 1.33759C121.547 0.987585 120.427 0.717598 119.407 0.537598L119.397 0.547546ZM109.567 57.6476L109.537 57.7975C109.561 57.748 109.572 57.6927 109.567 57.6376V57.6476Z" fill="#D1DBDD" stroke="black"/>
</svg>
