<svg width="34" height="53" viewBox="0 0 34 53" fill="none" xmlns="http://www.w3.org/2000/svg">
<path d="M29.4584 26.7646L29.7684 25.4946C30.0884 24.2346 30.7184 24.8646 30.7184 23.1246C30.7184 21.3846 29.6184 20.4346 30.7184 20.9146C31.8184 21.3846 32.9284 19.6546 32.7784 18.5446C32.6184 17.4446 32.4584 17.2746 31.6784 16.3246C30.8784 15.3846 30.8784 13.3246 31.1984 12.0646C31.5084 10.7946 32.7784 11.2646 31.3484 9.68463C29.9284 8.10463 29.9284 10.0046 29.7684 6.68463C29.6084 3.36463 29.4584 4.47461 28.9784 3.04461C28.5084 1.62461 28.3484 -0.27538 27.3984 0.83462C26.4484 1.94462 23.4484 2.25461 22.8184 2.10461C22.1784 1.94461 21.5484 1.15461 20.9184 2.10461C20.2884 3.04461 21.2284 7.95462 21.0784 8.58462C20.9184 9.21462 17.5984 8.42462 17.5984 8.42462C17.5984 8.42462 15.8584 8.10462 15.3884 8.74462C14.9084 9.37462 12.8584 10.6446 12.8584 10.6446L11.4384 12.6946C11.4384 12.6946 8.43839 13.6446 7.47839 13.7946C6.53839 13.9546 4.94839 14.4246 4.47839 15.3846C4.00839 16.3246 2.25836 19.8046 2.25836 20.4346C2.25836 21.0746 3.0584 22.3346 2.1084 23.4346C1.1584 24.5446 0.368369 27.0746 0.518369 27.7146C0.688369 28.3446 0.51841 31.6646 0.99841 32.2946C1.47841 32.9246 3.99838 35.7746 4.15838 36.5646C4.31838 37.3546 6.05837 43.0446 5.89837 43.8346C5.74837 44.6346 6.84839 48.4146 6.84839 48.4146C6.84839 48.4146 10.0084 48.5746 10.0084 47.9446V44.3046C10.0084 44.3046 11.7484 45.1046 12.2284 46.0446C12.6984 46.9946 12.8584 50.6346 13.6484 50.9446C14.4384 51.2546 18.2284 52.2146 19.0184 51.7446C19.8184 51.2646 21.5484 48.1046 21.7184 47.3146C21.8684 46.5146 21.5484 42.4146 21.0784 41.3146C20.5984 40.1946 18.8684 39.8846 20.2784 38.6146C21.7084 37.3546 22.6584 36.5646 23.1284 35.4546C23.6084 34.3546 24.7084 28.8146 24.7084 28.8146C24.7084 28.8146 25.0284 27.2346 26.2984 27.3946C27.5584 27.5546 29.4584 26.7646 29.4584 26.7646Z" fill="#D1DBDD" stroke="black"/>
</svg>
