<svg width="212" height="201" viewBox="0 0 212 201" fill="none" xmlns="http://www.w3.org/2000/svg">
<path d="M12.3621 0.672852L11.9521 0.972839C11.0921 1.47284 8.42209 3.28285 7.05209 5.01285C5.67209 6.73285 4.8121 7.41285 4.3821 9.14285C3.9521 10.8529 4.2121 10.4229 2.7521 13.6129C1.2821 16.7929 1.11211 16.8829 1.20211 17.7429C1.29211 18.6029 0.162106 22.9028 0.602106 24.5428C1.03211 26.1628 1.46211 25.4829 1.89211 27.8029C2.32211 30.1229 1.8021 30.3028 2.0621 31.7528C2.3221 33.2228 3.09212 33.1328 2.83212 34.8528C2.57212 36.5728 3.09209 37.3528 3.18209 38.0328C3.26209 38.7328 3.18211 43.2829 3.35211 43.8929C3.52211 44.4929 4.2121 44.6629 4.4721 45.1729C4.55877 45.3529 4.55211 45.5028 4.45211 45.6228L4.5021 45.6328L5.08212 46.3329C5.08212 46.3329 5.20211 46.6128 5.26211 46.8528C5.32211 47.0928 5.7821 48.1829 5.7821 48.1829C5.7821 48.1829 5.9521 48.8228 5.7221 49.1028C5.4921 49.4028 5.54211 49.7429 5.54211 49.7429C5.54211 49.7429 6.3021 50.0928 6.5921 50.4428C6.8821 50.7928 7.11209 51.7728 7.05209 52.0028C6.99209 52.2328 7.8121 52.6428 8.0921 53.2228C8.3721 53.8028 8.21212 53.6829 8.61212 54.4329C9.01212 55.1929 9.4821 55.1328 9.9421 55.7628C10.4021 56.3928 11.1021 57.1028 10.9921 57.7928L10.7321 59.1729C10.7948 59.4205 10.8889 59.6591 11.0121 59.8828C11.4321 60.6628 11.5121 60.6628 12.2121 61.5128C12.8921 62.3728 12.2121 62.6329 11.8721 63.1529C11.5321 63.6729 11.6021 64.0129 11.7821 65.0529C11.9521 66.0829 10.9221 66.0829 11.0121 67.4529C11.0921 68.8329 12.2121 70.2029 12.6421 70.8929C13.0721 71.5829 12.4721 72.6928 12.2121 73.0428C11.9521 73.3928 11.1821 73.3829 10.0621 73.6429C8.9421 73.9029 9.6321 73.9028 9.3721 74.5928C9.1121 75.2828 8.9421 75.7929 8.3421 76.3929C7.7421 76.9929 7.8221 76.3928 6.6221 77.2628C5.4221 78.1128 7.0521 78.4629 7.5621 79.1529C8.0821 79.8429 7.82211 79.8428 7.73211 80.6928C7.70211 81.0328 7.61211 81.1228 7.45211 81.1028L7.85211 81.5628L7.95211 82.8428L7.73211 84.3728C7.73211 84.3728 7.38212 88.7028 8.08212 89.7628C8.78212 90.8228 9.72209 91.4029 9.96209 90.4629C10.2021 89.5229 10.7721 89.0628 11.4821 89.4128C12.1821 89.7628 12.1821 89.2929 13.4721 90.4629C14.7621 91.6329 15.5821 91.9929 15.7021 92.8029C15.8121 93.6229 15.5821 93.8628 16.0521 94.9128C16.5221 95.9728 17.6921 95.7428 16.9921 96.7928C16.2921 97.8528 14.9921 99.1328 14.2921 99.1328C13.5921 99.1328 11.9521 99.1329 12.7721 99.9529L13.5921 100.773C13.5921 100.773 14.8821 100.543 14.4121 101.593C13.9421 102.653 15.3521 102.653 16.1721 102.653C16.9921 102.653 17.4521 101.593 17.5721 102.883C17.6821 104.183 16.6321 105.113 16.0521 105.353C15.4621 105.583 13.0021 105.113 12.0621 105.233C11.1321 105.343 10.3021 104.873 10.1921 106.283C10.1384 107.305 10.2157 108.33 10.4221 109.333C10.4221 109.333 11.7121 109.093 12.0621 108.273C12.4121 107.453 12.6521 107.573 14.5221 107.453C16.3921 107.333 16.6321 107.103 17.3421 106.633C18.0421 106.173 18.6221 105.113 20.2721 105.813C21.9121 106.513 22.5021 105.933 23.6721 105.813C24.8421 105.693 25.3121 105.113 25.5421 106.053C25.7721 106.993 25.6621 107.453 24.9521 108.043C24.2521 108.623 24.1421 108.623 24.7221 109.803L24.8921 110.153L25.2121 110.163C26.7821 110.163 28.4921 109.193 30.8121 109.043C33.1321 108.893 32.9021 107.923 34.5421 106.733C36.1921 105.533 36.9321 106.353 38.4221 107.033C39.9221 107.703 40.2221 108.373 41.0421 108.523C41.8621 108.673 41.4121 107.853 43.2821 107.553C45.1421 107.253 45.1421 108.223 46.1121 108.673C47.0821 109.123 47.0121 109.723 47.9121 109.943C48.8121 110.173 50.8121 111.363 52.5321 112.553C54.2521 113.753 53.6521 115.023 54.1021 116.133C54.5521 117.253 55.2221 117.783 56.3421 120.093C57.4621 122.403 56.2621 122.933 55.6721 123.973C55.0721 125.023 54.1721 124.423 53.5721 125.773C52.9821 127.113 51.6421 128.233 51.7921 129.203C51.9421 130.173 52.4621 130.403 52.5321 131.443C52.6121 132.483 51.3321 133.013 50.8221 134.053C50.2921 135.103 49.7721 135.693 49.8421 136.593C49.9121 137.493 49.9221 137.633 49.9221 138.233C49.9221 138.833 48.8021 138.683 48.1321 138.833C47.4621 138.983 46.7121 139.053 46.0321 140.633C45.3621 142.193 47.0821 141.673 47.6021 142.563C48.1321 143.463 47.1621 143.833 46.7021 144.503C46.2621 145.173 43.2021 146.373 42.2321 146.673C41.2621 146.973 39.6921 146.303 38.8021 146.073C37.9121 145.843 36.4021 147.273 35.7421 148.543C35.0621 149.813 34.4621 151.443 33.8721 152.573C33.2721 153.683 34.3221 156.373 34.7721 157.043C35.2121 157.723 35.4421 158.013 35.1421 158.763C34.8421 159.513 35.0621 159.883 35.0621 161.523C35.0621 163.173 34.2421 163.463 33.6421 164.283C32.8909 165.233 31.9556 166.022 30.8921 166.603C30.1421 166.903 29.0921 167.353 29.0921 168.173C29.0921 168.993 29.5421 168.923 29.9921 169.813C30.4321 170.713 29.9921 170.263 30.4421 172.423C30.8821 174.593 31.2621 173.023 31.8521 173.843C32.4521 174.663 31.8521 174.963 30.9521 177.053C30.0621 179.153 35.1421 182.953 35.1421 183.923C35.1421 184.893 35.3621 187.423 35.8821 187.503C36.4121 187.583 37.6821 185.263 37.9021 184.663C38.1221 184.063 39.3221 183.403 39.9921 183.553C40.6621 183.703 41.3321 184.753 42.3021 186.313C43.2821 187.883 44.9221 189.003 44.9221 189.003C44.9221 189.003 45.8921 188.403 46.7121 188.623C47.5321 188.853 48.7321 190.423 48.7321 190.423C48.7321 190.423 49.6921 188.853 49.7721 188.323C49.8421 187.803 51.1121 186.093 51.3421 185.123C51.5721 184.153 52.4621 182.433 51.7921 181.613C51.1221 180.793 51.5621 179.593 51.5621 178.173C51.5621 176.753 50.1421 176.013 49.9221 176.373C49.6921 176.753 48.2821 176.533 47.8221 176.153C47.3821 175.783 46.7121 172.953 47.0821 172.053C47.4521 171.153 47.3821 171.083 47.1621 170.483C46.9321 169.883 45.2221 168.323 44.3221 167.503C43.4221 166.683 43.8721 165.033 44.0221 164.213C44.1721 163.393 44.2521 162.123 44.2521 162.123C44.2521 162.123 42.8321 160.623 41.7821 159.803C40.7421 158.983 39.0921 158.763 38.7221 158.393C38.3521 158.013 39.2521 157.043 39.8421 156.003C40.4421 154.953 41.1821 155.553 41.5621 155.103C41.9321 154.663 42.0121 153.843 42.6021 152.943C43.1921 152.043 43.3521 152.563 44.2521 153.913C45.1521 155.253 45.5921 155.183 46.8621 155.183C48.1321 155.183 48.3621 153.463 48.2021 152.873C48.0421 152.283 47.9021 151.603 48.5821 151.303C49.2621 151.003 49.7821 151.373 49.7021 150.103C49.6221 148.833 50.1421 148.903 50.8221 148.603C51.4921 148.303 51.7921 150.253 52.3121 150.773C52.8321 151.303 52.6121 151.153 52.8321 152.193C53.0621 153.243 52.1621 152.713 50.5221 153.093C48.8721 153.463 49.4721 155.253 49.7721 155.773C50.0721 156.303 50.3721 156.523 50.7421 157.573C51.1121 158.613 50.3721 158.393 49.9221 158.913C49.4721 159.433 50.2221 159.883 50.8921 159.733C51.5621 159.583 52.9821 158.393 53.6521 157.643C54.3221 156.893 54.8521 158.983 55.4521 160.553C56.0521 162.123 56.1121 161.603 57.1621 161.223C58.2121 160.853 57.6121 161.673 57.7621 162.273C57.9121 162.873 58.3621 162.873 58.6621 162.423C58.9621 161.973 58.8021 161.003 59.6221 161.303C60.4521 161.603 62.2421 161.083 61.8621 160.483C61.4821 159.883 61.7921 159.583 62.8321 158.983C63.8821 158.393 63.8821 158.683 64.3321 157.793C64.7821 156.893 66.1321 157.723 67.6121 158.693C69.1121 159.663 67.0921 159.893 66.4121 160.403C65.7421 160.933 64.9221 160.703 64.8521 162.503C64.7721 164.293 66.1921 164.363 66.1921 164.363C66.1921 164.363 66.6421 163.393 67.3121 163.323C67.9821 163.253 67.7621 163.763 68.6621 163.173C69.5621 162.573 69.6321 161.973 69.6321 161.973C69.6321 161.973 69.9321 160.703 71.1921 161.373C72.4621 162.053 72.4621 162.273 73.9621 162.493C75.4621 162.713 78.5921 162.793 78.9621 162.123C79.3321 161.453 78.8121 159.063 78.8921 158.023C78.9721 156.983 80.5321 157.793 81.3521 157.643C82.1721 157.493 82.9921 156.523 82.8421 155.923C82.6921 155.323 83.7421 154.433 85.3821 154.283C87.0221 154.133 86.3521 154.663 87.3221 154.733C88.2921 154.803 87.7721 154.433 87.8421 153.763C87.9121 153.093 89.1121 153.093 89.8621 153.383C90.6121 153.673 90.4621 154.433 91.3621 155.553C92.2521 156.673 93.2921 159.953 92.9221 161.523C92.5421 163.093 91.6521 162.643 91.2721 164.223C90.9021 165.783 92.4721 165.333 94.4121 164.443C96.3521 163.553 95.4621 164.513 96.2121 165.483C96.9521 166.453 97.9921 165.483 97.9921 165.113C97.9921 164.743 97.9221 164.443 98.1521 163.993C98.3721 163.543 98.5921 163.463 98.5221 162.943C98.4521 162.423 99.1921 162.423 100.762 162.043C102.332 161.673 101.212 162.873 101.432 163.993C101.652 165.113 102.482 164.663 103.602 164.513C104.722 164.363 103.602 163.843 103.142 162.873C102.702 161.903 103.522 161.673 104.192 161.453C104.862 161.223 105.392 161.303 106.062 160.633C106.732 159.963 107.402 160.253 107.402 160.253C107.402 160.253 107.852 161.003 108.152 161.303C108.452 161.603 107.702 162.643 107.332 163.623C106.952 164.583 106.582 164.523 106.432 165.623C106.282 166.753 107.482 167.723 108.602 167.723C109.722 167.723 111.882 167.423 113.452 167.873C114.991 168.289 116.613 168.289 118.152 167.873C119.352 167.493 118.682 166.753 118.152 165.933C117.632 165.103 117.712 165.183 118.152 164.513C118.602 163.843 119.202 164.063 118.902 163.313C118.602 162.573 118.752 161.823 119.502 160.853C120.242 159.883 120.992 161.003 122.032 161.753C123.082 162.493 124.872 161.823 125.402 161.523C125.922 161.223 126.002 160.623 127.402 160.323C128.832 160.023 127.332 161.823 127.262 162.273C127.192 162.723 127.332 163.773 128.532 163.773C129.732 163.773 129.732 163.613 131.142 164.583C132.562 165.563 132.342 166.003 134.282 166.153C136.222 166.303 136.142 166.603 137.942 168.553C139.732 170.483 139.582 169.593 140.172 170.333C140.772 171.083 141.292 170.633 143.172 170.633C145.032 170.633 144.512 171.153 145.922 173.543C147.342 175.933 146.222 174.743 147.342 175.113C148.462 175.483 148.992 176.753 150.102 177.503C151.232 178.253 151.072 177.203 151.072 176.383C151.072 175.563 151.002 174.663 152.192 174.063C153.382 173.463 153.542 174.893 154.892 175.713C156.222 176.533 156.452 175.263 156.822 174.593C157.202 173.923 157.722 174.593 159.362 175.643C161.002 176.683 161.752 176.833 161.682 177.203C161.612 177.573 159.882 178.173 159.742 178.923C159.582 179.673 160.482 179.673 160.042 180.193C159.582 180.713 159.292 182.133 159.662 182.653C160.032 183.173 159.662 183.993 159.662 185.633C159.662 187.283 160.332 186.983 161.532 187.063C162.338 187.079 163.139 187.203 163.912 187.433C164.212 187.583 163.842 187.803 162.802 188.403C161.752 189.003 161.302 189.073 160.332 189.443C159.362 189.823 159.962 190.793 159.362 191.613C158.762 192.433 159.142 194.813 159.592 195.563C160.032 196.313 161.012 196.833 161.902 197.583C162.792 198.333 162.872 198.853 163.992 198.853C165.112 198.853 165.262 199.003 165.782 199.753C166.302 200.493 166.162 199.823 167.352 199.973C168.552 200.123 170.782 199.903 172.432 200.123C174.072 200.343 175.192 199.303 175.112 198.253C175.042 197.213 174.142 197.733 173.702 196.983C173.252 196.243 177.582 193.553 178.022 193.253C178.462 192.953 178.102 191.983 177.952 189.593C177.802 187.213 178.852 185.943 179.372 185.043C179.892 184.143 179.292 181.683 179.372 180.263C179.452 178.843 180.192 179.293 181.312 178.403C182.432 177.513 181.162 175.483 180.492 174.593C178.956 172.393 177.56 170.098 176.312 167.723C175.112 165.333 176.312 162.273 176.162 160.853C176.012 159.433 176.832 159.353 177.802 158.613C178.772 157.873 178.772 157.193 179.142 156.083C179.522 154.953 181.092 155.333 182.132 154.663C183.182 153.983 182.952 151.673 183.032 150.263C183.102 148.833 183.932 149.283 184.672 149.433C185.412 149.583 186.832 150.183 187.882 149.433C188.932 148.683 188.252 148.463 189.002 146.893C189.742 145.323 190.942 144.433 191.612 142.343C192.282 140.243 195.492 139.873 196.092 140.023C196.692 140.173 198.192 140.623 199.002 140.323C199.832 140.023 206.322 140.553 208.262 140.923C210.202 141.303 209.902 139.873 210.422 138.983C210.952 138.083 209.682 136.963 208.562 136.963C207.442 136.963 204.682 135.393 203.562 134.583C202.442 133.753 200.422 132.043 198.632 131.673C196.832 131.293 196.532 130.993 194.822 129.573C193.112 128.153 191.322 126.143 191.162 125.393C191.012 124.643 191.692 125.093 193.032 125.093C194.372 125.093 195.572 124.493 196.172 123.593C196.772 122.703 196.012 119.793 195.052 118.893C194.082 118.003 191.612 117.923 190.352 116.953C189.072 115.993 189.672 115.463 191.162 114.943C192.652 114.423 193.332 112.843 193.702 112.403C194.082 111.953 194.752 111.433 196.542 112.103C198.332 112.783 198.552 112.553 200.042 111.883C201.532 111.213 200.642 109.943 200.122 109.493C199.547 108.9 199.113 108.186 198.852 107.403C198.632 106.733 198.032 107.033 197.352 105.833C196.672 104.633 197.062 104.493 195.952 102.773C194.822 101.053 193.252 102.173 190.942 101.353C188.632 100.533 188.702 96.8729 188.842 95.0829C188.885 93.5464 188.389 92.0433 187.442 90.8329C186.982 90.4529 186.092 90.9029 185.122 91.0529C184.152 91.2029 183.252 90.2328 182.882 89.8528C182.882 89.8528 180.342 89.0329 178.692 88.7429C177.062 88.4429 174.442 89.4128 173.992 90.1628C173.552 90.9028 173.022 92.2528 171.602 92.7628C170.182 93.2928 169.962 91.5028 168.542 90.3828C167.122 89.2628 160.182 89.4828 159.212 89.4128C158.242 89.3328 157.122 84.4828 156.902 83.8828C156.682 83.2828 154.132 82.8428 153.312 82.9828C152.492 83.1428 149.812 83.3728 148.012 83.4428C146.212 83.5128 145.332 80.7429 143.392 79.5529C141.452 78.3629 135.252 77.0229 133.532 77.2429C131.941 77.522 130.302 77.3129 128.832 76.6429C127.562 75.9729 127.412 74.9328 126.362 74.0428C125.322 73.1428 123.982 73.3628 122.862 71.8728C122.032 70.8503 121.305 69.7483 120.692 68.5829C120.319 67.7629 119.499 67.3162 118.232 67.2429C116.962 67.1629 116.362 66.4229 115.622 65.8929C114.872 65.3729 108.972 60.5229 108.972 60.5229L103.742 59.4728C101.442 59.0228 100.542 58.2029 99.8621 57.4629C99.1921 56.7129 96.5821 53.3528 95.3821 52.3128C94.1921 51.2628 93.2921 51.9328 93.1421 52.5328C92.9921 53.1328 91.3521 54.9929 90.9821 54.9229C90.6021 54.8429 87.5421 53.0528 86.5821 52.5328C84.831 51.3001 83.1391 49.9853 81.5121 48.5928C81.6821 49.3528 81.6521 50.1429 80.7621 50.1429C79.0421 50.1429 79.7821 50.8728 80.2621 52.1028C80.7621 53.3328 78.5521 52.8428 77.8121 52.8428C77.0821 52.8428 74.8721 51.3729 74.8721 49.6429C74.8721 47.9329 73.8821 47.6829 73.8821 47.6829L72.1621 49.8929C72.1621 49.8929 67.9821 50.3929 64.5421 49.1529C61.1021 47.9329 63.5621 47.4329 63.5621 46.4529C63.5621 45.4729 62.8321 45.2229 62.5821 46.2029C62.3421 47.1929 60.3721 45.9628 58.4021 45.2228C57.6371 44.9138 56.9646 44.4129 56.4497 43.7682C55.9347 43.1236 55.5946 42.3572 55.4621 41.5428C55.2121 40.3128 54.2321 40.0728 53.0021 40.0728C51.7721 40.0728 51.7721 39.8228 51.7721 39.8228L47.3521 40.0728C47.3521 40.0728 47.3521 38.8329 49.3121 37.3629C51.2821 35.8929 49.3121 36.3828 47.5921 36.1328C45.8721 35.8928 45.8721 32.2029 45.8721 32.2029C45.8721 32.2029 47.5921 31.2228 49.3121 31.2228C51.0321 31.2228 49.0721 30.2429 49.0721 30.2429L45.8721 29.5028V27.0428C45.8721 25.3228 45.1421 26.0628 43.6721 27.2928C42.2021 28.5228 41.9421 27.2928 41.9421 27.2928C41.9421 27.2928 40.4721 27.2928 38.5021 27.0428C36.5421 26.8028 38.2621 24.5928 38.7521 23.6028C39.2421 22.6128 38.0121 22.1328 38.0121 22.1328C38.0121 22.1328 36.0521 18.9328 34.8121 18.6928C34.0201 18.5182 33.2717 18.1849 32.6121 17.7129L32.1121 15.7429C32.1121 15.7429 30.3921 15.5029 30.3921 15.9929C30.3921 16.4829 30.6421 20.4129 30.6421 21.1529C30.6421 21.8829 29.1721 22.1328 29.1721 22.1328L27.4521 25.0829L24.9921 24.0928C24.9921 24.0928 24.5021 20.9028 23.2721 20.6628C22.0421 20.4228 22.0421 22.1328 20.0721 22.6228C18.1121 23.1228 18.3621 22.3829 18.3621 21.1529C18.3621 19.9229 19.1021 18.2028 19.1021 16.7328V13.2928L19.5921 9.35284L20.5721 7.39285L20.8221 4.93286H19.3421L17.3821 2.73285H14.1821L12.3621 0.672852ZM1.83212 79.9728L1.77209 79.9828H2.20211H1.83212V79.9728ZM2.30209 82.4629C2.30209 82.5562 2.31212 82.6528 2.33212 82.7528C2.32545 82.6528 2.31211 82.5562 2.29211 82.4629H2.30209Z" fill="#D1DBDD" stroke="black"/>
</svg>
