<svg width="98" height="87" viewBox="0 0 98 87" fill="none" xmlns="http://www.w3.org/2000/svg">
<path d="M43.6364 0.507187C42.4664 0.467187 41.3564 0.607193 41.3564 0.607193C41.3564 0.607193 39.1464 2.80719 38.8964 4.03719C38.6564 5.27719 39.6364 7.2372 38.4064 6.9872C37.7865 6.76712 37.2008 6.46077 36.6664 6.07719C36.6017 6.20586 36.5034 6.31466 36.3819 6.39211C36.2605 6.46955 36.1204 6.51277 35.9764 6.5172C34.2787 6.67273 32.5826 6.20336 31.2064 5.19719C30.0564 4.37719 29.5564 4.37719 28.4064 5.85719C27.2564 7.33719 27.2564 5.52721 27.2564 5.52721C27.2564 5.52721 25.2864 3.72719 24.4564 2.72719C23.6364 1.74719 23.1464 2.07721 22.4864 3.55721C21.8264 5.03721 20.6764 3.55719 18.8664 4.53719C17.0564 5.53719 17.2164 5.19721 16.0664 6.18721C15.1331 6.95811 14.0789 7.56966 12.9464 7.99721C12.1164 8.32721 11.1264 9.15719 9.81641 10.1372C8.49641 11.1372 8.33643 11.7772 8.49643 12.6072C8.66643 13.4272 9.4964 15.5672 9.1564 16.3872C8.8264 17.2172 5.8664 18.0372 5.3764 18.8572C4.8764 19.6772 6.03642 20.9972 7.01642 22.1472C8.00642 23.2972 7.67641 25.4472 8.00641 27.2472C8.33641 29.0572 6.68643 28.8972 4.55643 29.7172C2.40643 30.5372 3.0664 29.8772 2.4064 30.5372C2.23116 30.7036 2.01302 30.8179 1.77643 30.8672L1.30643 31.8072L0.566406 34.0072L2.53641 36.2272H5.73642L7.69641 38.4372H9.16641L8.92642 40.8972L7.94641 42.8672L7.44641 46.7872V50.2272C7.44641 51.7072 6.71643 53.4272 6.71643 54.6472C6.71643 55.8872 6.46643 56.6172 8.43643 56.1272C10.3964 55.6272 10.3964 53.9272 11.6364 54.1572C12.8564 54.4072 13.3464 57.6072 13.3464 57.6072L15.8064 58.5872L17.5264 55.6372C17.5264 55.6372 18.9964 55.3872 18.9964 54.6572C18.9964 53.9172 18.7464 49.9872 18.7464 49.4972C18.7464 49.0072 20.4664 49.2472 20.4664 49.2472L20.9664 51.2172C20.9664 51.2172 21.9464 51.9572 23.1664 52.1972C24.4064 52.4472 26.3664 55.6372 26.3664 55.6372C26.3664 55.6372 27.5964 56.1372 27.1064 57.1072C26.6064 58.0972 24.8964 60.3072 26.8564 60.5472C28.8264 60.7972 30.2964 60.7972 30.2964 60.7972C30.2964 60.7972 30.5464 62.0272 32.0164 60.7972C33.4864 59.5672 34.2264 58.8272 34.2264 60.5472V63.0172L37.4264 63.7572C37.4264 63.7572 39.3864 64.7372 37.6664 64.7372C35.9464 64.7372 34.2264 65.7172 34.2264 65.7172C34.2264 65.7172 34.2264 69.4072 35.9464 69.6572C37.6664 69.8972 39.6364 69.4072 37.6664 70.8772C35.7064 72.3472 35.7064 73.5772 35.7064 73.5772L40.1264 73.3372C40.1264 73.3372 40.1264 73.5872 41.3564 73.5872C42.5864 73.5872 43.5564 73.8272 43.8064 75.0572C43.9398 75.8726 44.2814 76.6398 44.7982 77.2845C45.3151 77.9292 45.9895 78.4296 46.7564 78.7372C48.7164 79.4772 50.6964 80.7072 50.9364 79.7272C51.1764 78.7472 51.9164 78.9872 51.9164 79.9672C51.9164 80.9472 49.4664 81.4472 52.9064 82.6672C56.3364 83.8972 60.5164 83.4072 60.5164 83.4072L62.2364 81.1972C62.2364 81.1972 63.2164 81.4472 63.2164 83.1572C63.2164 84.8672 65.4364 86.3572 66.1664 86.3572C66.9064 86.3572 69.1164 86.8572 68.6264 85.6172C68.1264 84.3872 67.3964 83.6572 69.1164 83.6572C70.8364 83.6572 69.3564 80.7072 69.3564 80.7072L72.3064 79.7272L74.0264 76.2872L75.0164 72.1072C75.0164 72.1072 77.2164 69.1572 76.4864 68.1772C75.7564 67.1972 74.7664 67.4372 74.7664 65.7172C74.7664 63.9972 75.0164 63.7572 76.2364 62.5172C77.4664 61.2972 78.4564 57.8572 78.4564 56.3872C78.4564 54.9072 78.6964 54.6672 80.1764 53.9272C81.6464 53.1872 83.1164 52.4572 83.3764 51.4772C83.6164 50.4872 83.3764 48.7772 83.3764 48.7772H87.0464C87.0464 48.7772 89.7464 44.5872 91.2264 43.3672C92.6964 42.1372 88.2864 42.1372 91.9664 42.1372C95.6464 42.1372 97.1264 41.6372 96.8664 40.4172C96.6264 39.1872 96.1364 36.4872 96.1364 36.4872L90.7364 35.7472C90.7364 35.7472 89.0164 34.7672 88.5264 33.2972C88.0264 31.8172 87.5364 30.5972 86.0664 30.5972C84.5964 30.5972 81.3964 30.3472 81.3964 30.3472C81.3964 30.3472 78.6964 30.0972 77.4664 29.1172C76.2364 28.1372 75.0164 28.1372 75.0164 28.1372L74.5164 23.9472L72.8064 21.0072L69.3664 19.7772C69.3664 19.7772 66.6664 18.5472 65.4364 18.0572C64.1964 17.5672 62.9764 15.8572 62.9764 15.8572C62.9764 15.8572 60.7664 14.1272 58.7964 14.3772C56.8364 14.6172 53.8864 15.3572 53.6364 14.3772C53.3964 13.3972 52.1664 12.6572 51.4264 11.4272C50.6864 10.1972 49.2164 9.4572 49.2164 9.4572V6.75719L46.2664 3.80721C46.2664 3.80721 46.2664 0.867193 44.7964 0.607193C44.4123 0.548858 44.0248 0.515448 43.6364 0.507187Z" fill="#D1DBDD" stroke="black"/>
</svg>
