<svg width="100" height="176" viewBox="0 0 100 176" fill="none" xmlns="http://www.w3.org/2000/svg">
<path d="M86.3924 0.501221L86.2925 0.5112C84.8125 0.7112 83.3925 3.29121 81.7925 3.27121C80.9698 3.19216 80.1796 2.91042 79.4925 2.4512C79.0225 2.9512 77.8425 1.41121 77.3425 1.86121C73.7025 5.26121 74.1125 1.3912 72.1025 1.1312C70.7225 1.3712 71.2625 2.95122 70.2425 3.09122C67.2725 3.49122 65.5925 1.64122 64.6025 3.03122C62.9725 5.33122 63.9925 2.59122 59.8025 3.87122C57.8825 4.47122 59.1825 4.49121 55.6025 3.65121C52.9625 3.03121 52.3024 4.73121 52.1924 5.61121C52.2524 5.68121 52.0625 5.31121 52.0525 5.24121L51.9925 5.06122L52.6725 8.28122C52.7725 8.33122 52.9524 10.1712 52.7024 11.5212L52.5925 12.3212L53.7624 13.1612L54.2425 15.0112L54.7225 18.2312C54.7225 18.2312 55.0225 19.9612 54.9025 20.2012L53.2325 23.6012L51.9825 25.4412L49.8324 26.8212L48.9325 26.9012C48.5625 27.1312 48.6125 27.4812 48.0925 28.4912C47.4925 29.6912 48.3325 31.6212 49.1625 32.0112C49.9925 32.4012 50.7025 33.2412 50.6625 33.6712C50.6225 34.1112 51.4624 36.4512 52.0824 37.2412C52.7224 38.0412 54.3824 38.6212 55.3324 39.1812C56.2824 39.7312 56.0824 41.1212 56.1324 41.6812C56.1624 42.2312 55.4125 42.7412 54.9025 43.2612C54.3825 43.7612 53.3525 43.3312 52.3625 43.4512C51.3725 43.5712 50.2624 44.4812 49.5624 45.4712C48.8424 46.4612 48.7225 48.2412 48.7225 50.2212C48.7225 52.2012 49.5924 52.3212 49.9524 53.7012C50.3124 55.0912 49.0824 55.4412 49.0824 56.7512C49.0824 58.0612 49.5125 57.5512 49.6825 58.2112C49.8325 58.8812 49.5524 59.2112 49.0024 59.8712C48.935 59.9572 48.8539 60.0315 48.7624 60.0912C48.919 60.0267 49.0567 59.9235 49.1625 59.7912C49.7125 59.1212 49.9824 58.8012 49.8224 58.1312C49.7024 57.6212 49.4225 57.7912 49.2925 57.3212C49.7665 57.1662 50.2717 57.1318 50.7624 57.2212C52.1424 57.5212 51.9624 58.1212 52.7024 58.8712C53.4424 59.6212 53.1525 59.9112 52.9225 61.4012C52.7025 62.9012 53.0425 62.6712 53.0425 63.5312C53.0425 64.3912 53.2225 68.6112 53.1825 69.1312C53.1525 69.6612 53.0824 70.4812 52.8124 71.3712C52.5524 72.2712 51.2124 74.9712 50.7124 75.6312C50.2324 76.3112 50.2325 76.6412 50.0525 77.9512C49.8861 78.9317 49.5583 79.8779 49.0824 80.7512C48.8524 81.1512 48.4024 81.4212 48.1424 82.4312C47.8824 83.4412 48.2925 83.5512 48.3725 84.1512C48.4525 84.7512 47.5724 84.9312 47.2124 84.8212C46.8324 84.7112 46.5425 85.2412 46.2825 85.7212C46.0042 86.2845 45.8346 86.8951 45.7825 87.5212C45.7825 87.8812 45.2725 88.0712 44.7825 88.5912C44.3025 89.1212 43.8125 89.1512 43.7425 89.6912C43.6625 90.2012 42.6225 90.8012 42.2425 90.6412C41.8725 90.4912 41.8325 88.9312 41.6825 88.4812C41.5325 88.0312 41.0124 88.8512 40.5624 89.7512C40.1124 90.6512 38.8425 90.2412 38.3625 90.9112C37.8825 91.5812 37.8025 93.3012 38.2825 94.5312C38.7625 95.7612 37.6125 95.8012 37.3525 95.7312C37.0825 95.6512 35.8525 95.0112 35.0325 95.6912C34.2125 96.3712 34.7725 96.3912 34.3625 97.1412C33.9525 97.8912 31.9324 98.3812 31.5624 98.2312C31.1924 98.0712 29.7324 97.9312 29.2524 98.5312C28.7524 99.1312 27.4125 100.211 27.4925 100.881C27.5725 101.551 26.8225 102.601 26.2925 102.861C25.7625 103.121 24.2424 102.181 23.4624 101.631C22.6624 101.071 21.1824 101.181 20.5124 101.251C19.8424 101.321 19.5425 101.811 18.6025 102.071C17.8386 102.365 17.1588 102.843 16.6225 103.461C16.4025 103.721 15.2424 103.941 14.9424 104.541C14.6424 105.141 15.1624 104.871 15.5724 105.471C15.9824 106.071 15.3524 106.851 15.0224 107.491C14.6824 108.121 12.4025 110.631 11.7325 110.811C11.0625 111.011 9.93247 110.481 9.42247 109.991C8.89247 109.491 7.32245 109.171 6.28245 109.091C5.23246 109.021 3.85246 111.221 3.22246 111.591C2.58246 111.971 1.61247 113.391 0.862472 114.511C0.112472 115.631 0.752465 117.911 0.792465 118.281C0.832465 118.651 1.16246 119.071 1.72246 119.291C2.28246 119.521 2.69243 118.361 3.44243 117.991C4.19243 117.611 4.14248 118.361 4.74248 119.851C5.34248 121.341 5.45244 121.051 6.58244 121.081C7.70244 121.121 7.81246 121.791 8.78246 122.761C9.75246 123.731 12.7024 124.031 14.3124 124.301C15.9124 124.561 15.7225 123.701 16.6125 123.281C17.5125 122.881 18.2125 123.101 19.1125 123.131C20.0125 123.171 20.2525 123.811 20.1725 124.441C20.0925 125.081 20.1725 125.561 20.4725 126.801C20.7725 128.041 20.3225 127.921 19.9125 128.481C19.4725 129.081 19.5825 129.921 20.1725 130.381C20.8025 130.871 22.1524 131.091 23.2724 131.431C24.3924 131.761 24.1725 131.321 24.4325 130.981C24.6925 130.641 25.5525 131.431 26.1525 131.881C26.7525 132.331 26.0724 132.631 25.7024 133.371C25.3224 134.121 25.1725 134.161 25.1025 135.571C25.0225 136.991 25.8825 136.431 26.7825 137.071C27.6825 137.701 27.2624 137.551 27.2624 138.641C27.2624 139.731 26.5225 139.571 25.9225 140.281C25.3225 140.991 26.1525 141.851 27.1525 141.621C28.1625 141.401 28.7625 141.851 28.9825 142.711C29.2125 143.571 28.5025 143.911 28.2425 144.351C27.9725 144.801 28.5725 146.071 29.6225 146.371C30.6725 146.671 30.5924 147.411 30.7024 148.681C30.8024 149.951 29.9525 149.951 29.5525 150.401C29.1325 150.851 29.4725 151.101 29.5525 151.781C29.5544 151.883 29.5409 151.984 29.5124 152.081L29.3924 152.001C29.3724 152.391 28.9825 152.441 28.5325 152.471L27.2825 153.401L27.5925 155.491L28.4125 156.311L30.7524 157.451L32.4524 157.701L33.4125 158.271L34.1125 158.771L35.1825 159.031L36.7024 161.241L37.5224 162.441V163.391L39.0325 163.331L40.2325 162.441L41.5624 162.191L43.2624 163.391L45.5425 164.721L47.5024 165.921L49.0824 166.741L51.8824 170.701C52.6758 170.654 53.4577 170.489 54.2024 170.211C56.2624 169.411 57.1524 169.471 56.5824 168.731C56.0524 168.071 56.6825 167.531 56.1225 166.331C57.5425 166.171 61.1224 165.761 61.0224 164.831C60.9224 163.761 60.0225 161.411 60.4725 160.401C60.9225 159.391 62.5325 158.101 63.3725 158.381C64.2125 158.661 65.9025 159.621 65.7925 160.231C65.6825 160.841 64.8925 162.361 65.2325 163.261C65.5725 164.161 66.5225 165.381 68.0325 164.541C69.5425 163.701 72.0725 165.171 73.3025 163.541C74.5325 161.911 76.3224 161.011 77.0024 159.781C77.6724 158.551 78.4025 158.161 79.3625 159.181C80.3125 160.181 84.0625 161.811 84.9025 161.301C85.7425 160.791 86.8125 160.301 87.1025 159.511C87.3825 158.721 87.1025 156.211 87.1525 155.191C87.2025 154.191 88.4325 152.891 88.0525 151.491C87.6525 150.091 86.8524 148.961 86.1324 147.341C85.4124 145.721 84.6825 145.161 84.6825 144.091C84.6825 143.021 84.8524 138.711 84.0024 137.471C83.1724 136.241 82.2824 136.911 82.0024 135.011C81.7224 133.111 82.6024 131.981 82.4424 130.811C82.2724 129.631 82.3825 128.061 82.0425 126.551C81.7125 125.041 80.0824 124.691 80.6424 123.451C81.2024 122.221 82.8825 121.671 82.9925 120.611C83.1025 119.541 82.7125 116.231 81.4225 116.061C80.1325 115.891 75.7625 115.281 75.9825 114.611C76.2125 113.941 77.2225 113.091 77.3425 112.531C77.4525 111.981 78.4024 107.551 76.4424 106.371C74.4824 105.191 71.9024 106.371 70.9424 103.401C70.0024 100.431 70.6725 99.1312 71.7425 97.7212C72.8025 96.3212 73.9225 96.4412 74.8725 94.7012C75.8225 92.9612 75.6625 92.2412 75.3725 90.6212C75.1025 88.9912 74.5424 85.4512 74.8224 84.7212C75.1024 83.9912 75.3224 82.6612 74.0224 82.2112C72.7424 81.7612 62.6025 82.3112 61.8725 80.6912C61.1425 79.0712 57.8925 75.6412 57.6725 73.8912C57.4425 72.1612 57.3724 69.8112 57.7724 69.3112C58.1624 68.8012 57.9425 68.3612 59.9725 68.1912C61.9725 68.0312 64.0525 67.7912 64.0525 66.6212C64.0525 65.4412 64.2724 62.3112 64.8924 61.1312C65.5124 59.9612 64.7825 59.2112 66.8525 58.9912C68.9225 58.7712 70.5524 57.6512 71.4524 57.4912C72.3424 57.3212 76.5525 57.7112 77.1125 57.6612C77.6825 57.6012 80.6924 56.3612 80.0224 53.7212C79.3524 51.0812 79.3625 49.3712 78.1825 49.0212C77.0025 48.6912 74.1424 48.7312 74.1424 47.3912C74.1424 46.0412 74.3725 43.9112 72.7425 43.9112C71.1125 43.9112 69.3825 44.7112 68.3725 44.5312C67.3725 44.3612 63.9525 42.8012 64.1225 41.8512C64.2925 40.9012 64.3825 40.2712 63.1525 39.6012C61.9225 38.9312 59.0125 36.7512 58.5525 36.4012C58.1125 36.0712 55.3624 34.6612 55.0824 34.3812C54.8024 34.1012 54.6424 34.0012 54.3124 34.3412C54.0824 34.5712 56.8924 31.8912 57.0624 30.0112C57.1324 29.1412 55.1625 28.3312 54.7325 28.2612C54.5025 28.2212 64.1024 21.0012 61.5124 23.4812C60.5424 24.4012 63.9725 23.3812 64.7225 21.3512C65.1525 20.2012 62.8725 18.4712 63.0525 17.2712C63.1325 16.7312 67.0725 25.2812 70.8025 27.2712C71.4625 27.6112 73.7725 28.1412 73.7225 27.1412C73.6825 26.1112 71.2825 23.5512 71.9025 22.7712C72.4625 22.0512 75.3325 24.0512 76.6025 24.0712C77.8725 24.0812 77.5424 22.1012 78.2624 22.1912C80.6324 22.4912 83.2925 29.1312 85.8525 30.4712C88.5725 31.8912 91.1524 30.7512 93.2524 31.1612C96.5524 31.8112 93.9124 26.3812 95.1324 27.6112C96.1324 28.6312 95.7925 25.4412 95.9325 23.6112C96.0025 22.5912 93.8125 20.5512 94.4325 20.2812C94.9725 20.0412 96.3324 19.9712 94.8124 18.4812C93.8924 17.5812 93.9925 15.8312 94.6625 16.1812C96.0825 16.9212 95.8824 14.2812 95.8824 14.0812C95.8424 12.8812 93.0124 11.8812 98.7024 12.7812C99.6024 12.9312 98.4724 12.1012 97.9524 10.5112C97.2724 8.4112 98.0525 5.24121 96.6225 4.83121C95.6025 4.55121 93.1425 4.9812 91.9225 4.2612C90.0325 3.1312 89.2225 0.7612 86.5925 0.5112L86.3924 0.501221ZM51.9624 4.8812C51.9824 4.8112 52.1025 4.98121 51.8625 4.46121L51.9624 4.8812ZM78.8425 162.601C78.2425 162.601 77.9424 162.771 78.7524 163.481C79.8592 164.364 81.1879 164.924 82.5925 165.101L82.3924 164.601C82.5924 164.201 81.3925 162.771 80.6825 162.771C80.3225 162.771 79.4325 162.601 78.8425 162.601ZM84.9025 162.671C84.2025 163.371 82.6024 163.181 84.0024 163.891C85.4224 164.591 86.1225 164.391 86.1225 164.391L86.2225 163.071L84.9025 162.671ZM77.3525 162.871C77.3525 162.871 75.9325 163.281 75.5325 163.781C75.2658 164.115 75.0324 164.455 74.8324 164.801H75.5325C77.6525 164.201 77.3525 162.871 77.3525 162.871ZM63.6225 163.571L62.6125 163.981C62.7125 165.501 63.3224 165.801 63.3224 165.801C63.3224 165.801 64.1224 165.901 64.0224 165.201C63.9269 164.653 63.7932 164.111 63.6225 163.581V163.571ZM78.5724 164.731C77.7924 165.391 77.0724 165.211 77.2524 166.941C77.4324 168.681 77.2424 168.091 78.0824 170.061C78.9224 172.031 78.8125 172.521 79.2325 173.161C79.6425 173.831 81.0324 175.571 81.3324 174.721C81.6324 173.891 81.8525 173.291 82.0325 172.281C82.2125 171.261 82.8124 171.081 82.5724 169.881C82.3324 168.681 82.0325 168.441 81.4925 167.011C80.9525 165.581 78.5724 164.731 78.5724 164.731ZM85.2024 165.101C85.2024 165.101 84.2625 165.501 83.1825 165.501C82.1025 165.501 82.2824 166.111 82.3324 167.011C82.3824 167.911 82.7525 168.391 83.4725 169.411C84.1925 170.431 84.0225 171.031 84.4925 171.911C84.9725 172.811 88.4925 173.171 89.2825 172.991C90.0625 172.811 90.3024 171.191 89.6424 169.571C88.9924 167.961 88.5025 169.461 87.7225 169.221C86.9425 168.981 86.7125 167.921 86.5925 166.771C86.4725 165.641 85.7524 165.341 85.2124 165.101H85.2024ZM72.3025 165.401L71.8025 165.901C70.7025 167.001 72.1024 167.721 72.8124 167.521C73.5124 167.321 75.0224 166.711 75.0224 166.711C75.0224 166.711 75.6224 166.001 74.8224 165.791C73.9955 165.626 73.1612 165.499 72.3224 165.411L72.3025 165.401ZM55.8324 165.781L55.8924 165.871L55.9925 166.071L55.8824 165.881L55.8324 165.781ZM67.6324 166.171C67.2315 166.155 66.8303 166.198 66.4424 166.301C65.6424 166.601 64.3424 167.311 64.6424 167.311C67.5624 168.111 67.5624 168.021 67.5624 168.021C67.5624 168.021 69.5925 167.921 69.4825 167.221C69.3725 166.521 69.7824 166.301 69.3824 166.301C69.1324 166.301 68.3624 166.181 67.6324 166.171ZM62.4925 166.501C62.3325 166.491 62.1425 166.601 61.8725 166.941C60.7925 168.321 61.0325 169.161 60.4325 170.111C59.8325 171.071 58.7525 170.601 59.5925 171.741C60.4325 172.871 61.3924 173.241 61.3924 173.241C61.3924 173.241 61.8124 174.541 62.6424 173.291C63.4724 172.041 64.7424 171.801 64.2724 170.611C63.8024 169.421 63.9025 168.931 63.4225 168.331C63.0625 167.881 62.9725 166.551 62.4925 166.501ZM73.7225 167.481C73.3025 168.741 73.4825 167.481 73.1825 169.031C72.8825 170.591 73.2424 170.411 73.0024 171.671C72.7624 172.931 72.9425 173.601 73.4225 174.021C73.9025 174.431 72.9424 175.321 74.0824 174.621C75.2124 173.891 75.3224 174.121 75.4424 172.451C75.5624 170.781 75.8224 171.491 75.5824 169.691C75.5135 169.185 75.3021 168.708 74.9728 168.317C74.6435 167.925 74.2099 167.636 73.7225 167.481ZM70.5525 167.671C70.0725 168.391 70.0625 167.731 69.5925 168.981C69.1125 170.241 68.5725 170.231 69.1125 171.431C69.6525 172.631 68.4524 173.581 69.7124 173.101C70.9624 172.621 71.3124 172.391 71.5624 171.671C71.8024 170.951 72.2825 171.321 71.9225 170.071C71.6689 169.245 71.3092 168.455 70.8525 167.721L70.5525 167.671ZM66.2225 169.271L66.0525 169.291C65.5725 169.331 64.8124 169.461 64.8124 169.461C64.8724 170.061 65.1625 170.791 65.0425 171.921C64.9225 173.061 65.1124 173.891 65.5824 174.311C66.0624 174.721 67.9125 174.551 68.0325 174.251C68.1525 173.951 68.5824 173.841 68.3324 172.821C68.1024 171.801 68.2125 172.221 67.7325 171.021C67.2525 169.821 66.6525 169.351 66.4125 169.291L66.2124 169.281L66.2225 169.271Z" fill="#D1DBDD"/>
<path d="M51.9925 5.06122L52.0525 5.24121C52.0625 5.31121 52.2524 5.68121 52.1924 5.61121C52.3024 4.73121 52.9625 3.03121 55.6025 3.65121C59.1825 4.49121 57.8825 4.47122 59.8025 3.87122C63.9925 2.59122 62.9725 5.33122 64.6025 3.03122C65.5925 1.64122 67.2725 3.49122 70.2425 3.09122C71.2625 2.95122 70.7225 1.3712 72.1025 1.1312C74.1125 1.3912 73.7025 5.26121 77.3425 1.86121C77.8425 1.41121 79.0225 2.9512 79.4925 2.4512C80.1796 2.91042 80.9698 3.19216 81.7925 3.27121C83.3925 3.29121 84.8125 0.7112 86.2925 0.5112L86.3924 0.501221L86.5925 0.5112C89.2225 0.7612 90.0325 3.1312 91.9225 4.2612C93.1425 4.9812 95.6025 4.55121 96.6225 4.83121C98.0525 5.24121 97.2724 8.4112 97.9524 10.5112C98.4724 12.1012 99.6024 12.9312 98.7024 12.7812C93.0124 11.8812 95.8424 12.8812 95.8824 14.0812C95.8824 14.2812 96.0825 16.9212 94.6625 16.1812C93.9925 15.8312 93.8924 17.5812 94.8124 18.4812C96.3324 19.9712 94.9725 20.0412 94.4325 20.2812C93.8125 20.5512 96.0025 22.5912 95.9325 23.6112C95.7925 25.4412 96.1324 28.6312 95.1324 27.6112C93.9124 26.3812 96.5524 31.8112 93.2524 31.1612C91.1524 30.7512 88.5725 31.8912 85.8525 30.4712C83.2925 29.1312 80.6324 22.4912 78.2624 22.1912C77.5424 22.1012 77.8725 24.0812 76.6025 24.0712C75.3325 24.0512 72.4625 22.0512 71.9025 22.7712C71.2825 23.5512 73.6825 26.1112 73.7225 27.1412C73.7725 28.1412 71.4625 27.6112 70.8025 27.2712C67.0725 25.2812 63.1325 16.7312 63.0525 17.2712C62.8725 18.4712 65.1525 20.2012 64.7225 21.3512C63.9725 23.3812 60.5424 24.4012 61.5124 23.4812C64.1024 21.0012 54.5025 28.2212 54.7325 28.2612C55.1625 28.3312 57.1324 29.1412 57.0624 30.0112C56.8924 31.8912 54.0824 34.5712 54.3124 34.3412C54.6424 34.0012 54.8024 34.1012 55.0824 34.3812C55.3624 34.6612 58.1125 36.0712 58.5525 36.4012C59.0125 36.7512 61.9225 38.9312 63.1525 39.6012C64.3825 40.2712 64.2925 40.9012 64.1225 41.8512C63.9525 42.8012 67.3725 44.3612 68.3725 44.5312C69.3825 44.7112 71.1125 43.9112 72.7425 43.9112C74.3725 43.9112 74.1424 46.0412 74.1424 47.3912C74.1424 48.7312 77.0025 48.6912 78.1825 49.0212C79.3625 49.3712 79.3524 51.0812 80.0224 53.7212C80.6924 56.3612 77.6825 57.6012 77.1125 57.6612C76.5525 57.7112 72.3424 57.3212 71.4524 57.4912C70.5524 57.6512 68.9225 58.7712 66.8525 58.9912C64.7825 59.2112 65.5124 59.9612 64.8924 61.1312C64.2724 62.3112 64.0525 65.4412 64.0525 66.6212C64.0525 67.7912 61.9725 68.0312 59.9725 68.1912C57.9425 68.3612 58.1624 68.8012 57.7724 69.3112C57.3724 69.8112 57.4425 72.1612 57.6725 73.8912C57.8925 75.6412 61.1425 79.0712 61.8725 80.6912C62.6025 82.3112 72.7424 81.7612 74.0224 82.2112C75.3224 82.6612 75.1024 83.9912 74.8224 84.7212C74.5424 85.4512 75.1025 88.9912 75.3725 90.6212C75.6625 92.2412 75.8225 92.9612 74.8725 94.7012C73.9225 96.4412 72.8025 96.3212 71.7425 97.7212C70.6725 99.1312 70.0024 100.431 70.9424 103.401C71.9024 106.371 74.4824 105.191 76.4424 106.371C78.4024 107.551 77.4525 111.981 77.3425 112.531C77.2225 113.091 76.2125 113.941 75.9825 114.611C75.7625 115.281 80.1325 115.891 81.4225 116.061C82.7125 116.231 83.1025 119.541 82.9925 120.611C82.8825 121.671 81.2024 122.221 80.6424 123.451C80.0824 124.691 81.7125 125.041 82.0425 126.551C82.3825 128.061 82.2724 129.631 82.4424 130.811C82.6024 131.981 81.7224 133.111 82.0024 135.011C82.2824 136.911 83.1724 136.241 84.0024 137.471C84.8524 138.711 84.6825 143.021 84.6825 144.091C84.6825 145.161 85.4124 145.721 86.1324 147.341C86.8524 148.961 87.6525 150.091 88.0525 151.491C88.4325 152.891 87.2025 154.191 87.1525 155.191C87.1025 156.211 87.3825 158.721 87.1025 159.511C86.8125 160.301 85.7425 160.791 84.9025 161.301C84.0625 161.811 80.3125 160.181 79.3625 159.181C78.4025 158.161 77.6724 158.551 77.0024 159.781C76.3224 161.011 74.5325 161.911 73.3025 163.541C72.0725 165.171 69.5425 163.701 68.0325 164.541C66.5225 165.381 65.5725 164.161 65.2325 163.261C64.8925 162.361 65.6825 160.841 65.7925 160.231C65.9025 159.621 64.2125 158.661 63.3725 158.381C62.5325 158.101 60.9225 159.391 60.4725 160.401C60.0225 161.411 60.9224 163.761 61.0224 164.831C61.1224 165.761 57.5425 166.171 56.1225 166.331C56.6825 167.531 56.0524 168.071 56.5824 168.731C57.1524 169.471 56.2624 169.411 54.2024 170.211C53.4577 170.489 52.6758 170.654 51.8824 170.701L49.0824 166.741L47.5024 165.921L45.5425 164.721L43.2624 163.391L41.5624 162.191L40.2325 162.441L39.0325 163.331L37.5224 163.391V162.441L36.7024 161.241L35.1825 159.031L34.1125 158.771L33.4125 158.271L32.4524 157.701L30.7524 157.451L28.4125 156.311L27.5925 155.491L27.2825 153.401L28.5325 152.471C28.9825 152.441 29.3724 152.391 29.3924 152.001L29.5124 152.081C29.5409 151.984 29.5544 151.883 29.5525 151.781C29.4725 151.101 29.1325 150.851 29.5525 150.401C29.9525 149.951 30.8024 149.951 30.7024 148.681C30.5924 147.411 30.6725 146.671 29.6225 146.371C28.5725 146.071 27.9725 144.801 28.2425 144.351C28.5025 143.911 29.2125 143.571 28.9825 142.711C28.7625 141.851 28.1625 141.401 27.1525 141.621C26.1525 141.851 25.3225 140.991 25.9225 140.281C26.5225 139.571 27.2624 139.731 27.2624 138.641C27.2624 137.551 27.6825 137.701 26.7825 137.071C25.8825 136.431 25.0225 136.991 25.1025 135.571C25.1725 134.161 25.3224 134.121 25.7024 133.371C26.0724 132.631 26.7525 132.331 26.1525 131.881C25.5525 131.431 24.6925 130.641 24.4325 130.981C24.1725 131.321 24.3924 131.761 23.2724 131.431C22.1524 131.091 20.8025 130.871 20.1725 130.381C19.5825 129.921 19.4725 129.081 19.9125 128.481C20.3225 127.921 20.7725 128.041 20.4725 126.801C20.1725 125.561 20.0925 125.081 20.1725 124.441C20.2525 123.811 20.0125 123.171 19.1125 123.131C18.2125 123.101 17.5125 122.881 16.6125 123.281C15.7225 123.701 15.9124 124.561 14.3124 124.301C12.7024 124.031 9.75246 123.731 8.78246 122.761C7.81246 121.791 7.70244 121.121 6.58244 121.081C5.45244 121.051 5.34248 121.341 4.74248 119.851C4.14248 118.361 4.19243 117.611 3.44243 117.991C2.69243 118.361 2.28246 119.521 1.72246 119.291C1.16246 119.071 0.832465 118.651 0.792465 118.281C0.752465 117.911 0.112472 115.631 0.862472 114.511C1.61247 113.391 2.58246 111.971 3.22246 111.591C3.85246 111.221 5.23246 109.021 6.28245 109.091C7.32245 109.171 8.89247 109.491 9.42247 109.991C9.93247 110.481 11.0625 111.011 11.7325 110.811C12.4025 110.631 14.6824 108.121 15.0224 107.491C15.3524 106.851 15.9824 106.071 15.5724 105.471C15.1624 104.871 14.6424 105.141 14.9424 104.541C15.2424 103.941 16.4025 103.721 16.6225 103.461C17.1588 102.843 17.8386 102.365 18.6025 102.071C19.5425 101.811 19.8424 101.321 20.5124 101.251C21.1824 101.181 22.6624 101.071 23.4624 101.631C24.2424 102.181 25.7625 103.121 26.2925 102.861C26.8225 102.601 27.5725 101.551 27.4925 100.881C27.4125 100.211 28.7524 99.1312 29.2524 98.5312C29.7324 97.9312 31.1924 98.0712 31.5624 98.2312C31.9324 98.3812 33.9525 97.8912 34.3625 97.1412C34.7725 96.3912 34.2125 96.3712 35.0325 95.6912C35.8525 95.0112 37.0825 95.6512 37.3525 95.7312C37.6125 95.8012 38.7625 95.7612 38.2825 94.5312C37.8025 93.3012 37.8825 91.5812 38.3625 90.9112C38.8425 90.2412 40.1124 90.6512 40.5624 89.7512C41.0124 88.8512 41.5325 88.0312 41.6825 88.4812C41.8325 88.9312 41.8725 90.4912 42.2425 90.6412C42.6225 90.8012 43.6625 90.2012 43.7425 89.6912C43.8125 89.1512 44.3025 89.1212 44.7825 88.5912C45.2725 88.0712 45.7825 87.8812 45.7825 87.5212C45.8346 86.8951 46.0042 86.2845 46.2825 85.7212C46.5425 85.2412 46.8324 84.7112 47.2124 84.8212C47.5724 84.9312 48.4525 84.7512 48.3725 84.1512C48.2925 83.5512 47.8824 83.4412 48.1424 82.4312C48.4024 81.4212 48.8524 81.1512 49.0824 80.7512C49.5583 79.8779 49.8861 78.9317 50.0525 77.9512C50.2325 76.6412 50.2324 76.3112 50.7124 75.6312C51.2124 74.9712 52.5524 72.2712 52.8124 71.3712C53.0824 70.4812 53.1525 69.6612 53.1825 69.1312C53.2225 68.6112 53.0425 64.3912 53.0425 63.5312C53.0425 62.6712 52.7025 62.9012 52.9225 61.4012C53.1525 59.9112 53.4424 59.6212 52.7024 58.8712C51.9624 58.1212 52.1424 57.5212 50.7624 57.2212C50.2717 57.1318 49.7665 57.1662 49.2925 57.3212C49.4225 57.7912 49.7024 57.6212 49.8224 58.1312C49.9824 58.8012 49.7125 59.1212 49.1625 59.7912C49.0567 59.9235 48.919 60.0267 48.7624 60.0912C48.8539 60.0315 48.935 59.9572 49.0024 59.8712C49.5524 59.2112 49.8325 58.8812 49.6825 58.2112C49.5125 57.5512 49.0824 58.0612 49.0824 56.7512C49.0824 55.4412 50.3124 55.0912 49.9524 53.7012C49.5924 52.3212 48.7225 52.2012 48.7225 50.2212C48.7225 48.2412 48.8424 46.4612 49.5624 45.4712C50.2624 44.4812 51.3725 43.5712 52.3625 43.4512C53.3525 43.3312 54.3825 43.7612 54.9025 43.2612C55.4125 42.7412 56.1624 42.2312 56.1324 41.6812C56.0824 41.1212 56.2824 39.7312 55.3324 39.1812C54.3824 38.6212 52.7224 38.0412 52.0824 37.2412C51.4624 36.4512 50.6225 34.1112 50.6625 33.6712C50.7025 33.2412 49.9925 32.4012 49.1625 32.0112C48.3325 31.6212 47.4925 29.6912 48.0925 28.4912C48.6125 27.4812 48.5625 27.1312 48.9325 26.9012L49.8324 26.8212L51.9825 25.4412L53.2325 23.6012L54.9025 20.2012C55.0225 19.9612 54.7225 18.2312 54.7225 18.2312L54.2425 15.0112L53.7624 13.1612L52.5925 12.3212L52.7024 11.5212C52.9524 10.1712 52.7725 8.33122 52.6725 8.28122L51.9925 5.06122ZM51.9925 5.06122L51.9624 4.8812M51.9624 4.8812C51.9824 4.8112 52.1025 4.98121 51.8625 4.46121L51.9624 4.8812ZM78.8425 162.601C78.2425 162.601 77.9424 162.771 78.7524 163.481C79.8592 164.364 81.1879 164.924 82.5925 165.101L82.3924 164.601C82.5924 164.201 81.3925 162.771 80.6825 162.771C80.3225 162.771 79.4325 162.601 78.8425 162.601ZM84.9025 162.671C84.2025 163.371 82.6024 163.181 84.0024 163.891C85.4224 164.591 86.1225 164.391 86.1225 164.391L86.2225 163.071L84.9025 162.671ZM77.3525 162.871C77.3525 162.871 75.9325 163.281 75.5325 163.781C75.2658 164.115 75.0324 164.455 74.8324 164.801H75.5325C77.6525 164.201 77.3525 162.871 77.3525 162.871ZM63.6225 163.571L62.6125 163.981C62.7125 165.501 63.3224 165.801 63.3224 165.801C63.3224 165.801 64.1224 165.901 64.0224 165.201C63.9269 164.653 63.7932 164.111 63.6225 163.581V163.571ZM78.5724 164.731C77.7924 165.391 77.0724 165.211 77.2524 166.941C77.4324 168.681 77.2424 168.091 78.0824 170.061C78.9224 172.031 78.8125 172.521 79.2325 173.161C79.6425 173.831 81.0324 175.571 81.3324 174.721C81.6324 173.891 81.8525 173.291 82.0325 172.281C82.2125 171.261 82.8124 171.081 82.5724 169.881C82.3324 168.681 82.0325 168.441 81.4925 167.011C80.9525 165.581 78.5724 164.731 78.5724 164.731ZM85.2024 165.101C85.2024 165.101 84.2625 165.501 83.1825 165.501C82.1025 165.501 82.2824 166.111 82.3324 167.011C82.3824 167.911 82.7525 168.391 83.4725 169.411C84.1925 170.431 84.0225 171.031 84.4925 171.911C84.9725 172.811 88.4925 173.171 89.2825 172.991C90.0625 172.811 90.3024 171.191 89.6424 169.571C88.9924 167.961 88.5025 169.461 87.7225 169.221C86.9425 168.981 86.7125 167.921 86.5925 166.771C86.4725 165.641 85.7524 165.341 85.2124 165.101H85.2024ZM72.3025 165.401L71.8025 165.901C70.7025 167.001 72.1024 167.721 72.8124 167.521C73.5124 167.321 75.0224 166.711 75.0224 166.711C75.0224 166.711 75.6224 166.001 74.8224 165.791C73.9955 165.626 73.1612 165.499 72.3224 165.411L72.3025 165.401ZM55.8324 165.781L55.8924 165.871L55.9925 166.071L55.8824 165.881L55.8324 165.781ZM67.6324 166.171C67.2315 166.155 66.8303 166.198 66.4424 166.301C65.6424 166.601 64.3424 167.311 64.6424 167.311C67.5624 168.111 67.5624 168.021 67.5624 168.021C67.5624 168.021 69.5925 167.921 69.4825 167.221C69.3725 166.521 69.7824 166.301 69.3824 166.301C69.1324 166.301 68.3624 166.181 67.6324 166.171ZM62.4925 166.501C62.3325 166.491 62.1425 166.601 61.8725 166.941C60.7925 168.321 61.0325 169.161 60.4325 170.111C59.8325 171.071 58.7525 170.601 59.5925 171.741C60.4325 172.871 61.3924 173.241 61.3924 173.241C61.3924 173.241 61.8124 174.541 62.6424 173.291C63.4724 172.041 64.7424 171.801 64.2724 170.611C63.8024 169.421 63.9025 168.931 63.4225 168.331C63.0625 167.881 62.9725 166.551 62.4925 166.501ZM73.7225 167.481C73.3025 168.741 73.4825 167.481 73.1825 169.031C72.8825 170.591 73.2424 170.411 73.0024 171.671C72.7624 172.931 72.9425 173.601 73.4225 174.021C73.9025 174.431 72.9424 175.321 74.0824 174.621C75.2124 173.891 75.3224 174.121 75.4424 172.451C75.5624 170.781 75.8224 171.491 75.5824 169.691C75.5135 169.185 75.3021 168.708 74.9728 168.317C74.6435 167.925 74.2099 167.636 73.7225 167.481ZM70.5525 167.671C70.0725 168.391 70.0625 167.731 69.5925 168.981C69.1125 170.241 68.5725 170.231 69.1125 171.431C69.6525 172.631 68.4524 173.581 69.7124 173.101C70.9624 172.621 71.3124 172.391 71.5624 171.671C71.8024 170.951 72.2825 171.321 71.9225 170.071C71.6689 169.245 71.3092 168.455 70.8525 167.721L70.5525 167.671ZM66.2225 169.271L66.0525 169.291C65.5725 169.331 64.8124 169.461 64.8124 169.461C64.8724 170.061 65.1625 170.791 65.0425 171.921C64.9225 173.061 65.1124 173.891 65.5824 174.311C66.0624 174.721 67.9125 174.551 68.0325 174.251C68.1525 173.951 68.5824 173.841 68.3324 172.821C68.1024 171.801 68.2125 172.221 67.7325 171.021C67.2525 169.821 66.6525 169.351 66.4125 169.291L66.2124 169.281L66.2225 169.271Z" stroke="black"/>
</svg>
